<?xml version="1.0" encoding="UTF-8"?>
<svg width="462px" height="402px" viewBox="0 0 462 402" version="1.1" xmlns="http://www.w3.org/2000/svg" xmlns:xlink="http://www.w3.org/1999/xlink">
    <!-- Generator: Sketch 49.1 (51147) - http://www.bohemiancoding.com/sketch -->
    <title>3screenshots</title>
    <desc>Created with Sketch.</desc>
    <defs>
        <rect id="path-1" x="0" y="0" width="236" height="136"></rect>
        <filter x="-19.2%" y="-18.6%" width="129.9%" height="151.8%" filterUnits="objectBoundingBox" id="filter-2">
            <feMorphology radius="0.25" operator="dilate" in="SourceAlpha" result="shadowSpreadOuter1"></feMorphology>
            <feOffset dx="-10" dy="10" in="shadowSpreadOuter1" result="shadowOffsetOuter1"></feOffset>
            <feGaussianBlur stdDeviation="10" in="shadowOffsetOuter1" result="shadowBlurOuter1"></feGaussianBlur>
            <feComposite in="shadowBlurOuter1" in2="SourceAlpha" operator="out" result="shadowBlurOuter1"></feComposite>
            <feColorMatrix values="0 0 0 0 0.117647059   0 0 0 0 0.117647059   0 0 0 0 0.117647059  0 0 0 0.05 0" type="matrix" in="shadowBlurOuter1"></feColorMatrix>
        </filter>
        <rect id="path-3" x="0" y="0" width="236" height="136"></rect>
        <filter x="-19.2%" y="-18.6%" width="129.9%" height="151.8%" filterUnits="objectBoundingBox" id="filter-4">
            <feMorphology radius="0.25" operator="dilate" in="SourceAlpha" result="shadowSpreadOuter1"></feMorphology>
            <feOffset dx="-10" dy="10" in="shadowSpreadOuter1" result="shadowOffsetOuter1"></feOffset>
            <feGaussianBlur stdDeviation="10" in="shadowOffsetOuter1" result="shadowBlurOuter1"></feGaussianBlur>
            <feComposite in="shadowBlurOuter1" in2="SourceAlpha" operator="out" result="shadowBlurOuter1"></feComposite>
            <feColorMatrix values="0 0 0 0 0.117647059   0 0 0 0 0.117647059   0 0 0 0 0.117647059  0 0 0 0.05 0" type="matrix" in="shadowBlurOuter1"></feColorMatrix>
        </filter>
        <rect id="path-5" x="0" y="0" width="236" height="136"></rect>
        <filter x="-19.2%" y="-18.6%" width="129.9%" height="151.8%" filterUnits="objectBoundingBox" id="filter-6">
            <feMorphology radius="0.25" operator="dilate" in="SourceAlpha" result="shadowSpreadOuter1"></feMorphology>
            <feOffset dx="-10" dy="10" in="shadowSpreadOuter1" result="shadowOffsetOuter1"></feOffset>
            <feGaussianBlur stdDeviation="10" in="shadowOffsetOuter1" result="shadowBlurOuter1"></feGaussianBlur>
            <feComposite in="shadowBlurOuter1" in2="SourceAlpha" operator="out" result="shadowBlurOuter1"></feComposite>
            <feColorMatrix values="0 0 0 0 0.117647059   0 0 0 0 0.117647059   0 0 0 0 0.117647059  0 0 0 0.05 0" type="matrix" in="shadowBlurOuter1"></feColorMatrix>
        </filter>
    </defs>
    <g id="Symbols" stroke="none" stroke-width="1" fill="none" fill-rule="evenodd">
        <g id="Artboard-2"></g>
        <g id="cards/buyer/PO-Loaded-Copy" transform="translate(17.000000, 178.000000)">
            <g id="Group">
                <g id="card">
                    <use fill="black" fill-opacity="1" filter="url(#filter-2)" xlink:href="#path-1"></use>
                    <use stroke="#E8E9E9" stroke-width="0.5" fill="#FFFFFF" fill-rule="evenodd" xlink:href="#path-1"></use>
                </g>
                <path d="M34.784,73.476 C38.32,69.836 40.608,66.04 40.608,63.388 C40.608,59.176 37.176,56.628 31.612,56.628 C27.972,56.628 24.072,58.292 21.16,61.1 L20.068,59.384 C23.24,56.316 27.608,54.496 31.82,54.496 C38.58,54.496 42.844,57.824 42.844,63.18 C42.844,66.456 40.244,70.668 36.24,74.828 L22.72,88.816 L45.444,88.816 L45.444,91 L20.12,91 L20.172,88.764 L34.784,73.476 Z M50.176,54.6 L76.28,54.6 L76.28,56.732 L59.068,91 L56.728,91 L74.044,56.732 L52.204,56.732 L52.204,62.4 L50.176,62.4 L50.176,54.6 Z M83.352,54.6 L94.792,54.6 L94.792,91 L92.66,91 L92.66,56.732 L83.352,56.732 L83.352,54.6 Z" id="271" fill="#161718"></path>
                <path d="M25.124,104.214 C27.532,104.214 28.89,105.39 28.89,107.434 C28.89,109.534 27.532,110.738 25.124,110.738 L22.268,110.738 L22.268,114 L21.68,114 L21.68,104.214 L25.124,104.214 Z M25.11,110.164 C27.154,110.164 28.33,109.198 28.33,107.448 C28.33,105.726 27.154,104.788 25.11,104.788 L22.268,104.788 L22.268,110.164 L25.11,110.164 Z M30.556,113.104 C30.822,113.104 31.046,113.314 31.046,113.594 C31.046,113.888 30.822,114.112 30.556,114.112 C30.29,114.112 30.08,113.888 30.08,113.594 C30.08,113.314 30.29,113.104 30.556,113.104 Z M37.542,104.2 C40.342,104.2 42.61,106.384 42.61,109.1 C42.61,111.816 40.342,114.014 37.542,114.014 C34.742,114.014 32.474,111.816 32.474,109.1 C32.474,106.384 34.742,104.2 37.542,104.2 Z M37.542,104.774 C35.092,104.774 33.076,106.706 33.076,109.1 C33.076,111.494 35.092,113.44 37.542,113.44 C39.992,113.44 42.008,111.494 42.008,109.1 C42.008,106.706 39.992,104.774 37.542,104.774 Z M44.514,113.104 C44.78,113.104 45.004,113.314 45.004,113.594 C45.004,113.888 44.78,114.112 44.514,114.112 C44.248,114.112 44.038,113.888 44.038,113.594 C44.038,113.314 44.248,113.104 44.514,113.104 Z M47.076,104.2 C47.328,104.2 47.552,104.41 47.552,104.704 C47.552,104.872 47.482,104.998 47.384,105.152 L46.866,105.95 L46.474,105.95 L46.866,105.152 C46.684,105.068 46.6,104.9 46.6,104.704 C46.6,104.41 46.81,104.2 47.076,104.2 Z M53.32,107.742 C52.816,107.42 52.172,107.224 51.472,107.224 C50.45,107.224 49.652,107.616 49.652,108.484 C49.652,110.444 53.908,109.478 53.908,112.054 C53.908,113.412 52.69,114.014 51.374,114.014 C50.352,114.014 49.372,113.65 48.7,113.006 L48.966,112.558 C49.596,113.146 50.478,113.482 51.402,113.482 C52.424,113.482 53.306,113.076 53.348,112.152 C53.404,110.094 49.092,111.032 49.092,108.526 C49.092,107.252 50.198,106.692 51.486,106.692 C52.298,106.692 52.998,106.916 53.572,107.266 L53.32,107.742 Z M60.306,104.214 L60.894,104.214 L60.894,113.426 L65.248,113.426 L65.248,114 L60.306,114 L60.306,104.214 Z M69.91,106.692 C71.996,106.692 73.508,108.204 73.508,110.346 C73.508,112.502 71.996,114.014 69.91,114.014 C67.838,114.014 66.312,112.502 66.312,110.346 C66.312,108.204 67.838,106.692 69.91,106.692 Z M69.91,107.252 C68.16,107.252 66.886,108.526 66.886,110.346 C66.886,112.194 68.16,113.468 69.91,113.468 C71.674,113.468 72.934,112.194 72.934,110.346 C72.934,108.526 71.674,107.252 69.91,107.252 Z M80.9,114 L80.326,114 L80.312,112.558 C79.696,113.566 78.66,114.014 77.4,114.014 C75.958,114.014 74.992,113.104 74.992,111.872 C74.992,110.654 76.028,109.912 77.708,109.912 L80.298,109.912 L80.298,109.198 C80.284,107.966 79.57,107.224 78.114,107.224 C77.204,107.224 76.434,107.588 75.664,108.176 L75.384,107.728 C76.252,107.098 77.092,106.692 78.198,106.692 C79.92,106.692 80.858,107.644 80.872,109.156 L80.9,114 Z M77.484,113.482 C78.842,113.482 79.864,112.894 80.312,111.62 L80.312,110.43 L77.764,110.43 C76.336,110.43 75.552,110.92 75.552,111.858 C75.552,112.824 76.294,113.482 77.484,113.482 Z M89.454,103.612 L90.042,103.612 L90.042,114 L89.454,114 L89.454,112.096 C88.908,113.3 87.774,114.042 86.346,114.042 C84.274,114.042 82.79,112.502 82.79,110.36 C82.79,108.204 84.274,106.664 86.332,106.664 C87.774,106.664 88.908,107.406 89.454,108.61 L89.454,103.612 Z M86.416,113.496 C88.18,113.496 89.454,112.18 89.454,110.36 C89.454,108.54 88.18,107.224 86.416,107.224 C84.652,107.224 83.378,108.554 83.364,110.36 C83.378,112.18 84.638,113.496 86.416,113.496 Z M95.796,106.692 C97.938,106.692 99.226,108.26 99.184,110.514 L92.814,110.514 C92.898,112.292 94.13,113.482 95.824,113.482 C96.818,113.482 97.7,113.118 98.288,112.474 L98.624,112.852 C97.952,113.58 96.958,114.014 95.796,114.014 C93.738,114.014 92.24,112.502 92.24,110.36 C92.24,108.218 93.738,106.692 95.796,106.692 Z M92.828,109.996 L98.652,109.996 C98.54,108.344 97.462,107.224 95.796,107.224 C94.158,107.224 92.968,108.344 92.828,109.996 Z M107.15,103.612 L107.738,103.612 L107.738,114 L107.15,114 L107.15,112.096 C106.604,113.3 105.47,114.042 104.042,114.042 C101.97,114.042 100.486,112.502 100.486,110.36 C100.486,108.204 101.97,106.664 104.028,106.664 C105.47,106.664 106.604,107.406 107.15,108.61 L107.15,103.612 Z M104.112,113.496 C105.876,113.496 107.15,112.18 107.15,110.36 C107.15,108.54 105.876,107.224 104.112,107.224 C102.348,107.224 101.074,108.554 101.06,110.36 C101.074,112.18 102.334,113.496 104.112,113.496 Z" id="P.O.’s-Loaded" fill="#767676"></path>
                <path d="M120.746,109.788 L120.746,110.472 L118.574,110.472 L118.574,112.632 L117.926,112.632 L117.926,110.472 L115.742,110.472 L115.742,109.788 L117.926,109.788 L117.926,107.616 L118.574,107.616 L118.574,109.788 L120.746,109.788 Z M124.838,105.588 L125.786,105.588 L122.702,110.88 L125.894,110.88 L125.894,108.636 L126.794,108.636 L126.794,110.88 L128.114,110.88 L128.114,111.768 L126.794,111.768 L126.794,114 L125.894,114 L125.894,111.768 L121.682,111.768 L121.682,111 L124.838,105.588 Z M129.794,112.872 C130.118,112.872 130.37,113.136 130.37,113.484 C130.37,113.832 130.118,114.096 129.794,114.096 C129.458,114.096 129.206,113.832 129.206,113.484 C129.206,113.136 129.458,112.872 129.794,112.872 Z M134.942,109.812 C135.674,109.068 136.154,108.288 136.154,107.736 C136.154,106.908 135.482,106.416 134.378,106.416 C133.586,106.416 132.686,106.812 131.99,107.448 L131.57,106.716 C132.41,105.996 133.466,105.552 134.498,105.552 C136.094,105.552 137.15,106.356 137.15,107.616 C137.15,108.408 136.526,109.38 135.602,110.34 L132.878,113.112 L137.654,113.112 L137.654,114 L131.654,114 L131.654,113.22 L134.942,109.812 Z M141.038,105.564 C142.382,105.564 143.186,106.5 143.186,108.072 C143.186,109.656 142.382,110.568 141.038,110.568 C139.694,110.568 138.902,109.656 138.902,108.072 C138.902,106.5 139.694,105.564 141.038,105.564 Z M146.654,105.6 L147.578,105.6 L141.302,114 L140.366,114 L146.654,105.6 Z M141.038,106.152 C140.09,106.152 139.562,106.848 139.562,108.072 C139.562,109.296 140.09,109.98 141.038,109.98 C141.986,109.98 142.514,109.296 142.514,108.072 C142.514,106.848 141.986,106.152 141.038,106.152 Z M147.038,109.032 C148.382,109.032 149.186,109.968 149.186,111.54 C149.186,113.124 148.382,114.036 147.038,114.036 C145.694,114.036 144.902,113.124 144.902,111.54 C144.902,109.968 145.694,109.032 147.038,109.032 Z M147.038,109.62 C146.09,109.62 145.562,110.316 145.562,111.54 C145.562,112.764 146.09,113.448 147.038,113.448 C147.986,113.448 148.514,112.764 148.514,111.54 C148.514,110.316 147.986,109.62 147.038,109.62 Z" id="+4.2%" fill="#7ED321"></path>
                <path d="M27.042,22.224 C28.878,22.26 30.102,23.076 30.102,24.444 C30.102,25.968 28.878,27.012 26.922,27.012 C25.926,27.012 24.906,26.712 24.174,26.256 L24.426,25.824 C25.086,26.268 26.01,26.544 26.91,26.544 C28.602,26.544 29.61,25.692 29.61,24.492 C29.61,23.268 28.578,22.632 26.874,22.632 L25.878,22.632 L25.878,22.272 L29.01,19.104 L24.558,19.104 L24.558,18.6 L29.658,18.6 L29.658,18.984 L26.478,22.224 L27.042,22.224 Z M34.878,18.588 C36.858,18.588 37.938,20.088 37.938,22.788 C37.938,25.512 36.858,27.012 34.878,27.012 C32.91,27.012 31.83,25.512 31.83,22.788 C31.83,20.088 32.91,18.588 34.878,18.588 Z M34.878,19.044 C33.222,19.044 32.322,20.352 32.322,22.788 C32.322,25.236 33.222,26.556 34.878,26.556 C36.534,26.556 37.446,25.236 37.446,22.788 C37.446,20.352 36.534,19.044 34.878,19.044 Z M43.362,18.612 C45.75,18.612 47.67,20.46 47.67,22.812 C47.67,25.14 45.75,27 43.35,27 L40.026,27 L40.026,18.612 L43.362,18.612 Z M43.362,26.508 C45.462,26.508 47.154,24.864 47.154,22.812 C47.154,20.748 45.462,19.104 43.35,19.104 L40.53,19.104 L40.53,26.508 L43.362,26.508 Z" id="30D" fill="#2F3A44"></path>
                <path d="M72.994,19.56 C72.394,19.248 71.614,19.056 70.942,19.056 C68.902,19.056 67.834,20.832 68.074,23.688 C68.374,22.428 69.394,21.684 70.858,21.684 C72.526,21.684 73.558,22.68 73.558,24.312 C73.558,25.992 72.454,27.012 70.762,27.012 C68.758,27.012 67.546,25.596 67.546,23.016 C67.546,20.34 68.83,18.576 70.906,18.576 C71.638,18.576 72.502,18.792 73.21,19.14 L72.994,19.56 Z M70.798,22.14 C69.226,22.14 68.278,23.22 68.278,24.372 C68.278,25.272 68.998,26.532 70.702,26.532 C72.094,26.532 73.078,25.68 73.078,24.288 C73.078,22.968 72.178,22.14 70.798,22.14 Z M77.878,18.588 C79.858,18.588 80.938,20.088 80.938,22.788 C80.938,25.512 79.858,27.012 77.878,27.012 C75.91,27.012 74.83,25.512 74.83,22.788 C74.83,20.088 75.91,18.588 77.878,18.588 Z M77.878,19.044 C76.222,19.044 75.322,20.352 75.322,22.788 C75.322,25.236 76.222,26.556 77.878,26.556 C79.534,26.556 80.446,25.236 80.446,22.788 C80.446,20.352 79.534,19.044 77.878,19.044 Z M86.362,18.612 C88.75,18.612 90.67,20.46 90.67,22.812 C90.67,25.14 88.75,27 86.35,27 L83.026,27 L83.026,18.612 L86.362,18.612 Z M86.362,26.508 C88.462,26.508 90.154,24.864 90.154,22.812 C90.154,20.748 88.462,19.104 86.35,19.104 L83.53,19.104 L83.53,26.508 L86.362,26.508 Z" id="60D" fill="#767676"></path>
                <path d="M155.04,18.6 L157.68,18.6 L157.68,27 L157.188,27 L157.188,19.092 L155.04,19.092 L155.04,18.6 Z M165.084,22.956 C165.9,22.116 166.428,21.24 166.428,20.628 C166.428,19.656 165.636,19.068 164.352,19.068 C163.512,19.068 162.612,19.452 161.94,20.1 L161.688,19.704 C162.42,18.996 163.428,18.576 164.4,18.576 C165.96,18.576 166.944,19.344 166.944,20.58 C166.944,21.336 166.344,22.308 165.42,23.268 L162.3,26.496 L167.544,26.496 L167.544,27 L161.7,27 L161.712,26.484 L165.084,22.956 Z M172.08,18.588 C174.06,18.588 175.14,20.088 175.14,22.788 C175.14,25.512 174.06,27.012 172.08,27.012 C170.112,27.012 169.032,25.512 169.032,22.788 C169.032,20.088 170.112,18.588 172.08,18.588 Z M172.08,19.044 C170.424,19.044 169.524,20.352 169.524,22.788 C169.524,25.236 170.424,26.556 172.08,26.556 C173.736,26.556 174.648,25.236 174.648,22.788 C174.648,20.352 173.736,19.044 172.08,19.044 Z M180.564,18.612 C182.952,18.612 184.872,20.46 184.872,22.812 C184.872,25.14 182.952,27 180.552,27 L177.228,27 L177.228,18.612 L180.564,18.612 Z M180.564,26.508 C182.664,26.508 184.356,24.864 184.356,22.812 C184.356,20.748 182.664,19.104 180.552,19.104 L177.732,19.104 L177.732,26.508 L180.564,26.508 Z" id="120D" fill="#767676"></path>
                <path d="M112.05,26.028 C112.638,26.352 113.406,26.544 114.066,26.544 C116.094,26.544 117.15,24.768 116.922,21.912 C116.61,23.16 115.614,23.904 114.162,23.904 C112.518,23.904 111.498,22.92 111.498,21.288 C111.498,19.608 112.578,18.576 114.258,18.576 C116.25,18.576 117.45,19.992 117.45,22.584 C117.45,25.26 116.178,27.012 114.114,27.012 C113.382,27.012 112.53,26.796 111.834,26.46 L112.05,26.028 Z M114.318,19.068 C112.938,19.068 111.978,19.92 111.978,21.312 C111.978,22.632 112.854,23.448 114.222,23.448 C115.782,23.448 116.718,22.368 116.706,21.216 C116.718,20.328 115.998,19.068 114.318,19.068 Z M121.878,18.588 C123.858,18.588 124.938,20.088 124.938,22.788 C124.938,25.512 123.858,27.012 121.878,27.012 C119.91,27.012 118.83,25.512 118.83,22.788 C118.83,20.088 119.91,18.588 121.878,18.588 Z M121.878,19.044 C120.222,19.044 119.322,20.352 119.322,22.788 C119.322,25.236 120.222,26.556 121.878,26.556 C123.534,26.556 124.446,25.236 124.446,22.788 C124.446,20.352 123.534,19.044 121.878,19.044 Z M130.362,18.612 C132.75,18.612 134.67,20.46 134.67,22.812 C134.67,25.14 132.75,27 130.35,27 L127.026,27 L127.026,18.612 L130.362,18.612 Z M130.362,26.508 C132.462,26.508 134.154,24.864 134.154,22.812 C134.154,20.748 132.462,19.104 130.35,19.104 L127.53,19.104 L127.53,26.508 L130.362,26.508 Z" id="90D" fill="#767676"></path>
                <rect id="active-bar" fill="#0290FF" x="24" y="32" width="24" height="1"></rect>
            </g>
        </g>
        <g id="cards/buyer/PO-Matched-Copy" transform="translate(207.000000, 246.000000)">
            <g id="Group" transform="translate(-1.000000, 0.000000)">
                <g id="card">
                    <use fill="black" fill-opacity="1" filter="url(#filter-4)" xlink:href="#path-3"></use>
                    <use stroke="#E8E9E9" stroke-width="0.5" fill="#FFFFFF" fill-rule="evenodd" xlink:href="#path-3"></use>
                </g>
                <path d="M23.344,54.6 L34.784,54.6 L34.784,91 L32.652,91 L32.652,56.732 L23.344,56.732 L23.344,54.6 Z M51.788,87.672 C52.724,87.672 53.556,88.452 53.556,89.544 C53.556,90.168 53.296,90.636 52.932,91.208 L51.008,94.172 L49.552,94.172 L51.008,91.208 C50.332,90.896 50.02,90.272 50.02,89.544 C50.02,88.452 50.8,87.672 51.788,87.672 Z M72.068,73.476 C75.604,69.836 77.892,66.04 77.892,63.388 C77.892,59.176 74.46,56.628 68.896,56.628 C65.256,56.628 61.356,58.292 58.444,61.1 L57.352,59.384 C60.524,56.316 64.892,54.496 69.104,54.496 C75.864,54.496 80.128,57.824 80.128,63.18 C80.128,66.456 77.528,70.668 73.524,74.828 L60.004,88.816 L82.728,88.816 L82.728,91 L57.404,91 L57.456,88.764 L72.068,73.476 Z M90.632,54.6 L102.072,54.6 L102.072,91 L99.94,91 L99.94,56.732 L90.632,56.732 L90.632,54.6 Z M121.832,69.992 C124.328,69.316 127.5,68.9 129.788,68.9 C137.588,68.9 142.632,73.112 142.632,79.248 C142.632,86.372 137.484,91 129.58,91 C125.576,91 120.74,89.492 117.204,87.256 L118.14,85.436 C121.468,87.568 125.888,88.868 129.424,88.868 C136.08,88.868 140.344,85.176 140.344,79.352 C140.344,74.308 136.08,71.032 129.528,71.032 C126.772,71.032 122.716,71.656 119.752,72.54 L119.752,54.6 L141.176,54.6 L141.176,56.732 L121.832,56.732 L121.832,69.992 Z" id="1,215" fill="#161718"></path>
                <path d="M26.166,104.2 C28.588,104.2 29.988,105.404 29.988,107.49 C29.988,109.646 28.588,110.892 26.166,110.892 L23.604,110.892 L23.604,114 L22.484,114 L22.484,104.2 L26.166,104.2 Z M26.124,109.856 C27.888,109.856 28.91,109.058 28.91,107.518 C28.91,106.02 27.888,105.236 26.124,105.236 L23.604,105.236 L23.604,109.856 L26.124,109.856 Z M31.766,112.684 C32.144,112.684 32.438,112.992 32.438,113.398 C32.438,113.804 32.144,114.112 31.766,114.112 C31.374,114.112 31.08,113.804 31.08,113.398 C31.08,112.992 31.374,112.684 31.766,112.684 Z M38.85,104.172 C41.706,104.172 43.974,106.342 43.974,109.1 C43.974,111.858 41.706,114.042 38.85,114.042 C35.98,114.042 33.712,111.858 33.712,109.1 C33.712,106.342 35.98,104.172 38.85,104.172 Z M38.85,105.208 C36.666,105.208 34.846,106.93 34.846,109.1 C34.846,111.27 36.666,113.02 38.85,113.02 C41.034,113.02 42.826,111.27 42.826,109.1 C42.826,106.93 41.034,105.208 38.85,105.208 Z M45.934,112.684 C46.312,112.684 46.606,112.992 46.606,113.398 C46.606,113.804 46.312,114.112 45.934,114.112 C45.542,114.112 45.248,113.804 45.248,113.398 C45.248,112.992 45.542,112.684 45.934,112.684 Z M48.72,104.2 C49.084,104.2 49.392,104.466 49.392,104.9 C49.392,105.124 49.308,105.306 49.182,105.488 L48.524,106.482 L47.908,106.482 L48.37,105.474 C48.16,105.362 48.062,105.138 48.062,104.9 C48.062,104.494 48.342,104.2 48.72,104.2 Z M55.3,108.092 C54.726,107.728 53.984,107.504 53.298,107.504 C52.472,107.504 51.842,107.798 51.842,108.498 C51.842,110.164 55.958,109.31 55.958,111.956 C55.958,113.398 54.67,114.042 53.256,114.042 C52.206,114.042 51.128,113.678 50.428,113.006 L50.848,112.208 C51.478,112.796 52.43,113.146 53.298,113.146 C54.166,113.146 54.866,112.81 54.88,112.068 C54.922,110.276 50.792,111.186 50.806,108.582 C50.806,107.182 52.024,106.58 53.368,106.58 C54.25,106.58 55.104,106.846 55.72,107.252 L55.3,108.092 Z M62.104,104.2 L63.49,104.2 L67.074,111.312 L70.644,104.2 L72.016,104.2 L72.016,114 L70.98,114 L70.966,105.852 L67.396,112.964 L66.724,112.964 L63.168,105.852 L63.168,114 L62.104,114 L62.104,104.2 Z M80.486,114 L79.422,114 L79.422,112.852 C78.834,113.65 77.896,114.042 76.72,114.042 C75.194,114.042 74.214,113.076 74.214,111.816 C74.214,110.528 75.236,109.716 76.972,109.702 L79.394,109.702 L79.394,109.24 C79.394,108.162 78.722,107.504 77.42,107.504 C76.608,107.504 75.852,107.812 75.082,108.358 L74.62,107.588 C75.572,106.958 76.37,106.594 77.63,106.594 C79.45,106.594 80.458,107.56 80.472,109.128 L80.486,114 Z M76.93,113.132 C78.176,113.132 79.128,112.516 79.408,111.466 L79.408,110.57 L77.112,110.57 C75.88,110.57 75.236,110.948 75.236,111.774 C75.236,112.586 75.894,113.132 76.93,113.132 Z M86.422,112.656 L86.73,113.496 C86.212,113.846 85.652,114.042 85.064,114.042 C83.986,114.056 83.188,113.412 83.188,111.956 L83.188,107.714 L82.124,107.714 L82.124,106.86 L83.188,106.86 L83.188,104.928 L84.266,104.928 L84.266,106.86 L86.604,106.86 L86.604,107.714 L84.266,107.714 L84.266,111.774 C84.266,112.67 84.616,113.034 85.246,113.034 C85.624,113.02 86.016,112.894 86.422,112.656 Z M93.534,108.442 C92.974,107.896 92.232,107.574 91.336,107.574 C89.81,107.574 88.718,108.694 88.718,110.318 C88.718,111.956 89.81,113.076 91.336,113.076 C92.302,113.076 93.1,112.74 93.618,112.124 L94.248,112.768 C93.59,113.566 92.568,114.042 91.294,114.042 C89.152,114.042 87.64,112.516 87.64,110.318 C87.64,108.134 89.166,106.594 91.294,106.594 C92.484,106.594 93.464,107 94.136,107.686 L93.534,108.442 Z M100.268,106.594 C102.032,106.594 103.068,107.672 103.068,109.464 L103.068,114 L101.976,114 L101.976,109.744 C101.976,108.428 101.192,107.644 99.89,107.644 C98.322,107.658 97.398,108.778 97.398,110.388 L97.398,114 L96.306,114 L96.306,103.612 L97.398,103.612 L97.398,108.288 C97.902,107.14 98.91,106.608 100.268,106.594 Z M108.416,106.594 C110.796,106.594 111.972,108.232 111.86,110.724 L105.84,110.724 C106.022,112.18 107.072,113.132 108.514,113.132 C109.424,113.132 110.222,112.796 110.796,112.194 L111.398,112.824 C110.698,113.594 109.662,114.042 108.43,114.042 C106.26,114.042 104.762,112.516 104.762,110.318 C104.762,108.12 106.274,106.608 108.416,106.594 Z M105.84,109.856 L110.88,109.856 C110.81,108.428 109.858,107.504 108.416,107.504 C107.002,107.504 105.994,108.428 105.84,109.856 Z M119.42,103.612 L120.512,103.612 L120.512,114 L119.42,114 L119.42,112.418 C118.874,113.454 117.866,114.056 116.55,114.056 C114.45,114.056 112.994,112.502 112.994,110.304 C112.994,108.106 114.45,106.58 116.536,106.58 C117.852,106.58 118.874,107.182 119.42,108.232 L119.42,103.612 Z M116.76,113.118 C118.314,113.118 119.42,111.956 119.42,110.332 C119.42,108.708 118.314,107.532 116.76,107.532 C115.192,107.532 114.086,108.708 114.086,110.332 C114.086,111.956 115.192,113.118 116.76,113.118 Z" id="P.O.’s-Matched" fill="#767676"></path>
                <path d="M27.474,22.176 C29.19,22.26 30.318,23.064 30.318,24.42 C30.318,25.968 29.082,27.036 27.078,27.036 C26.022,27.036 24.93,26.7 24.186,26.208 L24.606,25.416 C25.266,25.908 26.154,26.208 27.03,26.208 C28.506,26.208 29.382,25.5 29.382,24.456 C29.382,23.388 28.494,22.836 27.006,22.836 L25.89,22.836 L25.89,22.248 L28.686,19.488 L24.594,19.488 L24.582,18.6 L29.898,18.6 L29.898,19.236 L26.958,22.152 L27.474,22.176 Z M34.974,18.564 C36.966,18.564 38.082,20.076 38.082,22.788 C38.082,25.512 36.966,27.024 34.974,27.024 C32.97,27.024 31.854,25.512 31.854,22.788 C31.854,20.076 32.97,18.564 34.974,18.564 Z M34.974,19.356 C33.546,19.356 32.814,20.496 32.814,22.788 C32.814,25.08 33.546,26.244 34.974,26.244 C36.378,26.244 37.122,25.08 37.122,22.788 C37.122,20.496 36.378,19.356 34.974,19.356 Z M43.338,18.6 C45.786,18.6 47.658,20.412 47.658,22.8 C47.658,25.188 45.774,27 43.302,27 L39.942,27 L39.942,18.6 L43.338,18.6 Z M43.35,26.112 C45.222,26.112 46.686,24.696 46.686,22.812 C46.686,20.916 45.198,19.488 43.314,19.488 L40.902,19.488 L40.902,26.112 L43.35,26.112 Z" id="30D" fill="#2F3A44"></path>
                <path d="M73.054,19.896 C72.49,19.572 71.758,19.38 71.098,19.38 C69.262,19.38 68.35,20.88 68.494,23.208 C68.866,22.188 69.778,21.624 71.038,21.624 C72.706,21.624 73.738,22.644 73.738,24.276 C73.738,25.98 72.598,27.036 70.858,27.036 C68.794,27.036 67.534,25.572 67.534,22.992 C67.534,20.304 68.878,18.552 71.038,18.552 C71.818,18.552 72.742,18.792 73.438,19.152 L73.054,19.896 Z M70.87,22.404 C69.514,22.404 68.71,23.316 68.71,24.324 C68.71,25.14 69.334,26.196 70.798,26.196 C71.998,26.196 72.838,25.464 72.838,24.252 C72.838,23.112 72.07,22.404 70.87,22.404 Z M77.974,18.564 C79.966,18.564 81.082,20.076 81.082,22.788 C81.082,25.512 79.966,27.024 77.974,27.024 C75.97,27.024 74.854,25.512 74.854,22.788 C74.854,20.076 75.97,18.564 77.974,18.564 Z M77.974,19.356 C76.546,19.356 75.814,20.496 75.814,22.788 C75.814,25.08 76.546,26.244 77.974,26.244 C79.378,26.244 80.122,25.08 80.122,22.788 C80.122,20.496 79.378,19.356 77.974,19.356 Z M86.338,18.6 C88.786,18.6 90.658,20.412 90.658,22.8 C90.658,25.188 88.774,27 86.302,27 L82.942,27 L82.942,18.6 L86.338,18.6 Z M86.35,26.112 C88.222,26.112 89.686,24.696 89.686,22.812 C89.686,20.916 88.198,19.488 86.314,19.488 L83.902,19.488 L83.902,26.112 L86.35,26.112 Z" id="60D" fill="#767676"></path>
                <path d="M155.028,18.588 L157.968,18.588 L157.968,27 L157.008,27 L157.008,19.476 L155.028,19.476 L155.028,18.588 Z M165.024,22.812 C165.756,22.068 166.236,21.288 166.236,20.736 C166.236,19.908 165.564,19.416 164.46,19.416 C163.668,19.416 162.768,19.812 162.072,20.448 L161.652,19.716 C162.492,18.996 163.548,18.552 164.58,18.552 C166.176,18.552 167.232,19.356 167.232,20.616 C167.232,21.408 166.608,22.38 165.684,23.34 L162.96,26.112 L167.736,26.112 L167.736,27 L161.736,27 L161.736,26.22 L165.024,22.812 Z M172.176,18.564 C174.168,18.564 175.284,20.076 175.284,22.788 C175.284,25.512 174.168,27.024 172.176,27.024 C170.172,27.024 169.056,25.512 169.056,22.788 C169.056,20.076 170.172,18.564 172.176,18.564 Z M172.176,19.356 C170.748,19.356 170.016,20.496 170.016,22.788 C170.016,25.08 170.748,26.244 172.176,26.244 C173.58,26.244 174.324,25.08 174.324,22.788 C174.324,20.496 173.58,19.356 172.176,19.356 Z M180.54,18.6 C182.988,18.6 184.86,20.412 184.86,22.8 C184.86,25.188 182.976,27 180.504,27 L177.144,27 L177.144,18.6 L180.54,18.6 Z M180.552,26.112 C182.424,26.112 183.888,24.696 183.888,22.812 C183.888,20.916 182.4,19.488 180.516,19.488 L178.104,19.488 L178.104,26.112 L180.552,26.112 Z" id="120D" fill="#767676"></path>
                <path d="M112.146,25.692 C112.698,26.028 113.418,26.22 114.078,26.22 C115.89,26.22 116.802,24.72 116.658,22.392 C116.286,23.4 115.398,23.976 114.15,23.976 C112.482,23.976 111.462,22.956 111.462,21.324 C111.462,19.608 112.59,18.552 114.318,18.552 C116.37,18.552 117.618,20.016 117.618,22.608 C117.618,25.284 116.274,27.036 114.138,27.036 C113.37,27.036 112.446,26.808 111.762,26.436 L112.146,25.692 Z M114.39,19.404 C113.19,19.404 112.362,20.124 112.362,21.336 C112.362,22.476 113.118,23.184 114.306,23.184 C115.662,23.184 116.454,22.272 116.442,21.264 C116.454,20.448 115.83,19.404 114.39,19.404 Z M121.974,18.564 C123.966,18.564 125.082,20.076 125.082,22.788 C125.082,25.512 123.966,27.024 121.974,27.024 C119.97,27.024 118.854,25.512 118.854,22.788 C118.854,20.076 119.97,18.564 121.974,18.564 Z M121.974,19.356 C120.546,19.356 119.814,20.496 119.814,22.788 C119.814,25.08 120.546,26.244 121.974,26.244 C123.378,26.244 124.122,25.08 124.122,22.788 C124.122,20.496 123.378,19.356 121.974,19.356 Z M130.338,18.6 C132.786,18.6 134.658,20.412 134.658,22.8 C134.658,25.188 132.774,27 130.302,27 L126.942,27 L126.942,18.6 L130.338,18.6 Z M130.35,26.112 C132.222,26.112 133.686,24.696 133.686,22.812 C133.686,20.916 132.198,19.488 130.314,19.488 L127.902,19.488 L127.902,26.112 L130.35,26.112 Z" id="90D" fill="#767676"></path>
                <rect id="active-bar" fill="#0290FF" x="24" y="32" width="24" height="1"></rect>
            </g>
            <path d="M127.3,103.22 L128.044,103.22 L128.044,114.452 L127.3,114.452 L127.3,103.22 Z M136.732,108.812 C137.464,108.068 137.944,107.288 137.944,106.736 C137.944,105.908 137.272,105.416 136.168,105.416 C135.376,105.416 134.476,105.812 133.78,106.448 L133.36,105.716 C134.2,104.996 135.256,104.552 136.288,104.552 C137.884,104.552 138.94,105.356 138.94,106.616 C138.94,107.408 138.316,108.38 137.392,109.34 L134.668,112.112 L139.444,112.112 L139.444,113 L133.444,113 L133.444,112.22 L136.732,108.812 Z M142.24,107.9 C142.72,107.816 143.356,107.78 143.776,107.78 C145.636,107.78 146.824,108.812 146.824,110.252 C146.824,111.932 145.6,113.024 143.704,113.024 C142.72,113.024 141.568,112.664 140.728,112.112 L141.124,111.332 C141.856,111.848 142.804,112.16 143.608,112.16 C144.964,112.16 145.816,111.452 145.816,110.312 C145.816,109.304 144.964,108.656 143.632,108.656 C143.044,108.656 141.988,108.74 141.34,108.884 L141.34,104.588 L146.476,104.588 L146.476,105.476 L142.24,105.476 L142.24,107.9 Z M156.868,106.688 L157.804,106.688 L157.804,113 L156.868,113 L156.868,111.572 C156.448,112.556 155.608,113.024 154.468,113.036 C152.992,113.036 152.104,112.1 152.104,110.576 L152.104,106.688 L153.04,106.688 L153.04,110.336 C153.04,111.464 153.7,112.136 154.792,112.136 C156.1,112.112 156.868,111.152 156.868,109.784 L156.868,106.688 Z M163.468,106.652 C164.98,106.652 165.868,107.576 165.868,109.112 L165.868,113 L164.932,113 L164.932,109.352 C164.932,108.224 164.26,107.552 163.144,107.552 C161.896,107.564 161.128,108.392 161.02,109.616 L161.02,113 L160.084,113 L160.084,106.688 L161.02,106.688 L161.02,108.08 C161.464,107.12 162.316,106.664 163.468,106.652 Z M176.056,106.652 C177.532,106.652 178.408,107.576 178.408,109.112 L178.408,113 L177.472,113 L177.472,109.352 C177.472,108.212 176.812,107.54 175.72,107.54 C174.412,107.576 173.656,108.524 173.656,109.892 L173.656,113 L172.708,113 L172.708,109.352 C172.708,108.212 172.06,107.54 170.956,107.54 C169.66,107.576 168.88,108.524 168.88,109.892 L168.88,113 L167.956,113 L167.956,106.688 L168.88,106.688 L168.88,108.116 C169.3,107.132 170.152,106.664 171.292,106.652 C172.48,106.652 173.296,107.252 173.56,108.296 C173.956,107.192 174.844,106.664 176.056,106.652 Z M185.32,113 L184.408,113 L184.408,112.016 C183.904,112.7 183.1,113.036 182.092,113.036 C180.784,113.036 179.944,112.208 179.944,111.128 C179.944,110.024 180.82,109.328 182.308,109.316 L184.384,109.316 L184.384,108.92 C184.384,107.996 183.808,107.432 182.692,107.432 C181.996,107.432 181.348,107.696 180.688,108.164 L180.292,107.504 C181.108,106.964 181.792,106.652 182.872,106.652 C184.432,106.652 185.296,107.48 185.308,108.824 L185.32,113 Z M182.272,112.256 C183.34,112.256 184.156,111.728 184.396,110.828 L184.396,110.06 L182.428,110.06 C181.372,110.06 180.82,110.384 180.82,111.092 C180.82,111.788 181.384,112.256 182.272,112.256 Z M190.408,111.848 L190.672,112.568 C190.228,112.868 189.748,113.036 189.244,113.036 C188.32,113.048 187.636,112.496 187.636,111.248 L187.636,107.612 L186.724,107.612 L186.724,106.88 L187.636,106.88 L187.636,105.224 L188.56,105.224 L188.56,106.88 L190.564,106.88 L190.564,107.612 L188.56,107.612 L188.56,111.092 C188.56,111.86 188.86,112.172 189.4,112.172 C189.724,112.16 190.06,112.052 190.408,111.848 Z M196.504,108.236 C196.024,107.768 195.388,107.492 194.62,107.492 C193.312,107.492 192.376,108.452 192.376,109.844 C192.376,111.248 193.312,112.208 194.62,112.208 C195.448,112.208 196.132,111.92 196.576,111.392 L197.116,111.944 C196.552,112.628 195.676,113.036 194.584,113.036 C192.748,113.036 191.452,111.728 191.452,109.844 C191.452,107.972 192.76,106.652 194.584,106.652 C195.604,106.652 196.444,107 197.02,107.588 L196.504,108.236 Z M202.276,106.652 C203.788,106.652 204.676,107.576 204.676,109.112 L204.676,113 L203.74,113 L203.74,109.352 C203.74,108.224 203.068,107.552 201.952,107.552 C200.608,107.564 199.816,108.524 199.816,109.904 L199.816,113 L198.88,113 L198.88,104.096 L199.816,104.096 L199.816,108.104 C200.248,107.12 201.112,106.664 202.276,106.652 Z M209.26,106.652 C211.3,106.652 212.308,108.056 212.212,110.192 L207.052,110.192 C207.208,111.44 208.108,112.256 209.344,112.256 C210.124,112.256 210.808,111.968 211.3,111.452 L211.816,111.992 C211.216,112.652 210.328,113.036 209.272,113.036 C207.412,113.036 206.128,111.728 206.128,109.844 C206.128,107.96 207.424,106.664 209.26,106.652 Z M207.052,109.448 L211.372,109.448 C211.312,108.224 210.496,107.432 209.26,107.432 C208.048,107.432 207.184,108.224 207.052,109.448 Z M218.692,104.096 L219.628,104.096 L219.628,113 L218.692,113 L218.692,111.644 C218.224,112.532 217.36,113.048 216.232,113.048 C214.432,113.048 213.184,111.716 213.184,109.832 C213.184,107.948 214.432,106.64 216.22,106.64 C217.348,106.64 218.224,107.156 218.692,108.056 L218.692,104.096 Z M216.412,112.244 C217.744,112.244 218.692,111.248 218.692,109.856 C218.692,108.464 217.744,107.456 216.412,107.456 C215.068,107.456 214.12,108.464 214.12,109.856 C214.12,111.248 215.068,112.244 216.412,112.244 Z" id="|-25-unmatched" fill="#0290FF"></path>
        </g>
        <g id="cards/buyer/PO-Onboarded-Copy" transform="translate(135.000000, 16.000000)">
            <g id="Group" transform="translate(-1.000000, 0.000000)">
                <g id="card">
                    <use fill="black" fill-opacity="1" filter="url(#filter-6)" xlink:href="#path-5"></use>
                    <use stroke="#E8E9E9" stroke-width="0.5" fill="#FFFFFF" fill-rule="evenodd" xlink:href="#path-5"></use>
                </g>
                <path d="M23.344,54.6 L34.784,54.6 L34.784,91 L32.652,91 L32.652,56.732 L23.344,56.732 L23.344,54.6 Z M54.544,69.992 C57.04,69.316 60.212,68.9 62.5,68.9 C70.3,68.9 75.344,73.112 75.344,79.248 C75.344,86.372 70.196,91 62.292,91 C58.288,91 53.452,89.492 49.916,87.256 L50.852,85.436 C54.18,87.568 58.6,88.868 62.136,88.868 C68.792,88.868 73.056,85.176 73.056,79.352 C73.056,74.308 68.792,71.032 62.24,71.032 C59.484,71.032 55.428,71.656 52.464,72.54 L52.464,54.6 L73.888,54.6 L73.888,56.732 L54.544,56.732 L54.544,69.992 Z" id="15" fill="#161718"></path>
                <path d="M27.818,105.516 C27.09,105.04 26.096,104.802 25.256,104.802 C23.702,104.802 22.694,105.446 22.694,106.468 C22.694,109.45 28.448,107.91 28.42,111.522 C28.42,113.034 27.062,114.014 25.018,114.014 C23.716,114.014 22.386,113.44 21.532,112.6 L21.84,112.082 C22.638,112.908 23.884,113.412 25.032,113.412 C26.712,113.412 27.79,112.684 27.79,111.536 C27.818,108.47 22.064,110.038 22.064,106.51 C22.064,105.096 23.352,104.186 25.284,104.186 C26.278,104.186 27.356,104.508 28.084,104.984 L27.818,105.516 Z M36.316,106.706 L36.89,106.706 L36.89,114 L36.316,114 L36.316,112.054 C35.854,113.314 34.832,114 33.39,114.014 C31.626,114.014 30.604,112.95 30.604,111.158 L30.604,106.706 L31.178,106.706 L31.178,111.046 C31.178,112.544 32.046,113.426 33.516,113.426 C35.28,113.384 36.316,112.18 36.316,110.276 L36.316,106.706 Z M43.568,106.692 C45.612,106.692 47.082,108.218 47.082,110.36 C47.082,112.488 45.626,114.014 43.568,114.014 C42.14,114.014 41.02,113.272 40.474,112.096 L40.474,116.716 L39.886,116.716 L39.886,106.706 L40.474,106.706 L40.474,108.624 C41.02,107.434 42.14,106.692 43.568,106.692 Z M43.484,113.468 C45.248,113.468 46.508,112.166 46.508,110.36 C46.508,108.554 45.248,107.238 43.484,107.238 C41.734,107.238 40.474,108.554 40.474,110.36 C40.474,112.166 41.734,113.468 43.484,113.468 Z M52.962,106.692 C55.006,106.692 56.476,108.218 56.476,110.36 C56.476,112.488 55.02,114.014 52.962,114.014 C51.534,114.014 50.414,113.272 49.868,112.096 L49.868,116.716 L49.28,116.716 L49.28,106.706 L49.868,106.706 L49.868,108.624 C50.414,107.434 51.534,106.692 52.962,106.692 Z M52.878,113.468 C54.642,113.468 55.902,112.166 55.902,110.36 C55.902,108.554 54.642,107.238 52.878,107.238 C51.128,107.238 49.868,108.554 49.868,110.36 C49.868,112.166 51.128,113.468 52.878,113.468 Z M58.674,103.612 L59.262,103.612 L59.262,114 L58.674,114 L58.674,103.612 Z M62.538,104.102 C62.804,104.102 63.028,104.326 63.028,104.606 C63.028,104.9 62.804,105.124 62.538,105.124 C62.272,105.124 62.048,104.9 62.048,104.606 C62.048,104.326 62.272,104.102 62.538,104.102 Z M62.244,106.706 L62.818,106.706 L62.818,114 L62.244,114 L62.244,106.706 Z M68.516,106.692 C70.658,106.692 71.946,108.26 71.904,110.514 L65.534,110.514 C65.618,112.292 66.85,113.482 68.544,113.482 C69.538,113.482 70.42,113.118 71.008,112.474 L71.344,112.852 C70.672,113.58 69.678,114.014 68.516,114.014 C66.458,114.014 64.96,112.502 64.96,110.36 C64.96,108.218 66.458,106.692 68.516,106.692 Z M65.548,109.996 L71.372,109.996 C71.26,108.344 70.182,107.224 68.516,107.224 C66.878,107.224 65.688,108.344 65.548,109.996 Z M74.578,108.54 C75.04,107.364 75.992,106.72 77.294,106.692 L77.294,107.294 C75.684,107.294 74.704,108.358 74.578,110.052 L74.578,114 L73.99,114 L73.99,106.706 L74.578,106.706 L74.578,108.54 Z M82.446,107.742 C81.942,107.42 81.298,107.224 80.598,107.224 C79.576,107.224 78.778,107.616 78.778,108.484 C78.778,110.444 83.034,109.478 83.034,112.054 C83.034,113.412 81.816,114.014 80.5,114.014 C79.478,114.014 78.498,113.65 77.826,113.006 L78.092,112.558 C78.722,113.146 79.604,113.482 80.528,113.482 C81.55,113.482 82.432,113.076 82.474,112.152 C82.53,110.094 78.218,111.032 78.218,108.526 C78.218,107.252 79.324,106.692 80.612,106.692 C81.424,106.692 82.124,106.916 82.698,107.266 L82.446,107.742 Z M93.464,104.2 C96.264,104.2 98.532,106.384 98.532,109.1 C98.532,111.816 96.264,114.014 93.464,114.014 C90.664,114.014 88.396,111.816 88.396,109.1 C88.396,106.384 90.664,104.2 93.464,104.2 Z M93.464,104.774 C91.014,104.774 88.998,106.706 88.998,109.1 C88.998,111.494 91.014,113.44 93.464,113.44 C95.914,113.44 97.93,111.494 97.93,109.1 C97.93,106.706 95.914,104.774 93.464,104.774 Z M104.202,106.692 C105.98,106.692 107.03,107.77 107.03,109.548 L107.03,114 L106.442,114 L106.442,109.66 C106.442,108.162 105.56,107.28 104.062,107.28 C102.382,107.322 101.346,108.372 101.22,110.052 L101.22,114 L100.632,114 L100.632,106.706 L101.22,106.706 L101.22,108.568 C101.71,107.364 102.746,106.72 104.202,106.692 Z M113.456,106.692 C115.5,106.692 116.97,108.218 116.97,110.36 C116.97,112.488 115.514,114.014 113.456,114.014 C112.028,114.014 110.908,113.272 110.362,112.096 L110.362,114 L109.774,114 L109.774,103.612 L110.362,103.612 L110.362,108.624 C110.908,107.434 112.028,106.692 113.456,106.692 Z M113.372,113.468 C115.136,113.468 116.396,112.166 116.396,110.36 C116.396,108.554 115.136,107.238 113.372,107.238 C111.622,107.238 110.362,108.554 110.362,110.36 C110.362,112.166 111.622,113.468 113.372,113.468 Z M121.912,106.692 C123.998,106.692 125.51,108.204 125.51,110.346 C125.51,112.502 123.998,114.014 121.912,114.014 C119.84,114.014 118.314,112.502 118.314,110.346 C118.314,108.204 119.84,106.692 121.912,106.692 Z M121.912,107.252 C120.162,107.252 118.888,108.526 118.888,110.346 C118.888,112.194 120.162,113.468 121.912,113.468 C123.676,113.468 124.936,112.194 124.936,110.346 C124.936,108.526 123.676,107.252 121.912,107.252 Z M132.902,114 L132.328,114 L132.314,112.558 C131.698,113.566 130.662,114.014 129.402,114.014 C127.96,114.014 126.994,113.104 126.994,111.872 C126.994,110.654 128.03,109.912 129.71,109.912 L132.3,109.912 L132.3,109.198 C132.286,107.966 131.572,107.224 130.116,107.224 C129.206,107.224 128.436,107.588 127.666,108.176 L127.386,107.728 C128.254,107.098 129.094,106.692 130.2,106.692 C131.922,106.692 132.86,107.644 132.874,109.156 L132.902,114 Z M129.486,113.482 C130.844,113.482 131.866,112.894 132.314,111.62 L132.314,110.43 L129.766,110.43 C128.338,110.43 127.554,110.92 127.554,111.858 C127.554,112.824 128.296,113.482 129.486,113.482 Z M136.164,108.54 C136.626,107.364 137.578,106.72 138.88,106.692 L138.88,107.294 C137.27,107.294 136.29,108.358 136.164,110.052 L136.164,114 L135.576,114 L135.576,106.706 L136.164,106.706 L136.164,108.54 Z M146.356,103.612 L146.944,103.612 L146.944,114 L146.356,114 L146.356,112.096 C145.81,113.3 144.676,114.042 143.248,114.042 C141.176,114.042 139.692,112.502 139.692,110.36 C139.692,108.204 141.176,106.664 143.234,106.664 C144.676,106.664 145.81,107.406 146.356,108.61 L146.356,103.612 Z M143.318,113.496 C145.082,113.496 146.356,112.18 146.356,110.36 C146.356,108.54 145.082,107.224 143.318,107.224 C141.554,107.224 140.28,108.554 140.266,110.36 C140.28,112.18 141.54,113.496 143.318,113.496 Z M152.698,106.692 C154.84,106.692 156.128,108.26 156.086,110.514 L149.716,110.514 C149.8,112.292 151.032,113.482 152.726,113.482 C153.72,113.482 154.602,113.118 155.19,112.474 L155.526,112.852 C154.854,113.58 153.86,114.014 152.698,114.014 C150.64,114.014 149.142,112.502 149.142,110.36 C149.142,108.218 150.64,106.692 152.698,106.692 Z M149.73,109.996 L155.554,109.996 C155.442,108.344 154.364,107.224 152.698,107.224 C151.06,107.224 149.87,108.344 149.73,109.996 Z M164.052,103.612 L164.64,103.612 L164.64,114 L164.052,114 L164.052,112.096 C163.506,113.3 162.372,114.042 160.944,114.042 C158.872,114.042 157.388,112.502 157.388,110.36 C157.388,108.204 158.872,106.664 160.93,106.664 C162.372,106.664 163.506,107.406 164.052,108.61 L164.052,103.612 Z M161.014,113.496 C162.778,113.496 164.052,112.18 164.052,110.36 C164.052,108.54 162.778,107.224 161.014,107.224 C159.25,107.224 157.976,108.554 157.962,110.36 C157.976,112.18 159.236,113.496 161.014,113.496 Z" id="Suppliers-Onboarded" fill="#767676"></path>
                <path d="M27.042,22.224 C28.878,22.26 30.102,23.076 30.102,24.444 C30.102,25.968 28.878,27.012 26.922,27.012 C25.926,27.012 24.906,26.712 24.174,26.256 L24.426,25.824 C25.086,26.268 26.01,26.544 26.91,26.544 C28.602,26.544 29.61,25.692 29.61,24.492 C29.61,23.268 28.578,22.632 26.874,22.632 L25.878,22.632 L25.878,22.272 L29.01,19.104 L24.558,19.104 L24.558,18.6 L29.658,18.6 L29.658,18.984 L26.478,22.224 L27.042,22.224 Z M34.878,18.588 C36.858,18.588 37.938,20.088 37.938,22.788 C37.938,25.512 36.858,27.012 34.878,27.012 C32.91,27.012 31.83,25.512 31.83,22.788 C31.83,20.088 32.91,18.588 34.878,18.588 Z M34.878,19.044 C33.222,19.044 32.322,20.352 32.322,22.788 C32.322,25.236 33.222,26.556 34.878,26.556 C36.534,26.556 37.446,25.236 37.446,22.788 C37.446,20.352 36.534,19.044 34.878,19.044 Z M43.362,18.612 C45.75,18.612 47.67,20.46 47.67,22.812 C47.67,25.14 45.75,27 43.35,27 L40.026,27 L40.026,18.612 L43.362,18.612 Z M43.362,26.508 C45.462,26.508 47.154,24.864 47.154,22.812 C47.154,20.748 45.462,19.104 43.35,19.104 L40.53,19.104 L40.53,26.508 L43.362,26.508 Z" id="30D" fill="#2F3A44"></path>
                <path d="M72.994,19.56 C72.394,19.248 71.614,19.056 70.942,19.056 C68.902,19.056 67.834,20.832 68.074,23.688 C68.374,22.428 69.394,21.684 70.858,21.684 C72.526,21.684 73.558,22.68 73.558,24.312 C73.558,25.992 72.454,27.012 70.762,27.012 C68.758,27.012 67.546,25.596 67.546,23.016 C67.546,20.34 68.83,18.576 70.906,18.576 C71.638,18.576 72.502,18.792 73.21,19.14 L72.994,19.56 Z M70.798,22.14 C69.226,22.14 68.278,23.22 68.278,24.372 C68.278,25.272 68.998,26.532 70.702,26.532 C72.094,26.532 73.078,25.68 73.078,24.288 C73.078,22.968 72.178,22.14 70.798,22.14 Z M77.878,18.588 C79.858,18.588 80.938,20.088 80.938,22.788 C80.938,25.512 79.858,27.012 77.878,27.012 C75.91,27.012 74.83,25.512 74.83,22.788 C74.83,20.088 75.91,18.588 77.878,18.588 Z M77.878,19.044 C76.222,19.044 75.322,20.352 75.322,22.788 C75.322,25.236 76.222,26.556 77.878,26.556 C79.534,26.556 80.446,25.236 80.446,22.788 C80.446,20.352 79.534,19.044 77.878,19.044 Z M86.362,18.612 C88.75,18.612 90.67,20.46 90.67,22.812 C90.67,25.14 88.75,27 86.35,27 L83.026,27 L83.026,18.612 L86.362,18.612 Z M86.362,26.508 C88.462,26.508 90.154,24.864 90.154,22.812 C90.154,20.748 88.462,19.104 86.35,19.104 L83.53,19.104 L83.53,26.508 L86.362,26.508 Z" id="60D" fill="#767676"></path>
                <path d="M155.04,18.6 L157.68,18.6 L157.68,27 L157.188,27 L157.188,19.092 L155.04,19.092 L155.04,18.6 Z M165.084,22.956 C165.9,22.116 166.428,21.24 166.428,20.628 C166.428,19.656 165.636,19.068 164.352,19.068 C163.512,19.068 162.612,19.452 161.94,20.1 L161.688,19.704 C162.42,18.996 163.428,18.576 164.4,18.576 C165.96,18.576 166.944,19.344 166.944,20.58 C166.944,21.336 166.344,22.308 165.42,23.268 L162.3,26.496 L167.544,26.496 L167.544,27 L161.7,27 L161.712,26.484 L165.084,22.956 Z M172.08,18.588 C174.06,18.588 175.14,20.088 175.14,22.788 C175.14,25.512 174.06,27.012 172.08,27.012 C170.112,27.012 169.032,25.512 169.032,22.788 C169.032,20.088 170.112,18.588 172.08,18.588 Z M172.08,19.044 C170.424,19.044 169.524,20.352 169.524,22.788 C169.524,25.236 170.424,26.556 172.08,26.556 C173.736,26.556 174.648,25.236 174.648,22.788 C174.648,20.352 173.736,19.044 172.08,19.044 Z M180.564,18.612 C182.952,18.612 184.872,20.46 184.872,22.812 C184.872,25.14 182.952,27 180.552,27 L177.228,27 L177.228,18.612 L180.564,18.612 Z M180.564,26.508 C182.664,26.508 184.356,24.864 184.356,22.812 C184.356,20.748 182.664,19.104 180.552,19.104 L177.732,19.104 L177.732,26.508 L180.564,26.508 Z" id="120D" fill="#767676"></path>
                <path d="M112.05,26.028 C112.638,26.352 113.406,26.544 114.066,26.544 C116.094,26.544 117.15,24.768 116.922,21.912 C116.61,23.16 115.614,23.904 114.162,23.904 C112.518,23.904 111.498,22.92 111.498,21.288 C111.498,19.608 112.578,18.576 114.258,18.576 C116.25,18.576 117.45,19.992 117.45,22.584 C117.45,25.26 116.178,27.012 114.114,27.012 C113.382,27.012 112.53,26.796 111.834,26.46 L112.05,26.028 Z M114.318,19.068 C112.938,19.068 111.978,19.92 111.978,21.312 C111.978,22.632 112.854,23.448 114.222,23.448 C115.782,23.448 116.718,22.368 116.706,21.216 C116.718,20.328 115.998,19.068 114.318,19.068 Z M121.878,18.588 C123.858,18.588 124.938,20.088 124.938,22.788 C124.938,25.512 123.858,27.012 121.878,27.012 C119.91,27.012 118.83,25.512 118.83,22.788 C118.83,20.088 119.91,18.588 121.878,18.588 Z M121.878,19.044 C120.222,19.044 119.322,20.352 119.322,22.788 C119.322,25.236 120.222,26.556 121.878,26.556 C123.534,26.556 124.446,25.236 124.446,22.788 C124.446,20.352 123.534,19.044 121.878,19.044 Z M130.362,18.612 C132.75,18.612 134.67,20.46 134.67,22.812 C134.67,25.14 132.75,27 130.35,27 L127.026,27 L127.026,18.612 L130.362,18.612 Z M130.362,26.508 C132.462,26.508 134.154,24.864 134.154,22.812 C134.154,20.748 132.462,19.104 130.35,19.104 L127.53,19.104 L127.53,26.508 L130.362,26.508 Z" id="90D" fill="#767676"></path>
                <rect id="active-bar" fill="#0290FF" x="24" y="32" width="24" height="1"></rect>
            </g>
        </g>
    </g>
</svg>