<svg xmlns="http://www.w3.org/2000/svg" viewBox="0 0 898.9 646.09"><defs><style>.cls-1{fill:#77899c;}.cls-2{fill:#00163c;}.cls-3{fill:#1c1e1f;}.cls-4{fill:#0791fc;}.cls-10,.cls-12,.cls-13,.cls-15,.cls-16,.cls-5,.cls-6,.cls-7,.cls-8,.cls-9{fill:none;}.cls-5,.cls-7,.cls-9{stroke:#161517;}.cls-10,.cls-12,.cls-15,.cls-16,.cls-5,.cls-6,.cls-7,.cls-8,.cls-9{stroke-linecap:round;}.cls-10,.cls-12,.cls-5,.cls-6,.cls-7,.cls-8,.cls-9{stroke-miterlimit:10;}.cls-5,.cls-6{stroke-width:2.3px;}.cls-10,.cls-6,.cls-8{stroke:#0791fc;}.cls-7,.cls-8{stroke-width:1.7px;}.cls-10,.cls-9{stroke-width:1.5px;}.cls-11{fill:#adadad;}.cls-12{stroke:#adadad;stroke-width:2.91px;}.cls-13{stroke:#5b5b5b;}.cls-13,.cls-15,.cls-16{stroke-linejoin:round;stroke-width:3px;}.cls-14{fill:#5b5b5b;}.cls-15,.cls-16{stroke:#000;}.cls-16{stroke-dasharray:0 7.97;}.cls-17{fill:#3a3a3a;}</style></defs><title>TIN-INFO-FLOW-2_outlines</title><g id="Layer_1" data-name="Layer 1"><path class="cls-1" d="M448.85,276.38H441.6v-1.07h15.68v1.07H450v18.67h-1.18Z" transform="translate(-7.59 -11.68)"/><path class="cls-1" d="M464.73,282.23l-1,.11a4.34,4.34,0,0,0-4.4,4.59v8.12h-1.17V281.5h1.17v2.38a4.35,4.35,0,0,1,1.78-1.89,7.11,7.11,0,0,1,2.84-.77l.59-.05Z" transform="translate(-7.59 -11.68)"/><path class="cls-1" d="M477.33,286.18v8.87h-1.2v-2.49a4.6,4.6,0,0,1-1.78,2,5,5,0,0,1-2.65.7,5.28,5.28,0,0,1-2.36-.53,4.39,4.39,0,0,1-1.71-1.47,3.62,3.62,0,0,1-.63-2.06,3.2,3.2,0,0,1,.8-2.34,4.93,4.93,0,0,1,2.63-1.19,28.17,28.17,0,0,1,5.14-.36h.56v-1.18a4.43,4.43,0,0,0-.79-2.9,3.13,3.13,0,0,0-2.49-.91,8.08,8.08,0,0,0-2.42.35,9.87,9.87,0,0,0-2.31,1.14l-.56-1A8.49,8.49,0,0,1,470,281.6a8.94,8.94,0,0,1,2.73-.43Q477.33,281.17,477.33,286.18ZM474,293.47a4.28,4.28,0,0,0,1.58-1.66,5.05,5.05,0,0,0,.58-2.41v-1h-.54a31.31,31.31,0,0,0-4.48.24,4.15,4.15,0,0,0-2.15.81,2.2,2.2,0,0,0-.62,1.69,2.7,2.7,0,0,0,1,2.12,3.56,3.56,0,0,0,2.41.82A4.35,4.35,0,0,0,474,293.47Z" transform="translate(-7.59 -11.68)"/><path class="cls-1" d="M493.37,275.31v19.74H492.2v-2.74a4.61,4.61,0,0,1-1.84,2.18,5.36,5.36,0,0,1-2.92.76,5.72,5.72,0,0,1-3.17-.88,5.83,5.83,0,0,1-2.12-2.49,8.64,8.64,0,0,1-.76-3.74,8.27,8.27,0,0,1,.76-3.67,5.75,5.75,0,0,1,2.12-2.44,5.88,5.88,0,0,1,3.17-.86,5.44,5.44,0,0,1,2.92.75,4.65,4.65,0,0,1,1.84,2.16v-8.77ZM491,292.56a8.32,8.32,0,0,0,0-8.71,4.26,4.26,0,0,0-3.5-1.54,4.36,4.36,0,0,0-3.55,1.53,6.53,6.53,0,0,0-1.27,4.3,6.82,6.82,0,0,0,1.27,4.38,4.76,4.76,0,0,0,7.05,0Z" transform="translate(-7.59 -11.68)"/><path class="cls-1" d="M509.31,288.39H498.78a6.33,6.33,0,0,0,1.38,4.23,4.83,4.83,0,0,0,3.8,1.48,6.55,6.55,0,0,0,2.36-.42,7.74,7.74,0,0,0,2.2-1.34l.56,1a6.22,6.22,0,0,1-2.24,1.38,7.84,7.84,0,0,1-2.83.52,6.22,6.22,0,0,1-4.77-1.88,7.22,7.22,0,0,1-1.75-5.15,8.28,8.28,0,0,1,.78-3.69,5.88,5.88,0,0,1,2.22-2.48,6.07,6.07,0,0,1,3.27-.88,5.07,5.07,0,0,1,4.09,1.7,7.18,7.18,0,0,1,1.46,4.79Zm-9-4.8a5.88,5.88,0,0,0-1.52,3.71h9.38a5.67,5.67,0,0,0-1.21-3.74,4.05,4.05,0,0,0-3.22-1.3A4.57,4.57,0,0,0,500.33,283.59Z" transform="translate(-7.59 -11.68)"/><path class="cls-1" d="M444,304.91h1.15v19.74H444Z" transform="translate(-7.59 -11.68)"/><path class="cls-1" d="M461.23,315.92v8.73h-1.18V316a4.76,4.76,0,0,0-.86-3.15,3.56,3.56,0,0,0-2.8-1,4.65,4.65,0,0,0-3.46,1.33,4.85,4.85,0,0,0-1.3,3.55v7.89h-1.18V311.1h1.15v2.44a4.44,4.44,0,0,1,1.86-2.06,5.57,5.57,0,0,1,2.84-.71C459.59,310.77,461.23,312.48,461.23,315.92Z" transform="translate(-7.59 -11.68)"/><path class="cls-1" d="M468,311.1H472v1H468v12.54h-1.18V312.11h-2.71v-1h2.71v-.87a5.52,5.52,0,0,1,1.22-3.86,5.22,5.22,0,0,1,3.68-1.46l.87-.05.14,1-1.29.09a3.39,3.39,0,0,0-2.6,1.17,4.89,4.89,0,0,0-.84,3.08Z" transform="translate(-7.59 -11.68)"/><path class="cls-1" d="M476.77,324a5.77,5.77,0,0,1-2.13-2.46,8.71,8.71,0,0,1-.75-3.73,8.56,8.56,0,0,1,.75-3.69,6,6,0,0,1,8.46-2.47,5.81,5.81,0,0,1,2.13,2.47,8.56,8.56,0,0,1,.75,3.69,8.71,8.71,0,0,1-.75,3.73,5.63,5.63,0,0,1-5.3,3.33A5.77,5.77,0,0,1,476.77,324Zm6.71-1.81a6.74,6.74,0,0,0,1.24-4.38,6.62,6.62,0,0,0-1.27-4.32,4.74,4.74,0,0,0-7,0,6.62,6.62,0,0,0-1.27,4.32,6.74,6.74,0,0,0,1.24,4.38,4.28,4.28,0,0,0,3.52,1.53A4.36,4.36,0,0,0,483.48,322.17Z" transform="translate(-7.59 -11.68)"/><path class="cls-1" d="M496.62,311.83l-.95.11a4.34,4.34,0,0,0-4.4,4.59v8.12H490.1V311.1h1.17v2.38a4.41,4.41,0,0,1,1.78-1.89,7.11,7.11,0,0,1,2.84-.77l.59-.05Z" transform="translate(-7.59 -11.68)"/><path class="cls-1" d="M518.15,315.92v8.73H517V316a5,5,0,0,0-.79-3.15,3,3,0,0,0-2.49-1,3.93,3.93,0,0,0-3.12,1.32,5.16,5.16,0,0,0-1.16,3.56v7.89h-1.18V316a5.1,5.1,0,0,0-.78-3.15,3,3,0,0,0-2.5-1,4,4,0,0,0-3.12,1.32,5.21,5.21,0,0,0-1.16,3.56v7.89H499.5V311.1h1.15v2.38a4.35,4.35,0,0,1,1.67-2,4.85,4.85,0,0,1,2.62-.69q3.24,0,4.17,2.71a4.5,4.5,0,0,1,1.8-2,5.36,5.36,0,0,1,2.76-.72C516.66,310.77,518.15,312.48,518.15,315.92Z" transform="translate(-7.59 -11.68)"/><path class="cls-1" d="M533,315.78v8.87h-1.2v-2.49a4.6,4.6,0,0,1-1.78,2,5,5,0,0,1-2.65.7,5.31,5.31,0,0,1-2.36-.53,4.39,4.39,0,0,1-1.71-1.47,3.62,3.62,0,0,1-.63-2.06,3.24,3.24,0,0,1,.8-2.34,4.93,4.93,0,0,1,2.63-1.19,28.17,28.17,0,0,1,5.14-.36h.56v-1.18a4.37,4.37,0,0,0-.79-2.9,3.13,3.13,0,0,0-2.49-.91,8.08,8.08,0,0,0-2.42.35,9.87,9.87,0,0,0-2.31,1.14l-.56-1a8.23,8.23,0,0,1,2.39-1.19,8.94,8.94,0,0,1,2.73-.43Q533,310.77,533,315.78Zm-3.36,7.29a4.28,4.28,0,0,0,1.58-1.66,4.94,4.94,0,0,0,.58-2.41v-1h-.54a31.05,31.05,0,0,0-4.47.24,4.16,4.16,0,0,0-2.16.81,2.2,2.2,0,0,0-.62,1.69,2.7,2.7,0,0,0,1,2.12,3.56,3.56,0,0,0,2.41.82A4.35,4.35,0,0,0,529.66,323.07Z" transform="translate(-7.59 -11.68)"/><path class="cls-1" d="M544.25,323.65l-.06,1.09a9.89,9.89,0,0,1-1.26.08,4.16,4.16,0,0,1-3.23-1.22,4.58,4.58,0,0,1-1.14-3.26v-8.23h-2.71v-1h2.71v-4.23h1.18v4.23h4.09v1h-4.09v8a3.89,3.89,0,0,0,.84,2.71,3.19,3.19,0,0,0,2.49.93A8.53,8.53,0,0,0,544.25,323.65Z" transform="translate(-7.59 -11.68)"/><path class="cls-1" d="M548.56,305.56v1.76h-1.79v-1.76Zm-1.48,5.54h1.17v13.55h-1.17Z" transform="translate(-7.59 -11.68)"/><path class="cls-1" d="M555.25,324a5.84,5.84,0,0,1-2.13-2.46,8.71,8.71,0,0,1-.75-3.73,8.56,8.56,0,0,1,.75-3.69,5.82,5.82,0,0,1,10.59,0,8.56,8.56,0,0,1,.75,3.69,8.71,8.71,0,0,1-.75,3.73,6,6,0,0,1-8.46,2.46Zm6.71-1.81a6.74,6.74,0,0,0,1.24-4.38,6.62,6.62,0,0,0-1.27-4.32,4.74,4.74,0,0,0-7,0,6.62,6.62,0,0,0-1.27,4.32,6.74,6.74,0,0,0,1.24,4.38,4.29,4.29,0,0,0,3.52,1.53A4.34,4.34,0,0,0,562,322.17Z" transform="translate(-7.59 -11.68)"/><path class="cls-1" d="M579.36,315.92v8.73h-1.18V316a4.76,4.76,0,0,0-.86-3.15,3.56,3.56,0,0,0-2.8-1,4.65,4.65,0,0,0-3.46,1.33,4.85,4.85,0,0,0-1.3,3.55v7.89h-1.18V311.1h1.15v2.44a4.44,4.44,0,0,1,1.86-2.06,5.57,5.57,0,0,1,2.84-.71C577.72,310.77,579.36,312.48,579.36,315.92Z" transform="translate(-7.59 -11.68)"/><path class="cls-2" d="M460.05,334.51v19.74h-2.71l-10.59-13.77v13.77h-3.36V334.51h2.69l10.59,13.75V334.51Z" transform="translate(-7.59 -11.68)"/><path class="cls-2" d="M476.85,348h-9.32a4.23,4.23,0,0,0,1.15,2.83,3.94,3.94,0,0,0,2.8.92,6.6,6.6,0,0,0,4.14-1.46l1,2.41a7.4,7.4,0,0,1-2.39,1.26,9.18,9.18,0,0,1-2.9.48,7.27,7.27,0,0,1-5.31-1.91,6.92,6.92,0,0,1-1.94-5.2,8,8,0,0,1,.84-3.73,6.11,6.11,0,0,1,2.36-2.52,6.68,6.68,0,0,1,3.46-.89,5.7,5.7,0,0,1,4.47,1.82,7.21,7.21,0,0,1,1.63,5Zm-8.27-4.45a4.31,4.31,0,0,0-1.05,2.57h6.33a4,4,0,0,0-.84-2.59,2.76,2.76,0,0,0-2.19-.88A3,3,0,0,0,468.58,343.59Z" transform="translate(-7.59 -11.68)"/><path class="cls-2" d="M488.64,351.76l-.17,2.61c-.56.05-1.07.08-1.54.08a5.89,5.89,0,0,1-4.25-1.33,5.26,5.26,0,0,1-1.37-4v-6h-2.64v-2.63h2.64v-4.09h3.5v4.09h3.61v2.63h-3.61v5.91c0,1.83.85,2.74,2.54,2.74A9.7,9.7,0,0,0,488.64,351.76Z" transform="translate(-7.59 -11.68)"/><path class="cls-2" d="M513.65,340.56l-5.38,13.69h-3l-3.36-8.82-3.28,8.82h-3l-5.41-13.69h3.59l3.5,9.52,3.5-9.52h2.52l3.5,9.58,3.47-9.58Z" transform="translate(-7.59 -11.68)"/><path class="cls-2" d="M518.9,353.61a6,6,0,0,1-2.46-2.49,8,8,0,0,1-.86-3.78,7.92,7.92,0,0,1,.86-3.77,6.06,6.06,0,0,1,2.46-2.48,8.3,8.3,0,0,1,7.36,0,5.93,5.93,0,0,1,2.43,2.48,7.92,7.92,0,0,1,.86,3.77,8,8,0,0,1-.86,3.78,5.9,5.9,0,0,1-2.43,2.49,8.22,8.22,0,0,1-7.36,0Zm6.25-3a6.48,6.48,0,0,0,0-6.59,3.06,3.06,0,0,0-2.57-1.14,3.11,3.11,0,0,0-2.59,1.14,5.12,5.12,0,0,0-.91,3.29,5.26,5.26,0,0,0,.89,3.3,3.55,3.55,0,0,0,5.18,0Z" transform="translate(-7.59 -11.68)"/><path class="cls-2" d="M542.29,343.14l-2,.19c-2.32.25-3.48,1.42-3.48,3.53v7.39h-3.5V340.56h3.34V343c.7-1.64,2.17-2.54,4.39-2.69l1.07-.08Z" transform="translate(-7.59 -11.68)"/><path class="cls-2" d="M554.22,354.25,548.34,348v6.24h-3.5V334.51h3.5v12l5.51-6h4.26L552,347.14l6.61,7.11Z" transform="translate(-7.59 -11.68)"/><circle class="cls-3" cx="364.22" cy="269.26" r="3.48"/><circle class="cls-3" cx="364.22" cy="312.55" r="3.48"/><circle class="cls-4" cx="413.58" cy="307.74" r="3.48"/><circle class="cls-4" cx="414.9" cy="275.92" r="3.48"/><path class="cls-5" d="M391,271a31.6,31.6,0,0,0,0,62.7" transform="translate(-7.59 -11.68)"/><path class="cls-6" d="M399,333.71a31.6,31.6,0,0,0,0-62.7" transform="translate(-7.59 -11.68)"/><circle class="cls-3" cx="399.17" cy="311" r="2.57"/><circle class="cls-4" cx="384.5" cy="267.49" r="2.69"/><path class="cls-7" d="M371.82,305.3a23.34,23.34,0,0,0,46.3,0" transform="translate(-7.59 -11.68)"/><path class="cls-8" d="M418.12,299.4a23.34,23.34,0,0,0-46.3,0" transform="translate(-7.59 -11.68)"/><circle class="cls-3" cx="402.04" cy="292.18" r="2"/><circle class="cls-4" cx="376.78" cy="280.5" r="2"/><path class="cls-9" d="M385.91,314.41a14.85,14.85,0,0,0,20.7-21" transform="translate(-7.59 -11.68)"/><path class="cls-10" d="M403.93,290.81a14.85,14.85,0,0,0-20.69,21" transform="translate(-7.59 -11.68)"/><path class="cls-11" d="M252.43,270.9a15.07,15.07,0,0,1,16.17-7.27l36.9,7.77a12.08,12.08,0,0,0,14.08-8.3,160.27,160.27,0,0,1,36.49-62.66A156.18,156.18,0,0,1,421.68,159c19.81-6.49,89.41-23.58,153.13,28.92a1.49,1.49,0,0,1-1.89,2.3c-62.55-51.55-130.87-34.77-150.32-28.4A155.81,155.81,0,0,0,322.41,264a15,15,0,0,1-17.52,10.33L268,266.54A12.1,12.1,0,0,0,255.25,272Z" transform="translate(-7.59 -11.68)"/><path class="cls-11" d="M620.5,143a15.05,15.05,0,0,1-1.42,17.67l-24.59,28.6a12.07,12.07,0,0,0,.49,16.33,160.47,160.47,0,0,1,37.31,62.17,156.14,156.14,0,0,1,4.7,77.47c-3.86,20.48-22.43,89.7-99.14,120.22a1.48,1.48,0,1,1-1.1-2.75c75.31-30,93.53-97.91,97.32-118a155.74,155.74,0,0,0-41.22-137,15,15,0,0,1-.61-20.34l24.59-28.59A12.11,12.11,0,0,0,618.22,145Z" transform="translate(-7.59 -11.68)"/><path class="cls-12" d="M627.83,151.66A65.55,65.55,0,0,0,713,52.42" transform="translate(-7.59 -11.68)"/><path class="cls-12" d="M703.68,44.77a65.54,65.54,0,0,0-84.32,99.36" transform="translate(-7.59 -11.68)"/><polygon class="cls-4" points="637.38 88.64 637.38 63.76 659.34 54.98 681.29 63.76 681.29 88.64 659.34 97.43 637.38 88.64"/><polygon class="cls-13" points="627.13 93.03 652.02 103.28 659.34 98.89 659.34 97.43 634.45 87.18 627.13 91.57 627.13 93.03"/><polygon class="cls-13" points="691.54 93.03 666.65 103.28 659.34 98.89 659.34 97.43 684.22 87.18 691.54 91.57 691.54 93.03"/><polyline class="cls-13" points="637.38 85.97 634.45 87.18 627.13 82.79 627.13 81.33 637.38 77.11"/><polyline class="cls-13" points="681.29 85.72 684.22 87.18 691.54 82.79 691.54 81.33 681.29 77.11"/><line class="cls-13" x1="659.34" y1="98.89" x2="659.34" y2="119.38"/><polyline class="cls-13" points="684.22 95.96 684.22 109.14 659.34 119.38 634.45 109.14 634.45 95.96"/><line class="cls-13" x1="659.34" y1="72.54" x2="659.34" y2="97.43"/><polyline class="cls-13" points="637.38 88.64 637.38 63.76 659.34 54.98 681.29 63.76 681.29 88.64"/><line class="cls-13" x1="659.34" y1="72.54" x2="637.38" y2="63.76"/><line class="cls-13" x1="681.29" y1="63.76" x2="659.34" y2="72.54"/><rect class="cls-4" x="548.08" y="578.53" width="9.33" height="22.65"/><rect class="cls-4" x="568.07" y="578.53" width="9.33" height="22.65"/><rect class="cls-4" x="526.76" y="578.53" width="9.33" height="22.65"/><polygon class="cls-4" points="582.06 566.53 552.26 547.88 522.47 566.53 522.47 573.42 582.06 573.42 582.06 566.53"/><path class="cls-14" d="M562.41,570.48H557.3a1,1,0,0,0,0,2h5.11a1,1,0,0,0,0-2Zm30.64,49.38H525a1,1,0,0,0,0,2h68.1a1,1,0,0,0,0-2Zm-63-4.81h59.6a1,1,0,0,0,0-2h-4.11V590.21a1,1,0,0,0-2,0v22.84H577V590.21a1,1,0,1,0-2,0v22.84h-9.92V590.21a1,1,0,0,0-2,0v22.84h-6.52V590.21a1,1,0,0,0-2,0v22.84h-9.91V590.21a1,1,0,0,0-2,0v22.84h-6.52V590.21a1,1,0,0,0-2,0v22.84h-4.11a1,1,0,0,0,0,2Zm0-28.95h59.6a1,1,0,0,0,1-1v-6.9a1,1,0,0,0-.47-.84l-29.8-18.65a1,1,0,0,0-1.06,0l-29.8,18.65a1,1,0,0,0-.47.84v6.9A1,1,0,0,0,530.05,586.1Zm29.8-25.36,26.46,16.55H533.39Zm-28.8,18.55h57.6v4.81h-57.6Z" transform="translate(-7.59 -11.68)"/><path class="cls-4" d="M210.45,247A5.47,5.47,0,0,1,205,241.5v-.24a5.46,5.46,0,0,1,5.46-5.46h9.43v-9.31H166.66A4.45,4.45,0,0,1,162.2,222v27.91a4.46,4.46,0,0,0,4.46,4.46h53.22V247Z" transform="translate(-7.59 -11.68)"/><path class="cls-14" d="M219.88,251.15a1.39,1.39,0,0,0-1.4,1.39v.56A1.45,1.45,0,0,0,218,253H166.66a3.08,3.08,0,0,1-3.07-3.07V227a5.86,5.86,0,0,0,3.07.89H218a1.24,1.24,0,0,0,.47-.1v2.42a1.4,1.4,0,1,0,2.79,0V209.75a1.4,1.4,0,0,0-1.39-1.4H212v-6a1.4,1.4,0,0,0-1.4-1.39H173.36a1.4,1.4,0,0,0-1.4,1.39v6h-5.11a6.05,6.05,0,0,0-6,6.05c0,.21,0,.41.06.62a1.55,1.55,0,0,0-.06.31v40.23a7.68,7.68,0,0,0,7.68,7.68h51.4a1.4,1.4,0,0,0,1.39-1.4v-9.3A1.39,1.39,0,0,0,219.88,251.15Zm-7.91-40h6.51v6.51H212Zm-37.21-7.44h34.42v14H174.76Zm-7.91,7.44H172v6.51h-5.11a3.26,3.26,0,1,1,0-6.51Zm-3.26,8.34a6.06,6.06,0,0,0,3.26,1h51.63v4.74a1.45,1.45,0,0,0-.47-.09H166.66a3.08,3.08,0,0,1-3.07-3.07Zm54.89,41h-50a4.89,4.89,0,0,1-4.89-4.89v-.65a5.86,5.86,0,0,0,3.07.89H218a1.24,1.24,0,0,0,.47-.1Zm-37.68-54a1.4,1.4,0,0,0-1.39,1.4v5.58a1.4,1.4,0,0,0,2.79,0v-5.58A1.4,1.4,0,0,0,180.8,206.49Zm22.33,0a1.4,1.4,0,0,0-1.4,1.4v5.58a1.4,1.4,0,0,0,2.8,0v-5.58A1.4,1.4,0,0,0,203.13,206.49Zm18.61,27.91H210.45a6.87,6.87,0,0,0-6.86,6.86v.24a6.86,6.86,0,0,0,6.86,6.85h11.29a1.39,1.39,0,0,0,1.39-1.39V235.8A1.39,1.39,0,0,0,221.74,234.4Zm-1.4,11.16h-9.89a4.06,4.06,0,0,1-4.06-4.06v-.24a4.07,4.07,0,0,1,4.06-4.07h9.89Zm-7.91-2.79h1.86a1.4,1.4,0,1,0,0-2.79h-1.86a1.4,1.4,0,0,0,0,2.79Z" transform="translate(-7.59 -11.68)"/><path class="cls-12" d="M141.45,204.41a65.54,65.54,0,0,0,112.19,67.15" transform="translate(-7.59 -11.68)"/><path class="cls-12" d="M259.8,259.71a65.54,65.54,0,0,0-113.71-63.65" transform="translate(-7.59 -11.68)"/><path class="cls-11" d="M545.82,528.54a15.06,15.06,0,0,1-14.54-10.14L519,482.74a12.07,12.07,0,0,0-14.35-7.81,160.37,160.37,0,0,1-72.5.85,156.09,156.09,0,0,1-69.26-35c-15.75-13.67-66.15-64.61-53.81-146.25A1.49,1.49,0,1,1,312,295c-12.12,80.14,37.36,130.15,52.81,143.57a155.85,155.85,0,0,0,139.11,33.52,15,15,0,0,1,17.86,9.73l12.29,35.65a12.12,12.12,0,0,0,11.2,8.15Z" transform="translate(-7.59 -11.68)"/><path class="cls-12" d="M534.64,530.5a65.54,65.54,0,0,0,42.74,123.57" transform="translate(-7.59 -11.68)"/><path class="cls-12" d="M588.68,649.9A65.55,65.55,0,0,0,545.42,527" transform="translate(-7.59 -11.68)"/><path d="M13.52,12.43a16.73,16.73,0,0,1,2.83-.23,4.67,4.67,0,0,1,3.22,1,3.05,3.05,0,0,1,1,2.39A3.4,3.4,0,0,1,19.69,18a4.78,4.78,0,0,1-3.51,1.26,5.39,5.39,0,0,1-1.19-.1v4.59H13.52ZM15,18a5.32,5.32,0,0,0,1.23.12c1.78,0,2.87-.87,2.87-2.45s-1.07-2.24-2.7-2.24a6.14,6.14,0,0,0-1.4.12Z" transform="translate(-7.59 -11.68)"/><path d="M32.35,17.9c0,3.94-2.4,6-5.32,6s-5.15-2.34-5.15-5.81c0-3.64,2.26-6,5.32-6S32.35,14.5,32.35,17.9Zm-8.89.19c0,2.44,1.33,4.64,3.65,4.64s3.68-2.16,3.68-4.76c0-2.28-1.19-4.66-3.66-4.66S23.46,15.57,23.46,18.09Z" transform="translate(-7.59 -11.68)"/><path d="M34,22.22a3.89,3.89,0,0,0,2,.59c1.09,0,1.6-.54,1.6-1.22s-.43-1.11-1.53-1.52c-1.48-.52-2.18-1.34-2.18-2.32a2.54,2.54,0,0,1,2.84-2.42,4.13,4.13,0,0,1,2,.51l-.37,1.09a3.23,3.23,0,0,0-1.68-.48c-.89,0-1.38.51-1.38,1.13s.49,1,1.56,1.39c1.43.54,2.16,1.26,2.16,2.48,0,1.45-1.12,2.47-3.07,2.47a4.7,4.7,0,0,1-2.32-.56Z" transform="translate(-7.59 -11.68)"/><path d="M51.78,23.75c-.32-.33-.63-.65-1.07-1.13a4.69,4.69,0,0,1-3.35,1.31,3.24,3.24,0,0,1-3.52-3.21,3.78,3.78,0,0,1,2.25-3.35v-.05a3.91,3.91,0,0,1-1-2.4A2.78,2.78,0,0,1,48,12.1a2.38,2.38,0,0,1,2.53,2.43c0,1.21-.69,2.16-2.51,3.06v.05c1,1.13,2.06,2.38,2.79,3.2A8.48,8.48,0,0,0,52,17.49h1.36a8.64,8.64,0,0,1-1.65,4.23l1.89,2Zm-1.8-2c-.68-.74-1.95-2.14-3.23-3.6a2.82,2.82,0,0,0-1.48,2.33,2.26,2.26,0,0,0,2.35,2.31A3.18,3.18,0,0,0,50,21.77Zm-3.48-7a3.21,3.21,0,0,0,.86,2.05c1.16-.66,1.91-1.27,1.91-2.24a1.35,1.35,0,0,0-1.33-1.48A1.49,1.49,0,0,0,46.5,14.79Z" transform="translate(-7.59 -11.68)"/><path d="M60,12.29V23.75H58.5V12.29Z" transform="translate(-7.59 -11.68)"/><path d="M62.68,17.75c0-.85,0-1.55-.07-2.23h1.33L64,16.88h0a3,3,0,0,1,2.72-1.55c1.14,0,2.9.68,2.9,3.5v4.92H68.19V19c0-1.32-.5-2.43-1.91-2.43a2.19,2.19,0,0,0-2.1,2.23v4.95h-1.5Z" transform="translate(-7.59 -11.68)"/><path d="M72.47,15.52l1.62,4.62a21.85,21.85,0,0,1,.66,2.11h0c.19-.68.43-1.36.7-2.11l1.6-4.62h1.56l-3.23,8.23H74l-3.13-8.23Z" transform="translate(-7.59 -11.68)"/><path d="M87.35,19.56a4,4,0,0,1-4.1,4.37,3.91,3.91,0,0,1-3.94-4.23,4,4,0,0,1,4.08-4.37A3.9,3.9,0,0,1,87.35,19.56Zm-6.53.09c0,1.8,1,3.16,2.5,3.16s2.5-1.34,2.5-3.19c0-1.4-.7-3.17-2.47-3.17S80.82,18.09,80.82,19.65Z" transform="translate(-7.59 -11.68)"/><path d="M90.9,13.21a.93.93,0,0,1-1.85,0,.91.91,0,0,1,.93-.94A.89.89,0,0,1,90.9,13.21ZM89.23,23.75V15.52h1.5v8.23Z" transform="translate(-7.59 -11.68)"/><path d="M99.08,23.44a5.57,5.57,0,0,1-2.37.48,3.91,3.91,0,0,1-4.09-4.2A4.18,4.18,0,0,1,97,15.35a5.08,5.08,0,0,1,2.07.42l-.34,1.16A3.52,3.52,0,0,0,97,16.54a2.85,2.85,0,0,0-2.91,3.11A2.82,2.82,0,0,0,97,22.73a4.15,4.15,0,0,0,1.83-.41Z" transform="translate(-7.59 -11.68)"/><path d="M101.56,19.9a2.63,2.63,0,0,0,2.82,2.86,5.56,5.56,0,0,0,2.28-.42l.25,1.07a6.77,6.77,0,0,1-2.73.51,3.82,3.82,0,0,1-4.05-4.15c0-2.48,1.46-4.44,3.86-4.44,2.68,0,3.4,2.37,3.4,3.88,0,.3,0,.54,0,.69Zm4.38-1.07a2.13,2.13,0,0,0-2.07-2.43,2.47,2.47,0,0,0-2.29,2.43Z" transform="translate(-7.59 -11.68)"/><path d="M109,22.22a3.89,3.89,0,0,0,2,.59c1.09,0,1.6-.54,1.6-1.22s-.43-1.11-1.53-1.52c-1.48-.52-2.18-1.34-2.18-2.32a2.54,2.54,0,0,1,2.84-2.42,4.1,4.1,0,0,1,2,.51l-.37,1.09a3.23,3.23,0,0,0-1.68-.48c-.89,0-1.38.51-1.38,1.13s.49,1,1.56,1.39c1.43.54,2.16,1.26,2.16,2.48,0,1.45-1.12,2.47-3.07,2.47a4.73,4.73,0,0,1-2.32-.56Z" transform="translate(-7.59 -11.68)"/><path d="M120.41,19.9a2.64,2.64,0,0,0,2.82,2.86,5.56,5.56,0,0,0,2.28-.42l.26,1.07a6.83,6.83,0,0,1-2.74.51,3.83,3.83,0,0,1-4-4.15c0-2.48,1.47-4.44,3.86-4.44,2.69,0,3.4,2.37,3.4,3.88a5.05,5.05,0,0,1,0,.69Zm4.39-1.07a2.13,2.13,0,0,0-2.08-2.43,2.48,2.48,0,0,0-2.29,2.43Z" transform="translate(-7.59 -11.68)"/><path d="M128.74,15.52l1.17,1.77c.31.46.57.88.84,1.34h.05c.27-.49.54-.92.81-1.36l1.16-1.75h1.61l-2.8,4,2.89,4.25h-1.7l-1.21-1.86c-.32-.47-.59-.93-.88-1.42h0c-.28.49-.57.93-.87,1.42l-1.19,1.86h-1.65l2.92-4.2-2.78-4Z" transform="translate(-7.59 -11.68)"/><path d="M141.53,23.44a5.61,5.61,0,0,1-2.37.48,3.91,3.91,0,0,1-4.09-4.2,4.18,4.18,0,0,1,4.42-4.37,5.08,5.08,0,0,1,2.07.42l-.34,1.16a3.52,3.52,0,0,0-1.73-.39,2.85,2.85,0,0,0-2.91,3.11,2.82,2.82,0,0,0,2.85,3.08,4.2,4.2,0,0,0,1.84-.41Z" transform="translate(-7.59 -11.68)"/><path d="M143.28,11.68h1.49v5.13h0a2.77,2.77,0,0,1,1.07-1,3,3,0,0,1,1.53-.43c1.1,0,2.87.68,2.87,3.52v4.9h-1.5V19c0-1.32-.49-2.45-1.9-2.45a2.14,2.14,0,0,0-2,1.5,1.68,1.68,0,0,0-.11.71v5h-1.49Z" transform="translate(-7.59 -11.68)"/><path d="M157.27,23.75l-.12-1h-.05a3.07,3.07,0,0,1-2.52,1.22,2.34,2.34,0,0,1-2.51-2.36c0-2,1.76-3.08,4.94-3.06v-.17a1.69,1.69,0,0,0-1.87-1.9,4.15,4.15,0,0,0-2.14.61l-.34-1a5.13,5.13,0,0,1,2.7-.73c2.52,0,3.13,1.72,3.13,3.37v3.07a11.81,11.81,0,0,0,.14,2Zm-.22-4.2c-1.64,0-3.49.25-3.49,1.85A1.33,1.33,0,0,0,155,22.83a2,2,0,0,0,2-1.38,1.56,1.56,0,0,0,.09-.47Z" transform="translate(-7.59 -11.68)"/><path d="M160.91,17.75c0-.85,0-1.55-.07-2.23h1.32l.09,1.36h0A3,3,0,0,1,165,15.33c1.14,0,2.91.68,2.91,3.5v4.92h-1.5V19c0-1.32-.49-2.43-1.9-2.43a2.14,2.14,0,0,0-2,1.53,2.41,2.41,0,0,0-.1.7v4.95h-1.49Z" transform="translate(-7.59 -11.68)"/><path d="M177.43,15.52c0,.59-.07,1.26-.07,2.26v4.78c0,1.88-.37,3-1.17,3.75a4.36,4.36,0,0,1-3,1,5.32,5.32,0,0,1-2.74-.68l.37-1.14a4.68,4.68,0,0,0,2.42.65c1.53,0,2.65-.8,2.65-2.88v-.91h0a3,3,0,0,1-2.62,1.37c-2,0-3.5-1.73-3.5-4,0-2.79,1.82-4.37,3.7-4.37A2.74,2.74,0,0,1,176,16.76h0l.07-1.24Zm-1.55,3.25a2,2,0,0,0-.08-.68,2.15,2.15,0,0,0-2.09-1.58c-1.43,0-2.45,1.2-2.45,3.11,0,1.61.81,2.95,2.43,2.95A2.17,2.17,0,0,0,175.76,21a2.43,2.43,0,0,0,.12-.8Z" transform="translate(-7.59 -11.68)"/><path d="M180.68,19.9a2.63,2.63,0,0,0,2.82,2.86,5.56,5.56,0,0,0,2.28-.42l.25,1.07a6.83,6.83,0,0,1-2.74.51,3.82,3.82,0,0,1-4-4.15c0-2.48,1.46-4.44,3.86-4.44,2.68,0,3.4,2.37,3.4,3.88,0,.3,0,.54,0,.69Zm4.38-1.07A2.13,2.13,0,0,0,183,16.4a2.49,2.49,0,0,0-2.3,2.43Z" transform="translate(-7.59 -11.68)"/><path d="M195.47,11.68v9.94c0,.73,0,1.57.06,2.13h-1.34l-.07-1.43h0a3,3,0,0,1-2.81,1.61c-2,0-3.51-1.68-3.51-4.18,0-2.74,1.68-4.42,3.68-4.42a2.78,2.78,0,0,1,2.49,1.26h0V11.68ZM194,18.87a2.7,2.7,0,0,0-.07-.63,2.19,2.19,0,0,0-2.16-1.73c-1.54,0-2.46,1.35-2.46,3.17s.81,3.05,2.43,3.05a2.25,2.25,0,0,0,2.19-1.79,2.62,2.62,0,0,0,.07-.64Z" transform="translate(-7.59 -11.68)"/><path d="M202.13,15.52l1.62,4.62a21.85,21.85,0,0,1,.66,2.11h.05c.19-.68.42-1.36.7-2.11l1.59-4.62h1.57l-3.23,8.23h-1.43l-3.13-8.23Z" transform="translate(-7.59 -11.68)"/><path d="M211.4,13.21a.93.93,0,0,1-1.86,0,.91.91,0,0,1,.94-.94A.89.89,0,0,1,211.4,13.21Zm-1.67,10.54V15.52h1.5v8.23Z" transform="translate(-7.59 -11.68)"/><path d="M218.26,23.75l-.12-1h0a3,3,0,0,1-2.51,1.22,2.34,2.34,0,0,1-2.52-2.36c0-2,1.77-3.08,4.95-3.06v-.17a1.69,1.69,0,0,0-1.87-1.9,4.09,4.09,0,0,0-2.14.61l-.34-1a5.11,5.11,0,0,1,2.7-.73c2.52,0,3.13,1.72,3.13,3.37v3.07a11.88,11.88,0,0,0,.13,2Zm-.22-4.2c-1.63,0-3.48.25-3.48,1.85A1.32,1.32,0,0,0,216,22.83a2,2,0,0,0,2-1.38A1.55,1.55,0,0,0,218,21Z" transform="translate(-7.59 -11.68)"/><path d="M226.34,19.9a2.63,2.63,0,0,0,2.82,2.86,5.56,5.56,0,0,0,2.28-.42l.25,1.07a6.73,6.73,0,0,1-2.73.51,3.82,3.82,0,0,1-4.05-4.15c0-2.48,1.46-4.44,3.86-4.44,2.69,0,3.4,2.37,3.4,3.88,0,.3,0,.54,0,.69Zm4.38-1.07a2.13,2.13,0,0,0-2.07-2.43,2.47,2.47,0,0,0-2.29,2.43Z" transform="translate(-7.59 -11.68)"/><path d="M234.67,15.52l1.17,1.77c.31.46.56.88.83,1.34h.06c.27-.49.54-.92.81-1.36l1.16-1.75h1.61l-2.8,4,2.89,4.25h-1.7l-1.21-1.86c-.32-.47-.59-.93-.88-1.42h0c-.27.49-.56.93-.86,1.42l-1.19,1.86h-1.65l2.92-4.2-2.79-4Z" transform="translate(-7.59 -11.68)"/><path d="M243.51,13.21a.93.93,0,0,1-1.85,0,.91.91,0,0,1,.93-.94A.89.89,0,0,1,243.51,13.21Zm-1.67,10.54V15.52h1.5v8.23Z" transform="translate(-7.59 -11.68)"/><path d="M245.62,22.22a3.89,3.89,0,0,0,2,.59c1.09,0,1.6-.54,1.6-1.22s-.43-1.11-1.53-1.52c-1.48-.52-2.18-1.34-2.18-2.32a2.54,2.54,0,0,1,2.84-2.42,4.13,4.13,0,0,1,2,.51L250,16.93a3.23,3.23,0,0,0-1.68-.48c-.89,0-1.38.51-1.38,1.13s.49,1,1.56,1.39c1.43.54,2.16,1.26,2.16,2.48,0,1.45-1.12,2.47-3.08,2.47a4.69,4.69,0,0,1-2.31-.56Z" transform="translate(-7.59 -11.68)"/><path d="M254.35,13.16v2.36h2.15v1.14h-2.15v4.43c0,1,.29,1.6,1.13,1.6a3.29,3.29,0,0,0,.86-.1l.07,1.12a3.62,3.62,0,0,1-1.32.21,2.08,2.08,0,0,1-1.62-.63,3.08,3.08,0,0,1-.58-2.14V16.66h-1.27V15.52h1.27v-2Z" transform="translate(-7.59 -11.68)"/><path d="M259.85,13.21a.93.93,0,0,1-1.86,0,.91.91,0,0,1,.94-.94A.89.89,0,0,1,259.85,13.21Zm-1.67,10.54V15.52h1.5v8.23Z" transform="translate(-7.59 -11.68)"/><path d="M262.16,17.75c0-.85,0-1.55-.07-2.23h1.33l.08,1.36h0a3,3,0,0,1,2.72-1.55c1.14,0,2.91.68,2.91,3.5v4.92h-1.49V19c0-1.32-.5-2.43-1.91-2.43a2.12,2.12,0,0,0-2,1.53,2.1,2.1,0,0,0-.11.7v4.95h-1.49Z" transform="translate(-7.59 -11.68)"/><path d="M278.68,15.52c0,.59-.07,1.26-.07,2.26v4.78c0,1.88-.37,3-1.17,3.75a4.35,4.35,0,0,1-3,1,5.35,5.35,0,0,1-2.74-.68l.38-1.14a4.61,4.61,0,0,0,2.41.65c1.53,0,2.65-.8,2.65-2.88v-.91h0a3,3,0,0,1-2.62,1.37c-2,0-3.5-1.73-3.5-4,0-2.79,1.82-4.37,3.7-4.37a2.74,2.74,0,0,1,2.57,1.43h0l.07-1.24Zm-1.55,3.25a2,2,0,0,0-.08-.68A2.15,2.15,0,0,0,275,16.51c-1.43,0-2.45,1.2-2.45,3.11,0,1.61.82,2.95,2.43,2.95A2.19,2.19,0,0,0,277,21a2.71,2.71,0,0,0,.11-.8Z" transform="translate(-7.59 -11.68)"/><path d="M13.26,42.62a3.89,3.89,0,0,0,2,.59c1.09,0,1.6-.54,1.6-1.22s-.42-1.11-1.53-1.52c-1.48-.52-2.18-1.34-2.18-2.32A2.54,2.54,0,0,1,16,35.73a4.14,4.14,0,0,1,2,.51l-.38,1.09a3.23,3.23,0,0,0-1.68-.48c-.88,0-1.38.51-1.38,1.13s.5,1,1.57,1.39c1.42.54,2.16,1.26,2.16,2.48,0,1.45-1.13,2.47-3.08,2.47a4.66,4.66,0,0,1-2.31-.56Z" transform="translate(-7.59 -11.68)"/><path d="M20.74,35.92l1.8,4.86c.19.54.39,1.19.53,1.68h0c.16-.49.33-1.12.53-1.71l1.63-4.83h1.58L24.6,41.78c-1.07,2.83-1.8,4.27-2.82,5.15a4,4,0,0,1-1.84,1l-.37-1.26a3.81,3.81,0,0,0,1.31-.73,4.6,4.6,0,0,0,1.25-1.66,1,1,0,0,0,.12-.36,1.27,1.27,0,0,0-.1-.39l-3-7.58Z" transform="translate(-7.59 -11.68)"/><path d="M27.9,42.62a3.89,3.89,0,0,0,2,.59c1.09,0,1.6-.54,1.6-1.22s-.43-1.11-1.53-1.52c-1.48-.52-2.18-1.34-2.18-2.32a2.54,2.54,0,0,1,2.84-2.42,4.13,4.13,0,0,1,2,.51l-.37,1.09a3.23,3.23,0,0,0-1.68-.48c-.89,0-1.38.51-1.38,1.13s.49,1,1.56,1.39c1.43.54,2.16,1.26,2.16,2.48,0,1.45-1.12,2.47-3.07,2.47a4.7,4.7,0,0,1-2.32-.56Z" transform="translate(-7.59 -11.68)"/><path d="M36.63,33.56v2.36h2.15v1.14H36.63v4.43c0,1,.29,1.6,1.13,1.6a3.29,3.29,0,0,0,.86-.1l.07,1.12a3.62,3.62,0,0,1-1.32.21,2.08,2.08,0,0,1-1.62-.63,3.08,3.08,0,0,1-.58-2.14V37.06H33.9V35.92h1.27V34Z" transform="translate(-7.59 -11.68)"/><path d="M41.19,40.3A2.64,2.64,0,0,0,44,43.16a5.56,5.56,0,0,0,2.28-.42l.26,1.07a6.83,6.83,0,0,1-2.74.51,3.83,3.83,0,0,1-4.05-4.15c0-2.48,1.47-4.44,3.86-4.44,2.69,0,3.4,2.36,3.4,3.88a5.05,5.05,0,0,1-.05.69Zm4.39-1.07A2.13,2.13,0,0,0,43.5,36.8a2.48,2.48,0,0,0-2.29,2.43Z" transform="translate(-7.59 -11.68)"/><path d="M48.88,38.15c0-.85,0-1.55-.07-2.23h1.31l.06,1.32h0a2.85,2.85,0,0,1,2.59-1.51,2.44,2.44,0,0,1,2.33,1.65h0a3.5,3.5,0,0,1,.92-1.07,2.83,2.83,0,0,1,1.82-.58c1.09,0,2.7.72,2.7,3.57v4.85H59.16V39.49c0-1.58-.58-2.53-1.79-2.53a1.91,1.91,0,0,0-1.76,1.36,2.34,2.34,0,0,0-.12.74v5.09H54V39.22c0-1.31-.58-2.26-1.72-2.26a2,2,0,0,0-1.85,1.49,2,2,0,0,0-.12.73v5H48.88Z" transform="translate(-7.59 -11.68)"/><path d="M62.85,42.62a3.89,3.89,0,0,0,2,.59c1.09,0,1.6-.54,1.6-1.22s-.43-1.11-1.53-1.52c-1.48-.52-2.18-1.34-2.18-2.32a2.54,2.54,0,0,1,2.84-2.42,4.07,4.07,0,0,1,2,.51l-.37,1.09a3.23,3.23,0,0,0-1.68-.48c-.89,0-1.38.51-1.38,1.13s.49,1,1.57,1.39c1.42.54,2.15,1.26,2.15,2.48,0,1.45-1.12,2.47-3.07,2.47a4.66,4.66,0,0,1-2.31-.56Z" transform="translate(-7.59 -11.68)"/><path d="M77.94,44.15l-.11-1h0a3.07,3.07,0,0,1-2.52,1.22A2.34,2.34,0,0,1,72.74,42c0-2,1.77-3.08,5-3.06v-.17a1.69,1.69,0,0,0-1.87-1.9,4.06,4.06,0,0,0-2.14.61l-.34-1a5.11,5.11,0,0,1,2.7-.73c2.52,0,3.13,1.72,3.13,3.37v3.07a11.88,11.88,0,0,0,.13,2ZM77.72,40c-1.63,0-3.48.25-3.48,1.85a1.33,1.33,0,0,0,1.41,1.43,2,2,0,0,0,2-1.38,1.55,1.55,0,0,0,.08-.47Z" transform="translate(-7.59 -11.68)"/><path d="M81.58,38.15c0-.85,0-1.55-.06-2.23h1.32l.09,1.36h0a3,3,0,0,1,2.72-1.55c1.14,0,2.91.68,2.91,3.5v4.92h-1.5V39.4c0-1.32-.49-2.43-1.9-2.43a2.14,2.14,0,0,0-2,1.53,2.11,2.11,0,0,0-.1.7v4.95h-1.5Z" transform="translate(-7.59 -11.68)"/><path d="M98.12,32.08V42c0,.73,0,1.57.07,2.13H96.85l-.07-1.43h0a3,3,0,0,1-2.81,1.61c-2,0-3.52-1.68-3.52-4.18,0-2.74,1.69-4.42,3.69-4.42A2.75,2.75,0,0,1,96.59,37h0V32.08Zm-1.49,7.19a2.7,2.7,0,0,0-.07-.63,2.2,2.2,0,0,0-2.16-1.73c-1.55,0-2.46,1.35-2.46,3.17s.81,3.05,2.43,3.05a2.25,2.25,0,0,0,2.19-1.79,2.62,2.62,0,0,0,.07-.64Z" transform="translate(-7.59 -11.68)"/><path d="M105.88,33.61a.93.93,0,0,1-1.86,0,.91.91,0,0,1,.94-.94A.89.89,0,0,1,105.88,33.61Zm-1.67,10.54V35.92h1.5v8.23Z" transform="translate(-7.59 -11.68)"/><path d="M108.19,38.15c0-.85,0-1.55-.07-2.23h1.33l.08,1.36h0a3,3,0,0,1,2.71-1.55c1.14,0,2.91.68,2.91,3.5v4.92H113.7V39.4c0-1.32-.5-2.43-1.91-2.43a2.12,2.12,0,0,0-2,1.53,2.1,2.1,0,0,0-.11.7v4.95h-1.49Z" transform="translate(-7.59 -11.68)"/><path d="M117.78,44.15V37.06h-1.16V35.92h1.16v-.39a3.85,3.85,0,0,1,1-2.87,2.84,2.84,0,0,1,2-.77,3.46,3.46,0,0,1,1.28.24l-.21,1.15a2.25,2.25,0,0,0-1-.18c-1.27,0-1.6,1.12-1.6,2.38v.44h2v1.14h-2v7.09Z" transform="translate(-7.59 -11.68)"/><path d="M129.81,40a4,4,0,0,1-4.1,4.37,3.91,3.91,0,0,1-3.94-4.23,4,4,0,0,1,4.08-4.37A3.9,3.9,0,0,1,129.81,40Zm-6.53.09c0,1.8,1,3.16,2.5,3.16s2.5-1.34,2.5-3.19c0-1.4-.69-3.17-2.46-3.17S123.28,38.49,123.28,40.05Z" transform="translate(-7.59 -11.68)"/><path d="M131.7,38.49c0-1,0-1.81-.07-2.57h1.31l.05,1.61h.07a2.46,2.46,0,0,1,2.28-1.8,1.73,1.73,0,0,1,.42.05v1.41a2.44,2.44,0,0,0-.51,0,2.09,2.09,0,0,0-2,1.92,3.77,3.77,0,0,0-.07.7v4.39H131.7Z" transform="translate(-7.59 -11.68)"/><path d="M137.33,38.15c0-.85,0-1.55-.07-2.23h1.31l.07,1.32h.05a2.83,2.83,0,0,1,2.58-1.51,2.44,2.44,0,0,1,2.33,1.65h0a3.5,3.5,0,0,1,.92-1.07,2.83,2.83,0,0,1,1.82-.58c1.09,0,2.7.72,2.7,3.57v4.85h-1.46V39.49c0-1.58-.58-2.53-1.78-2.53a1.92,1.92,0,0,0-1.77,1.36,2.34,2.34,0,0,0-.12.74v5.09h-1.46V39.22c0-1.31-.58-2.26-1.72-2.26a2,2,0,0,0-1.85,1.49,2,2,0,0,0-.12.73v5h-1.46Z" transform="translate(-7.59 -11.68)"/><path d="M156.06,44.15l-.12-1h-.05a3,3,0,0,1-2.51,1.22A2.34,2.34,0,0,1,150.86,42c0-2,1.77-3.08,4.95-3.06v-.17a1.69,1.69,0,0,0-1.87-1.9,4.06,4.06,0,0,0-2.15.61l-.34-1a5.14,5.14,0,0,1,2.71-.73c2.51,0,3.12,1.72,3.12,3.37v3.07a11.81,11.81,0,0,0,.14,2Zm-.22-4.2c-1.63,0-3.48.25-3.48,1.85a1.32,1.32,0,0,0,1.41,1.43,2,2,0,0,0,2-1.38,1.31,1.31,0,0,0,.09-.47Z" transform="translate(-7.59 -11.68)"/><path d="M161.43,33.56v2.36h2.14v1.14h-2.14v4.43c0,1,.29,1.6,1.12,1.6a3.38,3.38,0,0,0,.87-.1l.07,1.12a3.64,3.64,0,0,1-1.33.21,2.07,2.07,0,0,1-1.61-.63,3,3,0,0,1-.58-2.14V37.06H158.7V35.92H160V34Z" transform="translate(-7.59 -11.68)"/><path d="M166.92,33.61a.88.88,0,0,1-.95.92.89.89,0,0,1-.9-.92.91.91,0,0,1,.94-.94A.88.88,0,0,1,166.92,33.61Zm-1.66,10.54V35.92h1.49v8.23Z" transform="translate(-7.59 -11.68)"/><path d="M176.68,40a4,4,0,0,1-4.1,4.37,3.91,3.91,0,0,1-3.94-4.23,4,4,0,0,1,4.08-4.37A3.9,3.9,0,0,1,176.68,40Zm-6.53.09c0,1.8,1,3.16,2.5,3.16s2.5-1.34,2.5-3.19c0-1.4-.7-3.17-2.46-3.17S170.15,38.49,170.15,40.05Z" transform="translate(-7.59 -11.68)"/><path d="M178.57,38.15c0-.85,0-1.55-.07-2.23h1.33l.08,1.36h0a3,3,0,0,1,2.72-1.55c1.13,0,2.9.68,2.9,3.5v4.92h-1.49V39.4c0-1.32-.5-2.43-1.91-2.43a2.12,2.12,0,0,0-2,1.53,2.1,2.1,0,0,0-.11.7v4.95h-1.49Z" transform="translate(-7.59 -11.68)"/><path d="M197.47,43.84a5.56,5.56,0,0,1-2.36.48,3.92,3.92,0,0,1-4.1-4.2,4.18,4.18,0,0,1,4.42-4.37,5.09,5.09,0,0,1,2.08.42l-.34,1.16a3.54,3.54,0,0,0-1.74-.39,2.84,2.84,0,0,0-2.9,3.11,2.82,2.82,0,0,0,2.85,3.08,4.24,4.24,0,0,0,1.84-.41Z" transform="translate(-7.59 -11.68)"/><path d="M206.57,40a4,4,0,0,1-4.1,4.37,3.91,3.91,0,0,1-3.94-4.23,4,4,0,0,1,4.08-4.37A3.9,3.9,0,0,1,206.57,40Zm-6.53.09c0,1.8,1,3.16,2.5,3.16S205,41.87,205,40c0-1.4-.7-3.17-2.47-3.17S200,38.49,200,40.05Z" transform="translate(-7.59 -11.68)"/><path d="M208.46,38.6c0-1.05,0-1.9-.07-2.68h1.34l.07,1.41h0a3.24,3.24,0,0,1,2.93-1.6c2,0,3.48,1.68,3.48,4.18,0,3-1.8,4.42-3.74,4.42A2.86,2.86,0,0,1,210,43h0v4.47h-1.47Zm1.47,2.2a3.78,3.78,0,0,0,.07.61,2.3,2.3,0,0,0,2.25,1.75c1.58,0,2.49-1.29,2.49-3.18,0-1.65-.86-3.06-2.44-3.06A2.39,2.39,0,0,0,210,38.77a2.12,2.12,0,0,0-.11.62Z" transform="translate(-7.59 -11.68)"/><path d="M219.79,33.61a.88.88,0,0,1-.95.92.89.89,0,0,1-.9-.92.91.91,0,0,1,.94-.94A.88.88,0,0,1,219.79,33.61Zm-1.66,10.54V35.92h1.49v8.23Z" transform="translate(-7.59 -11.68)"/><path d="M222.94,40.3a2.64,2.64,0,0,0,2.82,2.86,5.56,5.56,0,0,0,2.28-.42l.25,1.07a6.73,6.73,0,0,1-2.73.51,3.82,3.82,0,0,1-4.05-4.15c0-2.48,1.46-4.44,3.86-4.44,2.69,0,3.4,2.36,3.4,3.88a5.05,5.05,0,0,1-.05.69Zm4.38-1.07a2.13,2.13,0,0,0-2.07-2.43A2.48,2.48,0,0,0,223,39.23Z" transform="translate(-7.59 -11.68)"/><path d="M237.73,32.08V42c0,.73,0,1.57.07,2.13h-1.35l-.06-1.43h0a3,3,0,0,1-2.8,1.61c-2,0-3.52-1.68-3.52-4.18,0-2.74,1.68-4.42,3.69-4.42A2.77,2.77,0,0,1,236.2,37h0V32.08Zm-1.5,7.19a2.26,2.26,0,0,0-.07-.63A2.19,2.19,0,0,0,234,36.91c-1.55,0-2.47,1.35-2.47,3.17s.82,3.05,2.43,3.05a2.25,2.25,0,0,0,2.19-1.79,2.21,2.21,0,0,0,.07-.64Z" transform="translate(-7.59 -11.68)"/><path d="M245.62,33.56v2.36h2.14v1.14h-2.14v4.43c0,1,.29,1.6,1.12,1.6a3.44,3.44,0,0,0,.87-.1l.06,1.12a3.58,3.58,0,0,1-1.32.21,2.08,2.08,0,0,1-1.62-.63,3.08,3.08,0,0,1-.57-2.14V37.06h-1.28V35.92h1.28V34Z" transform="translate(-7.59 -11.68)"/><path d="M256.79,40a4,4,0,0,1-4.1,4.37,3.91,3.91,0,0,1-3.94-4.23,4,4,0,0,1,4.07-4.37A3.9,3.9,0,0,1,256.79,40Zm-6.53.09c0,1.8,1,3.16,2.5,3.16s2.5-1.34,2.5-3.19c0-1.4-.7-3.17-2.47-3.17S250.26,38.49,250.26,40.05Z" transform="translate(-7.59 -11.68)"/><path d="M15.27,54v2.36h2.14v1.14H15.27v4.43c0,1,.29,1.6,1.12,1.6a3.44,3.44,0,0,0,.87-.1l.06,1.12a3.58,3.58,0,0,1-1.32.21,2.08,2.08,0,0,1-1.62-.63A3.08,3.08,0,0,1,13.8,62V57.46H12.53V56.32H13.8v-2Z" transform="translate(-7.59 -11.68)"/><path d="M19.09,52.48h1.5v5.13h0a2.77,2.77,0,0,1,1.07-1,3,3,0,0,1,1.53-.43c1.11,0,2.87.68,2.87,3.52v4.9H24.6V59.82c0-1.32-.49-2.45-1.9-2.45a2.15,2.15,0,0,0-2,1.5,1.69,1.69,0,0,0-.1.71v5h-1.5Z" transform="translate(-7.59 -11.68)"/><path d="M29.36,60.7a2.64,2.64,0,0,0,2.82,2.86,5.56,5.56,0,0,0,2.28-.42l.25,1.07a6.73,6.73,0,0,1-2.73.51,3.82,3.82,0,0,1-4.05-4.15c0-2.48,1.46-4.44,3.86-4.44,2.69,0,3.4,2.37,3.4,3.88a5.05,5.05,0,0,1,0,.69Zm4.39-1.07a2.14,2.14,0,0,0-2.08-2.43,2.48,2.48,0,0,0-2.29,2.43Z" transform="translate(-7.59 -11.68)"/><path d="M40.7,64.55V53.09h1.61L46,58.89A30.45,30.45,0,0,1,48,62.61l0,0c-.14-1.53-.17-2.92-.17-4.71V53.09H49.3V64.55H47.8l-3.63-5.82A36.2,36.2,0,0,1,42,54.91l-.05,0c.09,1.44.12,2.82.12,4.72v4.9Z" transform="translate(-7.59 -11.68)"/><path d="M52.67,60.7a2.63,2.63,0,0,0,2.82,2.86,5.56,5.56,0,0,0,2.28-.42L58,64.21a6.83,6.83,0,0,1-2.74.51,3.82,3.82,0,0,1-4-4.15c0-2.48,1.46-4.44,3.86-4.44,2.68,0,3.4,2.37,3.4,3.88,0,.3,0,.54,0,.69Zm4.38-1.07A2.13,2.13,0,0,0,55,57.2a2.49,2.49,0,0,0-2.3,2.43Z" transform="translate(-7.59 -11.68)"/><path d="M62.15,54v2.36h2.14v1.14H62.15v4.43c0,1,.29,1.6,1.12,1.6a3.38,3.38,0,0,0,.87-.1l.07,1.12a3.64,3.64,0,0,1-1.33.21,2.07,2.07,0,0,1-1.61-.63A3,3,0,0,1,60.69,62V57.46H59.42V56.32h1.27v-2Z" transform="translate(-7.59 -11.68)"/><path d="M66.73,56.32l1.08,4.18c.24.92.46,1.77.62,2.62h0c.18-.83.46-1.72.73-2.6l1.34-4.2h1.26l1.27,4.11c.31,1,.55,1.86.73,2.69h0a26.54,26.54,0,0,1,.63-2.67l1.18-4.13h1.48l-2.66,8.23H73.13l-1.25-3.93a26.11,26.11,0,0,1-.73-2.7h0a24,24,0,0,1-.75,2.72L69,64.55H67.68L65.2,56.32Z" transform="translate(-7.59 -11.68)"/><path d="M85.92,60.36a4,4,0,0,1-4.1,4.37,3.91,3.91,0,0,1-3.94-4.23A4,4,0,0,1,82,56.13,3.9,3.9,0,0,1,85.92,60.36Zm-6.53.09c0,1.8,1,3.16,2.5,3.16s2.5-1.34,2.5-3.19c0-1.4-.7-3.17-2.47-3.17S79.39,58.89,79.39,60.45Z" transform="translate(-7.59 -11.68)"/><path d="M87.81,58.89c0-1,0-1.81-.07-2.57h1.31l0,1.61h.07a2.46,2.46,0,0,1,2.27-1.8,1.88,1.88,0,0,1,.43,0v1.41a2.59,2.59,0,0,0-.51-.05,2.1,2.1,0,0,0-2,1.92,4.88,4.88,0,0,0-.07.7v4.39H87.81Z" transform="translate(-7.59 -11.68)"/><path d="M94.91,60.09h0c.2-.29.49-.64.73-.93l2.41-2.84h1.8L96.71,59.7l3.62,4.85H98.51L95.68,60.6l-.77.85v3.1H93.43V52.48h1.48Z" transform="translate(-7.59 -11.68)"/><path d="M101.29,63.66a1,1,0,1,1,1,1.07A1,1,0,0,1,101.29,63.66Z" transform="translate(-7.59 -11.68)"/><path d="M13.52,94a14.71,14.71,0,0,1,2.7-.24,4.7,4.7,0,0,1,3.14.84,2.39,2.39,0,0,1,1,2,2.74,2.74,0,0,1-1.94,2.52v0a3,3,0,0,1,2.36,2.87,3.09,3.09,0,0,1-1,2.3c-.8.73-2.09,1.07-4,1.07a16.68,16.68,0,0,1-2.29-.14ZM15,98.73h1.35c1.56,0,2.48-.81,2.48-1.92,0-1.34-1-1.87-2.52-1.87a5.62,5.62,0,0,0-1.31.11Zm0,5.49a7,7,0,0,0,1.25.07c1.53,0,2.94-.56,2.94-2.22s-1.35-2.21-3-2.21H15Z" transform="translate(-7.59 -11.68)"/><path d="M29.56,103.1c0,.85,0,1.6.07,2.25H28.3L28.22,104h0a3.08,3.08,0,0,1-2.72,1.53c-1.3,0-2.84-.71-2.84-3.6V97.12h1.49v4.56c0,1.56.48,2.61,1.84,2.61a2.15,2.15,0,0,0,2-1.36,2.06,2.06,0,0,0,.14-.76v-5h1.49Z" transform="translate(-7.59 -11.68)"/><path d="M32.59,97.12l1.8,4.86c.19.54.39,1.19.53,1.68h0c.16-.49.33-1.12.53-1.71l1.63-4.83h1.58L36.45,103c-1.07,2.83-1.8,4.27-2.82,5.15a4.06,4.06,0,0,1-1.84,1l-.37-1.26a3.81,3.81,0,0,0,1.31-.73A4.6,4.6,0,0,0,34,105.45a1,1,0,0,0,.12-.36,1.27,1.27,0,0,0-.1-.39l-3-7.58Z" transform="translate(-7.59 -11.68)"/><path d="M40.71,101.5a2.64,2.64,0,0,0,2.83,2.86,5.51,5.51,0,0,0,2.27-.42l.26,1.07a6.83,6.83,0,0,1-2.74.51,3.82,3.82,0,0,1-4-4.15c0-2.48,1.46-4.44,3.86-4.44,2.68,0,3.4,2.37,3.4,3.88a4.74,4.74,0,0,1-.06.69Zm4.39-1.07A2.13,2.13,0,0,0,43,98a2.48,2.48,0,0,0-2.3,2.43Z" transform="translate(-7.59 -11.68)"/><path d="M48.4,99.69c0-1,0-1.81-.07-2.57h1.31l0,1.61h.07A2.46,2.46,0,0,1,52,96.93a1.73,1.73,0,0,1,.42,0v1.41a2.44,2.44,0,0,0-.51,0,2.09,2.09,0,0,0-2,1.92,3.77,3.77,0,0,0-.07.7v4.39H48.4Z" transform="translate(-7.59 -11.68)"/><path d="M53.75,103.82a4,4,0,0,0,2,.59c1.08,0,1.59-.54,1.59-1.22s-.42-1.11-1.53-1.51c-1.47-.53-2.17-1.35-2.17-2.33a2.54,2.54,0,0,1,2.84-2.42,4.13,4.13,0,0,1,2,.51l-.37,1.09a3.27,3.27,0,0,0-1.69-.48c-.88,0-1.37.51-1.37,1.13s.49,1,1.56,1.39c1.43.54,2.16,1.26,2.16,2.48,0,1.45-1.12,2.47-3.08,2.47a4.69,4.69,0,0,1-2.31-.56Z" transform="translate(-7.59 -11.68)"/><path d="M71.52,105.35c-.32-.33-.63-.65-1.07-1.13a4.69,4.69,0,0,1-3.35,1.31,3.24,3.24,0,0,1-3.52-3.21A3.79,3.79,0,0,1,65.82,99v0a4,4,0,0,1-.95-2.4,2.79,2.79,0,0,1,2.91-2.82,2.38,2.38,0,0,1,2.53,2.43c0,1.21-.7,2.16-2.51,3.06v0c1,1.13,2,2.38,2.78,3.2a8.32,8.32,0,0,0,1.11-3.35h1.36a8.74,8.74,0,0,1-1.65,4.23l1.89,2Zm-1.8-2c-.68-.74-2-2.14-3.23-3.6A2.82,2.82,0,0,0,65,102.1a2.26,2.26,0,0,0,2.34,2.31A3.2,3.2,0,0,0,69.72,103.37Zm-3.49-7a3.27,3.27,0,0,0,.87,2.06c1.15-.67,1.9-1.28,1.9-2.25a1.35,1.35,0,0,0-1.32-1.48A1.5,1.5,0,0,0,66.23,96.39Z" transform="translate(-7.59 -11.68)"/><path d="M78,103.54a5.21,5.21,0,0,0,2.65.75c1.51,0,2.4-.8,2.4-2s-.61-1.68-2.16-2.28c-1.87-.66-3-1.63-3-3.25,0-1.78,1.48-3.11,3.71-3.11a5.19,5.19,0,0,1,2.53.56l-.41,1.21a4.57,4.57,0,0,0-2.17-.54c-1.57,0-2.16.93-2.16,1.71,0,1.07.7,1.6,2.28,2.21,1.94.75,2.92,1.69,2.92,3.37s-1.31,3.3-4,3.3a6,6,0,0,1-2.92-.73Z" transform="translate(-7.59 -11.68)"/><path d="M93.45,103.1c0,.85,0,1.6.07,2.25H92.19L92.11,104h0a3.08,3.08,0,0,1-2.72,1.53c-1.29,0-2.84-.71-2.84-3.6V97.12H88v4.56c0,1.56.47,2.61,1.83,2.61a2.16,2.16,0,0,0,2-1.36,2.28,2.28,0,0,0,.13-.76v-5h1.5Z" transform="translate(-7.59 -11.68)"/><path d="M95.93,99.8c0-1,0-1.9-.07-2.68h1.35l.06,1.41h0a3.24,3.24,0,0,1,2.92-1.6c2,0,3.49,1.68,3.49,4.18,0,3-1.81,4.42-3.74,4.42a2.89,2.89,0,0,1-2.54-1.29h0v4.47H95.93Zm1.48,2.2a2.92,2.92,0,0,0,.07.61,2.3,2.3,0,0,0,2.24,1.75c1.58,0,2.5-1.29,2.5-3.18,0-1.65-.87-3.06-2.45-3.06A2.39,2.39,0,0,0,97.51,100a2.51,2.51,0,0,0-.1.62Z" transform="translate(-7.59 -11.68)"/><path d="M105.6,99.8c0-1,0-1.9-.06-2.68h1.34l.07,1.41h0a3.24,3.24,0,0,1,2.92-1.6c2,0,3.49,1.68,3.49,4.18,0,3-1.8,4.42-3.74,4.42a2.86,2.86,0,0,1-2.53-1.29h0v4.47H105.6Zm1.48,2.2a3.78,3.78,0,0,0,.07.61,2.3,2.3,0,0,0,2.24,1.75c1.59,0,2.5-1.29,2.5-3.18,0-1.65-.86-3.06-2.44-3.06a2.4,2.4,0,0,0-2.27,1.85,2.51,2.51,0,0,0-.1.62Z" transform="translate(-7.59 -11.68)"/><path d="M115.28,93.28h1.49v12.07h-1.49Z" transform="translate(-7.59 -11.68)"/><path d="M121,94.81a.88.88,0,0,1-1,.92.89.89,0,0,1-.9-.92.91.91,0,0,1,.94-.94A.88.88,0,0,1,121,94.81Zm-1.66,10.54V97.12h1.49v8.23Z" transform="translate(-7.59 -11.68)"/><path d="M124.1,101.5a2.64,2.64,0,0,0,2.82,2.86,5.56,5.56,0,0,0,2.28-.42l.25,1.07a6.73,6.73,0,0,1-2.73.51,3.82,3.82,0,0,1-4-4.15c0-2.48,1.46-4.44,3.86-4.44,2.69,0,3.4,2.37,3.4,3.88a5.05,5.05,0,0,1-.05.69Zm4.38-1.07A2.13,2.13,0,0,0,126.41,98a2.48,2.48,0,0,0-2.29,2.43Z" transform="translate(-7.59 -11.68)"/><path d="M131.78,99.69c0-1,0-1.81-.06-2.57H133l.06,1.61h.06a2.48,2.48,0,0,1,2.28-1.8,1.88,1.88,0,0,1,.43,0v1.41a2.59,2.59,0,0,0-.51,0,2.1,2.1,0,0,0-2,1.92,4.88,4.88,0,0,0-.07.7v4.39h-1.48Z" transform="translate(-7.59 -11.68)"/><path d="M137.14,103.82a3.89,3.89,0,0,0,2,.59c1.09,0,1.6-.54,1.6-1.22s-.43-1.11-1.53-1.51c-1.48-.53-2.18-1.35-2.18-2.33a2.54,2.54,0,0,1,2.84-2.42,4.13,4.13,0,0,1,2,.51l-.37,1.09a3.23,3.23,0,0,0-1.68-.48c-.89,0-1.38.51-1.38,1.13s.49,1,1.56,1.39c1.43.54,2.16,1.26,2.16,2.48,0,1.45-1.12,2.47-3.07,2.47a4.73,4.73,0,0,1-2.32-.56Z" transform="translate(-7.59 -11.68)"/><path d="M154.78,93.28v9.94c0,.73,0,1.57.07,2.13h-1.34l-.07-1.43h0a3,3,0,0,1-2.81,1.61c-2,0-3.52-1.68-3.52-4.18,0-2.74,1.69-4.42,3.69-4.42a2.75,2.75,0,0,1,2.48,1.26h0V93.28Zm-1.49,7.19a2.7,2.7,0,0,0-.07-.63,2.2,2.2,0,0,0-2.16-1.73c-1.55,0-2.46,1.36-2.46,3.17s.81,3,2.43,3a2.25,2.25,0,0,0,2.19-1.79,2.62,2.62,0,0,0,.07-.64Z" transform="translate(-7.59 -11.68)"/><path d="M158.1,101.5a2.64,2.64,0,0,0,2.82,2.86,5.56,5.56,0,0,0,2.28-.42l.25,1.07a6.73,6.73,0,0,1-2.73.51,3.82,3.82,0,0,1-4.05-4.15c0-2.48,1.46-4.44,3.86-4.44,2.69,0,3.4,2.37,3.4,3.88a5.05,5.05,0,0,1-.05.69Zm4.38-1.07A2.13,2.13,0,0,0,160.41,98a2.48,2.48,0,0,0-2.29,2.43Z" transform="translate(-7.59 -11.68)"/><path d="M165.58,103.82a3.89,3.89,0,0,0,2,.59c1.09,0,1.6-.54,1.6-1.22s-.43-1.11-1.53-1.51c-1.48-.53-2.18-1.35-2.18-2.33a2.54,2.54,0,0,1,2.84-2.42,4.07,4.07,0,0,1,2,.51l-.37,1.09a3.23,3.23,0,0,0-1.68-.48c-.89,0-1.38.51-1.38,1.13s.49,1,1.57,1.39c1.42.54,2.15,1.26,2.15,2.48,0,1.45-1.12,2.47-3.07,2.47a4.66,4.66,0,0,1-2.31-.56Z" transform="translate(-7.59 -11.68)"/><path d="M174.18,94.81a.93.93,0,0,1-1.85,0,.91.91,0,0,1,.93-.94A.89.89,0,0,1,174.18,94.81Zm-1.66,10.54V97.12H174v8.23Z" transform="translate(-7.59 -11.68)"/><path d="M183.58,97.12c0,.59-.07,1.26-.07,2.26v4.78c0,1.88-.37,3-1.17,3.75a4.35,4.35,0,0,1-3,1,5.35,5.35,0,0,1-2.74-.68l.38-1.14a4.61,4.61,0,0,0,2.41.65c1.53,0,2.65-.8,2.65-2.88v-.91h0a3,3,0,0,1-2.62,1.37c-2,0-3.5-1.73-3.5-4,0-2.79,1.82-4.37,3.7-4.37a2.74,2.74,0,0,1,2.57,1.43h0l.07-1.24ZM182,100.37a2,2,0,0,0-.08-.68,2.15,2.15,0,0,0-2.09-1.58c-1.43,0-2.45,1.2-2.45,3.11,0,1.61.82,3,2.43,3a2.19,2.19,0,0,0,2.08-1.53,2.71,2.71,0,0,0,.11-.8Z" transform="translate(-7.59 -11.68)"/><path d="M185.89,99.35c0-.85,0-1.55-.06-2.23h1.32l.09,1.36h0A3,3,0,0,1,190,96.93c1.14,0,2.91.68,2.91,3.5v4.92h-1.5V100.6c0-1.32-.49-2.43-1.9-2.43a2.14,2.14,0,0,0-2,1.53,2.11,2.11,0,0,0-.1.7v4.95h-1.5Z" transform="translate(-7.59 -11.68)"/><path d="M199.88,105.35l-.11-1h-.06a3,3,0,0,1-2.51,1.22,2.34,2.34,0,0,1-2.52-2.36c0-2,1.77-3.08,4.95-3.06v-.17a1.69,1.69,0,0,0-1.87-1.9,4.15,4.15,0,0,0-2.14.61l-.34-1a5.11,5.11,0,0,1,2.7-.73c2.52,0,3.13,1.72,3.13,3.37v3.07a11.88,11.88,0,0,0,.13,2Zm-.22-4.2c-1.63,0-3.48.25-3.48,1.85a1.33,1.33,0,0,0,1.41,1.43,2,2,0,0,0,2-1.38,1.55,1.55,0,0,0,.08-.47Z" transform="translate(-7.59 -11.68)"/><path d="M205.26,94.76v2.36h2.14v1.14h-2.14v4.43c0,1,.29,1.6,1.12,1.6a3.44,3.44,0,0,0,.87-.1l.06,1.12a3.54,3.54,0,0,1-1.32.21,2.08,2.08,0,0,1-1.62-.63,3.08,3.08,0,0,1-.57-2.14V98.26h-1.28V97.12h1.28v-2Z" transform="translate(-7.59 -11.68)"/><path d="M209.81,101.5a2.64,2.64,0,0,0,2.82,2.86,5.53,5.53,0,0,0,2.28-.42l.26,1.07a6.83,6.83,0,0,1-2.74.51,3.82,3.82,0,0,1-4-4.15c0-2.48,1.46-4.44,3.85-4.44,2.69,0,3.4,2.37,3.4,3.88a5.05,5.05,0,0,1,0,.69Zm4.39-1.07A2.13,2.13,0,0,0,212.13,98a2.48,2.48,0,0,0-2.3,2.43Z" transform="translate(-7.59 -11.68)"/><path d="M221.7,97.12l1.08,4.18c.24.92.46,1.77.62,2.62h0c.18-.83.46-1.72.73-2.6l1.34-4.2h1.26l1.27,4.11c.31,1,.55,1.86.73,2.69h.06a23.89,23.89,0,0,1,.62-2.67l1.18-4.13h1.48l-2.66,8.23H228.1l-1.25-3.93a26.11,26.11,0,0,1-.73-2.7h0a24,24,0,0,1-.75,2.72L224,105.35h-1.36l-2.48-8.23Z" transform="translate(-7.59 -11.68)"/><path d="M233.61,93.28h1.5v5.13h0a2.77,2.77,0,0,1,1.07-1,3.06,3.06,0,0,1,1.53-.43c1.11,0,2.88.68,2.88,3.52v4.9h-1.5v-4.73c0-1.32-.49-2.45-1.9-2.45a2.15,2.15,0,0,0-2,1.5,1.87,1.87,0,0,0-.1.71v5h-1.5Z" transform="translate(-7.59 -11.68)"/><path d="M250.49,101.16a4,4,0,0,1-4.09,4.37,3.91,3.91,0,0,1-4-4.23,4,4,0,0,1,4.08-4.37A3.89,3.89,0,0,1,250.49,101.16Zm-6.52.09c0,1.8,1,3.16,2.49,3.16s2.5-1.34,2.5-3.19c0-1.4-.69-3.17-2.46-3.17S244,99.69,244,101.25Z" transform="translate(-7.59 -11.68)"/><path d="M19.33,125.44a5.56,5.56,0,0,1-2.36.48,3.91,3.91,0,0,1-4.1-4.2,4.18,4.18,0,0,1,4.42-4.37,5,5,0,0,1,2.07.42L19,118.93a3.46,3.46,0,0,0-1.73-.39,3.1,3.1,0,0,0-.05,6.19,4.15,4.15,0,0,0,1.83-.41Z" transform="translate(-7.59 -11.68)"/><path d="M25.64,125.75l-.12-1h-.05A3.07,3.07,0,0,1,23,125.93a2.34,2.34,0,0,1-2.52-2.36c0-2,1.77-3.08,4.95-3.06v-.17a1.69,1.69,0,0,0-1.87-1.9,4.15,4.15,0,0,0-2.14.61l-.34-1a5.11,5.11,0,0,1,2.7-.73c2.52,0,3.13,1.72,3.13,3.37v3.07a10.84,10.84,0,0,0,.14,2Zm-.23-4.2c-1.63,0-3.48.25-3.48,1.85a1.33,1.33,0,0,0,1.41,1.43,2,2,0,0,0,2-1.38,1.55,1.55,0,0,0,.08-.47Z" transform="translate(-7.59 -11.68)"/><path d="M29.27,119.75c0-.85,0-1.55-.06-2.23h1.32l.09,1.36h0a3,3,0,0,1,2.72-1.55c1.14,0,2.91.68,2.91,3.5v4.92h-1.5V121c0-1.32-.49-2.43-1.9-2.43a2.14,2.14,0,0,0-2,1.53,2.11,2.11,0,0,0-.1.7v5h-1.5Z" transform="translate(-7.59 -11.68)"/><path d="M46.87,125.75l-.12-1h0a3.05,3.05,0,0,1-2.52,1.22,2.34,2.34,0,0,1-2.51-2.36c0-2,1.77-3.08,4.94-3.06v-.17a1.69,1.69,0,0,0-1.87-1.9,4.15,4.15,0,0,0-2.14.61l-.34-1a5.13,5.13,0,0,1,2.7-.73c2.52,0,3.13,1.72,3.13,3.37v3.07a11.81,11.81,0,0,0,.14,2Zm-.22-4.2c-1.63,0-3.49.25-3.49,1.85a1.33,1.33,0,0,0,1.41,1.43,2,2,0,0,0,2-1.38,1.56,1.56,0,0,0,.09-.47Z" transform="translate(-7.59 -11.68)"/><path d="M56.37,125.44a5.56,5.56,0,0,1-2.36.48,3.92,3.92,0,0,1-4.1-4.2,4.18,4.18,0,0,1,4.42-4.37,5.09,5.09,0,0,1,2.08.42l-.34,1.16a3.54,3.54,0,0,0-1.74-.39,3.1,3.1,0,0,0,0,6.19,4.24,4.24,0,0,0,1.84-.41Z" transform="translate(-7.59 -11.68)"/><path d="M63.89,125.44a5.61,5.61,0,0,1-2.37.48,3.91,3.91,0,0,1-4.09-4.2,4.18,4.18,0,0,1,4.42-4.37,5.08,5.08,0,0,1,2.07.42l-.34,1.16a3.52,3.52,0,0,0-1.73-.39,3.1,3.1,0,0,0-.05,6.19,4.19,4.19,0,0,0,1.83-.41Z" transform="translate(-7.59 -11.68)"/><path d="M66.37,121.9a2.63,2.63,0,0,0,2.82,2.86,5.56,5.56,0,0,0,2.28-.42l.25,1.07a6.73,6.73,0,0,1-2.73.51,3.82,3.82,0,0,1-4-4.15c0-2.48,1.46-4.44,3.86-4.44,2.68,0,3.4,2.37,3.4,3.88,0,.3,0,.54,0,.69Zm4.38-1.07a2.13,2.13,0,0,0-2.07-2.43,2.47,2.47,0,0,0-2.29,2.43Z" transform="translate(-7.59 -11.68)"/><path d="M73.85,124.22a3.89,3.89,0,0,0,2,.59c1.09,0,1.6-.54,1.6-1.22s-.43-1.11-1.53-1.52c-1.48-.52-2.18-1.34-2.18-2.32a2.54,2.54,0,0,1,2.84-2.42,4.13,4.13,0,0,1,2,.51l-.37,1.09a3.23,3.23,0,0,0-1.68-.48c-.89,0-1.38.51-1.38,1.13s.49,1,1.56,1.39c1.43.54,2.16,1.26,2.16,2.48,0,1.45-1.12,2.47-3.07,2.47a4.73,4.73,0,0,1-2.32-.56Z" transform="translate(-7.59 -11.68)"/><path d="M80.58,124.22a3.89,3.89,0,0,0,2,.59c1.09,0,1.6-.54,1.6-1.22s-.42-1.11-1.53-1.52c-1.48-.52-2.18-1.34-2.18-2.32a2.54,2.54,0,0,1,2.84-2.42,4.14,4.14,0,0,1,2,.51l-.38,1.09a3.23,3.23,0,0,0-1.68-.48c-.88,0-1.38.51-1.38,1.13s.5,1,1.57,1.39c1.42.54,2.15,1.26,2.15,2.48,0,1.45-1.12,2.47-3.07,2.47a4.66,4.66,0,0,1-2.31-.56Z" transform="translate(-7.59 -11.68)"/><path d="M92.92,115.16v2.36h2.14v1.14H92.92v4.43c0,1,.29,1.6,1.12,1.6a3.38,3.38,0,0,0,.87-.1l.07,1.12a3.64,3.64,0,0,1-1.33.21,2.07,2.07,0,0,1-1.61-.63,3,3,0,0,1-.58-2.14v-4.49H90.19v-1.14h1.27v-2Z" transform="translate(-7.59 -11.68)"/><path d="M96.75,113.68h1.49v5.13h0a2.77,2.77,0,0,1,1.07-1,3,3,0,0,1,1.53-.43c1.1,0,2.87.68,2.87,3.52v4.9h-1.5V121c0-1.32-.49-2.45-1.9-2.45a2.14,2.14,0,0,0-2,1.5,1.68,1.68,0,0,0-.11.71v5H96.75Z" transform="translate(-7.59 -11.68)"/><path d="M107,121.9a2.63,2.63,0,0,0,2.82,2.86,5.51,5.51,0,0,0,2.27-.42l.26,1.07a6.83,6.83,0,0,1-2.74.51,3.82,3.82,0,0,1-4-4.15c0-2.48,1.46-4.44,3.86-4.44,2.68,0,3.4,2.37,3.4,3.88a4.74,4.74,0,0,1-.06.69Zm4.38-1.07a2.13,2.13,0,0,0-2.07-2.43,2.48,2.48,0,0,0-2.3,2.43Z" transform="translate(-7.59 -11.68)"/><path d="M116.37,115.21a.93.93,0,0,1-1.86,0,.91.91,0,0,1,.94-.94A.89.89,0,0,1,116.37,115.21Zm-1.67,10.54v-8.23h1.5v8.23Z" transform="translate(-7.59 -11.68)"/><path d="M118.68,120.09c0-1,0-1.81-.07-2.57h1.31l0,1.61H120a2.46,2.46,0,0,1,2.28-1.8,1.86,1.86,0,0,1,.42,0v1.41a2.51,2.51,0,0,0-.51-.05,2.11,2.11,0,0,0-2,1.92,4.94,4.94,0,0,0-.06.7v4.39h-1.48Z" transform="translate(-7.59 -11.68)"/><path d="M135,113.68v9.94c0,.73,0,1.57.06,2.13h-1.34l-.07-1.43h0a3,3,0,0,1-2.81,1.61c-2,0-3.51-1.68-3.51-4.18,0-2.74,1.68-4.42,3.68-4.42a2.78,2.78,0,0,1,2.49,1.26h0v-4.91Zm-1.5,7.19a2.7,2.7,0,0,0-.07-.63,2.19,2.19,0,0,0-2.16-1.73c-1.54,0-2.46,1.35-2.46,3.17,0,1.67.81,3,2.43,3a2.25,2.25,0,0,0,2.19-1.79,2.62,2.62,0,0,0,.07-.64Z" transform="translate(-7.59 -11.68)"/><path d="M142,125.75l-.12-1h-.05a3,3,0,0,1-2.51,1.22,2.34,2.34,0,0,1-2.52-2.36c0-2,1.77-3.08,4.95-3.06v-.17a1.69,1.69,0,0,0-1.87-1.9,4.12,4.12,0,0,0-2.14.61l-.34-1a5.11,5.11,0,0,1,2.7-.73c2.52,0,3.13,1.72,3.13,3.37v3.07a11.88,11.88,0,0,0,.13,2Zm-.22-4.2c-1.63,0-3.48.25-3.48,1.85a1.32,1.32,0,0,0,1.41,1.43,2,2,0,0,0,2-1.38,1.55,1.55,0,0,0,.08-.47Z" transform="translate(-7.59 -11.68)"/><path d="M147.36,115.16v2.36h2.14v1.14h-2.14v4.43c0,1,.29,1.6,1.12,1.6a3.44,3.44,0,0,0,.87-.1l.06,1.12a3.58,3.58,0,0,1-1.32.21,2.08,2.08,0,0,1-1.62-.63,3.08,3.08,0,0,1-.58-2.14v-4.49h-1.27v-1.14h1.27v-2Z" transform="translate(-7.59 -11.68)"/><path d="M155.74,125.75l-.12-1h-.05a3.07,3.07,0,0,1-2.52,1.22,2.34,2.34,0,0,1-2.51-2.36c0-2,1.76-3.08,4.94-3.06v-.17a1.69,1.69,0,0,0-1.87-1.9,4.15,4.15,0,0,0-2.14.61l-.34-1a5.13,5.13,0,0,1,2.7-.73c2.52,0,3.13,1.72,3.13,3.37v3.07a10.84,10.84,0,0,0,.14,2Zm-.22-4.2c-1.64,0-3.49.25-3.49,1.85a1.33,1.33,0,0,0,1.41,1.43,2,2,0,0,0,2-1.38,1.56,1.56,0,0,0,.09-.47Z" transform="translate(-7.59 -11.68)"/><path d="M771.19,368.42h6.17v1.24h-4.69v3.81H777v1.22h-4.33v5.19h-1.48Z" transform="translate(-7.59 -11.68)"/><path d="M780.64,369.34a.93.93,0,0,1-1.85,0,.91.91,0,0,1,.93-.94A.89.89,0,0,1,780.64,369.34ZM779,379.88v-8.23h1.5v8.23Z" transform="translate(-7.59 -11.68)"/><path d="M783,373.88c0-.85,0-1.55-.07-2.23h1.33l.09,1.36h0a3,3,0,0,1,2.72-1.55c1.14,0,2.91.68,2.91,3.51v4.91h-1.5v-4.75c0-1.32-.49-2.43-1.9-2.43a2.19,2.19,0,0,0-2.11,2.23v4.95H783Z" transform="translate(-7.59 -11.68)"/><path d="M796.94,379.88l-.12-1h-.05a3,3,0,0,1-2.51,1.22,2.34,2.34,0,0,1-2.52-2.36c0-2,1.77-3.07,5-3.06v-.17a1.69,1.69,0,0,0-1.87-1.9,4.09,4.09,0,0,0-2.14.61l-.34-1a5.11,5.11,0,0,1,2.7-.73c2.52,0,3.13,1.72,3.13,3.37v3.08a11.83,11.83,0,0,0,.13,2Zm-.22-4.2c-1.63,0-3.48.25-3.48,1.85a1.32,1.32,0,0,0,1.41,1.43,2,2,0,0,0,2-1.38,1.55,1.55,0,0,0,.08-.47Z" transform="translate(-7.59 -11.68)"/><path d="M800.58,373.88c0-.85,0-1.55-.07-2.23h1.33l.08,1.36h0a3,3,0,0,1,2.72-1.55c1.14,0,2.91.68,2.91,3.51v4.91h-1.5v-4.75c0-1.32-.49-2.43-1.9-2.43a2.13,2.13,0,0,0-2,1.53,2.15,2.15,0,0,0-.1.7v4.95h-1.5Z" transform="translate(-7.59 -11.68)"/><path d="M815.88,379.57a5.41,5.41,0,0,1-2.36.48,3.92,3.92,0,0,1-4.1-4.2,4.19,4.19,0,0,1,4.42-4.37,4.91,4.91,0,0,1,2.08.43l-.34,1.15a3.54,3.54,0,0,0-1.74-.39,3.1,3.1,0,0,0-.05,6.19,4.24,4.24,0,0,0,1.84-.41Z" transform="translate(-7.59 -11.68)"/><path d="M818.36,376a2.64,2.64,0,0,0,2.83,2.85,5.51,5.51,0,0,0,2.27-.42l.26,1.07a6.66,6.66,0,0,1-2.74.51,3.82,3.82,0,0,1-4-4.15c0-2.48,1.46-4.44,3.85-4.44,2.69,0,3.4,2.37,3.4,3.88a5.37,5.37,0,0,1-.05.7Zm4.39-1.07a2.13,2.13,0,0,0-2.07-2.44,2.49,2.49,0,0,0-2.3,2.44Z" transform="translate(-7.59 -11.68)"/><path d="M829.65,374.22c0-1,0-1.8-.07-2.57h1.31l.05,1.61H831a2.48,2.48,0,0,1,2.28-1.8,1.73,1.73,0,0,1,.42.05v1.42a1.88,1.88,0,0,0-.51-.06,2.09,2.09,0,0,0-2,1.93,4.59,4.59,0,0,0-.07.69v4.39h-1.48Z" transform="translate(-7.59 -11.68)"/><path d="M835.87,376a2.64,2.64,0,0,0,2.83,2.85,5.51,5.51,0,0,0,2.27-.42l.26,1.07a6.66,6.66,0,0,1-2.74.51,3.82,3.82,0,0,1-4-4.15c0-2.48,1.46-4.44,3.85-4.44,2.69,0,3.41,2.37,3.41,3.88a5.06,5.06,0,0,1-.06.7Zm4.39-1.07a2.13,2.13,0,0,0-2.07-2.44,2.49,2.49,0,0,0-2.3,2.44Z" transform="translate(-7.59 -11.68)"/><path d="M849.17,378.6h0a2.91,2.91,0,0,1-2.68,1.46c-1.92,0-3.49-1.66-3.49-4.16,0-3.08,2-4.44,3.73-4.44a2.71,2.71,0,0,1,2.53,1.43h0l0-1.24h1.41c0,.7-.05,1.41-.05,2.26v9.33h-1.49Zm0-3.62a2.65,2.65,0,0,0-.07-.63,2.18,2.18,0,0,0-2.14-1.7c-1.55,0-2.48,1.31-2.48,3.16,0,1.64.78,3.06,2.43,3.06a2.22,2.22,0,0,0,2.14-1.63,2.4,2.4,0,0,0,.12-.71Z" transform="translate(-7.59 -11.68)"/><path d="M860,377.63c0,.85,0,1.6.07,2.25h-1.32l-.09-1.35h0a3.08,3.08,0,0,1-2.72,1.53c-1.29,0-2.84-.71-2.84-3.6v-4.81h1.49v4.56c0,1.56.48,2.61,1.84,2.61a2.15,2.15,0,0,0,2-1.36,2.06,2.06,0,0,0,.14-.76v-5.05H860Z" transform="translate(-7.59 -11.68)"/><path d="M863.33,376a2.63,2.63,0,0,0,2.82,2.85,5.56,5.56,0,0,0,2.28-.42l.25,1.07a6.56,6.56,0,0,1-2.73.51,3.82,3.82,0,0,1-4.05-4.15c0-2.48,1.46-4.44,3.86-4.44,2.69,0,3.4,2.37,3.4,3.88a5.37,5.37,0,0,1,0,.7Zm4.38-1.07a2.13,2.13,0,0,0-2.07-2.44,2.48,2.48,0,0,0-2.29,2.44Z" transform="translate(-7.59 -11.68)"/><path d="M870.81,378.35a3.89,3.89,0,0,0,2,.59c1.09,0,1.6-.54,1.6-1.22s-.43-1.11-1.53-1.51c-1.48-.53-2.18-1.35-2.18-2.33a2.54,2.54,0,0,1,2.84-2.42,4.1,4.1,0,0,1,2,.51l-.37,1.09a3.24,3.24,0,0,0-1.68-.47c-.89,0-1.38.5-1.38,1.12s.49,1,1.57,1.39c1.42.54,2.15,1.26,2.15,2.48,0,1.45-1.12,2.47-3.07,2.47a4.66,4.66,0,0,1-2.31-.56Z" transform="translate(-7.59 -11.68)"/><path d="M879.55,369.29v2.36h2.14v1.14h-2.14v4.44c0,1,.29,1.59,1.12,1.59a3.44,3.44,0,0,0,.87-.1l.06,1.12a3.58,3.58,0,0,1-1.32.21,2.08,2.08,0,0,1-1.62-.63,3.06,3.06,0,0,1-.57-2.14v-4.49h-1.28v-1.14h1.28v-2Z" transform="translate(-7.59 -11.68)"/><path d="M883.17,378.35a3.89,3.89,0,0,0,2,.59c1.09,0,1.6-.54,1.6-1.22s-.43-1.11-1.53-1.51c-1.48-.53-2.18-1.35-2.18-2.33a2.54,2.54,0,0,1,2.84-2.42,4.13,4.13,0,0,1,2,.51l-.37,1.09a3.24,3.24,0,0,0-1.68-.47c-.89,0-1.38.5-1.38,1.12s.49,1,1.56,1.39c1.43.54,2.16,1.26,2.16,2.48,0,1.45-1.12,2.47-3.07,2.47a4.73,4.73,0,0,1-2.32-.56Z" transform="translate(-7.59 -11.68)"/><path d="M772.94,389.69v2.36h2.14v1.14h-2.14v4.44c0,1,.29,1.59,1.12,1.59a3.44,3.44,0,0,0,.87-.1l.07,1.12a3.64,3.64,0,0,1-1.33.21,2,2,0,0,1-1.61-.63,3,3,0,0,1-.58-2.14v-4.49H770.2v-1.14h1.28v-2Z" transform="translate(-7.59 -11.68)"/><path d="M776.76,388.21h1.5v5.13h0a2.7,2.7,0,0,1,1.07-1,3,3,0,0,1,1.53-.43c1.1,0,2.87.68,2.87,3.52v4.9h-1.5v-4.73c0-1.32-.49-2.45-1.9-2.45a2.15,2.15,0,0,0-2,1.5,1.87,1.87,0,0,0-.1.71v5h-1.5Z" transform="translate(-7.59 -11.68)"/><path d="M786.2,394.62c0-1,0-1.81-.07-2.57h1.31l0,1.62h.07a2.47,2.47,0,0,1,2.28-1.81,1.73,1.73,0,0,1,.42.05v1.42a1.88,1.88,0,0,0-.51-.06,2.09,2.09,0,0,0-2,1.92,3.77,3.77,0,0,0-.07.7v4.39H786.2Z" transform="translate(-7.59 -11.68)"/><path d="M799,396.1a4,4,0,0,1-4.09,4.36,3.91,3.91,0,0,1-4-4.23,4,4,0,0,1,4.08-4.37A3.9,3.9,0,0,1,799,396.1Zm-6.52.08c0,1.8,1,3.16,2.5,3.16s2.49-1.34,2.49-3.19c0-1.4-.69-3.17-2.46-3.17S792.51,394.62,792.51,396.18Z" transform="translate(-7.59 -11.68)"/><path d="M807.81,398c0,.85,0,1.6.07,2.25h-1.33l-.09-1.35h0a3.08,3.08,0,0,1-2.72,1.53c-1.29,0-2.84-.71-2.84-3.6v-4.81h1.5v4.56c0,1.56.47,2.61,1.83,2.61a2.14,2.14,0,0,0,2-1.36,2.06,2.06,0,0,0,.14-.76v-5.05h1.5Z" transform="translate(-7.59 -11.68)"/><path d="M817.38,392.05c0,.59-.07,1.26-.07,2.26v4.78c0,1.88-.37,3-1.17,3.75a4.37,4.37,0,0,1-3,1,5.31,5.31,0,0,1-2.73-.68l.37-1.14a4.68,4.68,0,0,0,2.42.65c1.53,0,2.65-.8,2.65-2.88v-.91h0a2.94,2.94,0,0,1-2.61,1.37c-2,0-3.51-1.73-3.51-4,0-2.79,1.82-4.37,3.71-4.37a2.74,2.74,0,0,1,2.57,1.43h0l.07-1.24Zm-1.55,3.25a2.35,2.35,0,0,0-.08-.68,2.17,2.17,0,0,0-2.1-1.58c-1.42,0-2.44,1.2-2.44,3.11,0,1.61.81,3,2.43,3a2.17,2.17,0,0,0,2.07-1.53,2.41,2.41,0,0,0,.12-.79Z" transform="translate(-7.59 -11.68)"/><path d="M819.79,388.21h1.5v5.13h0a2.77,2.77,0,0,1,1.07-1,3.06,3.06,0,0,1,1.53-.43c1.11,0,2.88.68,2.88,3.52v4.9h-1.5v-4.73c0-1.32-.49-2.45-1.9-2.45a2.15,2.15,0,0,0-2,1.5,1.69,1.69,0,0,0-.1.71v5h-1.5Z" transform="translate(-7.59 -11.68)"/><path d="M833.66,396.44a2.64,2.64,0,0,0,2.83,2.85,5.51,5.51,0,0,0,2.27-.42l.26,1.07a6.66,6.66,0,0,1-2.74.51,3.82,3.82,0,0,1-4-4.15c0-2.48,1.46-4.44,3.85-4.44,2.69,0,3.4,2.37,3.4,3.88a5.23,5.23,0,0,1,0,.7Zm4.39-1.08a2.13,2.13,0,0,0-2.07-2.43,2.48,2.48,0,0,0-2.3,2.43Z" transform="translate(-7.59 -11.68)"/><path d="M842,392.05l1.18,1.77c.3.46.56.88.83,1.34h0c.27-.49.54-.92.82-1.36l1.15-1.75h1.62l-2.81,4,2.89,4.25H846l-1.2-1.86c-.33-.47-.6-.93-.89-1.42h0c-.27.49-.56.93-.87,1.42l-1.19,1.86h-1.65l2.93-4.2-2.79-4Z" transform="translate(-7.59 -11.68)"/><path d="M850.83,389.74a.88.88,0,0,1-1,.92.89.89,0,0,1-.9-.92.91.91,0,0,1,.94-.94A.88.88,0,0,1,850.83,389.74Zm-1.66,10.54v-8.23h1.49v8.23Z" transform="translate(-7.59 -11.68)"/><path d="M852.94,398.75a3.92,3.92,0,0,0,2,.59c1.09,0,1.6-.54,1.6-1.22s-.42-1.11-1.53-1.51c-1.48-.53-2.17-1.35-2.17-2.33a2.54,2.54,0,0,1,2.84-2.42,4.13,4.13,0,0,1,2,.51l-.38,1.09a3.2,3.2,0,0,0-1.68-.48c-.88,0-1.38.52-1.38,1.13s.5,1,1.57,1.39c1.43.55,2.16,1.26,2.16,2.48,0,1.45-1.12,2.47-3.08,2.47a4.69,4.69,0,0,1-2.31-.56Z" transform="translate(-7.59 -11.68)"/><path d="M861.68,389.69v2.36h2.14v1.14h-2.14v4.44c0,1,.29,1.59,1.12,1.59a3.44,3.44,0,0,0,.87-.1l.07,1.12a3.64,3.64,0,0,1-1.33.21,2,2,0,0,1-1.61-.63,3,3,0,0,1-.58-2.14v-4.49h-1.28v-1.14h1.28v-2Z" transform="translate(-7.59 -11.68)"/><path d="M867.17,389.74a.93.93,0,0,1-1.85,0,.91.91,0,0,1,.93-.94A.89.89,0,0,1,867.17,389.74Zm-1.67,10.54v-8.23H867v8.23Z" transform="translate(-7.59 -11.68)"/><path d="M869.48,394.28c0-.85,0-1.55-.06-2.23h1.32l.09,1.36h0a3,3,0,0,1,2.72-1.55c1.14,0,2.91.68,2.91,3.5v4.92H875v-4.75c0-1.32-.49-2.43-1.9-2.43a2.19,2.19,0,0,0-2.11,2.23v4.95h-1.5Z" transform="translate(-7.59 -11.68)"/><path d="M886,392.05c0,.59-.07,1.26-.07,2.26v4.78c0,1.88-.38,3-1.17,3.75a4.37,4.37,0,0,1-3,1,5.31,5.31,0,0,1-2.73-.68l.37-1.14a4.68,4.68,0,0,0,2.42.65c1.52,0,2.65-.8,2.65-2.88v-.91h0a2.94,2.94,0,0,1-2.61,1.37c-2,0-3.51-1.73-3.51-4,0-2.79,1.82-4.37,3.71-4.37a2.74,2.74,0,0,1,2.57,1.43h0l.07-1.24Zm-1.55,3.25a2.35,2.35,0,0,0-.08-.68,2.17,2.17,0,0,0-2.1-1.58c-1.42,0-2.44,1.2-2.44,3.11,0,1.61.81,3,2.43,3a2.18,2.18,0,0,0,2.07-1.53,2.41,2.41,0,0,0,.12-.79Z" transform="translate(-7.59 -11.68)"/><path d="M777,420.37a5.37,5.37,0,0,1-2.36.48,3.91,3.91,0,0,1-4.1-4.2,4.19,4.19,0,0,1,4.42-4.37,4.91,4.91,0,0,1,2.08.43l-.34,1.15a3.54,3.54,0,0,0-1.74-.39,3.1,3.1,0,0,0-.05,6.19,4.24,4.24,0,0,0,1.84-.41Z" transform="translate(-7.59 -11.68)"/><path d="M778.75,408.61h1.5v5.13h0a2.8,2.8,0,0,1,1.08-1.05,3,3,0,0,1,1.52-.43c1.11,0,2.88.68,2.88,3.52v4.9h-1.5V416c0-1.32-.49-2.45-1.9-2.45a2.15,2.15,0,0,0-2,1.5,1.9,1.9,0,0,0-.1.71v5h-1.5Z" transform="translate(-7.59 -11.68)"/><path d="M792.75,420.68l-.12-1h0a3.07,3.07,0,0,1-2.52,1.22,2.34,2.34,0,0,1-2.52-2.36c0-2,1.77-3.07,5-3.06v-.17a1.69,1.69,0,0,0-1.87-1.9,4.15,4.15,0,0,0-2.14.61l-.34-1a5.11,5.11,0,0,1,2.7-.73c2.52,0,3.13,1.72,3.13,3.37v3.08a11.83,11.83,0,0,0,.13,2Zm-.23-4.2c-1.63,0-3.48.25-3.48,1.85a1.33,1.33,0,0,0,1.41,1.43,2,2,0,0,0,2-1.38,1.55,1.55,0,0,0,.08-.47Z" transform="translate(-7.59 -11.68)"/><path d="M796.38,414.68c0-.85,0-1.55-.06-2.23h1.32l.09,1.36h0a3,3,0,0,1,2.72-1.55c1.14,0,2.91.68,2.91,3.5v4.92h-1.5v-4.75c0-1.32-.49-2.43-1.9-2.43a2.19,2.19,0,0,0-2.11,2.23v4.95h-1.5Z" transform="translate(-7.59 -11.68)"/><path d="M805.82,414.68c0-.85,0-1.55-.07-2.23h1.33l.08,1.36h0a3,3,0,0,1,2.72-1.55c1.13,0,2.9.68,2.9,3.5v4.92h-1.49v-4.75c0-1.32-.5-2.43-1.91-2.43a2.22,2.22,0,0,0-2.11,2.23v4.95h-1.49Z" transform="translate(-7.59 -11.68)"/><path d="M816.09,416.84a2.63,2.63,0,0,0,2.82,2.85,5.4,5.4,0,0,0,2.28-.42l.25,1.07a6.66,6.66,0,0,1-2.74.51,3.82,3.82,0,0,1-4-4.15c0-2.48,1.46-4.44,3.86-4.44,2.68,0,3.4,2.37,3.4,3.88,0,.31,0,.54,0,.7Zm4.38-1.08a2.13,2.13,0,0,0-2.07-2.43,2.48,2.48,0,0,0-2.3,2.43Z" transform="translate(-7.59 -11.68)"/><path d="M823.77,408.61h1.5v12.07h-1.5Z" transform="translate(-7.59 -11.68)"/><path d="M827.58,419.15a3.89,3.89,0,0,0,2,.59c1.09,0,1.6-.54,1.6-1.22s-.43-1.11-1.53-1.51c-1.48-.53-2.18-1.35-2.18-2.33a2.54,2.54,0,0,1,2.84-2.42,4.13,4.13,0,0,1,2,.51l-.37,1.09a3.23,3.23,0,0,0-1.68-.48c-.89,0-1.38.52-1.38,1.13s.49,1,1.56,1.39c1.43.55,2.16,1.26,2.16,2.48,0,1.45-1.12,2.47-3.07,2.47a4.73,4.73,0,0,1-2.32-.56Z" transform="translate(-7.59 -11.68)"/><line class="cls-15" x1="545.88" y1="30.08" x2="545.88" y2="30.08"/><path class="cls-16" d="M545.77,39.72C513.06,31.52,435,17.86,351.92,55.56a287.18,287.18,0,0,0-98.66,74.28" transform="translate(-7.59 -11.68)"/><line class="cls-15" x1="243.1" y1="121.19" x2="243.1" y2="121.19"/><line class="cls-15" x1="646.31" y1="497.81" x2="646.31" y2="497.81"/><path class="cls-16" d="M659.64,504c24-23.68,76.23-83.24,87.22-173.84a287.12,287.12,0,0,0-12.18-122.89" transform="translate(-7.59 -11.68)"/><line class="cls-15" x1="725.85" y1="191.78" x2="725.85" y2="191.78"/><path d="M321.44,544.45a13.88,13.88,0,0,1,2.7-.24,4.75,4.75,0,0,1,3.15.83,2.41,2.41,0,0,1,.95,2,2.72,2.72,0,0,1-1.94,2.52v0a3,3,0,0,1,2.36,2.88,3.08,3.08,0,0,1-1,2.29c-.8.73-2.09,1.07-4,1.07a17.05,17.05,0,0,1-2.29-.13Zm1.48,4.69h1.34c1.56,0,2.48-.82,2.48-1.92,0-1.34-1-1.87-2.51-1.87a6.42,6.42,0,0,0-1.31.1Zm0,5.49a8,8,0,0,0,1.24.07c1.53,0,2.94-.56,2.94-2.23s-1.34-2.21-3-2.21h-1.22Z" transform="translate(-7.59 -11.68)"/><path d="M335.16,555.75l-.12-1H335a3.07,3.07,0,0,1-2.52,1.23,2.35,2.35,0,0,1-2.52-2.36c0-2,1.77-3.08,4.95-3.06v-.17a1.7,1.7,0,0,0-1.87-1.91,4.15,4.15,0,0,0-2.14.61l-.34-1a5.13,5.13,0,0,1,2.7-.73c2.52,0,3.13,1.71,3.13,3.36v3.08a10.79,10.79,0,0,0,.14,2Zm-.22-4.2c-1.64,0-3.49.26-3.49,1.86a1.32,1.32,0,0,0,1.41,1.42,2.05,2.05,0,0,0,2-1.37,1.69,1.69,0,0,0,.09-.48Z" transform="translate(-7.59 -11.68)"/><path d="M338.8,549.75c0-.85,0-1.55-.07-2.23h1.32l.09,1.36h0a3,3,0,0,1,2.72-1.54c1.14,0,2.91.68,2.91,3.5v4.91h-1.5V551c0-1.33-.49-2.43-1.9-2.43a2.12,2.12,0,0,0-2,1.53,2.09,2.09,0,0,0-.1.69v5H338.8Z" transform="translate(-7.59 -11.68)"/><path d="M349.71,551.3h0c.21-.29.5-.65.73-.94l2.42-2.84h1.8l-3.18,3.39,3.62,4.84h-1.82l-2.84-3.94-.76.85v3.09h-1.48V543.68h1.48Z" transform="translate(-7.59 -11.68)"/><path d="M356,554.22a3.89,3.89,0,0,0,2,.6c1.09,0,1.6-.55,1.6-1.23s-.43-1.1-1.53-1.51c-1.48-.53-2.18-1.34-2.18-2.33,0-1.32,1.07-2.41,2.84-2.41a4.1,4.1,0,0,1,2,.51l-.37,1.08a3.24,3.24,0,0,0-1.68-.47c-.89,0-1.38.51-1.38,1.12s.49,1,1.56,1.39c1.43.55,2.16,1.26,2.16,2.49,0,1.44-1.12,2.46-3.07,2.46a4.73,4.73,0,0,1-2.32-.56Z" transform="translate(-7.59 -11.68)"/><path d="M366.54,550.09c0-1,0-1.8-.07-2.57h1.31l.05,1.62h.07a2.45,2.45,0,0,1,2.28-1.8,1.38,1.38,0,0,1,.42,0v1.41a2,2,0,0,0-.51,0,2.11,2.11,0,0,0-2,1.92,4.69,4.69,0,0,0-.06.7v4.38h-1.48Z" transform="translate(-7.59 -11.68)"/><path d="M372.76,551.91a2.63,2.63,0,0,0,2.82,2.85,5.4,5.4,0,0,0,2.28-.42l.25,1.07a6.56,6.56,0,0,1-2.73.51,3.82,3.82,0,0,1-4.05-4.15c0-2.48,1.46-4.43,3.86-4.43,2.69,0,3.4,2.36,3.4,3.87a5.09,5.09,0,0,1,0,.7Zm4.38-1.07a2.13,2.13,0,0,0-2.07-2.43,2.47,2.47,0,0,0-2.29,2.43Z" transform="translate(-7.59 -11.68)"/><path d="M386.31,555.45a5.61,5.61,0,0,1-2.37.47,3.9,3.9,0,0,1-4.09-4.2,4.18,4.18,0,0,1,4.42-4.37,5.06,5.06,0,0,1,2.07.43l-.34,1.15a3.52,3.52,0,0,0-1.73-.39,2.85,2.85,0,0,0-2.91,3.11,2.82,2.82,0,0,0,2.86,3.08,4.15,4.15,0,0,0,1.83-.41Z" transform="translate(-7.59 -11.68)"/><path d="M388.79,551.91a2.63,2.63,0,0,0,2.82,2.85,5.4,5.4,0,0,0,2.28-.42l.26,1.07a6.66,6.66,0,0,1-2.74.51,3.82,3.82,0,0,1-4.05-4.15c0-2.48,1.46-4.43,3.86-4.43,2.69,0,3.4,2.36,3.4,3.87a5.09,5.09,0,0,1-.05.7Zm4.39-1.07a2.14,2.14,0,0,0-2.08-2.43,2.47,2.47,0,0,0-2.29,2.43Z" transform="translate(-7.59 -11.68)"/><path d="M398.14,545.21a.93.93,0,0,1-1.85,0,.91.91,0,0,1,.93-.93A.89.89,0,0,1,398.14,545.21Zm-1.67,10.54v-8.23H398v8.23Z" transform="translate(-7.59 -11.68)"/><path d="M401,547.52l1.61,4.63a19.52,19.52,0,0,1,.67,2.11h.05c.19-.68.42-1.36.7-2.11l1.59-4.63h1.57L404,555.75h-1.43l-3.13-8.23Z" transform="translate(-7.59 -11.68)"/><path d="M409.29,551.91a2.63,2.63,0,0,0,2.82,2.85,5.4,5.4,0,0,0,2.28-.42l.26,1.07a6.66,6.66,0,0,1-2.74.51,3.82,3.82,0,0,1-4.05-4.15c0-2.48,1.46-4.43,3.86-4.43,2.69,0,3.4,2.36,3.4,3.87a5.09,5.09,0,0,1-.05.7Zm4.39-1.07a2.13,2.13,0,0,0-2.08-2.43,2.47,2.47,0,0,0-2.29,2.43Z" transform="translate(-7.59 -11.68)"/><path d="M321.54,576.15v-7.09h-1.16v-1.14h1.16v-.44a3.31,3.31,0,0,1,3.59-3.59,4.1,4.1,0,0,1,2.09.55l-.43,1.14a3.07,3.07,0,0,0-1.73-.48c-1.58,0-2,1.11-2,2.42v.4h4.78v8.23h-1.48v-7.09H323v7.09Z" transform="translate(-7.59 -11.68)"/><path d="M330.28,570.15c0-.85,0-1.55-.07-2.23h1.33l.08,1.36h0a3,3,0,0,1,2.72-1.54c1.14,0,2.91.68,2.91,3.5v4.91h-1.5v-4.74c0-1.33-.49-2.43-1.9-2.43a2.11,2.11,0,0,0-2,1.53,2,2,0,0,0-.11.69v4.95h-1.49Z" transform="translate(-7.59 -11.68)"/><path d="M344.27,576.15l-.12-1h0a3.07,3.07,0,0,1-2.52,1.23,2.35,2.35,0,0,1-2.51-2.37c0-2,1.76-3.07,4.94-3.05v-.17a1.7,1.7,0,0,0-1.87-1.91,4.15,4.15,0,0,0-2.14.61l-.34-1a5.13,5.13,0,0,1,2.7-.73c2.52,0,3.13,1.71,3.13,3.36v3.08a11.77,11.77,0,0,0,.14,2Zm-.22-4.2c-1.64,0-3.49.26-3.49,1.85a1.33,1.33,0,0,0,1.41,1.43,2.05,2.05,0,0,0,2-1.37,1.69,1.69,0,0,0,.09-.48Z" transform="translate(-7.59 -11.68)"/><path d="M347.91,570.15c0-.85,0-1.55-.07-2.23h1.32l.09,1.36h0a3,3,0,0,1,2.72-1.54c1.14,0,2.91.68,2.91,3.5v4.91h-1.5v-4.74c0-1.33-.49-2.43-1.9-2.43a2.12,2.12,0,0,0-2,1.53,2.34,2.34,0,0,0-.1.69v4.95h-1.49Z" transform="translate(-7.59 -11.68)"/><path d="M363.21,575.84a5.46,5.46,0,0,1-2.37.48,3.9,3.9,0,0,1-4.09-4.2,4.18,4.18,0,0,1,4.42-4.37,4.9,4.9,0,0,1,2.07.43l-.34,1.15a3.52,3.52,0,0,0-1.73-.39,2.85,2.85,0,0,0-2.91,3.11,2.82,2.82,0,0,0,2.85,3.08,4.2,4.2,0,0,0,1.84-.41Z" transform="translate(-7.59 -11.68)"/><path d="M366.62,565.61a.88.88,0,0,1-.95.92.89.89,0,0,1-.9-.92.91.91,0,0,1,.94-.93A.88.88,0,0,1,366.62,565.61ZM365,576.15v-8.23h1.49v8.23Z" transform="translate(-7.59 -11.68)"/><path d="M368.94,570.15c0-.85,0-1.55-.07-2.23h1.32l.09,1.36h0a3,3,0,0,1,2.72-1.54c1.14,0,2.91.68,2.91,3.5v4.91h-1.5v-4.74c0-1.33-.49-2.43-1.9-2.43a2.12,2.12,0,0,0-2,1.53,2,2,0,0,0-.1.69v4.95h-1.49Z" transform="translate(-7.59 -11.68)"/><path d="M385.46,567.92c0,.6-.07,1.26-.07,2.26V575c0,1.89-.37,3-1.17,3.76a4.35,4.35,0,0,1-3,1,5.23,5.23,0,0,1-2.74-.68l.37-1.14a4.68,4.68,0,0,0,2.42.65c1.53,0,2.65-.8,2.65-2.87v-.92h0a2.91,2.91,0,0,1-2.61,1.38c-2,0-3.51-1.74-3.51-4,0-2.78,1.82-4.36,3.71-4.36a2.74,2.74,0,0,1,2.57,1.42h0l.07-1.24Zm-1.55,3.25a2.4,2.4,0,0,0-.08-.68,2.17,2.17,0,0,0-2.1-1.58c-1.42,0-2.44,1.21-2.44,3.11,0,1.61.81,3,2.43,3a2.18,2.18,0,0,0,2.07-1.53,2.51,2.51,0,0,0,.12-.8Z" transform="translate(-7.59 -11.68)"/><path d="M391.48,570.49c0-1,0-1.8-.07-2.57h1.31l0,1.62h.07a2.45,2.45,0,0,1,2.27-1.8,1.45,1.45,0,0,1,.43,0v1.41a2,2,0,0,0-.51-.05,2.1,2.1,0,0,0-2,1.92,4.59,4.59,0,0,0-.07.69v4.39h-1.47Z" transform="translate(-7.59 -11.68)"/><path d="M397.7,572.31a2.63,2.63,0,0,0,2.82,2.85,5.4,5.4,0,0,0,2.28-.42l.25,1.07a6.6,6.6,0,0,1-2.73.51,3.82,3.82,0,0,1-4.05-4.15c0-2.48,1.46-4.43,3.86-4.43,2.68,0,3.4,2.36,3.4,3.87,0,.31,0,.55,0,.7Zm4.38-1.07a2.13,2.13,0,0,0-2.07-2.43,2.48,2.48,0,0,0-2.3,2.43Z" transform="translate(-7.59 -11.68)"/><path d="M411,574.88h0a3,3,0,0,1-2.69,1.46c-1.92,0-3.48-1.67-3.48-4.17,0-3.07,2-4.43,3.72-4.43a2.72,2.72,0,0,1,2.53,1.42h0l.05-1.24h1.41c0,.7-.05,1.41-.05,2.26v9.34H411Zm0-3.62a2.53,2.53,0,0,0-.07-.63,2.18,2.18,0,0,0-2.14-1.7c-1.55,0-2.48,1.31-2.48,3.16,0,1.63.78,3.06,2.43,3.06a2.23,2.23,0,0,0,2.14-1.63,2.53,2.53,0,0,0,.12-.72Z" transform="translate(-7.59 -11.68)"/><path d="M421.84,573.91c0,.85,0,1.6.06,2.24h-1.32l-.09-1.34h0a3.1,3.1,0,0,1-2.72,1.53c-1.29,0-2.84-.72-2.84-3.61v-4.81h1.5v4.56c0,1.56.47,2.62,1.83,2.62a2.17,2.17,0,0,0,2-1.36,2.11,2.11,0,0,0,.14-.77v-5.05h1.5Z" transform="translate(-7.59 -11.68)"/><path d="M425.15,572.31a2.64,2.64,0,0,0,2.82,2.85,5.4,5.4,0,0,0,2.28-.42l.26,1.07a6.66,6.66,0,0,1-2.74.51,3.83,3.83,0,0,1-4-4.15c0-2.48,1.47-4.43,3.86-4.43,2.69,0,3.4,2.36,3.4,3.87a5.09,5.09,0,0,1-.05.7Zm4.39-1.07a2.13,2.13,0,0,0-2.08-2.43,2.47,2.47,0,0,0-2.29,2.43Z" transform="translate(-7.59 -11.68)"/><path d="M432.63,574.62a3.92,3.92,0,0,0,2,.6c1.09,0,1.6-.55,1.6-1.23s-.42-1.1-1.53-1.51c-1.48-.53-2.17-1.34-2.17-2.33a2.53,2.53,0,0,1,2.83-2.41,4,4,0,0,1,2,.51l-.38,1.08a3.21,3.21,0,0,0-1.68-.47c-.88,0-1.38.51-1.38,1.12s.5,1,1.57,1.39c1.42.55,2.16,1.26,2.16,2.49,0,1.44-1.13,2.46-3.08,2.46a4.69,4.69,0,0,1-2.31-.56Z" transform="translate(-7.59 -11.68)"/><path d="M441.37,565.56v2.36h2.14v1.14h-2.14v4.44c0,1,.29,1.6,1.12,1.6a3,3,0,0,0,.87-.11l.07,1.13a3.67,3.67,0,0,1-1.33.2,2.08,2.08,0,0,1-1.62-.63,3.06,3.06,0,0,1-.57-2.14v-4.49h-1.28v-1.14h1.28v-2Z" transform="translate(-7.59 -11.68)"/><path d="M456,576.15c-.32-.32-.63-.64-1.07-1.12a4.69,4.69,0,0,1-3.35,1.31,3.24,3.24,0,0,1-3.52-3.21,3.76,3.76,0,0,1,2.25-3.35v-.06a3.9,3.9,0,0,1-1-2.39,2.78,2.78,0,0,1,2.91-2.82,2.38,2.38,0,0,1,2.53,2.43c0,1.2-.69,2.16-2.51,3.06v0c1,1.12,2.06,2.38,2.79,3.19a8.48,8.48,0,0,0,1.1-3.35h1.36a8.64,8.64,0,0,1-1.65,4.24c.61.64,1.21,1.29,1.89,2Zm-1.8-2c-.68-.75-2-2.14-3.23-3.6a2.81,2.81,0,0,0-1.48,2.32,2.27,2.27,0,0,0,2.35,2.32A3.22,3.22,0,0,0,454.22,574.18Zm-3.49-7a3.23,3.23,0,0,0,.87,2.06c1.16-.66,1.91-1.28,1.91-2.24a1.35,1.35,0,0,0-1.33-1.48A1.49,1.49,0,0,0,450.73,567.19Z" transform="translate(-7.59 -11.68)"/><path d="M328.27,594.31c0,.85,0,1.6.07,2.24H327l-.08-1.34h0a3.09,3.09,0,0,1-2.72,1.53c-1.29,0-2.83-.72-2.83-3.61v-4.81h1.49v4.56c0,1.56.48,2.62,1.84,2.62a2.17,2.17,0,0,0,2-1.36,2.34,2.34,0,0,0,.14-.77v-5h1.49Z" transform="translate(-7.59 -11.68)"/><path d="M330.75,591c0-1,0-1.9-.06-2.69H332l.07,1.41h0a3.23,3.23,0,0,1,2.92-1.59c2,0,3.49,1.68,3.49,4.18,0,3-1.8,4.42-3.74,4.42a2.89,2.89,0,0,1-2.53-1.29h0v4.47h-1.48Zm1.48,2.19a3.66,3.66,0,0,0,.07.61,2.3,2.3,0,0,0,2.24,1.75c1.59,0,2.5-1.29,2.5-3.17,0-1.65-.86-3.06-2.44-3.06a2.4,2.4,0,0,0-2.27,1.85,2.51,2.51,0,0,0-.1.61Z" transform="translate(-7.59 -11.68)"/><path d="M347.53,584.48v9.95c0,.73,0,1.56.07,2.12h-1.34l-.07-1.43h0a3.06,3.06,0,0,1-2.81,1.62c-2,0-3.52-1.69-3.52-4.18,0-2.74,1.69-4.42,3.69-4.42a2.74,2.74,0,0,1,2.48,1.25h0v-4.91ZM346,591.67A2.76,2.76,0,0,0,346,591a2.2,2.2,0,0,0-2.16-1.73c-1.55,0-2.46,1.36-2.46,3.18,0,1.66.81,3,2.43,3a2.24,2.24,0,0,0,2.19-1.78,2.7,2.7,0,0,0,.07-.65Z" transform="translate(-7.59 -11.68)"/><path d="M354.57,596.55l-.12-1h-.05a3.06,3.06,0,0,1-2.52,1.23,2.35,2.35,0,0,1-2.51-2.36c0-2,1.77-3.08,4.95-3.06v-.17a1.7,1.7,0,0,0-1.87-1.91,4.16,4.16,0,0,0-2.15.61l-.34-1a5.14,5.14,0,0,1,2.71-.73c2.51,0,3.12,1.71,3.12,3.36v3.08a11.77,11.77,0,0,0,.14,2Zm-.22-4.2c-1.63,0-3.49.26-3.49,1.86a1.33,1.33,0,0,0,1.42,1.42,2,2,0,0,0,2-1.37,1.4,1.4,0,0,0,.09-.48Z" transform="translate(-7.59 -11.68)"/><path d="M359.94,586v2.36h2.14v1.14h-2.14v4.44c0,1,.29,1.6,1.13,1.6a2.89,2.89,0,0,0,.86-.11l.07,1.13a3.67,3.67,0,0,1-1.33.2,2.07,2.07,0,0,1-1.61-.63,3,3,0,0,1-.58-2.14v-4.49h-1.27v-1.14h1.27v-2Z" transform="translate(-7.59 -11.68)"/><path d="M364.5,592.71a2.63,2.63,0,0,0,2.82,2.85,5.4,5.4,0,0,0,2.28-.42l.25,1.07a6.56,6.56,0,0,1-2.73.51,3.82,3.82,0,0,1-4.05-4.15c0-2.48,1.46-4.43,3.86-4.43,2.69,0,3.4,2.36,3.4,3.87a5.09,5.09,0,0,1-.05.7Zm4.38-1.07a2.13,2.13,0,0,0-2.07-2.43,2.47,2.47,0,0,0-2.29,2.43Z" transform="translate(-7.59 -11.68)"/><path d="M375.94,596.55v-7.09h-1.16v-1.14h1.16v-.44a3.29,3.29,0,0,1,3.59-3.58,4.1,4.1,0,0,1,2.09.54l-.43,1.14a3.1,3.1,0,0,0-1.73-.48c-1.58,0-2,1.11-2,2.42v.4h4.77v8.23h-1.47v-7.09h-3.3v7.09Z" transform="translate(-7.59 -11.68)"/><path d="M384.68,590.55c0-.85,0-1.55-.07-2.23h1.33l.08,1.36h0a3,3,0,0,1,2.72-1.54c1.14,0,2.91.68,2.91,3.5v4.91h-1.5v-4.74c0-1.33-.49-2.43-1.9-2.43a2.1,2.1,0,0,0-2,1.53,2,2,0,0,0-.11.69v4.95h-1.49Z" transform="translate(-7.59 -11.68)"/><path d="M398.67,596.55l-.12-1h-.05a3.07,3.07,0,0,1-2.52,1.23,2.35,2.35,0,0,1-2.51-2.36c0-2,1.76-3.08,4.94-3.06v-.17a1.7,1.7,0,0,0-1.87-1.91,4.15,4.15,0,0,0-2.14.61l-.34-1a5.13,5.13,0,0,1,2.7-.73c2.52,0,3.13,1.71,3.13,3.36v3.08a11.77,11.77,0,0,0,.14,2Zm-.22-4.2c-1.64,0-3.49.26-3.49,1.86a1.32,1.32,0,0,0,1.41,1.42,2.05,2.05,0,0,0,2-1.37,1.69,1.69,0,0,0,.09-.48Z" transform="translate(-7.59 -11.68)"/><path d="M402.31,590.55c0-.85,0-1.55-.07-2.23h1.32l.09,1.36h0a3,3,0,0,1,2.72-1.54c1.14,0,2.91.68,2.91,3.5v4.91h-1.5v-4.74c0-1.33-.49-2.43-1.9-2.43a2.12,2.12,0,0,0-2,1.53,2.34,2.34,0,0,0-.1.69v4.95h-1.49Z" transform="translate(-7.59 -11.68)"/><path d="M417.61,596.25a5.65,5.65,0,0,1-2.37.47,3.9,3.9,0,0,1-4.09-4.2,4.18,4.18,0,0,1,4.42-4.37,5.06,5.06,0,0,1,2.07.43l-.34,1.15a3.52,3.52,0,0,0-1.73-.39,2.85,2.85,0,0,0-2.91,3.11,2.82,2.82,0,0,0,2.85,3.08,4.2,4.2,0,0,0,1.84-.41Z" transform="translate(-7.59 -11.68)"/><path d="M421,586a.88.88,0,0,1-.95.92.89.89,0,0,1-.9-.92.91.91,0,0,1,.94-.93A.88.88,0,0,1,421,586Zm-1.66,10.54v-8.23h1.49v8.23Z" transform="translate(-7.59 -11.68)"/><path d="M423.33,590.55c0-.85,0-1.55-.06-2.23h1.32l.09,1.36h0a3,3,0,0,1,2.72-1.54c1.14,0,2.91.68,2.91,3.5v4.91h-1.5v-4.74c0-1.33-.49-2.43-1.9-2.43a2.12,2.12,0,0,0-2,1.53,2,2,0,0,0-.1.69v4.95h-1.5Z" transform="translate(-7.59 -11.68)"/><path d="M439.86,588.32c0,.6-.07,1.26-.07,2.26v4.78c0,1.89-.37,3-1.17,3.76a4.36,4.36,0,0,1-3,1,5.22,5.22,0,0,1-2.73-.68l.37-1.14a4.59,4.59,0,0,0,2.42.65c1.53,0,2.65-.8,2.65-2.87v-.92h0a2.92,2.92,0,0,1-2.61,1.38c-2,0-3.51-1.74-3.51-4,0-2.79,1.82-4.37,3.71-4.37a2.74,2.74,0,0,1,2.57,1.42h0l.07-1.24Zm-1.55,3.25a2.4,2.4,0,0,0-.08-.68,2.17,2.17,0,0,0-2.1-1.58c-1.42,0-2.44,1.21-2.44,3.11,0,1.62.81,3,2.43,3a2.18,2.18,0,0,0,2.07-1.53,2.51,2.51,0,0,0,.12-.8Z" transform="translate(-7.59 -11.68)"/><path d="M321.18,615.42a3.92,3.92,0,0,0,2,.6c1.09,0,1.6-.55,1.6-1.23s-.42-1.1-1.53-1.51c-1.48-.53-2.17-1.34-2.17-2.33,0-1.33,1.07-2.41,2.84-2.41a4,4,0,0,1,2,.51l-.38,1.08a3.21,3.21,0,0,0-1.68-.47c-.88,0-1.37.51-1.37,1.12s.49,1,1.56,1.39c1.43.55,2.16,1.26,2.16,2.49,0,1.44-1.12,2.46-3.08,2.46a4.69,4.69,0,0,1-2.31-.56Z" transform="translate(-7.59 -11.68)"/><path d="M329.92,606.36v2.36h2.14v1.14h-2.14v4.44c0,1,.29,1.6,1.12,1.6a3,3,0,0,0,.87-.11l.07,1.13a3.67,3.67,0,0,1-1.33.2,2.06,2.06,0,0,1-1.61-.63,3,3,0,0,1-.58-2.14v-4.49h-1.28v-1.14h1.28v-2Z" transform="translate(-7.59 -11.68)"/><path d="M338.3,617l-.12-1h-.05a3.05,3.05,0,0,1-2.51,1.23,2.35,2.35,0,0,1-2.52-2.37c0-2,1.77-3.07,4.95-3v-.17a1.7,1.7,0,0,0-1.87-1.91,4.09,4.09,0,0,0-2.14.61l-.35-1a5.17,5.17,0,0,1,2.71-.73c2.51,0,3.13,1.71,3.13,3.36V615a11.83,11.83,0,0,0,.13,2Zm-.22-4.2c-1.63,0-3.48.26-3.48,1.85A1.32,1.32,0,0,0,336,616a2.05,2.05,0,0,0,2-1.37,1.66,1.66,0,0,0,.08-.48Z" transform="translate(-7.59 -11.68)"/><path d="M343.67,606.36v2.36h2.15v1.14h-2.15v4.44c0,1,.29,1.6,1.13,1.6a2.84,2.84,0,0,0,.86-.11l.07,1.13a3.67,3.67,0,0,1-1.33.2,2.07,2.07,0,0,1-1.61-.63,3,3,0,0,1-.58-2.14v-4.49h-1.27v-1.14h1.27v-2Z" transform="translate(-7.59 -11.68)"/><path d="M354.38,614.71c0,.85,0,1.59.07,2.24h-1.32l-.09-1.34h0a3.1,3.1,0,0,1-2.72,1.53c-1.3,0-2.84-.72-2.84-3.61v-4.81h1.49v4.56c0,1.56.48,2.62,1.84,2.62a2.17,2.17,0,0,0,2-1.36,2.11,2.11,0,0,0,.14-.77v-5h1.49Z" transform="translate(-7.59 -11.68)"/><path d="M356.66,615.42a3.92,3.92,0,0,0,2,.6c1.09,0,1.6-.55,1.6-1.23s-.42-1.1-1.53-1.51c-1.48-.53-2.17-1.34-2.17-2.33a2.53,2.53,0,0,1,2.83-2.41,4,4,0,0,1,2,.51l-.38,1.08a3.21,3.21,0,0,0-1.68-.47c-.88,0-1.38.51-1.38,1.12s.5,1,1.57,1.39c1.43.55,2.16,1.26,2.16,2.49,0,1.44-1.12,2.46-3.08,2.46a4.69,4.69,0,0,1-2.31-.56Z" transform="translate(-7.59 -11.68)"/><path d="M751.16,107.33l2.71-3.22a8.28,8.28,0,0,0,5.11,2.17c2,0,2.92-.77,2.92-2s-1.18-1.73-3-2.48l-2.7-1.15C754,99.76,752,98,752,95c0-3.45,3.08-6.2,7.41-6.2a9.59,9.59,0,0,1,6.69,2.73l-2.37,3a6.79,6.79,0,0,0-4.32-1.63c-1.62,0-2.66.68-2.66,1.87s1.36,1.74,3.18,2.46l2.65,1.07c2.54,1,4.13,2.72,4.13,5.66,0,3.46-2.88,6.45-7.84,6.45A11.44,11.44,0,0,1,751.16,107.33Z" transform="translate(-7.59 -11.68)"/><path d="M770.14,100.32V89.15h4.7V100.8c0,4.07,1.29,5.48,3.62,5.48s3.68-1.41,3.68-5.48V89.15h4.54v11.17c0,7-2.84,10-8.22,10S770.14,107.3,770.14,100.32Z" transform="translate(-7.59 -11.68)"/><path d="M791.48,89.15h7.15c4.58,0,8.27,1.64,8.27,6.7,0,4.89-3.73,7.05-8.14,7.05h-2.57V110h-4.71Zm7,10c2.59,0,3.81-1.15,3.81-3.31s-1.39-3-3.94-3h-2.16v6.27Z" transform="translate(-7.59 -11.68)"/><path d="M810.51,89.15h7.14c4.58,0,8.27,1.64,8.27,6.7,0,4.89-3.73,7.05-8.14,7.05h-2.57V110h-4.7Zm7,10c2.59,0,3.81-1.15,3.81-3.31s-1.39-3-3.93-3h-2.17v6.27Z" transform="translate(-7.59 -11.68)"/><path d="M829.53,89.15h4.7V106h8.22V110H829.53Z" transform="translate(-7.59 -11.68)"/><path d="M846.07,89.15h4.7V110h-4.7Z" transform="translate(-7.59 -11.68)"/><path d="M855.67,89.15h13V93.1h-8.33v4.18h7.09v3.94h-7.09V106H869V110H855.67Z" transform="translate(-7.59 -11.68)"/><path d="M873.17,89.15h7.49c4.41,0,8,1.54,8,6.48,0,4.78-3.62,6.84-8,6.84h-2.79V110h-4.7Zm7.11,9.59c2.47,0,3.8-1.06,3.8-3.11s-1.33-2.74-3.8-2.74h-2.41v5.85Zm-.48,2.49,3.25-3L889.69,110h-5.26Z" transform="translate(-7.59 -11.68)"/><path d="M890.94,107.33l2.7-3.22a8.33,8.33,0,0,0,5.11,2.17c2,0,2.93-.77,2.93-2s-1.18-1.73-3-2.48L896,100.64c-2.15-.88-4.19-2.65-4.19-5.67,0-3.45,3.08-6.2,7.41-6.2a9.59,9.59,0,0,1,6.69,2.73l-2.38,3a6.77,6.77,0,0,0-4.31-1.63c-1.63,0-2.66.68-2.66,1.87s1.36,1.74,3.18,2.46l2.65,1.07c2.54,1,4.13,2.72,4.13,5.66,0,3.46-2.88,6.45-7.84,6.45A11.43,11.43,0,0,1,890.94,107.33Z" transform="translate(-7.59 -11.68)"/><path d="M7.59,222h7.12c4.32,0,7.67,1.18,7.67,5.16a4.81,4.81,0,0,1-2.74,4.49v.13a4.73,4.73,0,0,1,3.77,4.89c0,4.24-3.58,6.13-8.11,6.13H7.59Zm6.9,8.33c2.28,0,3.29-1,3.29-2.48s-1.06-2.22-3.26-2.22H12.29v4.7Zm.43,8.84c2.56,0,3.89-.91,3.89-2.8s-1.3-2.57-3.89-2.57H12.29v5.37Z" transform="translate(-7.59 -11.68)"/><path d="M26.78,233.13V222h4.71v11.64c0,4.08,1.28,5.48,3.61,5.48s3.68-1.4,3.68-5.48V222h4.54v11.16c0,7-2.84,10-8.22,10S26.78,240.12,26.78,233.13Z" transform="translate(-7.59 -11.68)"/><path d="M51.12,235.35,44.86,222h5l1.85,4.78c.56,1.56,1.1,3,1.7,4.61h.13c.59-1.61,1.18-3.05,1.75-4.61L57.18,222h4.91l-6.26,13.38v7.42H51.12Z" transform="translate(-7.59 -11.68)"/><path d="M63.51,222h13v3.94H68.22v4.18h7.09V234H68.22v4.8h8.65v3.94H63.51Z" transform="translate(-7.59 -11.68)"/><path d="M81,222h7.5c4.41,0,8,1.53,8,6.48,0,4.78-3.62,6.84-8,6.84H85.71v7.48H81Zm7.11,9.58c2.48,0,3.81-1.06,3.81-3.1s-1.33-2.75-3.81-2.75h-2.4v5.85Zm-.47,2.5,3.25-3,6.64,11.73H92.27Z" transform="translate(-7.59 -11.68)"/><path d="M98.78,240.15l2.7-3.23a8.27,8.27,0,0,0,5.11,2.17c2,0,2.93-.77,2.93-2s-1.19-1.73-3-2.48l-2.71-1.15c-2.15-.88-4.2-2.65-4.2-5.67,0-3.45,3.08-6.21,7.41-6.21a9.66,9.66,0,0,1,6.7,2.73l-2.38,3a6.72,6.72,0,0,0-4.32-1.63c-1.62,0-2.65.67-2.65,1.86s1.36,1.74,3.18,2.46l2.65,1.08c2.54,1,4.12,2.72,4.12,5.66,0,3.45-2.88,6.45-7.83,6.45A11.47,11.47,0,0,1,98.78,240.15Z" transform="translate(-7.59 -11.68)"/><path d="M646,583.32h7.12c4.32,0,7.67,1.19,7.67,5.16A4.79,4.79,0,0,1,658,593v.13a4.74,4.74,0,0,1,3.77,4.9c0,4.23-3.58,6.13-8.11,6.13H646Zm6.9,8.34c2.28,0,3.29-1,3.29-2.48s-1.06-2.23-3.25-2.23h-2.24v4.71Zm.43,8.84c2.56,0,3.89-.91,3.89-2.81s-1.3-2.56-3.89-2.56h-2.63v5.37Z" transform="translate(-7.59 -11.68)"/><path d="M669.16,583.32h5.63l6.53,20.81h-5l-2.73-10.54c-.57-2.08-1.13-4.54-1.69-6.71h-.12c-.51,2.2-1.06,4.63-1.64,6.71l-2.73,10.54h-4.81Zm-2.22,12.2h10v3.65h-10Z" transform="translate(-7.59 -11.68)"/><path d="M683.33,583.32h4.82l5.42,10.35,2.06,4.57h.13c-.22-2.2-.6-5.11-.6-7.57v-7.35h4.48v20.81h-4.82l-5.43-10.38-2.06-4.54h-.12c.22,2.29.6,5.08.6,7.53v7.39h-4.48Z" transform="translate(-7.59 -11.68)"/><path d="M704.55,583.32h4.71v8.5h.11l6.2-8.5h5.17l-6.29,8.31,7.45,12.5h-5.16l-5.06-8.79-2.42,3.21v5.58h-4.71Z" transform="translate(-7.59 -11.68)"/><path d="M722.17,601.5l2.7-3.22a8.33,8.33,0,0,0,5.11,2.17c2,0,2.92-.77,2.92-2s-1.18-1.73-3-2.48l-2.7-1.15c-2.15-.88-4.2-2.65-4.2-5.67,0-3.45,3.08-6.2,7.41-6.2a9.61,9.61,0,0,1,6.7,2.73l-2.38,3a6.77,6.77,0,0,0-4.32-1.63c-1.62,0-2.65.68-2.65,1.87s1.36,1.74,3.18,2.46l2.65,1.07c2.54,1,4.12,2.72,4.12,5.66,0,3.46-2.88,6.45-7.83,6.45A11.43,11.43,0,0,1,722.17,601.5Z" transform="translate(-7.59 -11.68)"/></g><g id="Layer_2" data-name="Layer 2"><path class="cls-17" d="M547.71,25.83l22,20.92a1,1,0,0,1-.59,1.7L538.9,51.39a1,1,0,0,1-1-1.31l8.22-23.86A1,1,0,0,1,547.71,25.83Z" transform="translate(-7.59 -11.68)"/><path class="cls-17" d="M667.28,515.48l-29.37,7.75a1,1,0,0,1-1.14-1.4l13.37-27.26a1,1,0,0,1,1.66-.2l16,19.52A1,1,0,0,1,667.28,515.48Z" transform="translate(-7.59 -11.68)"/><path class="cls-17" d="M266.25,134.11l-26.71,14.45a1,1,0,0,1-1.44-1.09l6.58-29.64a1,1,0,0,1,1.56-.58l20.14,15.2A1,1,0,0,1,266.25,134.11Z" transform="translate(-7.59 -11.68)"/></g></svg>