<?xml version="1.0" encoding="utf-8"?>
<!-- Generator: Adobe Illustrator 23.0.0, SVG Export Plug-In . SVG Version: 6.00 Build 0)  -->
<svg version="1.1" xmlns="http://www.w3.org/2000/svg" xmlns:xlink="http://www.w3.org/1999/xlink" x="0px" y="0px"
	 viewBox="0 0 960 293.8" style="enable-background:new 0 0 960 293.8;" xml:space="preserve">
<style type="text/css">
	.st0{display:none;}
	.st1{display:inline;}
	.st2{fill:#77899C;}
	.st3{fill:#00163C;}
	.st4{fill:#1C1E1F;}
	.st5{fill:#0791FC;}
	.st6{fill:none;stroke:#161517;stroke-width:2.3;stroke-linecap:round;stroke-miterlimit:10;}
	.st7{fill:none;stroke:#0791FC;stroke-width:2.3;stroke-linecap:round;stroke-miterlimit:10;}
	.st8{fill:none;stroke:#161517;stroke-width:1.6983;stroke-linecap:round;stroke-miterlimit:10;}
	.st9{fill:none;stroke:#0791FC;stroke-width:1.6983;stroke-linecap:round;stroke-miterlimit:10;}
	.st10{fill:none;stroke:#161517;stroke-width:1.5;stroke-linecap:round;stroke-miterlimit:10;}
	.st11{fill:none;stroke:#0791FC;stroke-width:1.5;stroke-linecap:round;stroke-miterlimit:10;}
	.st12{fill:#26BFB4;}
	.st13{fill:#50B2C9;}
	.st14{fill:none;stroke:#50B2C9;stroke-width:2.911;stroke-miterlimit:10;}
	.st15{fill:#84CE8C;}
	.st16{fill:#FFC850;}
	.st17{fill:#FF9640;}
	.st18{fill:#A56D9B;}
	.st19{fill:#2685BF;}
	.st20{display:inline;fill:#ADADAD;}
	.st21{fill:#ADADAD;}
	.st22{fill:none;stroke:#ADADAD;stroke-width:2.911;stroke-linecap:round;stroke-miterlimit:10;}
	.st23{fill:none;stroke:#5B5B5B;stroke-width:3;stroke-linejoin:round;stroke-miterlimit:10;}
	.st24{fill:#5B5B5B;}
	.st25{display:inline;fill:none;stroke:#ADADAD;stroke-width:2.911;stroke-linecap:round;stroke-miterlimit:10;}
	.st26{fill:none;stroke:#000000;stroke-width:3;stroke-linecap:round;stroke-linejoin:round;}
	.st27{fill:none;stroke:#000000;stroke-width:3;stroke-linecap:round;stroke-linejoin:round;stroke-dasharray:0,7.9656;}
	.st28{fill:url(#SVGID_1_);}
	.st29{fill:url(#SVGID_2_);}
	.st30{fill:url(#SVGID_3_);}
	.st31{fill:none;stroke:#FFFFFF;stroke-width:6.5564;stroke-linecap:round;stroke-miterlimit:10;}
	.st32{fill:none;stroke:#FFFFFF;stroke-width:6.5564;stroke-linecap:round;stroke-miterlimit:10;stroke-dasharray:0,16.7546;}
	.st33{fill:#FFFFFF;}
	.st34{fill:#4093F7;}
	.st35{fill:#4092F4;}
	.st36{fill:#141414;}
	.st37{fill:none;stroke:#000000;stroke-miterlimit:10;}
</style>
<g id="Layer_2" class="st0">
	
		<image style="display:inline;overflow:visible;" width="296" height="1242" xlink:href="F8783A26DF0ADA87.png"  transform="matrix(3.4201 0 0 0.5 -52.3504 -218.1705)">
	</image>
	
		<image style="display:inline;overflow:visible;" width="1952" height="1184" xlink:href="F8783A26DF0ADA82.png"  transform="matrix(0.5 0 0 0.5 879.2802 -887.2443)">
	</image>
	<g class="st1">
		<g>
			<path class="st2" d="M480.5-537.5h-7.3v-1.1H489v1.1h-7.3v18.7h-1.2V-537.5z"/>
			<path class="st2" d="M496.4-531.6l-1,0.1c-1.5,0.1-2.6,0.6-3.3,1.5c-0.7,0.8-1,1.9-1,3.1v8.1h-1.2v-13.6h1.2v2.4
				c0.4-0.8,1-1.5,1.8-1.9s1.7-0.7,2.8-0.8l0.6-0.1L496.4-531.6z"/>
			<path class="st2" d="M509-527.7v8.9h-1.2v-2.5c-0.4,0.9-1,1.5-1.8,2c-0.8,0.5-1.7,0.7-2.6,0.7c-0.9,0-1.6-0.2-2.4-0.5
				c-0.7-0.4-1.3-0.8-1.7-1.5c-0.4-0.6-0.6-1.3-0.6-2.1c0-1,0.3-1.8,0.8-2.3c0.5-0.6,1.4-0.9,2.6-1.2c1.2-0.2,2.9-0.4,5.1-0.4h0.6
				v-1.2c0-1.3-0.3-2.3-0.8-2.9c-0.5-0.6-1.4-0.9-2.5-0.9c-0.9,0-1.7,0.1-2.4,0.4c-0.7,0.2-1.5,0.6-2.3,1.1l-0.6-1
				c0.7-0.5,1.5-0.9,2.4-1.2c0.9-0.3,1.8-0.4,2.7-0.4C507.5-532.7,509-531,509-527.7z M505.6-520.4c0.7-0.4,1.2-1,1.6-1.7
				c0.4-0.7,0.6-1.5,0.6-2.4v-1h-0.5c-2,0-3.5,0.1-4.5,0.2c-1,0.2-1.7,0.4-2.2,0.8c-0.4,0.4-0.6,0.9-0.6,1.7c0,0.9,0.3,1.6,1,2.1
				c0.6,0.6,1.4,0.8,2.4,0.8C504.2-519.8,505-520,505.6-520.4z"/>
			<path class="st2" d="M525-538.5v19.7h-1.2v-2.7c-0.4,1-1,1.7-1.8,2.2s-1.8,0.8-2.9,0.8c-1.2,0-2.2-0.3-3.2-0.9s-1.6-1.4-2.1-2.5
				c-0.5-1.1-0.8-2.3-0.8-3.7c0-1.4,0.3-2.6,0.8-3.7s1.2-1.9,2.1-2.4c0.9-0.6,2-0.9,3.2-0.9c1.1,0,2.1,0.3,2.9,0.8
				c0.8,0.5,1.4,1.2,1.8,2.2v-8.8H525z M522.6-521.3c0.8-1,1.2-2.5,1.2-4.4c0-1.9-0.4-3.3-1.2-4.3c-0.8-1-2-1.5-3.5-1.5
				c-1.5,0-2.7,0.5-3.5,1.5c-0.9,1-1.3,2.4-1.3,4.3c0,1.9,0.4,3.3,1.3,4.4c0.8,1.1,2,1.6,3.5,1.6
				C520.6-519.7,521.8-520.3,522.6-521.3z"/>
			<path class="st2" d="M541-525.5h-10.5c0,1.8,0.5,3.2,1.4,4.2c0.9,1,2.2,1.5,3.8,1.5c0.8,0,1.6-0.1,2.4-0.4
				c0.7-0.3,1.5-0.7,2.2-1.3l0.6,1c-0.6,0.6-1.3,1-2.2,1.4c-0.9,0.3-1.9,0.5-2.8,0.5c-2,0-3.6-0.6-4.8-1.9c-1.2-1.2-1.8-3-1.8-5.2
				c0-1.4,0.3-2.6,0.8-3.7c0.5-1.1,1.3-1.9,2.2-2.5c1-0.6,2-0.9,3.3-0.9c1.8,0,3.1,0.6,4.1,1.7c1,1.1,1.5,2.7,1.5,4.8V-525.5z
				 M532-530.3c-0.9,0.9-1.4,2.1-1.5,3.7h9.4c0-1.6-0.4-2.9-1.2-3.7c-0.8-0.9-1.8-1.3-3.2-1.3C534-531.6,532.9-531.1,532-530.3z"/>
			<path class="st2" d="M475.6-508.9h1.1v19.7h-1.1V-508.9z"/>
			<path class="st2" d="M492.9-497.9v8.7h-1.2v-8.6c0-1.4-0.3-2.5-0.9-3.2c-0.6-0.7-1.5-1-2.8-1c-1.4,0-2.6,0.4-3.5,1.3
				c-0.9,0.9-1.3,2.1-1.3,3.5v7.9h-1.2v-13.6h1.1v2.4c0.4-0.9,1-1.6,1.9-2.1c0.8-0.5,1.8-0.7,2.8-0.7
				C491.3-503.1,492.9-501.4,492.9-497.9z"/>
			<path class="st2" d="M499.6-502.7h4.1v1h-4.1v12.5h-1.2v-12.5h-2.7v-1h2.7v-0.9c0-1.7,0.4-3,1.2-3.9c0.8-0.9,2-1.4,3.7-1.5
				l0.9-0.1l0.1,1l-1.3,0.1c-1.2,0.1-2,0.5-2.6,1.2c-0.6,0.7-0.8,1.7-0.8,3.1V-502.7z"/>
			<path class="st2" d="M508.4-489.9c-0.9-0.6-1.6-1.4-2.1-2.5c-0.5-1.1-0.8-2.3-0.8-3.7c0-1.4,0.3-2.6,0.8-3.7
				c0.5-1.1,1.2-1.9,2.1-2.5c0.9-0.6,2-0.9,3.2-0.9c1.2,0,2.2,0.3,3.2,0.9c0.9,0.6,1.6,1.4,2.1,2.5c0.5,1.1,0.8,2.3,0.8,3.7
				c0,1.4-0.3,2.7-0.8,3.7c-0.5,1.1-1.2,1.9-2.1,2.5c-0.9,0.6-2,0.9-3.2,0.9C510.4-489,509.4-489.3,508.4-489.9z M515.1-491.7
				c0.8-1,1.2-2.5,1.2-4.4c0-1.8-0.4-3.3-1.3-4.3c-0.8-1-2-1.6-3.5-1.6c-1.5,0-2.7,0.5-3.5,1.6c-0.9,1-1.3,2.5-1.3,4.3
				c0,1.9,0.4,3.4,1.2,4.4c0.8,1,2,1.5,3.5,1.5C513.1-490.1,514.3-490.7,515.1-491.7z"/>
			<path class="st2" d="M528.3-502l-1,0.1c-1.5,0.1-2.6,0.6-3.3,1.5s-1,1.9-1,3.1v8.1h-1.2v-13.6h1.2v2.4c0.4-0.8,1-1.5,1.8-1.9
				s1.7-0.7,2.8-0.8l0.6-0.1L528.3-502z"/>
			<path class="st2" d="M549.8-497.9v8.7h-1.2v-8.6c0-1.4-0.3-2.5-0.8-3.2c-0.5-0.7-1.4-1-2.5-1c-1.3,0-2.3,0.4-3.1,1.3
				c-0.8,0.9-1.2,2.1-1.2,3.6v7.9h-1.2v-8.6c0-1.4-0.3-2.5-0.8-3.2c-0.5-0.7-1.4-1-2.5-1c-1.3,0-2.3,0.4-3.1,1.3
				c-0.8,0.9-1.2,2.1-1.2,3.6v7.9h-1.2v-13.6h1.1v2.4c0.4-0.9,0.9-1.5,1.7-2c0.7-0.5,1.6-0.7,2.6-0.7c2.2,0,3.6,0.9,4.2,2.7
				c0.4-0.8,1-1.5,1.8-2c0.8-0.5,1.7-0.7,2.8-0.7C548.3-503.1,549.8-501.4,549.8-497.9z"/>
			<path class="st2" d="M564.7-498.1v8.9h-1.2v-2.5c-0.4,0.9-1,1.5-1.8,2c-0.8,0.5-1.7,0.7-2.6,0.7c-0.9,0-1.6-0.2-2.4-0.5
				s-1.3-0.8-1.7-1.5c-0.4-0.6-0.6-1.3-0.6-2.1c0-1,0.3-1.8,0.8-2.3c0.5-0.6,1.4-0.9,2.6-1.2c1.2-0.2,2.9-0.4,5.1-0.4h0.6v-1.2
				c0-1.3-0.3-2.3-0.8-2.9s-1.4-0.9-2.5-0.9c-0.9,0-1.7,0.1-2.4,0.3c-0.7,0.2-1.5,0.6-2.3,1.1l-0.6-1c0.7-0.5,1.5-0.9,2.4-1.2
				s1.8-0.4,2.7-0.4C563.1-503.1,564.7-501.4,564.7-498.1z M561.3-490.8c0.7-0.4,1.2-1,1.6-1.7s0.6-1.5,0.6-2.4v-1H563
				c-2,0-3.5,0.1-4.5,0.2c-1,0.2-1.7,0.4-2.2,0.8c-0.4,0.4-0.6,0.9-0.6,1.7c0,0.9,0.3,1.6,1,2.1c0.6,0.6,1.4,0.8,2.4,0.8
				C559.9-490.2,560.7-490.4,561.3-490.8z"/>
			<path class="st2" d="M575.9-490.2l-0.1,1.1c-0.4,0.1-0.8,0.1-1.3,0.1c-1.4,0-2.5-0.4-3.2-1.2c-0.8-0.8-1.1-1.9-1.1-3.3v-8.2h-2.7
				v-1h2.7v-4.2h1.2v4.2h4.1v1h-4.1v8c0,1.2,0.3,2.1,0.8,2.7c0.6,0.6,1.4,0.9,2.5,0.9C575.2-490.1,575.6-490.1,575.9-490.2z"/>
			<path class="st2" d="M580.2-508.3v1.8h-1.8v-1.8H580.2z M578.7-502.7h1.2v13.6h-1.2V-502.7z"/>
			<path class="st2" d="M586.9-489.9c-0.9-0.6-1.6-1.4-2.1-2.5c-0.5-1.1-0.8-2.3-0.8-3.7c0-1.4,0.3-2.6,0.8-3.7
				c0.5-1.1,1.2-1.9,2.1-2.5c0.9-0.6,2-0.9,3.2-0.9s2.2,0.3,3.2,0.9c0.9,0.6,1.6,1.4,2.1,2.5c0.5,1.1,0.8,2.3,0.8,3.7
				c0,1.4-0.3,2.7-0.8,3.7c-0.5,1.1-1.2,1.9-2.1,2.5c-0.9,0.6-2,0.9-3.2,0.9S587.8-489.3,586.9-489.9z M593.6-491.7
				c0.8-1,1.2-2.5,1.2-4.4c0-1.8-0.4-3.3-1.3-4.3s-2-1.6-3.5-1.6s-2.7,0.5-3.5,1.6c-0.8,1-1.3,2.5-1.3,4.3c0,1.9,0.4,3.4,1.2,4.4
				c0.8,1,2,1.5,3.5,1.5C591.6-490.1,592.8-490.7,593.6-491.7z"/>
			<path class="st2" d="M611-497.9v8.7h-1.2v-8.6c0-1.4-0.3-2.5-0.9-3.2c-0.6-0.7-1.5-1-2.8-1c-1.4,0-2.6,0.4-3.5,1.3
				c-0.9,0.9-1.3,2.1-1.3,3.5v7.9h-1.2v-13.6h1.1v2.4c0.4-0.9,1-1.6,1.9-2.1c0.8-0.5,1.8-0.7,2.8-0.7
				C609.4-503.1,611-501.4,611-497.9z"/>
			<path class="st3" d="M491.7-479.3v19.7H489l-10.6-13.8v13.8h-3.4v-19.7h2.7l10.6,13.7v-13.7H491.7z"/>
			<path class="st3" d="M508.5-465.8h-9.3c0.1,1.3,0.5,2.2,1.1,2.8s1.6,0.9,2.8,0.9c1.5,0,2.9-0.5,4.1-1.5l1,2.4
				c-0.6,0.5-1.4,0.9-2.4,1.3s-1.9,0.5-2.9,0.5c-2.2,0-4-0.6-5.3-1.9s-1.9-3-1.9-5.2c0-1.4,0.3-2.6,0.8-3.7c0.6-1.1,1.3-1.9,2.4-2.5
				c1-0.6,2.2-0.9,3.5-0.9c1.9,0,3.4,0.6,4.5,1.8c1.1,1.2,1.6,2.9,1.6,5V-465.8z M500.3-470.3c-0.6,0.6-0.9,1.5-1.1,2.6h6.3
				c0-1.1-0.3-2-0.8-2.6c-0.5-0.6-1.3-0.9-2.2-0.9C501.6-471.2,500.8-470.9,500.3-470.3z"/>
			<path class="st3" d="M520.3-462.1l-0.2,2.6c-0.6,0.1-1.1,0.1-1.5,0.1c-1.9,0-3.3-0.4-4.3-1.3c-0.9-0.9-1.4-2.2-1.4-4v-6h-2.6
				v-2.6h2.6v-4.1h3.5v4.1h3.6v2.6h-3.6v5.9c0,1.8,0.8,2.7,2.5,2.7C519.4-462,519.9-462,520.3-462.1z"/>
			<path class="st3" d="M545.3-473.3l-5.4,13.7h-3.1l-3.4-8.8l-3.3,8.8h-3l-5.4-13.7h3.6l3.5,9.5l3.5-9.5h2.5l3.5,9.6l3.5-9.6H545.3
				z"/>
			<path class="st3" d="M550.6-460.2c-1.1-0.6-1.9-1.4-2.5-2.5c-0.6-1.1-0.9-2.3-0.9-3.8c0-1.4,0.3-2.7,0.9-3.8
				c0.6-1.1,1.4-1.9,2.5-2.5c1.1-0.6,2.3-0.9,3.7-0.9c1.4,0,2.6,0.3,3.7,0.9c1.1,0.6,1.9,1.4,2.4,2.5s0.9,2.3,0.9,3.8
				c0,1.4-0.3,2.7-0.9,3.8c-0.6,1.1-1.4,1.9-2.4,2.5c-1.1,0.6-2.3,0.9-3.7,0.9C552.8-459.4,551.6-459.7,550.6-460.2z M556.8-463.2
				c0.6-0.7,0.9-1.8,0.9-3.3c0-1.4-0.3-2.5-0.9-3.3s-1.5-1.1-2.6-1.1s-2,0.4-2.6,1.1s-0.9,1.9-0.9,3.3c0,1.5,0.3,2.6,0.9,3.3
				c0.6,0.7,1.5,1.1,2.6,1.1C555.4-462.1,556.2-462.5,556.8-463.2z"/>
			<path class="st3" d="M574-470.7l-2,0.2c-2.3,0.2-3.5,1.4-3.5,3.5v7.4h-3.5v-13.7h3.3v2.4c0.7-1.6,2.2-2.5,4.4-2.7l1.1-0.1
				L574-470.7z"/>
			<path class="st3" d="M585.9-459.6l-5.9-6.2v6.2h-3.5v-19.7h3.5v12l5.5-6h4.3l-6.2,6.6l6.6,7.1H585.9z"/>
		</g>
		<circle class="st4" cx="403.5" cy="-532.9" r="3.5"/>
		<circle class="st4" cx="403.5" cy="-489.6" r="3.5"/>
		<circle class="st5" cx="452.8" cy="-494.4" r="3.5"/>
		<circle class="st5" cx="454.2" cy="-526.3" r="3.5"/>
		<path class="st6" d="M422.6-542.8c-15.6,2-27.6,15.2-27.6,31.4c0,16.1,12,29.4,27.6,31.4"/>
		<path class="st7" d="M430.6-480.1c15.6-2,27.6-15.2,27.6-31.3c0-16.1-12-29.4-27.6-31.3"/>
		<g>
			<circle class="st4" cx="438.4" cy="-491.2" r="2.6"/>
			<circle class="st5" cx="423.8" cy="-534.7" r="2.7"/>
			<path class="st8" d="M403.5-508.5c1.4,11.5,11.3,20.4,23.1,20.4c11.9,0,21.7-8.9,23.1-20.4"/>
			<path class="st9" d="M449.8-514.4c-1.5-11.5-11.3-20.4-23.1-20.4c-11.9,0-21.7,8.9-23.1,20.4"/>
		</g>
		<g>
			<circle class="st4" cx="441.3" cy="-510" r="2"/>
			<circle class="st5" cx="416" cy="-521.7" r="2"/>
			<path class="st10" d="M417.6-499.4c5.9,4.5,14.3,4,19.6-1.4c5.3-5.4,5.7-13.8,1.1-19.6"/>
			<path class="st11" d="M435.6-523c-5.9-4.5-14.3-4-19.6,1.4c-5.3,5.4-5.7,13.8-1.1,19.6"/>
		</g>
	</g>
	<g class="st1">
		<path class="st12" d="M504.2-351.9C504.1-351.9,504.1-351.9,504.2-351.9h-0.3c-83.9,0-152.1-68.2-152.1-152.1
			c0-82.2,66.9-149.1,149.1-149.1c80.6,0,146.1,65.6,146.1,146.1c0,79-64.3,143.2-143.2,143.2c-0.8,0-1.5-0.7-1.5-1.5
			c0-0.8,0.7-1.5,1.5-1.5c77.3,0,140.3-62.9,140.3-140.3c0-78.9-64.2-143.2-143.2-143.2c-80.6,0-146.1,65.5-146.1,146.1
			c0,82.2,66.9,149.1,149.1,149.1h0.2c0,0,0,0,0.1,0c18.2,0,80.8-4.6,123.1-63c0.5-0.7,1.4-0.8,2.1-0.3c0.7,0.5,0.8,1.4,0.3,2.1
			c-19.6,27-45.3,45.9-76.6,56.3C541.9-356.2,524.4-351.9,504.2-351.9z"/>
	</g>
	<g class="st1">
		<path class="st13" d="M696.4-611.7c-4.8-4.3-11.9-5.2-17.6-1.9l-32.7,18.9c-5.5,3.2-12.3,1.6-16-3.5
			c-14.1-19.9-32.8-36.6-54.2-48.2c-23.2-12.6-48.5-19-75.3-19c-20.8,0-92.3,5.4-136.5,75.2c-0.4,0.7-0.2,1.6,0.5,2
			c0.7,0.4,1.6,0.2,2-0.5c43.4-68.5,113.5-73.8,134-73.8c50.4,0,97.9,24.6,127,65.9c4.5,6.4,13.1,8.3,19.9,4.4l32.7-18.9
			c4.5-2.6,9.9-2,13.8,1.2C694.8-610.4,695.6-611.1,696.4-611.7z"/>
		<circle class="st14" cx="747.1" cy="-651.1" r="65.5"/>
	</g>
	<g class="st1">
		<path class="st15" d="M340.9-509.7C340.8-509.7,340.8-509.7,340.9-509.7c-0.9,0-1.5-0.7-1.5-1.6c0.4-9.5,1.7-18.9,3.7-28.1
			c1-4.3,2.1-8.7,3.5-13c1.6-5,3.4-10.1,5.5-14.9c2.4-5.6,0.2-12.2-5.1-15.2l-33-19c-6.4-3.7-9.1-11.4-6.6-18.4
			c11-30-1.1-63.3-28.8-79.3c-14.4-8.3-31.1-10.5-47.2-6.2c-16,4.3-29.4,14.6-37.7,29c-7.9,13.6-10,29.5-5.9,44.7
			c4.1,15.2,13.8,27.9,27.5,35.8c12.9,7.5,28,9.5,42.5,5.6c14.4-3.9,26.5-13.1,34-26.1c14.6-25.3,5.9-57.9-19.4-72.5
			c-11.8-6.8-25.5-8.5-38.6-4.9c-13.1,3.6-24,12.2-30.6,24.1c-11.9,21.5-6,48.1,13.8,61.9c10.6,7.4,23.3,9.9,35.9,7.1
			c12.4-2.8,23.1-10.6,29.4-21.6c0.4-0.7,1.3-1,2-0.5c0.7,0.4,1,1.3,0.5,2c-6.7,11.7-18.2,20.1-31.3,23c-13.3,3-26.9,0.3-38.2-7.6
			c-10.2-7.1-17.2-17.7-19.9-30c-2.7-12.2-0.8-24.9,5.3-35.8c7-12.6,18.5-21.7,32.4-25.5c13.9-3.8,28.4-2,40.9,5.2
			c26.8,15.5,36,49.8,20.5,76.6c-7.9,13.6-20.6,23.4-35.8,27.5c-15.2,4.1-31.1,2-44.7-5.9c-14.3-8.3-24.6-21.6-28.9-37.6
			c-4.3-16-2.1-32.7,6.2-47c8.7-15.1,22.7-25.8,39.5-30.3c16.8-4.5,34.4-2.2,49.4,6.5c29,16.7,41.6,51.6,30.1,82.9
			c-2.1,5.6,0.1,11.9,5.3,14.8l33,19c6.6,3.8,9.3,12,6.3,19c-2,4.8-3.9,9.7-5.4,14.7c-1.3,4.2-2.5,8.5-3.4,12.7
			c-2,9-3.3,18.3-3.7,27.6C342.3-510.3,341.7-509.7,340.9-509.7z"/>
	</g>
	<g class="st1">
		<path class="st16" d="M357.7-429.8c-0.5,0-1.1-0.3-1.3-0.8c-4.1-8.3-7.5-16.9-10.2-25.7c-1.3-4.4-2.5-9-3.4-13.5
			c-1.1-5.1-1.9-10.3-2.5-15.4c-0.7-6.1-5.9-10.7-12-10.7l-38,0c-7.4,0-13.6-5.3-14.9-12.6c-5.4-31.5-32.5-54.4-64.6-54.4
			c-34.3,0-62.2,27.9-62.2,62.2c0,32.5,26.5,59,59,59c30.9,0,55.9-25.1,55.9-55.9c0-29.3-23.8-53.1-53.1-53.1
			c-13.6,0-26.4,5.3-35.9,15c-9.5,9.7-14.7,22.5-14.4,36.2c0.4,24.6,18.8,44.7,42.9,46.7c12.9,1.1,25.2-3.1,34.6-11.7
			c9.3-8.6,14.7-20.7,14.7-33.4c0-0.8,0.7-1.5,1.5-1.5s1.5,0.7,1.5,1.5c0,13.5-5.7,26.4-15.6,35.6c-10.1,9.2-23.2,13.7-36.9,12.5
			c-12.3-1.1-23.8-6.7-32.3-16c-8.4-9.2-13.1-21.1-13.3-33.6c-0.2-14.4,5.2-28,15.3-38.3c10.1-10.3,23.6-15.9,38-15.9
			c30.9,0,56,25.1,56,56c0,32.5-26.4,58.9-58.9,58.9c-34.2,0-61.9-27.8-61.9-61.9c0-35.9,29.2-65.1,65.1-65.1
			c33.5,0,61.8,23.9,67.5,56.8c1,5.9,6,10.2,12,10.2l38,0c7.7,0,14.1,5.7,15,13.4c0.6,5.1,1.4,10.2,2.4,15.1
			c0.9,4.4,2.1,8.9,3.4,13.2c2.6,8.7,6,17.2,10,25.3c0.4,0.7,0.1,1.6-0.7,2C358.1-429.8,357.9-429.8,357.7-429.8z"/>
	</g>
	<g class="st1">
		<path class="st17" d="M247.3-293.5c-21.4,0-42.3-11.1-53.7-31c-8.7-15.1-11-32.6-6.5-49.4c4.5-16.8,15.3-30.8,30.3-39.5
			c29-16.7,65.5-10.2,86.9,15.5c3.8,4.6,10.3,5.8,15.4,2.8l32.8-18.9c6.8-3.9,15.3-2.1,19.8,4.3c2.9,4.1,6,8,9.3,11.8
			c3,3.4,6.1,6.8,9.3,9.9c30.4,29.7,70.5,46,113,46c0.8,0,1.5,0.7,1.5,1.5s-0.7,1.5-1.5,1.5c-43.3,0-84.2-16.6-115.1-46.9
			c-3.3-3.2-6.5-6.6-9.5-10.1c-3.3-3.8-6.5-7.9-9.5-12c-3.6-5.1-10.5-6.6-15.9-3.4l-32.8,18.9c-6.4,3.7-14.5,2.2-19.2-3.5
			c-20.4-24.6-55.4-30.8-83.1-14.8c-14.4,8.3-24.7,21.7-29,37.7c-4.3,16-2.1,32.8,6.2,47.2c16.3,28.2,52.4,37.8,80.6,21.6
			c26.7-15.4,35.9-49.7,20.5-76.4c-7.1-12.3-18.5-21.1-32.2-24.7c-13.7-3.7-28-1.8-40.3,5.3c-11.8,6.8-20.2,17.8-23.6,31
			c-3.4,13.2-1.4,26.9,5.6,38.5c12.6,21.1,38.7,29.3,60.5,19c11.7-5.5,20.3-15.2,24.1-27.5c3.8-12.1,2.3-25.3-4-36.2
			c-0.4-0.7-0.2-1.6,0.5-2c0.7-0.4,1.6-0.2,2,0.5c6.7,11.7,8.3,25.8,4.2,38.6c-4.1,13-13.2,23.4-25.7,29.3c-11.2,5.3-24,6.1-36,2.3
			c-11.9-3.8-22-11.7-28.4-22.4c-7.4-12.4-9.5-26.9-5.9-40.8c3.6-13.9,12.5-25.6,25-32.8c13-7.5,28.1-9.5,42.5-5.6
			c14.5,3.9,26.5,13.1,34,26.1c16.2,28.1,6.6,64.2-21.6,80.5C268.5-296.2,257.9-293.5,247.3-293.5z"/>
	</g>
	<g class="st1">
		<path class="st18" d="M746.7-295.2c-11.3,0-22.4-3-32.5-8.8c-29-16.7-41.6-51.6-30.1-82.9c2.1-5.6-0.1-11.9-5.3-14.8l-32.3-18.7
			c-6.9-4-9.5-12.6-6-19.6c8.2-16.7,13.2-34.6,14.9-53.3c0.1-0.8,0.8-1.4,1.6-1.3c0.8,0.1,1.4,0.8,1.3,1.6
			c-1.7,19-6.8,37.3-15.2,54.3c-2.8,5.7-0.6,12.6,4.9,15.8l32.3,18.7c6.4,3.7,9.1,11.4,6.6,18.4c-11,30,1.1,63.3,28.8,79.3
			c14.4,8.3,31.1,10.5,47.2,6.2c16-4.3,29.4-14.6,37.7-29c7.9-13.6,10-29.5,5.9-44.7c-4.1-15.2-13.8-27.9-27.5-35.8
			c-26.7-15.4-61-6.2-76.4,20.5c-7.1,12.3-9,26.6-5.3,40.3c3.7,13.7,12.5,25.1,24.7,32.2c11.8,6.8,25.5,8.6,38.6,4.9
			c13.1-3.6,24-12.2,30.6-24.1c11.9-21.5,6-48.1-13.8-61.9c-10.6-7.4-23.3-9.9-35.9-7.1c-12.4,2.8-23.1,10.6-29.4,21.6
			c-0.4,0.7-1.3,1-2,0.5c-0.7-0.4-1-1.3-0.5-2c6.7-11.7,18.2-20.1,31.3-23c13.4-3,26.9-0.3,38.2,7.6c10.2,7.1,17.2,17.7,19.9,30
			c2.7,12.2,0.8,24.9-5.3,35.8c-7,12.6-18.5,21.7-32.4,25.5c-13.9,3.8-28.4,2-40.9-5.2c-13-7.5-22.2-19.6-26.1-34
			c-3.9-14.5-1.9-29.6,5.6-42.5c16.2-28.1,52.3-37.8,80.5-21.6c14.3,8.3,24.6,21.6,28.9,37.6c4.3,16,2.1,32.7-6.2,47
			c-8.7,15.1-22.7,25.8-39.5,30.3C758-296,752.3-295.2,746.7-295.2z"/>
	</g>
	<g class="st1">
		<path class="st19" d="M787.6-438.6c-33.5,0-61.8-23.9-67.5-56.8c-1-5.9-6-10.2-12-10.2l-37.5,0c0,0,0,0,0,0
			c-7.8,0-14.4-6.1-15-13.8c-1.5-19-6.4-37.4-14.6-54.6c-0.4-0.7,0-1.6,0.7-2c0.7-0.4,1.6,0,2,0.7c8.4,17.5,13.4,36.2,14.9,55.6
			c0.5,6.2,5.8,11.1,12.1,11.1c0,0,0,0,0,0l37.5,0c7.4,0,13.6,5.3,14.9,12.6c5.4,31.5,32.5,54.4,64.6,54.4
			c34.3,0,62.2-27.9,62.2-62.2c0-32.5-26.5-59-59-59c-30.9,0-55.9,25.1-55.9,55.9c0,29.3,23.8,53.1,53.1,53.1
			c13.6,0,26.4-5.3,35.9-15c9.5-9.7,14.7-22.5,14.4-36.2c-0.4-24.6-18.8-44.7-42.9-46.7c-12.9-1.1-25.2,3.1-34.6,11.7
			c-9.3,8.6-14.7,20.7-14.7,33.4c0,0.8-0.7,1.5-1.5,1.5c-0.8,0-1.5-0.7-1.5-1.5c0-13.5,5.7-26.4,15.6-35.6
			c10.1-9.2,23.2-13.7,36.9-12.5c12.3,1.1,23.8,6.7,32.3,16c8.4,9.2,13.1,21.1,13.3,33.6c0.2,14.4-5.2,28-15.3,38.3
			c-10.1,10.3-23.6,15.9-38,15.9c-30.9,0-56-25.1-56-56c0-32.5,26.4-58.9,58.9-58.9c34.2,0,61.9,27.8,61.9,61.9
			C852.7-467.8,823.5-438.6,787.6-438.6z"/>
	</g>
	<g class="st1">
		<g>
			<path class="st2" d="M472.4,897.3h-7.3v-1.1h15.7v1.1h-7.3v18.7h-1.2V897.3z"/>
			<path class="st2" d="M488.3,903.1l-1,0.1c-1.5,0.1-2.6,0.6-3.3,1.5c-0.7,0.8-1,1.9-1,3.1v8.1h-1.2v-13.6h1.2v2.4
				c0.4-0.8,1-1.5,1.8-1.9s1.7-0.7,2.8-0.8l0.6-0.1L488.3,903.1z"/>
			<path class="st2" d="M500.9,907.1v8.9h-1.2v-2.5c-0.4,0.9-1,1.5-1.8,2c-0.8,0.5-1.7,0.7-2.6,0.7c-0.9,0-1.6-0.2-2.4-0.5
				c-0.7-0.4-1.3-0.8-1.7-1.5c-0.4-0.6-0.6-1.3-0.6-2.1c0-1,0.3-1.8,0.8-2.3c0.5-0.6,1.4-0.9,2.6-1.2c1.2-0.2,2.9-0.4,5.1-0.4h0.6
				V907c0-1.3-0.3-2.3-0.8-2.9c-0.5-0.6-1.4-0.9-2.5-0.9c-0.9,0-1.7,0.1-2.4,0.4c-0.7,0.2-1.5,0.6-2.3,1.1l-0.6-1
				c0.7-0.5,1.5-0.9,2.4-1.2c0.9-0.3,1.8-0.4,2.7-0.4C499.3,902.1,500.9,903.7,500.9,907.1z M497.5,914.4c0.7-0.4,1.2-1,1.6-1.7
				c0.4-0.7,0.6-1.5,0.6-2.4v-1h-0.5c-2,0-3.5,0.1-4.5,0.2c-1,0.2-1.7,0.4-2.2,0.8c-0.4,0.4-0.6,0.9-0.6,1.7c0,0.9,0.3,1.6,1,2.1
				c0.6,0.6,1.4,0.8,2.4,0.8C496.1,915,496.8,914.8,497.5,914.4z"/>
			<path class="st2" d="M516.9,896.2v19.7h-1.2v-2.7c-0.4,1-1,1.7-1.8,2.2s-1.8,0.8-2.9,0.8c-1.2,0-2.2-0.3-3.2-0.9
				s-1.6-1.4-2.1-2.5c-0.5-1.1-0.8-2.3-0.8-3.7c0-1.4,0.3-2.6,0.8-3.7s1.2-1.9,2.1-2.4c0.9-0.6,2-0.9,3.2-0.9c1.1,0,2.1,0.3,2.9,0.8
				c0.8,0.5,1.4,1.2,1.8,2.2v-8.8H516.9z M514.5,913.5c0.8-1,1.2-2.5,1.2-4.4c0-1.9-0.4-3.3-1.2-4.3c-0.8-1-2-1.5-3.5-1.5
				c-1.5,0-2.7,0.5-3.5,1.5c-0.9,1-1.3,2.4-1.3,4.3c0,1.9,0.4,3.3,1.3,4.4c0.8,1.1,2,1.6,3.5,1.6C512.5,915,513.7,914.5,514.5,913.5
				z"/>
			<path class="st2" d="M532.8,909.3h-10.5c0,1.8,0.5,3.2,1.4,4.2c0.9,1,2.2,1.5,3.8,1.5c0.8,0,1.6-0.1,2.4-0.4
				c0.7-0.3,1.5-0.7,2.2-1.3l0.6,1c-0.6,0.6-1.3,1-2.2,1.4c-0.9,0.3-1.9,0.5-2.8,0.5c-2,0-3.6-0.6-4.8-1.9c-1.2-1.2-1.8-3-1.8-5.2
				c0-1.4,0.3-2.6,0.8-3.7c0.5-1.1,1.3-1.9,2.2-2.5c1-0.6,2-0.9,3.3-0.9c1.8,0,3.1,0.6,4.1,1.7c1,1.1,1.5,2.7,1.5,4.8V909.3z
				 M523.9,904.5c-0.9,0.9-1.4,2.1-1.5,3.7h9.4c0-1.6-0.4-2.9-1.2-3.7c-0.8-0.9-1.8-1.3-3.2-1.3
				C525.9,903.2,524.7,903.6,523.9,904.5z"/>
			<path class="st2" d="M467.5,925.8h1.1v19.7h-1.1V925.8z"/>
			<path class="st2" d="M484.8,936.8v8.7h-1.2v-8.6c0-1.4-0.3-2.5-0.9-3.2c-0.6-0.7-1.5-1-2.8-1c-1.4,0-2.6,0.4-3.5,1.3
				c-0.9,0.9-1.3,2.1-1.3,3.5v7.9H474V932h1.1v2.4c0.4-0.9,1-1.6,1.9-2.1c0.8-0.5,1.8-0.7,2.8-0.7
				C483.1,931.7,484.8,933.4,484.8,936.8z"/>
			<path class="st2" d="M491.5,932h4.1v1h-4.1v12.5h-1.2V933h-2.7v-1h2.7v-0.9c0-1.7,0.4-3,1.2-3.9c0.8-0.9,2-1.4,3.7-1.5l0.9-0.1
				l0.1,1l-1.3,0.1c-1.2,0.1-2,0.5-2.6,1.2c-0.6,0.7-0.8,1.7-0.8,3.1V932z"/>
			<path class="st2" d="M500.3,944.9c-0.9-0.6-1.6-1.4-2.1-2.5c-0.5-1.1-0.8-2.3-0.8-3.7c0-1.4,0.3-2.6,0.8-3.7
				c0.5-1.1,1.2-1.9,2.1-2.5c0.9-0.6,2-0.9,3.2-0.9c1.2,0,2.2,0.3,3.2,0.9c0.9,0.6,1.6,1.4,2.1,2.5c0.5,1.1,0.8,2.3,0.8,3.7
				c0,1.4-0.3,2.7-0.8,3.7c-0.5,1.1-1.2,1.9-2.1,2.5c-0.9,0.6-2,0.9-3.2,0.9C502.3,945.7,501.2,945.5,500.3,944.9z M507,943.1
				c0.8-1,1.2-2.5,1.2-4.4c0-1.8-0.4-3.3-1.3-4.3c-0.8-1-2-1.6-3.5-1.6c-1.5,0-2.7,0.5-3.5,1.6c-0.9,1-1.3,2.5-1.3,4.3
				c0,1.9,0.4,3.4,1.2,4.4c0.8,1,2,1.5,3.5,1.5C505,944.6,506.2,944.1,507,943.1z"/>
			<path class="st2" d="M520.2,932.7l-1,0.1c-1.5,0.1-2.6,0.6-3.3,1.5s-1,1.9-1,3.1v8.1h-1.2V932h1.2v2.4c0.4-0.8,1-1.5,1.8-1.9
				s1.7-0.7,2.8-0.8l0.6-0.1L520.2,932.7z"/>
			<path class="st2" d="M541.7,936.8v8.7h-1.2v-8.6c0-1.4-0.3-2.5-0.8-3.2c-0.5-0.7-1.4-1-2.5-1c-1.3,0-2.3,0.4-3.1,1.3
				c-0.8,0.9-1.2,2.1-1.2,3.6v7.9h-1.2v-8.6c0-1.4-0.3-2.5-0.8-3.2c-0.5-0.7-1.4-1-2.5-1c-1.3,0-2.3,0.4-3.1,1.3
				c-0.8,0.9-1.2,2.1-1.2,3.6v7.9H523V932h1.1v2.4c0.4-0.9,0.9-1.5,1.7-2c0.7-0.5,1.6-0.7,2.6-0.7c2.2,0,3.6,0.9,4.2,2.7
				c0.4-0.8,1-1.5,1.8-2c0.8-0.5,1.7-0.7,2.8-0.7C540.2,931.7,541.7,933.4,541.7,936.8z"/>
			<path class="st2" d="M556.6,936.7v8.9h-1.2v-2.5c-0.4,0.9-1,1.5-1.8,2c-0.8,0.5-1.7,0.7-2.6,0.7c-0.9,0-1.6-0.2-2.4-0.5
				s-1.3-0.8-1.7-1.5c-0.4-0.6-0.6-1.3-0.6-2.1c0-1,0.3-1.8,0.8-2.3c0.5-0.6,1.4-0.9,2.6-1.2c1.2-0.2,2.9-0.4,5.1-0.4h0.6v-1.2
				c0-1.3-0.3-2.3-0.8-2.9s-1.4-0.9-2.5-0.9c-0.9,0-1.7,0.1-2.4,0.3c-0.7,0.2-1.5,0.6-2.3,1.1l-0.6-1c0.7-0.5,1.5-0.9,2.4-1.2
				s1.8-0.4,2.7-0.4C555,931.7,556.6,933.3,556.6,936.7z M553.2,944c0.7-0.4,1.2-1,1.6-1.7s0.6-1.5,0.6-2.4v-1h-0.5
				c-2,0-3.5,0.1-4.5,0.2c-1,0.2-1.7,0.4-2.2,0.8c-0.4,0.4-0.6,0.9-0.6,1.7c0,0.9,0.3,1.6,1,2.1c0.6,0.6,1.4,0.8,2.4,0.8
				C551.8,944.6,552.5,944.4,553.2,944z"/>
			<path class="st2" d="M567.8,944.5l-0.1,1.1c-0.4,0.1-0.8,0.1-1.3,0.1c-1.4,0-2.5-0.4-3.2-1.2c-0.8-0.8-1.1-1.9-1.1-3.3V933h-2.7
				v-1h2.7v-4.2h1.2v4.2h4.1v1h-4.1v8c0,1.2,0.3,2.1,0.8,2.7c0.6,0.6,1.4,0.9,2.5,0.9C567,944.6,567.4,944.6,567.8,944.5z"/>
			<path class="st2" d="M572.1,926.5v1.8h-1.8v-1.8H572.1z M570.6,932h1.2v13.6h-1.2V932z"/>
			<path class="st2" d="M578.8,944.9c-0.9-0.6-1.6-1.4-2.1-2.5c-0.5-1.1-0.8-2.3-0.8-3.7c0-1.4,0.3-2.6,0.8-3.7
				c0.5-1.1,1.2-1.9,2.1-2.5c0.9-0.6,2-0.9,3.2-0.9s2.2,0.3,3.2,0.9c0.9,0.6,1.6,1.4,2.1,2.5c0.5,1.1,0.8,2.3,0.8,3.7
				c0,1.4-0.3,2.7-0.8,3.7c-0.5,1.1-1.2,1.9-2.1,2.5c-0.9,0.6-2,0.9-3.2,0.9S579.7,945.5,578.8,944.9z M585.5,943.1
				c0.8-1,1.2-2.5,1.2-4.4c0-1.8-0.4-3.3-1.3-4.3s-2-1.6-3.5-1.6s-2.7,0.5-3.5,1.6c-0.8,1-1.3,2.5-1.3,4.3c0,1.9,0.4,3.4,1.2,4.4
				c0.8,1,2,1.5,3.5,1.5C583.5,944.6,584.7,944.1,585.5,943.1z"/>
			<path class="st2" d="M602.9,936.8v8.7h-1.2v-8.6c0-1.4-0.3-2.5-0.9-3.2c-0.6-0.7-1.5-1-2.8-1c-1.4,0-2.6,0.4-3.5,1.3
				c-0.9,0.9-1.3,2.1-1.3,3.5v7.9h-1.2V932h1.1v2.4c0.4-0.9,1-1.6,1.9-2.1c0.8-0.5,1.8-0.7,2.8-0.7
				C601.2,931.7,602.9,933.4,602.9,936.8z"/>
			<path class="st3" d="M483.6,955.4v19.7h-2.7l-10.6-13.8v13.8h-3.4v-19.7h2.7l10.6,13.7v-13.7H483.6z"/>
			<path class="st3" d="M500.4,968.9h-9.3c0.1,1.3,0.5,2.2,1.1,2.8s1.6,0.9,2.8,0.9c1.5,0,2.9-0.5,4.1-1.5l1,2.4
				c-0.6,0.5-1.4,0.9-2.4,1.3s-1.9,0.5-2.9,0.5c-2.2,0-4-0.6-5.3-1.9s-1.9-3-1.9-5.2c0-1.4,0.3-2.6,0.8-3.7c0.6-1.1,1.3-1.9,2.4-2.5
				c1-0.6,2.2-0.9,3.5-0.9c1.9,0,3.4,0.6,4.5,1.8c1.1,1.2,1.6,2.9,1.6,5V968.9z M492.1,964.5c-0.6,0.6-0.9,1.5-1.1,2.6h6.3
				c0-1.1-0.3-2-0.8-2.6c-0.5-0.6-1.3-0.9-2.2-0.9C493.4,963.6,492.7,963.9,492.1,964.5z"/>
			<path class="st3" d="M512.2,972.7l-0.2,2.6c-0.6,0.1-1.1,0.1-1.5,0.1c-1.9,0-3.3-0.4-4.3-1.3c-0.9-0.9-1.4-2.2-1.4-4v-6h-2.6
				v-2.6h2.6v-4.1h3.5v4.1h3.6v2.6h-3.6v5.9c0,1.8,0.8,2.7,2.5,2.7C511.3,972.7,511.7,972.7,512.2,972.7z"/>
			<path class="st3" d="M537.2,961.5l-5.4,13.7h-3.1l-3.4-8.8l-3.3,8.8h-3l-5.4-13.7h3.6l3.5,9.5l3.5-9.5h2.5l3.5,9.6l3.5-9.6H537.2
				z"/>
			<path class="st3" d="M542.4,974.5c-1.1-0.6-1.9-1.4-2.5-2.5c-0.6-1.1-0.9-2.3-0.9-3.8c0-1.4,0.3-2.7,0.9-3.8
				c0.6-1.1,1.4-1.9,2.5-2.5c1.1-0.6,2.3-0.9,3.7-0.9c1.4,0,2.6,0.3,3.7,0.9c1.1,0.6,1.9,1.4,2.4,2.5s0.9,2.3,0.9,3.8
				c0,1.4-0.3,2.7-0.9,3.8c-0.6,1.1-1.4,1.9-2.4,2.5c-1.1,0.6-2.3,0.9-3.7,0.9C544.7,975.4,543.5,975.1,542.4,974.5z M548.7,971.5
				c0.6-0.7,0.9-1.8,0.9-3.3c0-1.4-0.3-2.5-0.9-3.3s-1.5-1.1-2.6-1.1s-2,0.4-2.6,1.1s-0.9,1.9-0.9,3.3c0,1.5,0.3,2.6,0.9,3.3
				c0.6,0.7,1.5,1.1,2.6,1.1C547.2,972.7,548.1,972.3,548.7,971.5z"/>
			<path class="st3" d="M565.8,964l-2,0.2c-2.3,0.2-3.5,1.4-3.5,3.5v7.4h-3.5v-13.7h3.3v2.4c0.7-1.6,2.2-2.5,4.4-2.7l1.1-0.1
				L565.8,964z"/>
			<path class="st3" d="M577.7,975.1l-5.9-6.2v6.2h-3.5v-19.7h3.5v12l5.5-6h4.3l-6.2,6.6l6.6,7.1H577.7z"/>
		</g>
		<circle class="st4" cx="395.3" cy="901.8" r="3.5"/>
		<circle class="st4" cx="395.3" cy="945.1" r="3.5"/>
		<circle class="st5" cx="444.7" cy="940.3" r="3.5"/>
		<circle class="st5" cx="446" cy="908.5" r="3.5"/>
		<path class="st6" d="M414.5,891.9c-15.6,2-27.6,15.2-27.6,31.4s12,29.4,27.6,31.4"/>
		<path class="st7" d="M422.5,954.6c15.6-2,27.6-15.2,27.6-31.3s-12-29.4-27.6-31.3"/>
		<g>
			<circle class="st4" cx="430.3" cy="943.6" r="2.6"/>
			<circle class="st5" cx="415.6" cy="900.1" r="2.7"/>
			<path class="st8" d="M395.3,926.2c1.4,11.5,11.3,20.4,23.1,20.4c11.9,0,21.7-8.9,23.1-20.4"/>
			<path class="st9" d="M441.6,920.3c-1.5-11.5-11.3-20.4-23.1-20.4c-11.9,0-21.7,8.9-23.1,20.4"/>
		</g>
		<g>
			<circle class="st4" cx="433.2" cy="924.7" r="2"/>
			<circle class="st5" cx="407.9" cy="913.1" r="2"/>
			<path class="st10" d="M409.4,935.3c5.9,4.5,14.3,4,19.6-1.4c5.3-5.4,5.7-13.8,1.1-19.6"/>
			<path class="st11" d="M427.5,911.7c-5.9-4.5-14.3-4-19.6,1.4c-5.3,5.4-5.7,13.8-1.1,19.6"/>
		</g>
	</g>
	<path class="st20" d="M276,891.8c3.2-5.6,9.7-8.6,16.2-7.3l36.9,7.8c6.2,1.3,12.2-2.3,14.1-8.3c7.2-23.3,19.8-45,36.5-62.7
		c18.1-19.2,40.2-33.1,65.6-41.5c19.8-6.5,89.4-23.6,153.1,28.9c0.6,0.5,0.7,1.5,0.2,2.1c-0.5,0.6-1.5,0.7-2.1,0.2
		c-62.5-51.5-130.9-34.8-150.3-28.4c-47.9,15.7-85.3,53.9-100.2,102.2c-2.3,7.5-9.8,11.9-17.5,10.3l-36.9-7.8
		c-5-1.1-10.1,1.2-12.7,5.4C277.8,892.5,276.9,892.2,276,891.8z"/>
	<path id="SVGID_x5F_1_x5F_" style="display:inline;fill:none;" d="M718.9,790.1c-38.8,15.7-83-3-98.7-41.9s3-83,41.9-98.7
		c38.8-15.7,83,3,98.7,41.9C776.5,730.1,757.7,774.3,718.9,790.1z"/>
	<text class="st1">	<textPath  xlink:href="#SVGID_x5F_1_x5F_" startOffset="26.321%">
<tspan  class="st3" style="font-family:'NunitoSans-Bold'; font-size:26.6196px; letter-spacing:30;">SUPPLIERS</tspan>	</textPath>
</text>
	<path id="SVGID_x5F_2_x5F_" style="display:inline;fill:none;" d="M252,928.1c-40.2,15.9-85.7-3.8-101.6-44s3.8-85.7,44-101.6
		s85.7,3.8,101.6,44C311.9,866.7,292.2,912.2,252,928.1z"/>
	<text class="st1">	<textPath  xlink:href="#SVGID_x5F_2_x5F_" startOffset="26.321%">
<tspan  class="st3" style="font-family:'NunitoSans-Bold'; font-size:24.4671px; letter-spacing:30;">BUYER(S)</tspan>	</textPath>
</text>
	<path id="SVGID_x5F_3_x5F_" style="display:inline;fill:none;" d="M578.8,1290.3c-43.4-2.8-76.3-40.2-73.6-83.6
		s40.2-76.3,83.6-73.6c43.4,2.8,76.3,40.2,73.6,83.6S622.2,1293.1,578.8,1290.3z"/>
	<text class="st1">	<textPath  xlink:href="#SVGID_x5F_3_x5F_" startOffset="26.321%">
<tspan  class="st3" style="font-family:'NunitoSans-Bold'; font-size:24.5962px; letter-spacing:30;">BANKS</tspan>	</textPath>
</text>
	<g class="st1">
		<path class="st21" d="M644,763.9c3.4,5.5,2.9,12.7-1.4,17.7L618,810.2c-4.1,4.8-3.9,11.8,0.5,16.3c17,17.5,29.9,39,37.3,62.2
			c8.1,25.1,9.7,51.2,4.7,77.5c-3.9,20.5-22.4,89.7-99.1,120.2c-0.8,0.3-1.6-0.1-1.9-0.8c-0.3-0.8,0.1-1.6,0.8-1.9
			c75.3-30,93.5-97.9,97.3-118c9.3-49.5-6.1-100.7-41.2-137c-5.5-5.6-5.7-14.4-0.6-20.3l24.6-28.6c3.4-3.9,3.8-9.4,1.4-13.8
			C642.5,765.2,643.3,764.5,644,763.9z"/>
		<g>
			<path class="st22" d="M651.4,772.5c7.7,5.7,16.8,9.9,26.9,11.8c35.6,6.7,69.8-16.7,76.5-52.3c4.2-22.2-3.4-43.9-18.3-58.7"/>
			<path class="st22" d="M727.2,665.7c-7.2-4.9-15.5-8.4-24.6-10.1c-35.6-6.7-69.8,16.7-76.5,52.3c-4,21.5,2.9,42.5,16.8,57.2"/>
		</g>
		<g>
			<polygon class="st5" points="668.5,721.2 668.5,696.3 690.5,687.5 712.4,696.3 712.4,721.2 690.5,730 			"/>
			<polygon class="st23" points="658.2,725.6 683.1,735.9 690.5,731.5 690.5,730 665.6,719.8 658.2,724.1 			"/>
			<polygon class="st23" points="722.7,725.6 697.8,735.9 690.5,731.5 690.5,730 715.3,719.8 722.7,724.1 			"/>
			<polyline class="st23" points="668.5,718.5 665.6,719.8 658.2,715.4 658.2,713.9 668.5,709.7 			"/>
			<polyline class="st23" points="712.4,718.3 715.3,719.8 722.7,715.4 722.7,713.9 712.4,709.7 			"/>
			<line class="st23" x1="690.5" y1="731.5" x2="690.5" y2="752"/>
			<polyline class="st23" points="715.3,728.5 715.3,741.7 690.5,752 665.6,741.7 665.6,728.5 			"/>
			<line class="st23" x1="690.5" y1="705.1" x2="690.5" y2="730"/>
			<polyline class="st23" points="668.5,721.2 668.5,696.3 690.5,687.5 712.4,696.3 712.4,721.2 			"/>
			<line class="st23" x1="690.5" y1="705.1" x2="668.5" y2="696.3"/>
			<line class="st23" x1="712.4" y1="696.3" x2="690.5" y2="705.1"/>
		</g>
	</g>
	<g class="st1">
		<g>
			<g>
				<rect x="579.2" y="1211.1" class="st5" width="9.3" height="22.7"/>
				<rect x="599.2" y="1211.1" class="st5" width="9.3" height="22.7"/>
			</g>
			<rect x="557.9" y="1211.1" class="st5" width="9.3" height="22.7"/>
		</g>
		<polygon class="st5" points="613.2,1199.1 583.4,1180.5 553.6,1199.1 553.6,1206 613.2,1206 		"/>
		<path class="st24" d="M585.9,1191.4h-5.1c-0.6,0-1,0.4-1,1c0,0.6,0.4,1,1,1h5.1c0.6,0,1-0.4,1-1
			C586.9,1191.8,586.5,1191.4,585.9,1191.4z M616.6,1240.8h-68.1c-0.6,0-1,0.4-1,1c0,0.6,0.4,1,1,1h68.1c0.6,0,1-0.4,1-1
			C617.6,1241.2,617.1,1240.8,616.6,1240.8z M553.6,1235.9h59.6c0.6,0,1-0.4,1-1c0-0.6-0.4-1-1-1h-4.1v-22.8c0-0.6-0.4-1-1-1
			c-0.6,0-1,0.4-1,1v22.8h-6.5v-22.8c0-0.6-0.4-1-1-1c-0.6,0-1,0.4-1,1v22.8h-9.9v-22.8c0-0.6-0.4-1-1-1c-0.6,0-1,0.4-1,1v22.8h-6.5
			v-22.8c0-0.6-0.4-1-1-1c-0.6,0-1,0.4-1,1v22.8h-9.9v-22.8c0-0.6-0.4-1-1-1c-0.6,0-1,0.4-1,1v22.8h-6.5v-22.8c0-0.6-0.4-1-1-1
			c-0.6,0-1,0.4-1,1v22.8h-4.1c-0.6,0-1,0.4-1,1C552.6,1235.5,553,1235.9,553.6,1235.9z M553.6,1207h59.6c0.6,0,1-0.4,1-1v-6.9
			c0-0.3-0.2-0.7-0.5-0.8l-29.8-18.6c-0.3-0.2-0.7-0.2-1.1,0l-29.8,18.6c-0.3,0.2-0.5,0.5-0.5,0.8v6.9
			C552.6,1206.5,553,1207,553.6,1207z M583.4,1181.6l26.5,16.6h-52.9L583.4,1181.6z M554.6,1200.2h57.6v4.8h-57.6V1200.2z"/>
	</g>
	<g class="st1">
		<g>
			<g>
				<g>
					<path class="st5" d="M234,867.9c-3,0-5.5-2.4-5.5-5.5v-0.2c0-3,2.4-5.5,5.5-5.5h9.4v-9.3h-53.2c-2.5,0-4.5-2-4.5-4.5v27.9
						c0,2.5,2,4.5,4.5,4.5h53.2v-7.4H234z"/>
				</g>
			</g>
		</g>
		<g>
			<path class="st24" d="M243.4,872c-0.8,0-1.4,0.6-1.4,1.4v0.6c-0.1-0.1-0.3-0.1-0.5-0.1h-51.4c-1.7,0-3.1-1.4-3.1-3.1v-22.9
				c0.9,0.6,1.9,0.9,3.1,0.9h51.4c0.2,0,0.3,0,0.5-0.1v2.4c0,0.8,0.6,1.4,1.4,1.4c0.8,0,1.4-0.6,1.4-1.4v-20.5
				c0-0.8-0.6-1.4-1.4-1.4h-7.9v-6c0-0.8-0.6-1.4-1.4-1.4h-37.2c-0.8,0-1.4,0.6-1.4,1.4v6h-5.1c-3.3,0-6,2.7-6,6
				c0,0.2,0,0.4,0.1,0.6c0,0.1-0.1,0.2-0.1,0.3v40.2c0,4.2,3.4,7.7,7.7,7.7h51.4c0.8,0,1.4-0.6,1.4-1.4v-9.3
				C244.8,872.7,244.2,872,243.4,872z M235.5,832h6.5v6.5h-6.5V832z M198.3,824.6h34.4v14h-34.4V824.6z M190.4,832h5.1v6.5h-5.1
				c-1.8,0-3.3-1.5-3.3-3.3C187.1,833.5,188.6,832,190.4,832z M187.1,840.4c0.9,0.6,2.1,1,3.3,1H242v4.7c-0.1-0.1-0.3-0.1-0.5-0.1
				h-51.4c-1.7,0-3.1-1.4-3.1-3.1V840.4z M242,881.3h-50c-2.7,0-4.9-2.2-4.9-4.9v-0.7c0.9,0.6,1.9,0.9,3.1,0.9h51.4
				c0.2,0,0.3,0,0.5-0.1V881.3z M204.3,827.4c-0.8,0-1.4,0.6-1.4,1.4v5.6c0,0.8,0.6,1.4,1.4,1.4c0.8,0,1.4-0.6,1.4-1.4v-5.6
				C205.7,828,205.1,827.4,204.3,827.4z M226.7,827.4c-0.8,0-1.4,0.6-1.4,1.4v5.6c0,0.8,0.6,1.4,1.4,1.4c0.8,0,1.4-0.6,1.4-1.4v-5.6
				C228.1,828,227.4,827.4,226.7,827.4z M245.3,855.3H234c-3.8,0-6.9,3.1-6.9,6.9v0.2c0,3.8,3.1,6.9,6.9,6.9h11.3
				c0.8,0,1.4-0.6,1.4-1.4v-11.2C246.7,855.9,246,855.3,245.3,855.3z M243.9,866.5H234c-2.2,0-4.1-1.8-4.1-4.1v-0.2
				c0-2.2,1.8-4.1,4.1-4.1h9.9V866.5z M236,863.7h1.9c0.8,0,1.4-0.6,1.4-1.4c0-0.8-0.6-1.4-1.4-1.4H236c-0.8,0-1.4,0.6-1.4,1.4
				C234.6,863,235.2,863.7,236,863.7z"/>
		</g>
	</g>
	<path class="st25" d="M165,825.3c-4.4,8.6-6.9,18.3-7,28.5c-0.6,36.2,28.3,66,64.4,66.6c22.6,0.4,42.7-10.8,54.8-28"/>
	<path class="st25" d="M283.3,880.6c3.4-8,5.3-16.8,5.2-26.1c-0.3-36.2-29.8-65.3-66-65.1c-21.9,0.2-41.1,11-52.9,27.5"/>
	<g class="st1">
		<path class="st21" d="M569.3,1149.4c-6.5,0.1-12.4-3.9-14.5-10.1l-12.3-35.7c-2.1-6-8.2-9.3-14.3-7.8c-23.7,5.8-48.8,6.1-72.5,0.9
			c-25.8-5.7-49.1-17.5-69.3-35c-15.7-13.7-66.1-64.6-53.8-146.2c0.1-0.8,0.9-1.4,1.7-1.2c0.8,0.1,1.4,0.9,1.2,1.7
			c-12.1,80.1,37.4,130.1,52.8,143.6c38,33,90,45.6,139.1,33.5c7.6-1.9,15.3,2.3,17.9,9.7l12.3,35.7c1.7,4.9,6.2,8,11.2,8.2
			C569,1147.5,569.2,1148.4,569.3,1149.4z"/>
		<path class="st22" d="M558.2,1151.4c-8.9,3.8-17,9.6-23.7,17.3c-23.7,27.3-20.8,68.7,6.5,92.4c17.1,14.8,39.7,19.3,60,13.8"/>
		<path class="st22" d="M612.2,1270.8c7.9-3.8,15.1-9.2,21.2-16.2c23.7-27.3,20.8-68.7-6.5-92.4c-16.5-14.3-38.1-18.9-57.9-14.3"/>
	</g>
	<rect x="223.3" y="610.4" style="display:inline;fill:none;" width="156.4" height="33.5"/>
	<text transform="matrix(1 0 0 1 225.9102 622.1292)" class="st1"><tspan x="0" y="0" style="font-family:'MyriadPro-Regular'; font-size:14px;">POS &amp; Invoices exchanged </tspan><tspan x="38.7" y="16.8" style="font-family:'MyriadPro-Regular'; font-size:14px;">via existing systems</tspan></text>
	<rect x="801.1" y="958.6" style="display:inline;fill:none;" width="156.4" height="33.5"/>
	<text transform="matrix(1 0 0 1 801.0897 970.3506)" class="st1"><tspan x="0" y="0" style="font-family:'MyriadPro-Regular'; font-size:14px;">Financing through </tspan><tspan x="0" y="16.8" style="font-family:'MyriadPro-Regular'; font-size:14px;">existing channels</tspan></text>
	<g class="st1">
		<g>
			<line class="st26" x1="577" y1="642.6" x2="577" y2="642.6"/>
			<path class="st27" d="M569.3,640.6c-32.7-8.2-110.7-21.9-193.9,15.8c-48.2,21.9-80.2,52.9-98.7,74.3"/>
			<line class="st26" x1="274.2" y1="733.8" x2="274.2" y2="733.8"/>
		</g>
	</g>
	<g class="st1">
		<g>
			<line class="st26" x1="698.4" y1="1110.4" x2="698.4" y2="1110.4"/>
			<path class="st27" d="M704.2,1104.9c24-23.7,76.2-83.2,87.2-173.8c6.4-52.6-3.5-96-12.2-122.9"/>
			<line class="st26" x1="778" y1="804.4" x2="778" y2="804.4"/>
		</g>
	</g>
	<rect x="21.2" y="830.9" style="display:inline;fill:none;" width="117" height="62.6"/>
	<text transform="matrix(1 0 0 1 21.1645 842.6659)" class="st1"><tspan x="0" y="0" style="font-family:'MyriadPro-Regular'; font-size:14px;">Buyers &amp; Suppliers </tspan><tspan x="0" y="16.8" style="font-family:'MyriadPro-Regular'; font-size:14px;">designate who can </tspan><tspan x="0" y="33.6" style="font-family:'MyriadPro-Regular'; font-size:14px;">access their data</tspan></text>
	<rect x="662.6" y="1196" style="display:inline;fill:none;" width="138.5" height="75.5"/>
	<text transform="matrix(1 0 0 1 662.5992 1207.7039)" class="st1"><tspan x="0" y="0" style="font-family:'MyriadPro-Regular'; font-size:14px;">Banks receive financing </tspan><tspan x="0" y="16.8" style="font-family:'MyriadPro-Regular'; font-size:14px;">request &amp; update </tspan><tspan x="0" y="33.6" style="font-family:'MyriadPro-Regular'; font-size:14px;">financing status</tspan></text>
</g>
<g id="Layer_1">
	<linearGradient id="SVGID_4_" gradientUnits="userSpaceOnUse" x1="218.8716" y1="125.4998" x2="218.8716" y2="23.949">
		<stop  offset="0" style="stop-color:#FFFFFF;stop-opacity:0.5"/>
		<stop  offset="1" style="stop-color:#FFFFFF;stop-opacity:0.9"/>
	</linearGradient>
	<rect x="96" y="23.9" style="fill:url(#SVGID_4_);" width="245.8" height="101.6"/>
	<linearGradient id="SVGID_5_" gradientUnits="userSpaceOnUse" x1="486.4806" y1="125.4998" x2="486.4806" y2="23.949">
		<stop  offset="0" style="stop-color:#FFFFFF;stop-opacity:0.5"/>
		<stop  offset="1" style="stop-color:#FFFFFF;stop-opacity:0.9"/>
	</linearGradient>
	<rect x="363.6" y="23.9" style="fill:url(#SVGID_5_);" width="245.8" height="101.6"/>
	<linearGradient id="SVGID_6_" gradientUnits="userSpaceOnUse" x1="754.8892" y1="125.4998" x2="754.8892" y2="23.949">
		<stop  offset="0" style="stop-color:#FFFFFF;stop-opacity:0.5"/>
		<stop  offset="1" style="stop-color:#FFFFFF;stop-opacity:0.9"/>
	</linearGradient>
	<rect x="632" y="23.9" style="fill:url(#SVGID_6_);" width="245.8" height="101.6"/>
	<g>
		<g>
			<line class="st31" x1="98.7" y1="125.5" x2="98.7" y2="125.5"/>
			<line class="st32" x1="115.5" y1="125.5" x2="928.1" y2="125.5"/>
			<line class="st31" x1="936.5" y1="125.5" x2="936.5" y2="125.5"/>
		</g>
	</g>
	<g>
		<g>
			<path class="st33" d="M41.2,121.5h2.2c2.4,0,3.9,1.2,3.9,3.9c0,2.7-1.5,3.9-3.8,3.9h-2.3V121.5z M43.3,127.9
				c1.3,0,2.2-0.6,2.2-2.5c0-1.9-0.9-2.5-2.2-2.5h-0.3v5H43.3z"/>
			<path class="st33" d="M50.2,121.5h2.1l2.5,7.8h-1.9l-1-4c-0.2-0.8-0.4-1.7-0.6-2.5h0c-0.2,0.8-0.4,1.7-0.6,2.5l-1,4h-1.8
				L50.2,121.5z M49.4,126.1h3.8v1.4h-3.8V126.1z"/>
			<path class="st33" d="M57,126.5l-2.4-5h1.9l0.7,1.8c0.2,0.6,0.4,1.1,0.6,1.7h0c0.2-0.6,0.4-1.1,0.7-1.7l0.7-1.8h1.8l-2.4,5v2.8
				H57V126.5z"/>
			<path class="st33" d="M61.5,128.3l1-1.2c0.6,0.5,1.3,0.8,1.9,0.8c0.7,0,1.1-0.3,1.1-0.8c0-0.5-0.4-0.7-1.1-0.9l-1-0.4
				c-0.8-0.3-1.6-1-1.6-2.1c0-1.3,1.2-2.3,2.8-2.3c0.9,0,1.8,0.4,2.5,1l-0.9,1.1c-0.5-0.4-1-0.6-1.6-0.6c-0.6,0-1,0.3-1,0.7
				c0,0.5,0.5,0.7,1.2,0.9l1,0.4c1,0.4,1.6,1,1.6,2.1c0,1.3-1.1,2.4-2.9,2.4C63.3,129.4,62.3,129.1,61.5,128.3z"/>
		</g>
	</g>
	<g>
		<g>
			<path class="st34" d="M202.6,47.8h6.2c4.3,0,7.6,1.5,7.6,6c0,4.4-3.2,6.3-7.4,6.3h-2.8v7.2h-3.5V47.8z M208.6,57.4
				c2.9,0,4.3-1.2,4.3-3.6c0-2.4-1.5-3.3-4.4-3.3h-2.4v6.8H208.6z"/>
			<path class="st34" d="M219,57.5c0-6.3,3.5-10.1,8.6-10.1s8.6,3.7,8.6,10.1c0,6.3-3.5,10.2-8.6,10.2S219,63.9,219,57.5z
				 M232.6,57.5c0-4.4-2-7-5.1-7s-5.1,2.7-5.1,7s2,7.2,5.1,7.2S232.6,61.9,232.6,57.5z"/>
			<path class="st34" d="M158.4,78.1h11.8V81h-8.3v5.5h7.1v2.9h-7.1v8.2h-3.5V78.1z"/>
			<path class="st34" d="M172.9,78.4c0-1.2,0.9-1.9,2.1-1.9s2.1,0.8,2.1,1.9c0,1.1-0.9,1.9-2.1,1.9S172.9,79.6,172.9,78.4z
				 M173.3,83h3.4v14.7h-3.4V83z"/>
			<path class="st34" d="M181.2,83h2.8l0.3,2h0.1c1.3-1.3,2.8-2.3,4.8-2.3c3.1,0,4.5,2.1,4.5,5.8v9.2h-3.4v-8.8
				c0-2.4-0.7-3.3-2.3-3.3c-1.3,0-2.1,0.6-3.3,1.8v10.3h-3.4V83z"/>
			<path class="st34" d="M197.1,93.7c0-3.1,2.6-4.8,8.6-5.4c0-1.6-0.7-2.9-2.7-2.9c-1.5,0-2.8,0.7-4.1,1.4l-1.3-2.3
				c1.6-1,3.7-1.9,6-1.9c3.7,0,5.5,2.3,5.5,6.3v8.7h-2.8l-0.3-1.6H206c-1.3,1.1-2.8,2-4.6,2C198.9,98,197.1,96.3,197.1,93.7z
				 M205.8,93.7v-3.3c-4,0.5-5.3,1.5-5.3,3c0,1.3,0.9,1.9,2.1,1.9C203.8,95.3,204.7,94.7,205.8,93.7z"/>
			<path class="st34" d="M213.3,83h2.8l0.3,2h0.1c1.3-1.3,2.8-2.3,4.8-2.3c3.1,0,4.5,2.1,4.5,5.8v9.2h-3.4v-8.8
				c0-2.4-0.7-3.3-2.3-3.3c-1.3,0-2.1,0.6-3.3,1.8v10.3h-3.4V83z"/>
			<path class="st34" d="M229.1,90.3c0-4.9,3.5-7.7,7.4-7.7c1.9,0,3.2,0.7,4.3,1.6l-1.7,2.2c-0.8-0.7-1.5-1.1-2.4-1.1
				c-2.4,0-4,2-4,4.9s1.6,4.9,3.9,4.9c1.1,0,2.2-0.6,3-1.3l1.4,2.3c-1.4,1.2-3.1,1.8-4.8,1.8C232.2,98,229.1,95.2,229.1,90.3z"/>
			<path class="st34" d="M243.5,78.4c0-1.2,0.9-1.9,2.1-1.9s2.1,0.8,2.1,1.9c0,1.1-0.9,1.9-2.1,1.9S243.5,79.6,243.5,78.4z
				 M243.9,83h3.4v14.7h-3.4V83z"/>
			<path class="st34" d="M251.7,83h2.8l0.3,2h0.1c1.3-1.3,2.8-2.3,4.8-2.3c3.1,0,4.5,2.1,4.5,5.8v9.2h-3.4v-8.8
				c0-2.4-0.7-3.3-2.3-3.3c-1.3,0-2.1,0.6-3.3,1.8v10.3h-3.4V83z"/>
			<path class="st34" d="M267.5,100.3c0-1.2,0.8-2.3,2.1-3.1v-0.1c-0.8-0.5-1.3-1.3-1.3-2.5c0-1.1,0.8-2.1,1.6-2.7v-0.1
				c-1-0.7-1.9-2.1-1.9-3.9c0-3.4,2.7-5.3,5.8-5.3c0.8,0,1.6,0.1,2.2,0.4h5.2v2.6h-2.7c0.5,0.5,0.8,1.5,0.8,2.5c0,3.3-2.5,5-5.6,5
				c-0.6,0-1.3-0.1-2-0.4c-0.4,0.4-0.7,0.7-0.7,1.4c0,0.8,0.6,1.3,2.4,1.3h2.6c3.5,0,5.4,1.1,5.4,3.6c0,2.9-3,5.2-7.8,5.2
				C270.1,104.1,267.5,102.9,267.5,100.3z M278.1,99.5c0-1.1-0.9-1.5-2.6-1.5h-2c-0.8,0-1.4-0.1-2-0.2c-0.8,0.6-1.1,1.3-1.1,1.9
				c0,1.3,1.4,2.1,3.7,2.1C276.5,101.9,278.1,100.8,278.1,99.5z M276.3,87.9c0-1.8-1.1-2.9-2.5-2.9c-1.4,0-2.5,1-2.5,2.9
				c0,1.9,1.1,3,2.5,3C275.2,90.8,276.3,89.7,276.3,87.9z"/>
		</g>
	</g>
	<g>
		<g>
			<path class="st34" d="M376.4,47.8h3.5v19.5h-3.5V47.8z"/>
			<path class="st34" d="M384.6,52.7h2.8l0.3,2h0.1c1.3-1.3,2.8-2.3,4.8-2.3c3.1,0,4.5,2.1,4.5,5.8v9.2h-3.4v-8.8
				c0-2.4-0.7-3.3-2.3-3.3c-1.3,0-2.1,0.6-3.3,1.8v10.3h-3.4V52.7z"/>
			<path class="st34" d="M399.5,52.7h3.5l2.3,7.6c0.4,1.4,0.8,3,1.2,4.4h0.1c0.4-1.5,0.8-3,1.2-4.4l2.3-7.6h3.3l-5,14.7h-4
				L399.5,52.7z"/>
			<path class="st34" d="M415.1,60.1c0-4.9,3.3-7.7,7-7.7c3.7,0,7,2.8,7,7.7c0,4.9-3.3,7.7-7,7.7C418.4,67.7,415.1,64.9,415.1,60.1z
				 M425.6,60.1c0-2.9-1.3-4.9-3.4-4.9c-2.2,0-3.4,2-3.4,4.9s1.3,4.9,3.4,4.9C424.3,64.9,425.6,63,425.6,60.1z"/>
			<path class="st34" d="M432.1,48.2c0-1.2,0.9-1.9,2.1-1.9s2.1,0.8,2.1,1.9c0,1.1-0.9,1.9-2.1,1.9S432.1,49.3,432.1,48.2z
				 M432.5,52.7h3.4v14.7h-3.4V52.7z"/>
			<path class="st34" d="M439.4,60.1c0-4.9,3.5-7.7,7.4-7.7c1.9,0,3.2,0.7,4.3,1.6l-1.7,2.2c-0.8-0.7-1.5-1.1-2.4-1.1
				c-2.4,0-4,2-4,4.9s1.6,4.9,3.9,4.9c1.1,0,2.2-0.6,3-1.3l1.4,2.3c-1.4,1.2-3.1,1.8-4.8,1.8C442.4,67.7,439.4,64.9,439.4,60.1z"/>
			<path class="st34" d="M453.2,60.1c0-4.8,3.3-7.7,6.8-7.7c4,0,6.1,2.9,6.1,7c0,0.7-0.1,1.3-0.1,1.7h-9.3c0.3,2.6,2,4.1,4.3,4.1
				c1.3,0,2.3-0.4,3.4-1.1l1.2,2.1c-1.4,0.9-3.2,1.6-5,1.6C456.4,67.7,453.2,64.9,453.2,60.1z M463,58.6c0-2.3-1-3.6-3-3.6
				c-1.7,0-3.2,1.3-3.5,3.6H463z"/>
			<path class="st34" d="M475.6,47.8h11.8v2.9h-8.3v5.5h7.1v2.9h-7.1v8.2h-3.5V47.8z"/>
			<path class="st34" d="M490.1,48.2c0-1.2,0.9-1.9,2.1-1.9s2.1,0.8,2.1,1.9c0,1.1-0.9,1.9-2.1,1.9S490.1,49.3,490.1,48.2z
				 M490.5,52.7h3.4v14.7h-3.4V52.7z"/>
			<path class="st34" d="M498.4,52.7h2.8l0.3,2h0.1c1.3-1.3,2.8-2.3,4.8-2.3c3.1,0,4.5,2.1,4.5,5.8v9.2h-3.4v-8.8
				c0-2.4-0.7-3.3-2.3-3.3c-1.3,0-2.1,0.6-3.3,1.8v10.3h-3.4V52.7z"/>
			<path class="st34" d="M514.3,63.4c0-3.1,2.6-4.8,8.6-5.4c0-1.6-0.7-2.9-2.7-2.9c-1.5,0-2.8,0.7-4.1,1.4l-1.3-2.3
				c1.6-1,3.7-1.9,6-1.9c3.7,0,5.5,2.3,5.5,6.3v8.7h-2.8l-0.3-1.6h-0.1c-1.3,1.1-2.8,2-4.6,2C516.1,67.7,514.3,66,514.3,63.4z
				 M523,63.5v-3.3c-4,0.5-5.3,1.5-5.3,3c0,1.3,0.9,1.9,2.1,1.9C521,65,521.9,64.5,523,63.5z"/>
			<path class="st34" d="M530.5,52.7h2.8l0.3,2h0.1c1.3-1.3,2.8-2.3,4.8-2.3c3.1,0,4.5,2.1,4.5,5.8v9.2h-3.4v-8.8
				c0-2.4-0.7-3.3-2.3-3.3c-1.3,0-2.1,0.6-3.3,1.8v10.3h-3.4V52.7z"/>
			<path class="st34" d="M546.3,60.1c0-4.9,3.5-7.7,7.4-7.7c1.9,0,3.2,0.7,4.3,1.6l-1.7,2.2c-0.8-0.7-1.5-1.1-2.4-1.1
				c-2.4,0-4,2-4,4.9s1.6,4.9,3.9,4.9c1.1,0,2.2-0.6,3-1.3l1.4,2.3c-1.4,1.2-3.1,1.8-4.8,1.8C549.4,67.7,546.3,64.9,546.3,60.1z"/>
			<path class="st34" d="M560.7,48.2c0-1.2,0.9-1.9,2.1-1.9s2.1,0.8,2.1,1.9c0,1.1-0.9,1.9-2.1,1.9S560.7,49.3,560.7,48.2z
				 M561.1,52.7h3.4v14.7h-3.4V52.7z"/>
			<path class="st34" d="M568.9,52.7h2.8l0.3,2h0.1c1.3-1.3,2.8-2.3,4.8-2.3c3.1,0,4.5,2.1,4.5,5.8v9.2H578v-8.8
				c0-2.4-0.7-3.3-2.3-3.3c-1.3,0-2.1,0.6-3.3,1.8v10.3h-3.4V52.7z"/>
			<path class="st34" d="M584.7,70.1c0-1.2,0.8-2.3,2.1-3.1v-0.1c-0.8-0.5-1.3-1.3-1.3-2.5c0-1.1,0.8-2.1,1.6-2.7v-0.1
				c-1-0.7-1.9-2.1-1.9-3.9c0-3.4,2.7-5.3,5.8-5.3c0.8,0,1.6,0.1,2.2,0.4h5.2v2.6h-2.7c0.5,0.5,0.8,1.5,0.8,2.5c0,3.3-2.5,5-5.6,5
				c-0.6,0-1.3-0.1-2-0.4c-0.4,0.4-0.7,0.7-0.7,1.4c0,0.8,0.6,1.3,2.4,1.3h2.6c3.5,0,5.4,1.1,5.4,3.6c0,2.9-3,5.2-7.8,5.2
				C587.3,73.9,584.7,72.6,584.7,70.1z M595.3,69.3c0-1.1-0.9-1.5-2.6-1.5h-2c-0.8,0-1.4-0.1-2-0.2c-0.8,0.6-1.1,1.3-1.1,1.9
				c0,1.3,1.4,2.1,3.7,2.1C593.7,71.6,595.3,70.5,595.3,69.3z M593.5,57.6c0-1.8-1.1-2.9-2.5-2.9s-2.5,1-2.5,2.9c0,1.9,1.1,3,2.5,3
				S593.5,59.5,593.5,57.6z"/>
			<path class="st34" d="M378.9,89.3c0-5.3,1.5-9.6,3.9-13.6l2.2,0.9c-2.2,3.8-3.3,8.3-3.3,12.7s1,8.8,3.3,12.7l-2.2,0.9
				C380.4,98.9,378.9,94.6,378.9,89.3z"/>
			<path class="st34" d="M388.8,78.1h6.2c4.3,0,7.6,1.5,7.6,6c0,4.4-3.2,6.3-7.4,6.3h-2.8v7.2h-3.5V78.1z M394.8,87.7
				c2.9,0,4.3-1.2,4.3-3.6c0-2.4-1.5-3.3-4.4-3.3h-2.4v6.8H394.8z"/>
			<path class="st34" d="M405.9,83h2.8l0.3,2.6h0.1c1-1.9,2.6-3,4.2-3c0.7,0,1.2,0.1,1.7,0.3l-0.6,3c-0.5-0.1-0.9-0.2-1.5-0.2
				c-1.2,0-2.6,0.8-3.5,3v9h-3.4V83z"/>
			<path class="st34" d="M416.1,90.3c0-4.8,3.3-7.7,6.8-7.7c4,0,6.1,2.9,6.1,7c0,0.7-0.1,1.3-0.1,1.7h-9.3c0.3,2.6,2,4.1,4.3,4.1
				c1.3,0,2.3-0.4,3.4-1.1l1.2,2.1c-1.4,0.9-3.2,1.6-5,1.6C419.3,98,416.1,95.2,416.1,90.3z M425.9,88.9c0-2.3-1-3.6-3-3.6
				c-1.7,0-3.2,1.3-3.5,3.6H425.9z"/>
			<path class="st34" d="M431.3,88.9h7.1v2.5h-7.1V88.9z"/>
			<path class="st34" d="M441,93.7c0-3.1,2.6-4.8,8.6-5.4c0-1.6-0.7-2.9-2.7-2.9c-1.5,0-2.8,0.7-4.1,1.4l-1.3-2.3
				c1.6-1,3.7-1.9,6-1.9c3.7,0,5.5,2.3,5.5,6.3v8.7h-2.8L450,96h-0.1c-1.3,1.1-2.8,2-4.6,2C442.8,98,441,96.3,441,93.7z M449.7,93.7
				v-3.3c-4,0.5-5.3,1.5-5.3,3c0,1.3,0.9,1.9,2.1,1.9C447.7,95.3,448.6,94.7,449.7,93.7z"/>
			<path class="st34" d="M456.3,90.3c0-4.9,3.5-7.7,7.4-7.7c1.9,0,3.2,0.7,4.3,1.6l-1.7,2.2c-0.8-0.7-1.5-1.1-2.4-1.1
				c-2.4,0-4,2-4,4.9s1.6,4.9,3.9,4.9c1.1,0,2.2-0.6,3-1.3l1.4,2.3c-1.4,1.2-3.1,1.8-4.8,1.8C459.4,98,456.3,95.2,456.3,90.3z"/>
			<path class="st34" d="M470.1,90.3c0-4.9,3.5-7.7,7.4-7.7c1.9,0,3.2,0.7,4.3,1.6l-1.7,2.2c-0.8-0.7-1.5-1.1-2.4-1.1
				c-2.4,0-4,2-4,4.9s1.6,4.9,3.9,4.9c1.1,0,2.2-0.6,3-1.3l1.4,2.3c-1.4,1.2-3.1,1.8-4.8,1.8C473.2,98,470.1,95.2,470.1,90.3z"/>
			<path class="st34" d="M483.9,90.3c0-4.8,3.3-7.7,6.8-7.7c4,0,6.1,2.9,6.1,7c0,0.7-0.1,1.3-0.1,1.7h-9.3c0.3,2.6,2,4.1,4.3,4.1
				c1.3,0,2.3-0.4,3.4-1.1l1.2,2.1c-1.4,0.9-3.2,1.6-5,1.6C487.1,98,483.9,95.2,483.9,90.3z M493.8,88.9c0-2.3-1-3.6-3-3.6
				c-1.7,0-3.2,1.3-3.5,3.6H493.8z"/>
			<path class="st34" d="M500,83h2.8l0.3,1.6h0.1c1.2-1.1,2.8-1.9,4.4-1.9c3.7,0,5.8,2.9,5.8,7.5c0,5-3,7.9-6.3,7.9
				c-1.3,0-2.6-0.6-3.8-1.6l0.1,2.4v4.6H500V83z M509.9,90.1c0-2.9-1-4.7-3.2-4.7c-1.1,0-2.1,0.5-3.2,1.6v6.8
				c1.1,0.9,2.1,1.2,2.9,1.2C508.4,95.2,509.9,93.4,509.9,90.1z"/>
			<path class="st34" d="M517.4,92.7v-7h-2.1v-2.6l2.3-0.2l0.4-4h2.9v4h3.7v2.7h-3.7v7c0,1.7,0.7,2.6,2.1,2.6c0.5,0,1.1-0.2,1.5-0.3
				l0.6,2.5c-0.8,0.3-1.8,0.5-3,0.5C518.7,98,517.4,95.9,517.4,92.7z"/>
			<path class="st34" d="M526.9,93.7c0-3.1,2.6-4.8,8.6-5.4c0-1.6-0.7-2.9-2.7-2.9c-1.5,0-2.8,0.7-4.1,1.4l-1.3-2.3
				c1.6-1,3.7-1.9,6-1.9c3.7,0,5.5,2.3,5.5,6.3v8.7h-2.8l-0.3-1.6h-0.1c-1.3,1.1-2.8,2-4.6,2C528.7,98,526.9,96.3,526.9,93.7z
				 M535.5,93.7v-3.3c-4,0.5-5.3,1.5-5.3,3c0,1.3,0.9,1.9,2.1,1.9C533.5,95.3,534.5,94.7,535.5,93.7z"/>
			<path class="st34" d="M543.1,83h2.8l0.3,2h0.1c1.3-1.3,2.8-2.3,4.8-2.3c3.1,0,4.5,2.1,4.5,5.8v9.2h-3.4v-8.8
				c0-2.4-0.7-3.3-2.3-3.3c-1.3,0-2.1,0.6-3.3,1.8v10.3h-3.4V83z"/>
			<path class="st34" d="M558.9,90.3c0-4.9,3.5-7.7,7.4-7.7c1.9,0,3.2,0.7,4.3,1.6l-1.7,2.2c-0.8-0.7-1.5-1.1-2.4-1.1
				c-2.4,0-4,2-4,4.9s1.6,4.9,3.9,4.9c1.1,0,2.2-0.6,3-1.3l1.4,2.3c-1.4,1.2-3.1,1.8-4.8,1.8C562,98,558.9,95.2,558.9,90.3z"/>
			<path class="st34" d="M572.7,90.3c0-4.8,3.3-7.7,6.8-7.7c4,0,6.1,2.9,6.1,7c0,0.7-0.1,1.3-0.1,1.7h-9.3c0.3,2.6,2,4.1,4.3,4.1
				c1.3,0,2.3-0.4,3.4-1.1l1.2,2.1c-1.4,0.9-3.2,1.6-5,1.6C575.9,98,572.7,95.2,572.7,90.3z M582.6,88.9c0-2.3-1-3.6-3-3.6
				c-1.7,0-3.2,1.3-3.5,3.6H582.6z"/>
			<path class="st34" d="M587.9,102c2.2-3.8,3.3-8.3,3.3-12.7s-1-8.8-3.3-12.7l2.2-0.9c2.5,4.1,3.9,8.4,3.9,13.6
				c0,5.3-1.5,9.6-3.9,13.6L587.9,102z"/>
		</g>
	</g>
	<g>
		<g>
			<path class="st34" d="M663.9,47.8h6.2c4.3,0,7.6,1.5,7.6,6c0,4.4-3.2,6.3-7.4,6.3h-2.8v7.2h-3.5V47.8z M669.8,57.4
				c2.9,0,4.3-1.2,4.3-3.6c0-2.4-1.5-3.3-4.4-3.3h-2.4v6.8H669.8z"/>
			<path class="st34" d="M680.2,63.4c0-3.1,2.6-4.8,8.6-5.4c0-1.6-0.7-2.9-2.7-2.9c-1.5,0-2.8,0.7-4.1,1.4l-1.3-2.3
				c1.6-1,3.7-1.9,6-1.9c3.7,0,5.5,2.3,5.5,6.3v8.7h-2.8l-0.3-1.6h-0.1c-1.3,1.1-2.8,2-4.6,2C681.9,67.7,680.2,66,680.2,63.4z
				 M688.8,63.5v-3.3c-4,0.5-5.3,1.5-5.3,3c0,1.3,0.9,1.9,2.1,1.9C686.8,65,687.7,64.5,688.8,63.5z"/>
			<path class="st34" d="M695.4,73.1l0.6-2.7c0.3,0.1,0.7,0.2,1.1,0.2c1.5,0,2.4-1.1,2.9-2.5l0.3-0.9l-5.8-14.5h3.5l2.5,7.2
				c0.4,1.3,0.9,2.8,1.3,4.1h0.1c0.4-1.4,0.7-2.8,1.1-4.1l2.2-7.2h3.3l-5.3,15.4c-1.2,3.3-2.8,5.4-6,5.4
				C696.6,73.4,696,73.3,695.4,73.1z"/>
			<path class="st34" d="M710.4,63.4c0-3.1,2.6-4.8,8.6-5.4c0-1.6-0.7-2.9-2.7-2.9c-1.5,0-2.8,0.7-4.1,1.4l-1.3-2.3
				c1.6-1,3.7-1.9,6-1.9c3.7,0,5.5,2.3,5.5,6.3v8.7h-2.8l-0.3-1.6h-0.1c-1.3,1.1-2.8,2-4.6,2C712.2,67.7,710.4,66,710.4,63.4z
				 M719,63.5v-3.3c-4,0.5-5.3,1.5-5.3,3c0,1.3,0.9,1.9,2.1,1.9C717,65,717.9,64.5,719,63.5z"/>
			<path class="st34" d="M729.7,65.8L729.7,65.8l-0.4,1.5h-2.7V46.3h3.4v5.5l-0.1,2.4c1.2-1.1,2.7-1.8,4.2-1.8
				c3.7,0,5.8,2.9,5.8,7.5c0,5-3,7.9-6.3,7.9C732.4,67.7,731,67.1,729.7,65.8z M736.5,59.9c0-2.9-1-4.7-3.2-4.7
				c-1.1,0-2.1,0.5-3.2,1.6v6.8c1,0.9,2.1,1.2,2.9,1.2C735,64.9,736.5,63.2,736.5,59.9z"/>
			<path class="st34" d="M743.4,63.6V46.3h3.4v17.5c0,0.8,0.4,1.1,0.7,1.1c0.2,0,0.3,0,0.5-0.1l0.4,2.6c-0.4,0.2-1,0.3-1.8,0.3
				C744.3,67.7,743.4,66.2,743.4,63.6z"/>
			<path class="st34" d="M750.6,60.1c0-4.8,3.3-7.7,6.8-7.7c4,0,6.1,2.9,6.1,7c0,0.7-0.1,1.3-0.1,1.7h-9.3c0.3,2.6,2,4.1,4.3,4.1
				c1.3,0,2.3-0.4,3.4-1.1l1.2,2.1c-1.4,0.9-3.2,1.6-5,1.6C753.8,67.7,750.6,64.9,750.6,60.1z M760.4,58.6c0-2.3-1-3.6-3-3.6
				c-1.7,0-3.2,1.3-3.5,3.6H760.4z"/>
			<path class="st34" d="M765.2,65.7l1.6-2.2c1.3,1,2.6,1.6,4.1,1.6c1.6,0,2.4-0.8,2.4-1.8c0-1.2-1.6-1.8-3.2-2.4
				c-1.9-0.7-4.1-1.8-4.1-4.3c0-2.5,2.1-4.4,5.3-4.4c2,0,3.7,0.8,4.9,1.8l-1.6,2.1c-1-0.8-2.1-1.3-3.2-1.3c-1.5,0-2.2,0.7-2.2,1.6
				c0,1.2,1.5,1.6,3.1,2.2c2,0.7,4.2,1.7,4.2,4.4c0,2.5-2,4.6-5.7,4.6C768.8,67.7,766.7,66.9,765.2,65.7z"/>
			<path class="st34" d="M790.7,46.2h2.3l-7,26h-2.3L790.7,46.2z"/>
			<path class="st34" d="M800.8,64.9l2-2.4c1.4,1.3,3.3,2.2,5.1,2.2c2.2,0,3.4-1,3.4-2.5c0-1.6-1.3-2.1-3-2.9l-2.7-1.2
				c-1.9-0.8-4-2.3-4-5.2c0-3.1,2.8-5.5,6.6-5.5c2.3,0,4.5,0.9,6,2.5l-1.8,2.2c-1.2-1.1-2.6-1.7-4.2-1.7c-1.9,0-3.1,0.9-3.1,2.3
				c0,1.5,1.5,2.1,3.1,2.8l2.6,1.1c2.3,1,4,2.4,4,5.3c0,3.2-2.6,5.8-7,5.8C805.2,67.7,802.6,66.7,800.8,64.9z"/>
			<path class="st34" d="M817.4,57.7c0-6.4,4-10.2,9-10.2c2.5,0,4.4,1.2,5.6,2.5l-1.9,2.2c-1-1-2.2-1.7-3.7-1.7
				c-3.2,0-5.5,2.7-5.5,7.1c0,4.5,2.1,7.2,5.4,7.2c1.7,0,3.1-0.8,4.2-2l1.9,2.2c-1.6,1.8-3.6,2.8-6.2,2.8
				C821.3,67.7,817.4,64.1,817.4,57.7z"/>
			<path class="st34" d="M835.6,47.8h11.8v2.9h-8.3v5.5h7.1v2.9h-7.1v8.2h-3.5V47.8z"/>
			<path class="st34" d="M694.4,78.1h11.8V81h-8.3v5.5h7.1v2.9h-7.1v8.2h-3.5V78.1z"/>
			<path class="st34" d="M709,78.4c0-1.2,0.9-1.9,2.1-1.9s2.1,0.8,2.1,1.9c0,1.1-0.9,1.9-2.1,1.9S709,79.6,709,78.4z M709.4,83h3.4
				v14.7h-3.4V83z"/>
			<path class="st34" d="M717.2,83h2.8l0.3,2h0.1c1.3-1.3,2.8-2.3,4.8-2.3c3.1,0,4.5,2.1,4.5,5.8v9.2h-3.4v-8.8
				c0-2.4-0.7-3.3-2.3-3.3c-1.3,0-2.1,0.6-3.3,1.8v10.3h-3.4V83z"/>
			<path class="st34" d="M733.1,93.7c0-3.1,2.6-4.8,8.6-5.4c0-1.6-0.7-2.9-2.7-2.9c-1.5,0-2.8,0.7-4.1,1.4l-1.3-2.3
				c1.6-1,3.7-1.9,6-1.9c3.7,0,5.5,2.3,5.5,6.3v8.7h-2.8l-0.3-1.6H742c-1.3,1.1-2.8,2-4.6,2C734.9,98,733.1,96.3,733.1,93.7z
				 M741.8,93.7v-3.3c-4,0.5-5.3,1.5-5.3,3c0,1.3,0.9,1.9,2.1,1.9C739.8,95.3,740.7,94.7,741.8,93.7z"/>
			<path class="st34" d="M749.4,83h2.8l0.3,2h0.1c1.3-1.3,2.8-2.3,4.8-2.3c3.1,0,4.5,2.1,4.5,5.8v9.2h-3.4v-8.8
				c0-2.4-0.7-3.3-2.3-3.3c-1.3,0-2.1,0.6-3.3,1.8v10.3h-3.4V83z"/>
			<path class="st34" d="M765.1,90.3c0-4.9,3.5-7.7,7.4-7.7c1.9,0,3.2,0.7,4.3,1.6l-1.7,2.2c-0.8-0.7-1.5-1.1-2.4-1.1
				c-2.4,0-4,2-4,4.9s1.6,4.9,3.9,4.9c1.1,0,2.2-0.6,3-1.3l1.4,2.3c-1.4,1.2-3.1,1.8-4.8,1.8C768.2,98,765.1,95.2,765.1,90.3z"/>
			<path class="st34" d="M779.5,78.4c0-1.2,0.9-1.9,2.1-1.9s2.1,0.8,2.1,1.9c0,1.1-0.9,1.9-2.1,1.9S779.5,79.6,779.5,78.4z
				 M779.9,83h3.4v14.7h-3.4V83z"/>
			<path class="st34" d="M787.8,83h2.8l0.3,2h0.1c1.3-1.3,2.8-2.3,4.8-2.3c3.1,0,4.5,2.1,4.5,5.8v9.2h-3.4v-8.8
				c0-2.4-0.7-3.3-2.3-3.3c-1.3,0-2.1,0.6-3.3,1.8v10.3h-3.4V83z"/>
			<path class="st34" d="M803.5,100.3c0-1.2,0.8-2.3,2.1-3.1v-0.1c-0.8-0.5-1.3-1.3-1.3-2.5c0-1.1,0.8-2.1,1.6-2.7v-0.1
				c-1-0.7-1.9-2.1-1.9-3.9c0-3.4,2.7-5.3,5.8-5.3c0.8,0,1.6,0.1,2.2,0.4h5.2v2.6h-2.7c0.5,0.5,0.8,1.5,0.8,2.5c0,3.3-2.5,5-5.6,5
				c-0.6,0-1.3-0.1-2-0.4c-0.4,0.4-0.7,0.7-0.7,1.4c0,0.8,0.6,1.3,2.4,1.3h2.6c3.5,0,5.4,1.1,5.4,3.6c0,2.9-3,5.2-7.8,5.2
				C806.1,104.1,803.5,102.9,803.5,100.3z M814.1,99.5c0-1.1-0.9-1.5-2.6-1.5h-2c-0.8,0-1.4-0.1-2-0.2c-0.8,0.6-1.1,1.3-1.1,1.9
				c0,1.3,1.4,2.1,3.7,2.1C812.5,101.9,814.1,100.8,814.1,99.5z M812.3,87.9c0-1.8-1.1-2.9-2.5-2.9s-2.5,1-2.5,2.9
				c0,1.9,1.1,3,2.5,3S812.3,89.7,812.3,87.9z"/>
		</g>
	</g>
	<circle class="st33" cx="98.7" cy="124.8" r="25.5"/>
	<g>
		<g>
			<path class="st35" d="M91.5,126.5c0-6.1,2.5-9.2,6.4-9.2s6.4,3.1,6.4,9.2c0,6.1-2.5,9.3-6.4,9.3S91.5,132.5,91.5,126.5z
				 M100.3,126.5c0-4.9-1.1-6-2.5-6s-2.5,1.1-2.5,6c0,4.9,1.1,6.1,2.5,6.1S100.3,131.3,100.3,126.5z"/>
		</g>
	</g>
	<circle class="st33" cx="352.5" cy="125.7" r="25.5"/>
	<g>
		<g>
			<path class="st35" d="M346.1,126.1c0-1.1,0.1-2.9,0.2-4h-0.1c-0.4,1-1,2-1.5,3l-2.3,3.9h9.7v3.1h-13.6v-2.9l6.5-10.7h5.1v17.8
				h-3.9V126.1z"/>
			<path class="st35" d="M353,134.2l1.9-2.6c1.1,1,2.3,1.8,3.9,1.8c1.8,0,3-1,3-2.8c0-1.8-1.1-2.8-2.8-2.8c-1,0-1.6,0.2-2.6,0.9
				l-1.8-1.2l0.5-9H365v3.5h-6.6l-0.3,3.3c0.7-0.3,1.2-0.4,2-0.4c3.1,0,5.7,1.7,5.7,5.5c0,4-3.1,6.2-6.5,6.2
				C356.4,136.7,354.4,135.6,353,134.2z"/>
		</g>
	</g>
	<circle class="st33" cx="601.1" cy="125.7" r="25.5"/>
	<g>
		<g>
			<path class="st35" d="M587.6,127.9c0-6.7,3.5-9.7,7.2-9.7c2.4,0,4.1,1,5.2,2.1l-2.2,2.5c-0.6-0.7-1.7-1.3-2.8-1.3
				c-2.1,0-3.7,1.6-3.7,6.3c0,4.4,1.4,5.7,2.9,5.7c1.2,0,2.2-0.9,2.2-2.9c0-1.9-1-2.6-2.3-2.6c-0.9,0-2,0.5-2.8,1.9l-0.2-2.7
				c0.9-1.4,2.6-2.1,3.8-2.1c3.1,0,5.3,1.7,5.3,5.5c0,3.7-2.7,6-5.9,6C590.9,136.7,587.6,134.1,587.6,127.9z"/>
			<path class="st35" d="M602,127.4c0-6.1,2.5-9.2,6.4-9.2c3.8,0,6.4,3.1,6.4,9.2c0,6.1-2.5,9.3-6.4,9.3
				C604.6,136.7,602,133.5,602,127.4z M610.9,127.4c0-4.9-1.1-6-2.5-6c-1.4,0-2.5,1.1-2.5,6c0,4.9,1.1,6.1,2.5,6.1
				C609.8,133.5,610.9,132.3,610.9,127.4z"/>
		</g>
	</g>
	<circle class="st33" cx="872.3" cy="125.7" r="25.5"/>
	<g>
		<g>
			<path class="st35" d="M852.3,133.1h3.9v-10.3h-3.3v-2.6c1.9-0.4,3.2-0.8,4.4-1.6h3v14.5h3.3v3.3h-11.4V133.1z"/>
			<path class="st35" d="M865.9,134c4.5-4.3,7.7-7.3,7.7-9.9c0-1.7-1-2.7-2.5-2.7c-1.3,0-2.3,0.9-3.2,1.8l-2.2-2.2
				c1.8-1.9,3.4-2.8,6-2.8c3.5,0,5.9,2.2,5.9,5.7c0,3-2.8,6.2-5.7,9.2c0.9-0.1,2.2-0.2,3-0.2h3.6v3.5h-12.5V134z"/>
			<path class="st35" d="M880.5,127.4c0-6.1,2.5-9.2,6.4-9.2c3.8,0,6.4,3.1,6.4,9.2c0,6.1-2.5,9.3-6.4,9.3
				C883,136.7,880.5,133.5,880.5,127.4z M889.3,127.4c0-4.9-1.1-6-2.5-6c-1.4,0-2.5,1.1-2.5,6c0,4.9,1.1,6.1,2.5,6.1
				C888.3,133.5,889.3,132.3,889.3,127.4z"/>
		</g>
	</g>
	<g>
		<g>
			<g>
				<path class="st36" d="M276.8,210h1.5l3.6,10.5h-1.4l-1.8-5.9c-0.4-1.2-0.7-2.3-1.1-3.5h-0.1c-0.3,1.2-0.7,2.4-1,3.5l-1.9,5.9
					h-1.4L276.8,210z M275.1,216.2h4.8v1.1h-4.8V216.2z"/>
				<path class="st36" d="M282.8,210.3c0-0.5,0.4-0.9,0.9-0.9c0.5,0,0.9,0.3,0.9,0.9c0,0.5-0.4,0.9-0.9,0.9
					C283.2,211.1,282.8,210.8,282.8,210.3z M283.1,212.7h1.3v7.8h-1.3V212.7z"/>
				<path class="st36" d="M286.9,212.7h1.1l0.1,1.1h0c0.7-0.7,1.5-1.3,2.4-1.3c1.2,0,1.8,0.6,2.1,1.5c0.8-0.9,1.6-1.5,2.6-1.5
					c1.6,0,2.4,1.1,2.4,3v4.9h-1.3v-4.8c0-1.4-0.5-2.1-1.4-2.1c-0.6,0-1.2,0.4-2,1.2v5.6h-1.3v-4.8c0-1.4-0.5-2.1-1.4-2.1
					c-0.6,0-1.2,0.4-2,1.2v5.6h-1.3V212.7z"/>
				<path class="st36" d="M299.1,219.6l0.6-0.9c0.7,0.5,1.4,0.9,2.3,0.9c1,0,1.5-0.5,1.5-1.2c0-0.8-0.9-1.2-1.8-1.5
					c-1.1-0.4-2.3-0.9-2.3-2.2c0-1.2,1-2.2,2.7-2.2c1,0,1.8,0.4,2.4,0.9l-0.6,0.8c-0.5-0.4-1.1-0.7-1.8-0.7c-1,0-1.4,0.5-1.4,1.1
					c0,0.7,0.8,1,1.7,1.3c1.1,0.4,2.4,0.9,2.4,2.4c0,1.3-1,2.3-2.8,2.3C300.9,220.7,299.8,220.2,299.1,219.6z"/>
				<path class="st36" d="M309.8,218.1v-4.3h-1.2v-1l1.2-0.1l0.2-2.2h1.1v2.2h2.1v1.1h-2.1v4.3c0,1,0.3,1.5,1.2,1.5
					c0.3,0,0.6-0.1,0.9-0.2l0.3,1c-0.4,0.1-1,0.3-1.4,0.3C310.3,220.7,309.8,219.6,309.8,218.1z"/>
				<path class="st36" d="M314.2,216.6c0-2.6,1.7-4.1,3.6-4.1s3.6,1.5,3.6,4.1c0,2.6-1.7,4.1-3.6,4.1S314.2,219.2,314.2,216.6z
					 M320.1,216.6c0-1.8-0.9-3-2.2-3c-1.3,0-2.2,1.2-2.2,3c0,1.8,0.9,3,2.2,3C319.2,219.6,320.1,218.4,320.1,216.6z"/>
				<path class="st36" d="M327.6,219.7L327.6,219.7l-0.2,0.8h-1.1v-11.4h1.3v3.1l0,1.4c0.7-0.6,1.6-1.1,2.4-1.1c2,0,3.1,1.6,3.1,4
					c0,2.7-1.6,4.2-3.4,4.2C329.1,220.7,328.3,220.3,327.6,219.7z M331.8,216.5c0-1.7-0.6-2.9-2.1-2.9c-0.7,0-1.3,0.4-2.1,1.1v4.1
					c0.7,0.6,1.4,0.8,1.9,0.8C330.9,219.6,331.8,218.4,331.8,216.5z"/>
				<path class="st36" d="M334.5,216.6c0-2.5,1.7-4.1,3.5-4.1c2,0,3.1,1.4,3.1,3.7c0,0.3,0,0.6-0.1,0.7h-5.2
					c0.1,1.6,1.1,2.7,2.6,2.7c0.7,0,1.4-0.2,1.9-0.6l0.5,0.9c-0.7,0.4-1.5,0.8-2.6,0.8C336.1,220.7,334.5,219.2,334.5,216.6z
					 M339.9,216c0-1.6-0.7-2.4-1.9-2.4c-1.1,0-2.1,0.9-2.2,2.4H339.9z"/>
				<path class="st36" d="M343,218.1v-4.3h-1.2v-1l1.2-0.1l0.2-2.2h1.1v2.2h2.1v1.1h-2.1v4.3c0,1,0.3,1.5,1.2,1.5
					c0.3,0,0.6-0.1,0.9-0.2l0.3,1c-0.4,0.1-1,0.3-1.4,0.3C343.6,220.7,343,219.6,343,218.1z"/>
				<path class="st36" d="M348.3,218.1v-4.3h-1.2v-1l1.2-0.1l0.2-2.2h1.1v2.2h2.1v1.1h-2.1v4.3c0,1,0.3,1.5,1.2,1.5
					c0.3,0,0.6-0.1,0.9-0.2l0.3,1c-0.4,0.1-1,0.3-1.4,0.3C348.9,220.7,348.3,219.6,348.3,218.1z"/>
				<path class="st36" d="M352.7,216.6c0-2.5,1.7-4.1,3.5-4.1c2,0,3.1,1.4,3.1,3.7c0,0.3,0,0.6-0.1,0.7H354c0.1,1.6,1.1,2.7,2.6,2.7
					c0.7,0,1.4-0.2,1.9-0.6l0.5,0.9c-0.7,0.4-1.5,0.8-2.6,0.8C354.4,220.7,352.7,219.2,352.7,216.6z M358.2,216
					c0-1.6-0.7-2.4-1.9-2.4c-1.1,0-2.1,0.9-2.2,2.4H358.2z"/>
				<path class="st36" d="M361.1,212.7h1.1l0.1,1.4h0c0.5-1,1.3-1.6,2.2-1.6c0.3,0,0.6,0,0.8,0.2l-0.2,1.2c-0.3-0.1-0.4-0.1-0.8-0.1
					c-0.7,0-1.4,0.5-2,1.8v5h-1.3V212.7z"/>
				<path class="st36" d="M368.7,219.6l0.6-0.9c0.7,0.5,1.4,0.9,2.3,0.9c1,0,1.5-0.5,1.5-1.2c0-0.8-0.9-1.2-1.8-1.5
					c-1.1-0.4-2.3-0.9-2.3-2.2c0-1.2,1-2.2,2.7-2.2c1,0,1.8,0.4,2.4,0.9l-0.6,0.8c-0.5-0.4-1.1-0.7-1.8-0.7c-1,0-1.4,0.5-1.4,1.1
					c0,0.7,0.8,1,1.7,1.3c1.1,0.4,2.4,0.9,2.4,2.4c0,1.3-1,2.3-2.8,2.3C370.5,220.7,369.4,220.2,368.7,219.6z"/>
				<path class="st36" d="M375.5,216.6c0-2.5,1.7-4.1,3.5-4.1c2,0,3.1,1.4,3.1,3.7c0,0.3,0,0.6-0.1,0.7h-5.2
					c0.1,1.6,1.1,2.7,2.6,2.7c0.7,0,1.4-0.2,1.9-0.6l0.5,0.9c-0.7,0.4-1.5,0.8-2.6,0.8C377.1,220.7,375.5,219.2,375.5,216.6z
					 M380.9,216c0-1.6-0.7-2.4-1.9-2.4c-1.1,0-2.1,0.9-2.2,2.4H380.9z"/>
				<path class="st36" d="M383.8,212.7h1.1l0.1,1.4h0c0.5-1,1.3-1.6,2.2-1.6c0.3,0,0.6,0,0.8,0.2l-0.2,1.2c-0.3-0.1-0.4-0.1-0.8-0.1
					c-0.7,0-1.4,0.5-2,1.8v5h-1.3V212.7z"/>
				<path class="st36" d="M388.1,212.7h1.4l1.5,4.4c0.2,0.8,0.5,1.6,0.7,2.3h0.1c0.2-0.7,0.5-1.5,0.7-2.3l1.5-4.4h1.3l-2.8,7.8h-1.5
					L388.1,212.7z"/>
				<path class="st36" d="M396,216.6c0-2.5,1.7-4.1,3.5-4.1c2,0,3.1,1.4,3.1,3.7c0,0.3,0,0.6-0.1,0.7h-5.2c0.1,1.6,1.1,2.7,2.6,2.7
					c0.7,0,1.4-0.2,1.9-0.6l0.5,0.9c-0.7,0.4-1.5,0.8-2.6,0.8C397.6,220.7,396,219.2,396,216.6z M401.4,216c0-1.6-0.7-2.4-1.9-2.4
					c-1.1,0-2.1,0.9-2.2,2.4H401.4z"/>
				<path class="st36" d="M407.6,218.1v-4.3h-1.2v-1l1.2-0.1l0.2-2.2h1.1v2.2h2.1v1.1h-2.1v4.3c0,1,0.3,1.5,1.2,1.5
					c0.3,0,0.6-0.1,0.9-0.2l0.3,1c-0.4,0.1-1,0.3-1.4,0.3C408.2,220.7,407.6,219.6,407.6,218.1z"/>
				<path class="st36" d="M412.6,209.1h1.3v3.1l0,1.6c0.7-0.7,1.5-1.3,2.6-1.3c1.6,0,2.4,1.1,2.4,3v4.9h-1.3v-4.8
					c0-1.4-0.4-2.1-1.5-2.1c-0.8,0-1.3,0.4-2.1,1.2v5.6h-1.3V209.1z"/>
				<path class="st36" d="M420.6,216.6c0-2.5,1.7-4.1,3.5-4.1c2,0,3.1,1.4,3.1,3.7c0,0.3,0,0.6-0.1,0.7h-5.2
					c0.1,1.6,1.1,2.7,2.6,2.7c0.7,0,1.4-0.2,1.9-0.6l0.5,0.9c-0.7,0.4-1.5,0.8-2.6,0.8C422.2,220.7,420.6,219.2,420.6,216.6z
					 M426,216c0-1.6-0.7-2.4-1.9-2.4c-1.1,0-2.1,0.9-2.2,2.4H426z"/>
				<path class="st36" d="M262.7,232l1.1-0.1h2.9v1.1h-4V232z M263.8,230.7c0-1.6,0.7-2.6,2.3-2.6c0.5,0,0.9,0.1,1.3,0.3l-0.3,1
					c-0.3-0.1-0.6-0.2-0.9-0.2c-0.7,0-1.1,0.5-1.1,1.5v9h-1.3V230.7z"/>
				<path class="st36" d="M267.8,229.5c0-0.5,0.4-0.9,0.9-0.9c0.5,0,0.9,0.3,0.9,0.9c0,0.5-0.4,0.9-0.9,0.9
					C268.2,230.3,267.8,230,267.8,229.5z M268.1,231.9h1.3v7.8h-1.3V231.9z"/>
				<path class="st36" d="M271.9,231.9h1.1l0.1,1.1h0c0.7-0.7,1.5-1.3,2.6-1.3c1.6,0,2.4,1.1,2.4,3v4.9h-1.3v-4.8
					c0-1.4-0.4-2.1-1.5-2.1c-0.8,0-1.3,0.4-2.1,1.2v5.6h-1.3V231.9z"/>
				<path class="st36" d="M280,237.7c0-1.7,1.5-2.5,4.8-2.9c0-1-0.3-2-1.6-2c-0.9,0-1.7,0.4-2.3,0.8l-0.5-0.9c0.7-0.5,1.8-1,3.1-1
					c1.9,0,2.7,1.3,2.7,3.2v4.8H285l-0.1-0.9h0c-0.7,0.6-1.6,1.1-2.6,1.1C280.9,239.9,280,239.1,280,237.7z M284.7,237.8v-2.2
					c-2.6,0.3-3.5,1-3.5,1.9c0,0.9,0.6,1.2,1.4,1.2C283.4,238.8,284,238.5,284.7,237.8z"/>
				<path class="st36" d="M288.3,231.9h1.1l0.1,1.1h0c0.7-0.7,1.5-1.3,2.6-1.3c1.6,0,2.4,1.1,2.4,3v4.9h-1.3v-4.8
					c0-1.4-0.4-2.1-1.5-2.1c-0.8,0-1.3,0.4-2.1,1.2v5.6h-1.3V231.9z"/>
				<path class="st36" d="M296.4,235.8c0-2.6,1.8-4.1,3.7-4.1c1,0,1.7,0.4,2.3,0.9l-0.7,0.9c-0.5-0.4-0.9-0.7-1.5-0.7
					c-1.4,0-2.4,1.2-2.4,3c0,1.8,1,3,2.4,3c0.7,0,1.3-0.3,1.8-0.8l0.6,0.9c-0.7,0.6-1.6,1-2.5,1
					C297.9,239.9,296.4,238.4,296.4,235.8z"/>
				<path class="st36" d="M303.8,229.5c0-0.5,0.4-0.9,0.9-0.9c0.5,0,0.9,0.3,0.9,0.9c0,0.5-0.4,0.9-0.9,0.9
					C304.2,230.3,303.8,230,303.8,229.5z M304.1,231.9h1.3v7.8h-1.3V231.9z"/>
				<path class="st36" d="M307.9,231.9h1.1l0.1,1.1h0c0.7-0.7,1.5-1.3,2.6-1.3c1.6,0,2.4,1.1,2.4,3v4.9h-1.3v-4.8
					c0-1.4-0.4-2.1-1.5-2.1c-0.8,0-1.3,0.4-2.1,1.2v5.6h-1.3V231.9z"/>
				<path class="st36" d="M315.9,241.2c0-0.7,0.4-1.3,1.1-1.8v-0.1c-0.4-0.2-0.7-0.7-0.7-1.3c0-0.6,0.5-1.2,0.9-1.4v-0.1
					c-0.5-0.4-1-1.2-1-2.1c0-1.7,1.3-2.8,2.9-2.8c0.4,0,0.8,0.1,1.1,0.2h2.7v1h-1.6c0.4,0.4,0.6,0.9,0.6,1.6c0,1.7-1.3,2.7-2.8,2.7
					c-0.4,0-0.8-0.1-1.2-0.3c-0.3,0.2-0.5,0.5-0.5,0.9c0,0.5,0.3,0.8,1.4,0.8h1.5c1.8,0,2.7,0.6,2.7,1.9c0,1.4-1.5,2.7-3.9,2.7
					C317.2,243.3,315.9,242.5,315.9,241.2z M321.7,240.8c0-0.7-0.5-1-1.6-1h-1.3c-0.3,0-0.7,0-1-0.1c-0.6,0.4-0.8,0.9-0.8,1.3
					c0,0.8,0.8,1.4,2.3,1.4C320.7,242.4,321.7,241.6,321.7,240.8z M320.7,234.5c0-1.1-0.7-1.8-1.7-1.8c-0.9,0-1.7,0.7-1.7,1.8
					c0,1.1,0.8,1.8,1.7,1.8C320,236.3,320.7,235.6,320.7,234.5z"/>
				<path class="st36" d="M327.4,231.9h1.1l0.1,1.1h0c0.7-0.7,1.5-1.3,2.6-1.3c1.6,0,2.4,1.1,2.4,3v4.9h-1.3v-4.8
					c0-1.4-0.4-2.1-1.5-2.1c-0.8,0-1.3,0.4-2.1,1.2v5.6h-1.3V231.9z"/>
				<path class="st36" d="M335.4,235.8c0-2.5,1.7-4.1,3.5-4.1c2,0,3.1,1.4,3.1,3.7c0,0.3,0,0.6-0.1,0.7h-5.2
					c0.1,1.6,1.1,2.7,2.6,2.7c0.7,0,1.4-0.2,1.9-0.6l0.5,0.9c-0.7,0.4-1.5,0.8-2.6,0.8C337.1,239.9,335.4,238.4,335.4,235.8z
					 M340.8,235.2c0-1.6-0.7-2.4-1.9-2.4c-1.1,0-2.1,0.9-2.2,2.4H340.8z"/>
				<path class="st36" d="M343.2,235.8c0-2.5,1.7-4.1,3.5-4.1c2,0,3.1,1.4,3.1,3.7c0,0.3,0,0.6-0.1,0.7h-5.2
					c0.1,1.6,1.1,2.7,2.6,2.7c0.7,0,1.4-0.2,1.9-0.6l0.5,0.9c-0.7,0.4-1.5,0.8-2.6,0.8C344.8,239.9,343.2,238.4,343.2,235.8z
					 M348.6,235.2c0-1.6-0.7-2.4-1.9-2.4c-1.1,0-2.1,0.9-2.2,2.4H348.6z"/>
				<path class="st36" d="M351,235.8c0-2.5,1.6-4.1,3.4-4.1c0.9,0,1.5,0.3,2.2,0.9l-0.1-1.3v-3h1.3v11.4h-1.1l-0.1-0.9h0
					c-0.6,0.6-1.4,1.1-2.4,1.1C352.2,239.9,351,238.4,351,235.8z M356.5,237.7v-4.1c-0.7-0.6-1.3-0.8-1.9-0.8c-1.2,0-2.2,1.2-2.2,3
					c0,1.9,0.8,3,2.1,3C355.2,238.8,355.8,238.4,356.5,237.7z"/>
				<path class="st36" d="M359.4,238.8l0.6-0.9c0.7,0.5,1.4,0.9,2.3,0.9c1,0,1.5-0.5,1.5-1.2c0-0.8-0.9-1.2-1.8-1.5
					c-1.1-0.4-2.3-0.9-2.3-2.2c0-1.2,1-2.2,2.7-2.2c1,0,1.8,0.4,2.4,0.9l-0.6,0.8c-0.5-0.4-1.1-0.7-1.8-0.7c-1,0-1.4,0.5-1.4,1.1
					c0,0.7,0.8,1,1.7,1.3c1.1,0.4,2.4,0.9,2.4,2.4c0,1.3-1,2.3-2.8,2.3C361.2,239.9,360.1,239.4,359.4,238.8z"/>
				<path class="st36" d="M369.3,235.8c0-2.5,1.6-4.1,3.4-4.1c0.9,0,1.5,0.3,2.2,0.9l-0.1-1.3v-3h1.3v11.4H375l-0.1-0.9h0
					c-0.6,0.6-1.4,1.1-2.4,1.1C370.5,239.9,369.3,238.4,369.3,235.8z M374.8,237.7v-4.1c-0.7-0.6-1.3-0.8-1.9-0.8
					c-1.2,0-2.2,1.2-2.2,3c0,1.9,0.8,3,2.1,3C373.5,238.8,374.1,238.4,374.8,237.7z"/>
				<path class="st36" d="M378.4,236.9v-4.9h1.3v4.8c0,1.4,0.4,2.1,1.5,2.1c0.8,0,1.3-0.4,2.1-1.3v-5.5h1.3v7.8h-1.1l-0.1-1.2h0
					c-0.7,0.8-1.5,1.4-2.6,1.4C379.2,239.9,378.4,238.8,378.4,236.9z"/>
				<path class="st36" d="M387.1,231.9h1.1l0.1,1.4h0c0.5-1,1.3-1.6,2.2-1.6c0.3,0,0.6,0,0.8,0.2l-0.2,1.2c-0.3-0.1-0.4-0.1-0.8-0.1
					c-0.7,0-1.4,0.5-2,1.8v5h-1.3V231.9z"/>
				<path class="st36" d="M392.2,229.5c0-0.5,0.4-0.9,0.9-0.9c0.5,0,0.9,0.3,0.9,0.9c0,0.5-0.4,0.9-0.9,0.9
					C392.6,230.3,392.2,230,392.2,229.5z M392.5,231.9h1.3v7.8h-1.3V231.9z"/>
				<path class="st36" d="M396.3,231.9h1.1l0.1,1.1h0c0.7-0.7,1.5-1.3,2.6-1.3c1.6,0,2.4,1.1,2.4,3v4.9h-1.3v-4.8
					c0-1.4-0.4-2.1-1.5-2.1c-0.8,0-1.3,0.4-2.1,1.2v5.6h-1.3V231.9z"/>
				<path class="st36" d="M404.3,241.2c0-0.7,0.4-1.3,1.1-1.8v-0.1c-0.4-0.2-0.7-0.7-0.7-1.3c0-0.6,0.5-1.2,0.9-1.4v-0.1
					c-0.5-0.4-1-1.2-1-2.1c0-1.7,1.3-2.8,2.9-2.8c0.4,0,0.8,0.1,1.1,0.2h2.7v1h-1.6c0.4,0.4,0.6,0.9,0.6,1.6c0,1.7-1.3,2.7-2.8,2.7
					c-0.4,0-0.8-0.1-1.2-0.3c-0.3,0.2-0.5,0.5-0.5,0.9c0,0.5,0.3,0.8,1.4,0.8h1.5c1.8,0,2.7,0.6,2.7,1.9c0,1.4-1.5,2.7-3.9,2.7
					C405.6,243.3,404.3,242.5,404.3,241.2z M410.1,240.8c0-0.7-0.5-1-1.6-1h-1.3c-0.3,0-0.7,0-1-0.1c-0.6,0.4-0.8,0.9-0.8,1.3
					c0,0.8,0.8,1.4,2.3,1.4C409.2,242.4,410.1,241.6,410.1,240.8z M409.1,234.5c0-1.1-0.7-1.8-1.7-1.8c-0.9,0-1.7,0.7-1.7,1.8
					c0,1.1,0.8,1.8,1.7,1.8C408.4,236.3,409.1,235.6,409.1,234.5z"/>
				<path class="st36" d="M416,237.3V233h-1.2v-1l1.2-0.1l0.2-2.2h1.1v2.2h2.1v1.1h-2.1v4.3c0,1,0.3,1.5,1.2,1.5
					c0.3,0,0.6-0.1,0.9-0.2l0.3,1c-0.4,0.1-1,0.3-1.4,0.3C416.6,239.9,416,238.8,416,237.3z"/>
				<path class="st36" d="M421,228.3h1.3v3.1l0,1.6c0.7-0.7,1.5-1.3,2.6-1.3c1.6,0,2.4,1.1,2.4,3v4.9H426v-4.8
					c0-1.4-0.4-2.1-1.5-2.1c-0.8,0-1.3,0.4-2.1,1.2v5.6H421V228.3z"/>
				<path class="st36" d="M429.4,229.5c0-0.5,0.4-0.9,0.9-0.9c0.5,0,0.9,0.3,0.9,0.9c0,0.5-0.4,0.9-0.9,0.9
					C429.7,230.3,429.4,230,429.4,229.5z M429.6,231.9h1.3v7.8h-1.3V231.9z"/>
				<path class="st36" d="M432.5,238.8l0.6-0.9c0.7,0.5,1.4,0.9,2.3,0.9c1,0,1.5-0.5,1.5-1.2c0-0.8-0.9-1.2-1.8-1.5
					c-1.1-0.4-2.3-0.9-2.3-2.2c0-1.2,1-2.2,2.7-2.2c1,0,1.8,0.4,2.4,0.9l-0.6,0.8c-0.5-0.4-1.1-0.7-1.8-0.7c-1,0-1.4,0.5-1.4,1.1
					c0,0.7,0.8,1,1.7,1.3c1.1,0.4,2.4,0.9,2.4,2.4c0,1.3-1,2.3-2.8,2.3C434.3,239.9,433.2,239.4,432.5,238.8z"/>
				<path class="st36" d="M273,251.1h1.1l0.1,0.9h0c0.7-0.6,1.6-1.1,2.5-1.1c2,0,3.1,1.6,3.1,4c0,2.7-1.6,4.2-3.4,4.2
					c-0.7,0-1.4-0.3-2.2-0.9l0,1.4v2.6H273V251.1z M278.4,254.9c0-1.7-0.6-2.9-2.1-2.9c-0.7,0-1.3,0.4-2.1,1.1v4.1
					c0.7,0.6,1.4,0.8,1.9,0.8C277.5,258,278.4,256.8,278.4,254.9z"/>
				<path class="st36" d="M281.2,256.9c0-1.7,1.5-2.5,4.8-2.9c0-1-0.3-2-1.6-2c-0.9,0-1.7,0.4-2.3,0.8l-0.5-0.9c0.7-0.5,1.8-1,3.1-1
					c1.9,0,2.7,1.3,2.7,3.2v4.8h-1.1l-0.1-0.9h0c-0.7,0.6-1.6,1.1-2.6,1.1C282.2,259.1,281.2,258.3,281.2,256.9z M286,257v-2.2
					c-2.6,0.3-3.5,1-3.5,1.9c0,0.9,0.6,1.2,1.4,1.2C284.6,258,285.2,257.7,286,257z"/>
				<path class="st36" d="M289.6,251.1h1.1l0.1,1.4h0c0.5-1,1.3-1.6,2.2-1.6c0.3,0,0.6,0,0.8,0.2l-0.2,1.2c-0.3-0.1-0.4-0.1-0.8-0.1
					c-0.7,0-1.4,0.5-2,1.8v5h-1.3V251.1z"/>
				<path class="st36" d="M295.2,256.5v-4.3h-1.2v-1l1.2-0.1l0.2-2.2h1.1v2.2h2.1v1.1h-2.1v4.3c0,1,0.3,1.5,1.2,1.5
					c0.3,0,0.6-0.1,0.9-0.2l0.3,1c-0.4,0.1-1,0.3-1.4,0.3C295.8,259.1,295.2,258,295.2,256.5z"/>
				<path class="st36" d="M302.7,255c0-2.6,1.7-4.1,3.6-4.1s3.6,1.5,3.6,4.1c0,2.6-1.7,4.1-3.6,4.1S302.7,257.6,302.7,255z
					 M308.5,255c0-1.8-0.9-3-2.2-3c-1.3,0-2.2,1.2-2.2,3c0,1.8,0.9,3,2.2,3C307.6,258,308.5,256.8,308.5,255z"/>
				<path class="st36" d="M310.9,251.2l1.1-0.1h2.9v1.1h-4V251.2z M312,249.9c0-1.6,0.7-2.6,2.3-2.6c0.5,0,0.9,0.1,1.3,0.3l-0.3,1
					c-0.3-0.1-0.6-0.2-0.9-0.2c-0.7,0-1.1,0.5-1.1,1.5v9H312V249.9z"/>
				<path class="st36" d="M319.6,256.5v-4.3h-1.2v-1l1.2-0.1l0.2-2.2h1.1v2.2h2.1v1.1h-2.1v4.3c0,1,0.3,1.5,1.2,1.5
					c0.3,0,0.6-0.1,0.9-0.2l0.3,1c-0.4,0.1-1,0.3-1.4,0.3C320.1,259.1,319.6,258,319.6,256.5z"/>
				<path class="st36" d="M324.6,247.5h1.3v3.1l0,1.6c0.7-0.7,1.5-1.3,2.6-1.3c1.6,0,2.4,1.1,2.4,3v4.9h-1.3v-4.8
					c0-1.4-0.4-2.1-1.5-2.1c-0.8,0-1.3,0.4-2.1,1.2v5.6h-1.3V247.5z"/>
				<path class="st36" d="M332.5,255c0-2.5,1.7-4.1,3.5-4.1c2,0,3.1,1.4,3.1,3.7c0,0.3,0,0.6-0.1,0.7h-5.2c0.1,1.6,1.1,2.7,2.6,2.7
					c0.7,0,1.4-0.2,1.9-0.6l0.5,0.9c-0.7,0.4-1.5,0.8-2.6,0.8C334.2,259.1,332.5,257.6,332.5,255z M338,254.4c0-1.6-0.7-2.4-1.9-2.4
					c-1.1,0-2.1,0.9-2.2,2.4H338z"/>
				<path class="st36" d="M343.1,258l0.6-0.9c0.7,0.5,1.4,0.9,2.3,0.9c1,0,1.5-0.5,1.5-1.2c0-0.8-0.9-1.2-1.8-1.5
					c-1.1-0.4-2.3-0.9-2.3-2.2c0-1.2,1-2.2,2.7-2.2c1,0,1.8,0.4,2.4,0.9l-0.6,0.8c-0.5-0.4-1.1-0.7-1.8-0.7c-1,0-1.4,0.5-1.4,1.1
					c0,0.7,0.8,1,1.7,1.3c1.1,0.4,2.4,0.9,2.4,2.4c0,1.3-1,2.3-2.8,2.3C344.9,259.1,343.8,258.6,343.1,258z"/>
				<path class="st36" d="M350.4,256v-4.9h1.3v4.8c0,1.4,0.4,2.1,1.5,2.1c0.8,0,1.3-0.4,2.1-1.3v-5.5h1.3v7.8h-1.1l-0.1-1.2h0
					c-0.7,0.8-1.5,1.4-2.6,1.4C351.1,259.1,350.4,258,350.4,256z"/>
				<path class="st36" d="M359,251.1h1.1l0.1,0.9h0c0.7-0.6,1.6-1.1,2.5-1.1c2,0,3.1,1.6,3.1,4c0,2.7-1.6,4.2-3.4,4.2
					c-0.7,0-1.4-0.3-2.2-0.9l0,1.4v2.6H359V251.1z M364.5,254.9c0-1.7-0.6-2.9-2.1-2.9c-0.7,0-1.3,0.4-2.1,1.1v4.1
					c0.7,0.6,1.4,0.8,1.9,0.8C363.5,258,364.5,256.8,364.5,254.9z"/>
				<path class="st36" d="M367.7,251.1h1.1l0.1,0.9h0c0.7-0.6,1.6-1.1,2.5-1.1c2,0,3.1,1.6,3.1,4c0,2.7-1.6,4.2-3.4,4.2
					c-0.7,0-1.4-0.3-2.2-0.9l0,1.4v2.6h-1.3V251.1z M373.2,254.9c0-1.7-0.6-2.9-2.1-2.9c-0.7,0-1.3,0.4-2.1,1.1v4.1
					c0.7,0.6,1.4,0.8,1.9,0.8C372.2,258,373.2,256.8,373.2,254.9z"/>
				<path class="st36" d="M376.5,257.3v-9.8h1.3v9.9c0,0.4,0.2,0.6,0.4,0.6c0.1,0,0.1,0,0.3,0l0.2,1c-0.2,0.1-0.4,0.1-0.8,0.1
					C376.9,259.1,376.5,258.5,376.5,257.3z"/>
				<path class="st36" d="M379.6,262.1l0.3-1c0.2,0.1,0.4,0.1,0.6,0.1c0.9,0,1.4-0.7,1.8-1.7l0.2-0.6l-3.1-7.8h1.4l1.6,4.3
					c0.2,0.7,0.5,1.5,0.8,2.2h0.1c0.2-0.7,0.4-1.5,0.7-2.2l1.4-4.3h1.3l-2.9,8.4c-0.5,1.5-1.4,2.7-2.9,2.7
					C380.2,262.3,379.9,262.2,379.6,262.1z"/>
				<path class="st36" d="M390.2,255c0-2.6,1.8-4.1,3.7-4.1c1,0,1.7,0.4,2.3,0.9l-0.7,0.9c-0.5-0.4-0.9-0.7-1.5-0.7
					c-1.4,0-2.4,1.2-2.4,3c0,1.8,1,3,2.4,3c0.7,0,1.3-0.3,1.8-0.8l0.6,0.9c-0.7,0.6-1.6,1-2.5,1C391.7,259.1,390.2,257.6,390.2,255z
					"/>
				<path class="st36" d="M397.9,247.5h1.3v3.1l0,1.6c0.7-0.7,1.5-1.3,2.6-1.3c1.6,0,2.4,1.1,2.4,3v4.9h-1.3v-4.8
					c0-1.4-0.4-2.1-1.5-2.1c-0.8,0-1.3,0.4-2.1,1.2v5.6h-1.3V247.5z"/>
				<path class="st36" d="M405.9,256.9c0-1.7,1.5-2.5,4.8-2.9c0-1-0.3-2-1.6-2c-0.9,0-1.7,0.4-2.3,0.8l-0.5-0.9c0.7-0.5,1.8-1,3.1-1
					c1.9,0,2.7,1.3,2.7,3.2v4.8h-1.1l-0.1-0.9h0c-0.7,0.6-1.6,1.1-2.6,1.1C406.9,259.1,405.9,258.3,405.9,256.9z M410.7,257v-2.2
					c-2.6,0.3-3.5,1-3.5,1.9c0,0.9,0.6,1.2,1.4,1.2C409.3,258,410,257.7,410.7,257z"/>
				<path class="st36" d="M414.1,248.7c0-0.5,0.4-0.9,0.9-0.9c0.5,0,0.9,0.3,0.9,0.9c0,0.5-0.4,0.9-0.9,0.9
					C414.5,249.5,414.1,249.2,414.1,248.7z M414.3,251.1h1.3v7.8h-1.3V251.1z"/>
				<path class="st36" d="M418.1,251.1h1.1l0.1,1.1h0c0.7-0.7,1.5-1.3,2.6-1.3c1.6,0,2.4,1.1,2.4,3v4.9H423v-4.8
					c0-1.4-0.4-2.1-1.5-2.1c-0.8,0-1.3,0.4-2.1,1.2v5.6h-1.3V251.1z"/>
				<path class="st36" d="M426.4,258.1c0-0.6,0.4-1,1-1c0.5,0,1,0.4,1,1c0,0.6-0.4,1-1,1C426.8,259.1,426.4,258.7,426.4,258.1z"/>
			</g>
		</g>
		<path class="st37" d="M100.1,161.8v13.8c0,5.5,4.5,10,10,10h481.1c5.5,0,10-4.5,10-10v-13.8"/>
		<line class="st37" x1="350.7" y1="185.7" x2="350.7" y2="200.1"/>
	</g>
	<path class="st33" d="M923.1,112.2l27.6,12.6c0.8,0.4,0.8,1.5,0,1.8l-27.6,12.6c-0.7,0.3-1.4-0.2-1.4-0.9v-25.2
		C921.7,112.4,922.4,111.9,923.1,112.2z"/>
</g>
</svg>
