<svg id="Layer_1" data-name="Layer 1" xmlns="http://www.w3.org/2000/svg" xmlns:xlink="http://www.w3.org/1999/xlink" viewBox="0 0 909.54 238.3"><defs><style>.cls-1{fill:url(#linear-gradient);}.cls-2{fill:url(#linear-gradient-2);}.cls-3{fill:url(#linear-gradient-3);}.cls-10,.cls-4,.cls-5{fill:none;stroke-miterlimit:10;}.cls-4,.cls-5{stroke:#fff;stroke-linecap:round;stroke-width:6.56px;}.cls-5{stroke-dasharray:0 16.75;}.cls-6{fill:#fff;}.cls-7{fill:#4093f7;}.cls-8{fill:#4092f4;}.cls-9{fill:#141414;}.cls-10{stroke:#000;}</style><linearGradient id="linear-gradient" x1="177.14" y1="101.55" x2="177.14" gradientUnits="userSpaceOnUse"><stop offset="0" stop-color="#fff" stop-opacity="0.5"/><stop offset="0.31" stop-color="#fff" stop-opacity="0.67"/><stop offset="0.6" stop-color="#fff" stop-opacity="0.8"/><stop offset="0.84" stop-color="#fff" stop-opacity="0.87"/><stop offset="1" stop-color="#fff" stop-opacity="0.9"/></linearGradient><linearGradient id="linear-gradient-2" x1="444.75" y1="101.55" x2="444.75" xlink:href="#linear-gradient"/><linearGradient id="linear-gradient-3" x1="713.16" y1="101.55" x2="713.16" xlink:href="#linear-gradient"/></defs><title>TIN-SUPPLY-CHAIN</title><rect class="cls-1" x="54.25" width="245.77" height="101.55"/><rect class="cls-2" x="321.86" width="245.77" height="101.55"/><rect class="cls-3" x="590.27" width="245.77" height="101.55"/><line class="cls-4" x1="57.01" y1="101.55" x2="57.01" y2="101.55"/><line class="cls-5" x1="73.77" y1="101.55" x2="886.36" y2="101.55"/><line class="cls-4" x1="894.74" y1="101.55" x2="894.74" y2="101.55"/><path class="cls-6" d="M41.73,121.48h2.21c2.39,0,3.93,1.19,3.93,3.88S46.33,129.3,44,129.3H41.73Zm2.1,6.4c1.33,0,2.23-.65,2.23-2.52s-.9-2.45-2.23-2.45H43.5v5Z" transform="translate(-41.73 -23.95)"/><path class="cls-6" d="M50.69,121.48H52.8l2.46,7.82H53.38l-1-4c-.21-.78-.42-1.7-.63-2.52h0c-.19.83-.4,1.74-.62,2.52l-1,4H48.23Zm-.84,4.59h3.76v1.37H49.85Z" transform="translate(-41.73 -23.95)"/><path class="cls-6" d="M57.23,126.51l-2.35-5h1.89l.7,1.8c.21.59.41,1.13.63,1.73h0c.22-.6.45-1.14.66-1.73l.7-1.8h1.85l-2.36,5v2.79H57.23Z" transform="translate(-41.73 -23.95)"/><path class="cls-6" d="M61.46,128.32l1-1.22a3.1,3.1,0,0,0,1.92.82c.74,0,1.1-.29,1.1-.75s-.44-.66-1.13-.94l-1-.43a2.28,2.28,0,0,1-1.58-2.13,2.53,2.53,0,0,1,2.79-2.33,3.64,3.64,0,0,1,2.51,1l-.89,1.12a2.53,2.53,0,0,0-1.62-.61c-.61,0-1,.25-1,.7s.51.65,1.19.92l1,.41A2.15,2.15,0,0,1,67.3,127c0,1.3-1.08,2.43-3,2.43A4.33,4.33,0,0,1,61.46,128.32Z" transform="translate(-41.73 -23.95)"/><path class="cls-7" d="M202.58,47.84h6.16c4.34,0,7.56,1.51,7.56,6,0,4.35-3.23,6.33-7.44,6.33h-2.81v7.19h-3.47Zm6,9.59c2.92,0,4.31-1.16,4.31-3.56s-1.52-3.26-4.43-3.26h-2.4v6.82Z" transform="translate(-41.73 -23.95)"/><path class="cls-7" d="M219,57.54c0-6.33,3.53-10.06,8.63-10.06s8.62,3.75,8.62,10.06-3.53,10.21-8.62,10.21S219,63.86,219,57.54Zm13.68,0c0-4.39-2-7-5-7s-5.06,2.66-5.06,7,2,7.2,5.06,7.2S232.63,61.93,232.63,57.54Z" transform="translate(-41.73 -23.95)"/><path class="cls-7" d="M158.39,78.1h11.82V81h-8.35v5.54H169v2.92h-7.1v8.17h-3.47Z" transform="translate(-41.73 -23.95)"/><path class="cls-7" d="M173,78.44a2.14,2.14,0,1,1,2.13,2A2,2,0,0,1,173,78.44Zm.39,4.52h3.45V97.65h-3.45Z" transform="translate(-41.73 -23.95)"/><path class="cls-7" d="M181.18,83H184l.26,2h.1a6.84,6.84,0,0,1,4.82-2.34c3.14,0,4.52,2.12,4.52,5.83v9.21h-3.45V88.88c0-2.41-.69-3.32-2.28-3.32-1.29,0-2.14.63-3.35,1.83V97.65h-3.44Z" transform="translate(-41.73 -23.95)"/><path class="cls-7" d="M197.13,93.7c0-3.14,2.61-4.78,8.63-5.43,0-1.58-.68-2.89-2.66-2.89A8.11,8.11,0,0,0,199,86.83l-1.27-2.3a11.45,11.45,0,0,1,6-1.92c3.67,0,5.48,2.26,5.48,6.34v8.7h-2.83L206.12,96H206a7.1,7.1,0,0,1-4.56,2A4.12,4.12,0,0,1,197.13,93.7Zm8.63,0v-3.3c-4,.51-5.31,1.55-5.31,3,0,1.3.89,1.86,2.12,1.86A4.6,4.6,0,0,0,205.76,93.71Z" transform="translate(-41.73 -23.95)"/><path class="cls-7" d="M213.35,83h2.82l.26,2h.1a6.84,6.84,0,0,1,4.82-2.34c3.14,0,4.52,2.12,4.52,5.83v9.21h-3.45V88.88c0-2.41-.69-3.32-2.28-3.32-1.29,0-2.14.63-3.35,1.83V97.65h-3.44Z" transform="translate(-41.73 -23.95)"/><path class="cls-7" d="M229.12,90.32c0-4.89,3.46-7.71,7.37-7.71a6.26,6.26,0,0,1,4.29,1.65l-1.68,2.23a3.57,3.57,0,0,0-2.44-1.07c-2.36,0-4,2-4,4.9s1.61,4.88,3.9,4.88a4.82,4.82,0,0,0,3-1.27L241,96.2A7.24,7.24,0,0,1,236.2,98C232.19,98,229.12,95.18,229.12,90.32Z" transform="translate(-41.73 -23.95)"/><path class="cls-7" d="M243.51,78.44a2.13,2.13,0,0,1,4.25,0,2.13,2.13,0,0,1-4.25,0ZM243.9,83h3.44V97.65H243.9Z" transform="translate(-41.73 -23.95)"/><path class="cls-7" d="M251.73,83h2.83l.26,2h.09a6.86,6.86,0,0,1,4.82-2.34c3.15,0,4.52,2.12,4.52,5.83v9.21h-3.44V88.88c0-2.41-.69-3.32-2.28-3.32-1.3,0-2.14.63-3.35,1.83V97.65h-3.45Z" transform="translate(-41.73 -23.95)"/><path class="cls-7" d="M267.47,100.31a3.75,3.75,0,0,1,2.12-3.13v-.12a2.8,2.8,0,0,1-1.33-2.45,3.55,3.55,0,0,1,1.63-2.74v-.12A4.87,4.87,0,0,1,268,87.88c0-3.37,2.73-5.27,5.8-5.27a6.77,6.77,0,0,1,2.18.35h5.24v2.56H278.5a3.91,3.91,0,0,1,.83,2.47c0,3.26-2.47,5-5.58,5a5.81,5.81,0,0,1-2-.39,1.67,1.67,0,0,0-.71,1.4c0,.83.6,1.33,2.38,1.33H276c3.51,0,5.37,1.09,5.37,3.62,0,2.9-3,5.18-7.83,5.18C270.08,104.14,267.47,102.88,267.47,100.31Zm10.62-.79c0-1.13-.91-1.47-2.59-1.47h-2a8.19,8.19,0,0,1-2-.2,2.43,2.43,0,0,0-1.13,1.94c0,1.34,1.43,2.11,3.74,2.11S278.09,100.79,278.09,99.52ZM276.3,87.88a2.57,2.57,0,1,0-5.1,0c0,1.86,1.14,3,2.55,3S276.3,89.74,276.3,87.88Z" transform="translate(-41.73 -23.95)"/><path class="cls-7" d="M376.87,47.84h3.47V67.39h-3.47Z" transform="translate(-41.73 -23.95)"/><path class="cls-7" d="M385,52.71h2.82l.26,2h.1A6.86,6.86,0,0,1,393,52.35c3.14,0,4.52,2.13,4.52,5.83v9.21h-3.45V58.63c0-2.42-.69-3.33-2.28-3.33-1.29,0-2.14.64-3.35,1.83V67.39H385Z" transform="translate(-41.73 -23.95)"/><path class="cls-7" d="M399.91,52.71h3.49l2.34,7.61c.4,1.45.83,3,1.24,4.43h.12c.41-1.47.84-3,1.24-4.43l2.33-7.61H414l-5,14.68h-4Z" transform="translate(-41.73 -23.95)"/><path class="cls-7" d="M415.39,60.06c0-4.89,3.33-7.71,7-7.71s7,2.82,7,7.71-3.32,7.69-7,7.69S415.39,64.93,415.39,60.06Zm10.43,0c0-2.94-1.29-4.9-3.44-4.9s-3.45,2-3.45,4.9,1.29,4.88,3.45,4.88S425.82,63,425.82,60.06Z" transform="translate(-41.73 -23.95)"/><path class="cls-7" d="M432.38,48.19a2.14,2.14,0,1,1,2.13,2A2,2,0,0,1,432.38,48.19Zm.4,4.52h3.44V67.39h-3.44Z" transform="translate(-41.73 -23.95)"/><path class="cls-7" d="M439.64,60.06c0-4.89,3.46-7.71,7.37-7.71A6.31,6.31,0,0,1,451.3,54l-1.68,2.23a3.56,3.56,0,0,0-2.43-1.07c-2.37,0-4,2-4,4.9s1.61,4.88,3.9,4.88a4.77,4.77,0,0,0,3-1.27l1.4,2.27a7.24,7.24,0,0,1-4.79,1.81C442.71,67.75,439.64,64.93,439.64,60.06Z" transform="translate(-41.73 -23.95)"/><path class="cls-7" d="M452.74,60.06c0-4.77,3.31-7.71,6.76-7.71,4,0,6.07,2.87,6.07,7a9.56,9.56,0,0,1-.15,1.67H456.1a4.17,4.17,0,0,0,4.32,4.09A6.24,6.24,0,0,0,463.83,64L465,66.16a9.13,9.13,0,0,1-5,1.59C455.92,67.75,452.74,64.9,452.74,60.06Zm9.85-1.41c0-2.26-1-3.64-3-3.64-1.71,0-3.22,1.28-3.52,3.64Z" transform="translate(-41.73 -23.95)"/><path class="cls-7" d="M475.14,47.84H487v2.92h-8.34v5.55h7.1v2.91h-7.1v8.17h-3.47Z" transform="translate(-41.73 -23.95)"/><path class="cls-7" d="M489.69,48.19a2.14,2.14,0,1,1,2.13,2A2,2,0,0,1,489.69,48.19Zm.4,4.52h3.44V67.39h-3.44Z" transform="translate(-41.73 -23.95)"/><path class="cls-7" d="M497.92,52.71h2.82l.27,2h.09a6.86,6.86,0,0,1,4.82-2.34c3.15,0,4.52,2.13,4.52,5.83v9.21H507V58.63c0-2.42-.7-3.33-2.29-3.33-1.29,0-2.14.64-3.34,1.83V67.39h-3.45Z" transform="translate(-41.73 -23.95)"/><path class="cls-7" d="M513.88,63.44c0-3.14,2.6-4.78,8.63-5.42,0-1.58-.68-2.9-2.67-2.9a8.08,8.08,0,0,0-4.12,1.45l-1.27-2.3a11.47,11.47,0,0,1,6-1.92c3.67,0,5.47,2.26,5.47,6.35v8.69h-2.82l-.26-1.63h-.1a7.06,7.06,0,0,1-4.55,2A4.12,4.12,0,0,1,513.88,63.44Zm8.63,0v-3.3c-4,.5-5.31,1.54-5.31,3,0,1.3.88,1.87,2.12,1.87A4.66,4.66,0,0,0,522.51,63.46Z" transform="translate(-41.73 -23.95)"/><path class="cls-7" d="M530.09,52.71h2.82l.27,2h.09a6.86,6.86,0,0,1,4.82-2.34c3.15,0,4.52,2.13,4.52,5.83v9.21h-3.44V58.63c0-2.42-.7-3.33-2.29-3.33-1.29,0-2.14.64-3.34,1.83V67.39h-3.45Z" transform="translate(-41.73 -23.95)"/><path class="cls-7" d="M545.87,60.06c0-4.89,3.45-7.71,7.36-7.71A6.27,6.27,0,0,1,557.52,54l-1.67,2.23a3.61,3.61,0,0,0-2.44-1.07c-2.37,0-4,2-4,4.9s1.61,4.88,3.89,4.88a4.82,4.82,0,0,0,3-1.27l1.4,2.27a7.26,7.26,0,0,1-4.8,1.81C548.94,67.75,545.87,64.93,545.87,60.06Z" transform="translate(-41.73 -23.95)"/><path class="cls-7" d="M560.25,48.19a2.14,2.14,0,1,1,2.13,2A2,2,0,0,1,560.25,48.19Zm.4,4.52h3.44V67.39h-3.44Z" transform="translate(-41.73 -23.95)"/><path class="cls-7" d="M568.48,52.71h2.82l.27,2h.09a6.86,6.86,0,0,1,4.82-2.34c3.14,0,4.52,2.13,4.52,5.83v9.21h-3.44V58.63c0-2.42-.7-3.33-2.29-3.33-1.29,0-2.14.64-3.35,1.83V67.39h-3.44Z" transform="translate(-41.73 -23.95)"/><path class="cls-7" d="M584.22,70.06a3.76,3.76,0,0,1,2.11-3.14V66.8A2.78,2.78,0,0,1,585,64.35a3.56,3.56,0,0,1,1.62-2.74V61.5a4.93,4.93,0,0,1-1.93-3.88c0-3.37,2.72-5.27,5.8-5.27a6.44,6.44,0,0,1,2.17.36h5.25v2.56h-2.68a3.83,3.83,0,0,1,.84,2.46c0,3.26-2.48,5-5.58,5a5.54,5.54,0,0,1-2-.39,1.71,1.71,0,0,0-.72,1.41c0,.82.6,1.32,2.38,1.32h2.62c3.5,0,5.37,1.09,5.37,3.63,0,2.89-3,5.17-7.83,5.17C586.82,73.88,584.22,72.63,584.22,70.06Zm10.62-.79c0-1.14-.91-1.47-2.59-1.47h-2a7.6,7.6,0,0,1-2-.21,2.45,2.45,0,0,0-1.14,1.94c0,1.34,1.44,2.12,3.74,2.12S594.84,70.53,594.84,69.27ZM593,57.62a2.57,2.57,0,1,0-5.09,0c0,1.87,1.13,3,2.55,3S593,59.49,593,57.62Z" transform="translate(-41.73 -23.95)"/><path class="cls-7" d="M380.64,89.34a25.14,25.14,0,0,1,3.94-13.62l2.16.93a26.1,26.1,0,0,0,0,25.37l-2.16.94A25.17,25.17,0,0,1,380.64,89.34Z" transform="translate(-41.73 -23.95)"/><path class="cls-7" d="M390.52,78.1h6.15c4.34,0,7.56,1.5,7.56,6,0,4.36-3.23,6.34-7.44,6.34H394v7.19h-3.46Zm6,9.59c2.91,0,4.3-1.16,4.3-3.57s-1.52-3.25-4.42-3.25H394v6.82Z" transform="translate(-41.73 -23.95)"/><path class="cls-7" d="M407.62,83h2.82l.26,2.62h.1c1-1.91,2.6-3,4.17-3a3.77,3.77,0,0,1,1.66.29l-.6,3a5,5,0,0,0-1.5-.24c-1.17,0-2.59.81-3.47,3v9h-3.44Z" transform="translate(-41.73 -23.95)"/><path class="cls-7" d="M417.5,90.32c0-4.77,3.31-7.71,6.77-7.71,4,0,6.06,2.87,6.06,7a8.75,8.75,0,0,1-.15,1.67h-9.32a4.18,4.18,0,0,0,4.33,4.09,6.29,6.29,0,0,0,3.41-1.06l1.17,2.14a9.16,9.16,0,0,1-5,1.59C420.68,98,417.5,95.16,417.5,90.32Zm9.85-1.41c0-2.26-1-3.64-3-3.64-1.71,0-3.22,1.28-3.52,3.64Z" transform="translate(-41.73 -23.95)"/><path class="cls-7" d="M433,88.86h7.1v2.51H433Z" transform="translate(-41.73 -23.95)"/><path class="cls-7" d="M442.76,93.7c0-3.14,2.61-4.78,8.64-5.43,0-1.58-.69-2.89-2.67-2.89a8.15,8.15,0,0,0-4.13,1.45l-1.26-2.3a11.38,11.38,0,0,1,6-1.92c3.67,0,5.48,2.26,5.48,6.34v8.7H452L451.76,96h-.1a7.08,7.08,0,0,1-4.56,2A4.12,4.12,0,0,1,442.76,93.7Zm8.64,0v-3.3c-4,.51-5.31,1.55-5.31,3,0,1.3.88,1.86,2.11,1.86A4.62,4.62,0,0,0,451.4,93.71Z" transform="translate(-41.73 -23.95)"/><path class="cls-7" d="M458,90.32c0-4.89,3.46-7.71,7.37-7.71a6.24,6.24,0,0,1,4.29,1.65L468,86.49a3.61,3.61,0,0,0-2.44-1.07c-2.37,0-4,2-4,4.9s1.61,4.88,3.9,4.88a4.87,4.87,0,0,0,3-1.27l1.39,2.27A7.24,7.24,0,0,1,465.09,98C461.08,98,458,95.18,458,90.32Z" transform="translate(-41.73 -23.95)"/><path class="cls-7" d="M471.11,90.32c0-4.89,3.45-7.71,7.36-7.71a6.22,6.22,0,0,1,4.29,1.65l-1.67,2.23a3.61,3.61,0,0,0-2.44-1.07c-2.37,0-4,2-4,4.9s1.61,4.88,3.89,4.88a4.87,4.87,0,0,0,3-1.27L483,96.2a7.26,7.26,0,0,1-4.8,1.81C474.18,98,471.11,95.18,471.11,90.32Z" transform="translate(-41.73 -23.95)"/><path class="cls-7" d="M484.2,90.32c0-4.77,3.31-7.71,6.77-7.71,4,0,6.06,2.87,6.06,7a8.75,8.75,0,0,1-.15,1.67h-9.32a4.18,4.18,0,0,0,4.33,4.09,6.26,6.26,0,0,0,3.41-1.06l1.17,2.14a9.15,9.15,0,0,1-5,1.59C487.38,98,484.2,95.16,484.2,90.32Zm9.85-1.41c0-2.26-1-3.64-3-3.64-1.71,0-3.22,1.28-3.51,3.64Z" transform="translate(-41.73 -23.95)"/><path class="cls-7" d="M500.33,83h2.82l.26,1.57h.1a7.12,7.12,0,0,1,4.42-1.92c3.67,0,5.78,2.94,5.78,7.47,0,5-3,7.93-6.27,7.93a5.88,5.88,0,0,1-3.78-1.62l.11,2.44v4.63h-3.44Zm9.84,7.15c0-2.93-1-4.66-3.19-4.66a4.67,4.67,0,0,0-3.21,1.65v6.84a4.55,4.55,0,0,0,2.94,1.22C508.67,95.16,510.17,93.44,510.17,90.11Z" transform="translate(-41.73 -23.95)"/><path class="cls-7" d="M517.05,92.7v-7H515V83.12l2.28-.16.4-4h2.86v4h3.74V85.7h-3.74v7c0,1.73.67,2.58,2.08,2.58a4.55,4.55,0,0,0,1.53-.34l.59,2.54a9.64,9.64,0,0,1-3,.54C518.3,98,517.05,95.87,517.05,92.7Z" transform="translate(-41.73 -23.95)"/><path class="cls-7" d="M525.91,93.7c0-3.14,2.61-4.78,8.63-5.43,0-1.58-.68-2.89-2.66-2.89a8.11,8.11,0,0,0-4.13,1.45l-1.27-2.3a11.45,11.45,0,0,1,6-1.92c3.67,0,5.48,2.26,5.48,6.34v8.7h-2.83L534.9,96h-.1a7.06,7.06,0,0,1-4.55,2A4.12,4.12,0,0,1,525.91,93.7Zm8.63,0v-3.3c-4,.51-5.31,1.55-5.31,3,0,1.3.89,1.86,2.12,1.86A4.6,4.6,0,0,0,534.54,93.71Z" transform="translate(-41.73 -23.95)"/><path class="cls-7" d="M542.13,83H545l.26,2h.09a6.88,6.88,0,0,1,4.82-2.34c3.15,0,4.52,2.12,4.52,5.83v9.21H551.2V88.88c0-2.41-.69-3.32-2.28-3.32-1.29,0-2.14.63-3.35,1.83V97.65h-3.44Z" transform="translate(-41.73 -23.95)"/><path class="cls-7" d="M557.9,90.32c0-4.89,3.45-7.71,7.36-7.71a6.27,6.27,0,0,1,4.3,1.65l-1.68,2.23a3.59,3.59,0,0,0-2.44-1.07c-2.36,0-4,2-4,4.9s1.61,4.88,3.9,4.88a4.84,4.84,0,0,0,3-1.27l1.4,2.27A7.24,7.24,0,0,1,565,98C561,98,557.9,95.18,557.9,90.32Z" transform="translate(-41.73 -23.95)"/><path class="cls-7" d="M571,90.32c0-4.77,3.32-7.71,6.77-7.71,4,0,6.06,2.87,6.06,7a8.75,8.75,0,0,1-.15,1.67h-9.32a4.18,4.18,0,0,0,4.33,4.09,6.26,6.26,0,0,0,3.41-1.06l1.17,2.14a9.15,9.15,0,0,1-5,1.59C574.17,98,571,95.16,571,90.32Zm9.86-1.41c0-2.26-1-3.64-3-3.64-1.71,0-3.21,1.28-3.51,3.64Z" transform="translate(-41.73 -23.95)"/><path class="cls-7" d="M586.22,102a26.1,26.1,0,0,0,0-25.37l2.16-.93a25.51,25.51,0,0,1,0,27.24Z" transform="translate(-41.73 -23.95)"/><path class="cls-7" d="M664.81,47.84H671c4.34,0,7.56,1.51,7.56,6,0,4.35-3.23,6.33-7.44,6.33h-2.81v7.19h-3.47Zm6,9.59c2.92,0,4.31-1.16,4.31-3.56s-1.52-3.26-4.43-3.26h-2.4v6.82Z" transform="translate(-41.73 -23.95)"/><path class="cls-7" d="M680,63.44c0-3.14,2.61-4.78,8.63-5.42,0-1.58-.68-2.9-2.66-2.9a8.11,8.11,0,0,0-4.13,1.45l-1.27-2.3a11.53,11.53,0,0,1,6-1.92c3.67,0,5.48,2.26,5.48,6.35v8.69h-2.83L689,65.76h-.1a7.06,7.06,0,0,1-4.55,2A4.12,4.12,0,0,1,680,63.44Zm8.63,0v-3.3c-4,.5-5.31,1.54-5.31,3,0,1.3.89,1.87,2.12,1.87A4.64,4.64,0,0,0,688.62,63.46Z" transform="translate(-41.73 -23.95)"/><path class="cls-7" d="M695.26,73.12l.63-2.67a4.34,4.34,0,0,0,1.06.2c1.54,0,2.44-1.05,2.93-2.52l.27-.92-5.77-14.5h3.49l2.53,7.19c.44,1.31.86,2.75,1.29,4.15h.12c.37-1.36.74-2.81,1.13-4.15l2.19-7.19h3.32l-5.31,15.35c-1.22,3.31-2.76,5.36-6,5.36A5.71,5.71,0,0,1,695.26,73.12Z" transform="translate(-41.73 -23.95)"/><path class="cls-7" d="M709.62,63.44c0-3.14,2.6-4.78,8.63-5.42,0-1.58-.68-2.9-2.67-2.9a8.11,8.11,0,0,0-4.12,1.45l-1.27-2.3a11.53,11.53,0,0,1,6-1.92c3.67,0,5.47,2.26,5.47,6.35v8.69h-2.82l-.26-1.63h-.1a7.06,7.06,0,0,1-4.55,2A4.12,4.12,0,0,1,709.62,63.44Zm8.63,0v-3.3c-4,.5-5.31,1.54-5.31,3,0,1.3.89,1.87,2.12,1.87A4.66,4.66,0,0,0,718.25,63.46Z" transform="translate(-41.73 -23.95)"/><path class="cls-7" d="M728.94,65.85h-.09l-.3,1.54h-2.72V46.27h3.45v5.47l-.1,2.44a6.65,6.65,0,0,1,4.24-1.83c3.67,0,5.79,2.94,5.79,7.45,0,5-3,8-6.26,8A5.9,5.9,0,0,1,728.94,65.85Zm6.73-6c0-2.93-.95-4.67-3.19-4.67a4.61,4.61,0,0,0-3.2,1.65v6.84a4.51,4.51,0,0,0,2.94,1.22C734.18,64.9,735.67,63.18,735.67,59.86Z" transform="translate(-41.73 -23.95)"/><path class="cls-7" d="M742.49,63.61V46.27h3.44V63.79c0,.85.38,1.15.74,1.15a2,2,0,0,0,.54-.06l.43,2.57a4.77,4.77,0,0,1-1.82.3C743.38,67.75,742.49,66.17,742.49,63.61Z" transform="translate(-41.73 -23.95)"/><path class="cls-7" d="M749.62,60.06c0-4.77,3.31-7.71,6.77-7.71,4,0,6.06,2.87,6.06,7A8.67,8.67,0,0,1,762.3,61H753a4.18,4.18,0,0,0,4.33,4.09A6.29,6.29,0,0,0,760.72,64l1.17,2.14a9.16,9.16,0,0,1-5,1.59C752.8,67.75,749.62,64.9,749.62,60.06Zm9.85-1.41c0-2.26-1-3.64-3-3.64-1.71,0-3.22,1.28-3.52,3.64Z" transform="translate(-41.73 -23.95)"/><path class="cls-7" d="M764.29,65.7l1.6-2.18a6.51,6.51,0,0,0,4.05,1.63c1.61,0,2.36-.75,2.36-1.75,0-1.24-1.59-1.79-3.16-2.38-1.92-.73-4.12-1.83-4.12-4.28s2.05-4.39,5.34-4.39a7.87,7.87,0,0,1,4.88,1.76l-1.58,2.11a5.5,5.5,0,0,0-3.21-1.28c-1.48,0-2.18.71-2.18,1.63,0,1.16,1.48,1.6,3.07,2.19,2,.74,4.21,1.69,4.21,4.43,0,2.53-2,4.56-5.7,4.56A9.13,9.13,0,0,1,764.29,65.7Z" transform="translate(-41.73 -23.95)"/><path class="cls-7" d="M789.75,46.17h2.34l-7,26h-2.33Z" transform="translate(-41.73 -23.95)"/><path class="cls-7" d="M799.84,64.88l2-2.37A7.68,7.68,0,0,0,807,64.74c2.2,0,3.41-1,3.41-2.53s-1.26-2.12-3-2.87l-2.67-1.16c-1.93-.8-3.95-2.33-3.95-5.19,0-3.11,2.75-5.51,6.56-5.51a8.62,8.62,0,0,1,6,2.49l-1.78,2.21a6.33,6.33,0,0,0-4.25-1.69c-1.85,0-3.06.87-3.06,2.3s1.49,2.11,3.11,2.77l2.64,1.1c2.32,1,3.95,2.44,3.95,5.28,0,3.17-2.63,5.81-7,5.81A10,10,0,0,1,799.84,64.88Z" transform="translate(-41.73 -23.95)"/><path class="cls-7" d="M816.44,57.68c0-6.4,4-10.2,9-10.2A7.74,7.74,0,0,1,831,50l-1.86,2.23a5.1,5.1,0,0,0-3.7-1.7c-3.18,0-5.47,2.7-5.47,7.08s2.11,7.17,5.38,7.17a5.53,5.53,0,0,0,4.18-2l1.85,2.17a7.8,7.8,0,0,1-6.16,2.85C820.34,67.75,816.44,64.15,816.44,57.68Z" transform="translate(-41.73 -23.95)"/><path class="cls-7" d="M834.69,47.84H846.5v2.92h-8.34v5.55h7.1v2.91h-7.1v8.17h-3.47Z" transform="translate(-41.73 -23.95)"/><path class="cls-7" d="M694.41,78.1h11.82V81h-8.35v5.54H705v2.92h-7.1v8.17h-3.47Z" transform="translate(-41.73 -23.95)"/><path class="cls-7" d="M709,78.44a2.13,2.13,0,0,1,4.25,0,2.13,2.13,0,0,1-4.25,0Zm.39,4.52h3.44V97.65h-3.44Z" transform="translate(-41.73 -23.95)"/><path class="cls-7" d="M717.19,83H720l.26,2h.09a6.86,6.86,0,0,1,4.82-2.34c3.15,0,4.52,2.12,4.52,5.83v9.21h-3.44V88.88c0-2.41-.69-3.32-2.28-3.32-1.3,0-2.15.63-3.35,1.83V97.65h-3.45Z" transform="translate(-41.73 -23.95)"/><path class="cls-7" d="M733.15,93.7c0-3.14,2.6-4.78,8.63-5.43,0-1.58-.68-2.89-2.67-2.89A8.08,8.08,0,0,0,735,86.83l-1.27-2.3a11.45,11.45,0,0,1,6-1.92c3.67,0,5.47,2.26,5.47,6.34v8.7H742.4L742.14,96H742a7.06,7.06,0,0,1-4.55,2A4.12,4.12,0,0,1,733.15,93.7Zm8.63,0v-3.3c-4,.51-5.31,1.55-5.31,3,0,1.3.89,1.86,2.12,1.86A4.62,4.62,0,0,0,741.78,93.71Z" transform="translate(-41.73 -23.95)"/><path class="cls-7" d="M749.36,83h2.82l.27,2h.09a6.86,6.86,0,0,1,4.82-2.34c3.15,0,4.52,2.12,4.52,5.83v9.21h-3.44V88.88c0-2.41-.7-3.32-2.29-3.32-1.29,0-2.14.63-3.34,1.83V97.65h-3.45Z" transform="translate(-41.73 -23.95)"/><path class="cls-7" d="M765.14,90.32c0-4.89,3.45-7.71,7.36-7.71a6.27,6.27,0,0,1,4.3,1.65l-1.68,2.23a3.61,3.61,0,0,0-2.44-1.07c-2.37,0-4,2-4,4.9s1.61,4.88,3.89,4.88a4.87,4.87,0,0,0,3-1.27L777,96.2A7.24,7.24,0,0,1,772.22,98C768.21,98,765.14,95.18,765.14,90.32Z" transform="translate(-41.73 -23.95)"/><path class="cls-7" d="M779.52,78.44a2.14,2.14,0,1,1,2.13,2A2,2,0,0,1,779.52,78.44Zm.4,4.52h3.44V97.65h-3.44Z" transform="translate(-41.73 -23.95)"/><path class="cls-7" d="M787.75,83h2.82l.27,2h.09a6.86,6.86,0,0,1,4.82-2.34c3.15,0,4.52,2.12,4.52,5.83v9.21h-3.44V88.88c0-2.41-.7-3.32-2.29-3.32-1.29,0-2.14.63-3.34,1.83V97.65h-3.45Z" transform="translate(-41.73 -23.95)"/><path class="cls-7" d="M803.49,100.31a3.75,3.75,0,0,1,2.12-3.13v-.12a2.78,2.78,0,0,1-1.33-2.45,3.57,3.57,0,0,1,1.62-2.74v-.12A4.89,4.89,0,0,1,804,87.88c0-3.37,2.72-5.27,5.8-5.27a6.71,6.71,0,0,1,2.17.35h5.25v2.56h-2.68a3.86,3.86,0,0,1,.84,2.47c0,3.26-2.47,5-5.58,5a5.76,5.76,0,0,1-2-.39,1.67,1.67,0,0,0-.72,1.4c0,.83.6,1.33,2.38,1.33h2.62c3.51,0,5.37,1.09,5.37,3.62,0,2.9-3,5.18-7.83,5.18C806.1,104.14,803.49,102.88,803.49,100.31Zm10.62-.79c0-1.13-.91-1.47-2.59-1.47h-2a8.11,8.11,0,0,1-2-.2,2.45,2.45,0,0,0-1.14,1.94c0,1.34,1.44,2.11,3.75,2.11S814.11,100.79,814.11,99.52Zm-1.8-11.64a2.57,2.57,0,1,0-5.09,0c0,1.86,1.14,3,2.55,3S812.31,89.74,812.31,87.88Z" transform="translate(-41.73 -23.95)"/><circle class="cls-6" cx="57.01" cy="100.83" r="25.48"/><path class="cls-8" d="M91.48,126.45c0-6.07,2.54-9.17,6.38-9.17s6.38,3.12,6.38,9.17-2.55,9.34-6.38,9.34S91.48,132.52,91.48,126.45Zm8.85,0c0-4.86-1.08-6-2.47-6s-2.48,1.12-2.48,6,1.09,6.15,2.48,6.15S100.33,131.32,100.33,126.45Z" transform="translate(-41.73 -23.95)"/><circle class="cls-6" cx="310.77" cy="101.76" r="25.48"/><path class="cls-8" d="M346.06,126.07c0-1.13.11-2.86.16-4h-.11c-.45,1-.95,2-1.46,3l-2.34,3.9H352v3.14H338.35v-2.85l6.51-10.73h5.06v17.84h-3.86Z" transform="translate(-41.73 -23.95)"/><path class="cls-8" d="M353,134.22l1.86-2.61a5.76,5.76,0,0,0,3.85,1.78c1.83,0,3-1,3-2.8a2.57,2.57,0,0,0-2.8-2.75,4.15,4.15,0,0,0-2.64.91l-1.84-1.19.49-9H365V122h-6.55l-.29,3.35a4.63,4.63,0,0,1,2-.41c3.08,0,5.68,1.74,5.68,5.53,0,4-3.06,6.24-6.55,6.24A8.52,8.52,0,0,1,353,134.22Z" transform="translate(-41.73 -23.95)"/><circle class="cls-6" cx="559.38" cy="101.76" r="25.48"/><path class="cls-8" d="M587.57,127.88c0-6.67,3.46-9.67,7.21-9.67a7.19,7.19,0,0,1,5.22,2.15l-2.19,2.47a4,4,0,0,0-2.76-1.29c-2.08,0-3.71,1.59-3.71,6.34,0,4.43,1.39,5.74,2.89,5.74,1.22,0,2.25-.86,2.25-2.87s-1-2.6-2.34-2.6a3.28,3.28,0,0,0-2.78,1.92l-.18-2.7a5,5,0,0,1,3.75-2.14c3.06,0,5.32,1.74,5.32,5.52a5.74,5.74,0,0,1-5.93,6C590.86,136.73,587.57,134.14,587.57,127.88Z" transform="translate(-41.73 -23.95)"/><path class="cls-8" d="M602,127.39c0-6.07,2.55-9.18,6.38-9.18s6.39,3.13,6.39,9.18-2.55,9.34-6.39,9.34S602,133.46,602,127.39Zm8.86,0c0-4.87-1.09-6-2.48-6s-2.47,1.11-2.47,6,1.08,6.14,2.47,6.14S610.87,132.26,610.87,127.39Z" transform="translate(-41.73 -23.95)"/><circle class="cls-6" cx="830.57" cy="101.76" r="25.48"/><path class="cls-8" d="M852.29,133.06h3.9V122.73h-3.35v-2.56a12.1,12.1,0,0,0,4.43-1.62h3.05v14.51h3.34v3.33H852.29Z" transform="translate(-41.73 -23.95)"/><path class="cls-8" d="M865.93,134c4.54-4.29,7.74-7.34,7.74-9.89a2.38,2.38,0,0,0-2.53-2.68,4.6,4.6,0,0,0-3.17,1.82L865.73,121a7.54,7.54,0,0,1,6-2.83c3.51,0,5.91,2.25,5.91,5.69,0,3-2.8,6.2-5.72,9.22.92-.1,2.16-.2,3-.2h3.6v3.47H865.93Z" transform="translate(-41.73 -23.95)"/><path class="cls-8" d="M880.48,127.39c0-6.07,2.55-9.18,6.38-9.18s6.38,3.13,6.38,9.18-2.55,9.34-6.38,9.34S880.48,133.46,880.48,127.39Zm8.85,0c0-4.87-1.08-6-2.47-6s-2.47,1.11-2.47,6,1.08,6.14,2.47,6.14S889.33,132.26,889.33,127.39Z" transform="translate(-41.73 -23.95)"/><path class="cls-9" d="M280.43,210h1.51l3.55,10.5h-1.41l-1.84-5.87c-.37-1.17-.71-2.32-1.05-3.54h-.06c-.33,1.22-.66,2.37-1,3.54l-1.85,5.87h-1.36Zm-1.69,6.23h4.84v1.07h-4.84Z" transform="translate(-41.73 -23.95)"/><path class="cls-9" d="M286.45,210.27a.91.91,0,0,1,1.82,0,.91.91,0,0,1-1.82,0Zm.24,2.45H288v7.78h-1.32Z" transform="translate(-41.73 -23.95)"/><path class="cls-9" d="M290.47,212.72h1.08l.12,1.13h0a3.43,3.43,0,0,1,2.42-1.32,2.06,2.06,0,0,1,2.15,1.48,3.69,3.69,0,0,1,2.56-1.48c1.6,0,2.37,1.06,2.37,3v4.93H299.9v-4.76c0-1.45-.46-2.07-1.45-2.07a2.85,2.85,0,0,0-1.95,1.2v5.63h-1.32v-4.76c0-1.45-.46-2.07-1.45-2.07a2.91,2.91,0,0,0-2,1.2v5.63h-1.31Z" transform="translate(-41.73 -23.95)"/><path class="cls-9" d="M306.84,218.1v-4.31h-1.16v-1l1.22-.08.16-2.18h1.1v2.18h2.11v1.07h-2.11v4.33c0,.95.3,1.5,1.2,1.5a2.52,2.52,0,0,0,.89-.21l.25,1a4.67,4.67,0,0,1-1.44.29C307.4,220.69,306.84,219.64,306.84,218.1Z" transform="translate(-41.73 -23.95)"/><path class="cls-9" d="M311.06,216.62c0-2.6,1.7-4.09,3.6-4.09s3.61,1.49,3.61,4.09-1.7,4.07-3.61,4.07S311.06,219.2,311.06,216.62Zm5.85,0c0-1.78-.91-3-2.25-3s-2.24,1.22-2.24,3,.9,3,2.24,3S316.91,218.4,316.91,216.62Z" transform="translate(-41.73 -23.95)"/><path class="cls-9" d="M324.34,219.7h0l-.13.8h-1.05V209.1h1.32v3.12l-.05,1.39a4,4,0,0,1,2.45-1.08c2,0,3.09,1.56,3.09,4,0,2.65-1.59,4.2-3.37,4.2A3.5,3.5,0,0,1,324.34,219.7Zm4.23-3.2c0-1.71-.59-2.86-2.05-2.86a3.16,3.16,0,0,0-2.08,1.06v4.08a3,3,0,0,0,1.89.8C327.62,219.58,328.57,218.43,328.57,216.5Z" transform="translate(-41.73 -23.95)"/><path class="cls-9" d="M331.23,216.62c0-2.53,1.71-4.09,3.5-4.09,2,0,3.1,1.42,3.1,3.65a4,4,0,0,1-.06.75h-5.24a2.59,2.59,0,0,0,2.59,2.71,3.36,3.36,0,0,0,1.93-.62l.48.87a4.64,4.64,0,0,1-2.57.8C332.88,220.69,331.23,219.18,331.23,216.62Zm5.44-.64c0-1.56-.7-2.4-1.92-2.4a2.38,2.38,0,0,0-2.23,2.4Z" transform="translate(-41.73 -23.95)"/><path class="cls-9" d="M339.66,218.1v-4.31H338.5v-1l1.22-.08.15-2.18H341v2.18h2.11v1.07H341v4.33c0,.95.31,1.5,1.21,1.5a2.46,2.46,0,0,0,.88-.21l.26,1a4.67,4.67,0,0,1-1.45.29C340.22,220.69,339.66,219.64,339.66,218.1Z" transform="translate(-41.73 -23.95)"/><path class="cls-9" d="M344.58,218.1v-4.31h-1.15v-1l1.21-.08.16-2.18h1.1v2.18H348v1.07H345.9v4.33c0,.95.31,1.5,1.2,1.5a2.47,2.47,0,0,0,.89-.21l.26,1a4.67,4.67,0,0,1-1.45.29C345.15,220.69,344.58,219.64,344.58,218.1Z" transform="translate(-41.73 -23.95)"/><path class="cls-9" d="M348.8,216.62c0-2.53,1.71-4.09,3.5-4.09,2,0,3.1,1.42,3.1,3.65a4,4,0,0,1-.06.75H350.1a2.59,2.59,0,0,0,2.59,2.71,3.39,3.39,0,0,0,1.93-.62l.47.87a4.6,4.6,0,0,1-2.56.8C350.45,220.69,348.8,219.18,348.8,216.62Zm5.44-.64c0-1.56-.7-2.4-1.92-2.4a2.38,2.38,0,0,0-2.23,2.4Z" transform="translate(-41.73 -23.95)"/><path class="cls-9" d="M357.15,212.72h1.09l.11,1.42h0a2.66,2.66,0,0,1,2.21-1.61,1.76,1.76,0,0,1,.83.16l-.25,1.15a2.22,2.22,0,0,0-.75-.13c-.66,0-1.44.48-2,1.79v5h-1.32Z" transform="translate(-41.73 -23.95)"/><path class="cls-9" d="M364.72,219.61l.65-.86a3.55,3.55,0,0,0,2.3.92c1,0,1.53-.55,1.53-1.21s-.92-1.16-1.78-1.48c-1.09-.39-2.32-.93-2.32-2.24s1-2.21,2.68-2.21a3.92,3.92,0,0,1,2.42.87l-.63.85a2.88,2.88,0,0,0-1.77-.7c-1,0-1.44.53-1.44,1.12,0,.74.85,1,1.73,1.35,1.12.42,2.37.88,2.37,2.36,0,1.26-1,2.31-2.83,2.31A4.69,4.69,0,0,1,364.72,219.61Z" transform="translate(-41.73 -23.95)"/><path class="cls-9" d="M371.55,216.62c0-2.53,1.71-4.09,3.5-4.09,2,0,3.1,1.42,3.1,3.65a4,4,0,0,1-.06.75h-5.24a2.59,2.59,0,0,0,2.59,2.71,3.42,3.42,0,0,0,1.94-.62l.47.87a4.64,4.64,0,0,1-2.57.8C373.2,220.69,371.55,219.18,371.55,216.62ZM377,216c0-1.56-.7-2.4-1.92-2.4a2.38,2.38,0,0,0-2.23,2.4Z" transform="translate(-41.73 -23.95)"/><path class="cls-9" d="M379.91,212.72H381l.11,1.42h0a2.66,2.66,0,0,1,2.21-1.61,1.73,1.73,0,0,1,.83.16l-.25,1.15a2.22,2.22,0,0,0-.75-.13c-.66,0-1.44.48-2,1.79v5h-1.31Z" transform="translate(-41.73 -23.95)"/><path class="cls-9" d="M384.58,212.72h1.35l1.47,4.42c.24.76.49,1.55.72,2.3h.07c.23-.75.48-1.54.71-2.3l1.48-4.42h1.29l-2.76,7.78h-1.53Z" transform="translate(-41.73 -23.95)"/><path class="cls-9" d="M392.37,216.62c0-2.53,1.7-4.09,3.49-4.09,2,0,3.11,1.42,3.11,3.65a4,4,0,0,1-.06.75h-5.24a2.58,2.58,0,0,0,2.58,2.71,3.42,3.42,0,0,0,1.94-.62l.47.87a4.61,4.61,0,0,1-2.57.8C394,220.69,392.37,219.18,392.37,216.62Zm5.44-.64c0-1.56-.7-2.4-1.92-2.4a2.37,2.37,0,0,0-2.23,2.4Z" transform="translate(-41.73 -23.95)"/><path class="cls-9" d="M404,218.1v-4.31h-1.16v-1l1.22-.08.16-2.18h1.1v2.18h2.11v1.07h-2.11v4.33c0,.95.3,1.5,1.2,1.5a2.52,2.52,0,0,0,.89-.21l.25,1a4.61,4.61,0,0,1-1.44.29C404.55,220.69,404,219.64,404,218.1Z" transform="translate(-41.73 -23.95)"/><path class="cls-9" d="M409,209.1h1.32v3.12l-.05,1.6a3.67,3.67,0,0,1,2.58-1.29c1.64,0,2.38,1.06,2.38,3v4.93h-1.32v-4.76c0-1.45-.44-2.07-1.47-2.07a3,3,0,0,0-2.12,1.2v5.63H409Z" transform="translate(-41.73 -23.95)"/><path class="cls-9" d="M417,216.62c0-2.53,1.7-4.09,3.49-4.09,2,0,3.11,1.42,3.11,3.65a5.06,5.06,0,0,1-.06.75h-5.24a2.58,2.58,0,0,0,2.58,2.71,3.42,3.42,0,0,0,1.94-.62l.47.87a4.61,4.61,0,0,1-2.57.8C418.63,220.69,417,219.18,417,216.62Zm5.43-.64c0-1.56-.7-2.4-1.91-2.4a2.38,2.38,0,0,0-2.24,2.4Z" transform="translate(-41.73 -23.95)"/><path class="cls-9" d="M268.91,232l1.11-.08h2.91V233h-4Zm1-1.31c0-1.58.72-2.58,2.28-2.58a3.66,3.66,0,0,1,1.3.26l-.28,1a2.11,2.11,0,0,0-.88-.2c-.74,0-1.1.51-1.1,1.52v9H270Z" transform="translate(-41.73 -23.95)"/><path class="cls-9" d="M274,229.47a.91.91,0,0,1,1.82,0,.91.91,0,0,1-1.82,0Zm.24,2.45h1.32v7.78h-1.32Z" transform="translate(-41.73 -23.95)"/><path class="cls-9" d="M278,231.92h1.09l.11,1.12h0a3.7,3.7,0,0,1,2.61-1.31c1.64,0,2.37,1.06,2.37,3v4.93H283v-4.76c0-1.45-.44-2.07-1.47-2.07a3,3,0,0,0-2.13,1.2v5.63H278Z" transform="translate(-41.73 -23.95)"/><path class="cls-9" d="M286.14,237.68c0-1.69,1.47-2.54,4.78-2.9,0-1-.33-2-1.6-2a4.28,4.28,0,0,0-2.32.84l-.52-.91a5.73,5.73,0,0,1,3.06-1c1.9,0,2.7,1.26,2.7,3.2v4.77h-1.09l-.11-.93h0a4.12,4.12,0,0,1-2.58,1.12A2.12,2.12,0,0,1,286.14,237.68Zm4.78.12v-2.16c-2.6.31-3.49,1-3.49,2s.6,1.24,1.37,1.24A3.16,3.16,0,0,0,290.92,237.8Z" transform="translate(-41.73 -23.95)"/><path class="cls-9" d="M294.53,231.92h1.09l.11,1.12h0a3.7,3.7,0,0,1,2.61-1.31c1.64,0,2.38,1.06,2.38,3v4.93h-1.32v-4.76c0-1.45-.44-2.07-1.47-2.07a3,3,0,0,0-2.12,1.2v5.63h-1.32Z" transform="translate(-41.73 -23.95)"/><path class="cls-9" d="M302.54,235.82a3.78,3.78,0,0,1,3.75-4.09,3.25,3.25,0,0,1,2.27.91l-.67.87a2.24,2.24,0,0,0-1.54-.69c-1.41,0-2.45,1.22-2.45,3s1,3,2.41,3a2.83,2.83,0,0,0,1.83-.78l.57.88a3.75,3.75,0,0,1-2.52,1C304.12,239.89,302.54,238.4,302.54,235.82Z" transform="translate(-41.73 -23.95)"/><path class="cls-9" d="M310,229.47a.91.91,0,0,1,1.82,0,.91.91,0,0,1-1.82,0Zm.24,2.45h1.31v7.78h-1.31Z" transform="translate(-41.73 -23.95)"/><path class="cls-9" d="M314,231.92h1.09l.11,1.12h0a3.7,3.7,0,0,1,2.61-1.31c1.64,0,2.37,1.06,2.37,3v4.93H319v-4.76c0-1.45-.44-2.07-1.47-2.07a3,3,0,0,0-2.13,1.2v5.63H314Z" transform="translate(-41.73 -23.95)"/><path class="cls-9" d="M322,241.2a2.16,2.16,0,0,1,1.14-1.76v-.07a1.43,1.43,0,0,1-.7-1.27,1.86,1.86,0,0,1,.86-1.45v-.06a2.7,2.7,0,0,1-1-2.09,2.76,2.76,0,0,1,2.92-2.77,3.1,3.1,0,0,1,1.1.19h2.71v1h-1.6a2.25,2.25,0,0,1,.64,1.6,2.66,2.66,0,0,1-2.85,2.7,2.76,2.76,0,0,1-1.16-.26,1.13,1.13,0,0,0-.5.92c0,.49.32.84,1.37.84h1.51c1.81,0,2.72.57,2.72,1.86,0,1.45-1.53,2.69-3.93,2.69C323.35,243.28,322,242.53,322,241.2Zm5.86-.41c0-.72-.55-1-1.57-1H325a4.58,4.58,0,0,1-1-.11,1.59,1.59,0,0,0-.79,1.3c0,.84.84,1.36,2.25,1.36S327.9,241.6,327.9,240.79Zm-1-6.29a1.66,1.66,0,1,0-3.3,0,1.66,1.66,0,1,0,3.3,0Z" transform="translate(-41.73 -23.95)"/><path class="cls-9" d="M333,235.82c0-2.52,1.59-4.09,3.36-4.09a3.18,3.18,0,0,1,2.18.9l-.05-1.34v-3h1.31v11.4h-1.08l-.12-.92h0a3.4,3.4,0,0,1-2.36,1.11C334.28,239.89,333,238.41,333,235.82Zm5.49,1.9v-4.07a2.73,2.73,0,0,0-1.9-.81c-1.25,0-2.23,1.2-2.23,3s.77,3,2.13,3A2.71,2.71,0,0,0,338.51,237.72Z" transform="translate(-41.73 -23.95)"/><path class="cls-9" d="M342.19,236.85v-4.93h1.31v4.76c0,1.45.44,2.07,1.47,2.07.8,0,1.35-.39,2.08-1.31v-5.52h1.32v7.78h-1.09l-.11-1.22h0a3.3,3.3,0,0,1-2.57,1.41C342.92,239.89,342.19,238.83,342.19,236.85Z" transform="translate(-41.73 -23.95)"/><path class="cls-9" d="M350.83,231.92h1.09l.11,1.42h.05a2.66,2.66,0,0,1,2.21-1.61,1.76,1.76,0,0,1,.83.16l-.25,1.15a2.22,2.22,0,0,0-.75-.13c-.66,0-1.44.48-2,1.79v5h-1.32Z" transform="translate(-41.73 -23.95)"/><path class="cls-9" d="M356,229.47a.91.91,0,1,1,.91.85A.86.86,0,0,1,356,229.47Zm.25,2.45h1.31v7.78h-1.31Z" transform="translate(-41.73 -23.95)"/><path class="cls-9" d="M360,231.92h1.09l.11,1.12h0a3.72,3.72,0,0,1,2.61-1.31c1.64,0,2.38,1.06,2.38,3v4.93h-1.32v-4.76c0-1.45-.44-2.07-1.47-2.07a3,3,0,0,0-2.12,1.2v5.63H360Z" transform="translate(-41.73 -23.95)"/><path class="cls-9" d="M368,241.2a2.19,2.19,0,0,1,1.14-1.76v-.07a1.44,1.44,0,0,1-.69-1.27,1.88,1.88,0,0,1,.85-1.45v-.06a2.73,2.73,0,0,1-1-2.09,2.76,2.76,0,0,1,2.92-2.77,3.09,3.09,0,0,1,1.09.19H375v1h-1.6a2.25,2.25,0,0,1,.64,1.6,2.66,2.66,0,0,1-2.85,2.7,2.76,2.76,0,0,1-1.16-.26,1.13,1.13,0,0,0-.5.92c0,.49.32.84,1.36.84h1.52c1.81,0,2.72.57,2.72,1.86,0,1.45-1.53,2.69-3.94,2.69C369.32,243.28,368,242.53,368,241.2Zm5.87-.41c0-.72-.55-1-1.57-1H371a4.58,4.58,0,0,1-1-.11,1.6,1.6,0,0,0-.8,1.3c0,.84.84,1.36,2.26,1.36S373.87,241.6,373.87,240.79Zm-1-6.29a1.66,1.66,0,1,0-3.31,0,1.67,1.67,0,1,0,3.31,0Z" transform="translate(-41.73 -23.95)"/><path class="cls-9" d="M379.77,237.3V233h-1.16v-1l1.22-.08.15-2.18h1.1v2.18h2.11V233h-2.11v4.33c0,1,.31,1.5,1.21,1.5a2.46,2.46,0,0,0,.88-.21l.26,1a5,5,0,0,1-1.45.28C380.33,239.89,379.77,238.84,379.77,237.3Z" transform="translate(-41.73 -23.95)"/><path class="cls-9" d="M384.79,228.3h1.31v3.12l-.05,1.6a3.69,3.69,0,0,1,2.59-1.29c1.64,0,2.37,1.06,2.37,3v4.93H389.7v-4.76c0-1.45-.44-2.07-1.47-2.07a3,3,0,0,0-2.13,1.2v5.63h-1.31Z" transform="translate(-41.73 -23.95)"/><path class="cls-9" d="M393.09,229.47a.91.91,0,0,1,1.82,0,.91.91,0,0,1-1.82,0Zm.24,2.45h1.32v7.78h-1.32Z" transform="translate(-41.73 -23.95)"/><path class="cls-9" d="M396.24,238.81l.65-.86a3.53,3.53,0,0,0,2.3.92c1,0,1.53-.55,1.53-1.21s-.92-1.16-1.78-1.48c-1.09-.39-2.32-.93-2.32-2.24s1-2.21,2.68-2.21a3.92,3.92,0,0,1,2.42.87l-.63.85a2.93,2.93,0,0,0-1.77-.7c-1,0-1.44.53-1.44,1.12,0,.74.85,1,1.73,1.35,1.12.42,2.37.88,2.37,2.36,0,1.26-1,2.31-2.84,2.31A4.68,4.68,0,0,1,396.24,238.81Z" transform="translate(-41.73 -23.95)"/><path class="cls-9" d="M406.69,231.92h1.09l.11.9h0a4.06,4.06,0,0,1,2.48-1.09c2,0,3.09,1.56,3.09,4,0,2.65-1.6,4.2-3.37,4.2A3.53,3.53,0,0,1,408,239l0,1.36V243h-1.32Zm5.45,3.78c0-1.71-.59-2.86-2.05-2.86A3.18,3.18,0,0,0,408,233.9V238a3,3,0,0,0,1.89.8C411.19,238.78,412.14,237.63,412.14,235.7Z" transform="translate(-41.73 -23.95)"/><path class="cls-9" d="M414.7,237.68c0-1.69,1.47-2.54,4.78-2.9,0-1-.33-2-1.6-2a4.28,4.28,0,0,0-2.32.84l-.52-.91a5.73,5.73,0,0,1,3.06-1c1.89,0,2.7,1.26,2.7,3.2v4.77h-1.09l-.11-.93h0a4.14,4.14,0,0,1-2.58,1.12A2.12,2.12,0,0,1,414.7,237.68Zm4.78.12v-2.16c-2.61.31-3.49,1-3.49,2s.6,1.24,1.37,1.24A3.16,3.16,0,0,0,419.48,237.8Z" transform="translate(-41.73 -23.95)"/><path class="cls-9" d="M423.09,231.92h1.09l.11,1.42h0a2.68,2.68,0,0,1,2.21-1.61,1.73,1.73,0,0,1,.83.16l-.24,1.15a2.28,2.28,0,0,0-.76-.13c-.65,0-1.44.48-2,1.79v5h-1.32Z" transform="translate(-41.73 -23.95)"/><path class="cls-9" d="M428.71,237.3V233h-1.16v-1l1.22-.08.16-2.18H430v2.18h2.11V233H430v4.33c0,1,.3,1.5,1.2,1.5a2.52,2.52,0,0,0,.89-.21l.25,1a4.91,4.91,0,0,1-1.44.28C429.27,239.89,428.71,238.84,428.71,237.3Z" transform="translate(-41.73 -23.95)"/><path class="cls-9" d="M287.58,255c0-2.6,1.7-4.09,3.61-4.09s3.61,1.49,3.61,4.09-1.7,4.07-3.61,4.07S287.58,257.6,287.58,255Zm5.85,0c0-1.78-.9-3-2.24-3s-2.25,1.22-2.25,3,.91,3,2.25,3S293.43,256.8,293.43,255Z" transform="translate(-41.73 -23.95)"/><path class="cls-9" d="M295.8,251.2l1.12-.08h2.9v1.07h-4Zm1.06-1.31c0-1.58.72-2.59,2.28-2.59a3.4,3.4,0,0,1,1.29.27l-.28,1a2,2,0,0,0-.88-.2c-.73,0-1.09.51-1.09,1.52v9h-1.32Z" transform="translate(-41.73 -23.95)"/><path class="cls-9" d="M304.42,256.49v-4.3h-1.15v-1l1.21-.08.16-2.18h1.1v2.18h2.11v1.07h-2.11v4.33c0,1,.31,1.5,1.2,1.5a2.69,2.69,0,0,0,.89-.21l.26,1a4.67,4.67,0,0,1-1.45.29C305,259.09,304.42,258,304.42,256.49Z" transform="translate(-41.73 -23.95)"/><path class="cls-9" d="M309.44,247.5h1.32v3.12l-.05,1.59a3.72,3.72,0,0,1,2.58-1.28c1.64,0,2.38,1.06,2.38,3v4.93h-1.32v-4.76c0-1.45-.43-2.07-1.46-2.07a3,3,0,0,0-2.13,1.2v5.63h-1.32Z" transform="translate(-41.73 -23.95)"/><path class="cls-9" d="M317.41,255c0-2.53,1.7-4.09,3.5-4.09,2,0,3.1,1.42,3.1,3.65a4.06,4.06,0,0,1-.06.75h-5.24A2.58,2.58,0,0,0,321.3,258a3.41,3.41,0,0,0,1.93-.62l.47.86a4.54,4.54,0,0,1-2.57.81C319.06,259.09,317.41,257.58,317.41,255Zm5.44-.64c0-1.56-.7-2.4-1.92-2.4a2.38,2.38,0,0,0-2.23,2.4Z" transform="translate(-41.73 -23.95)"/><path class="cls-9" d="M327.94,258l.65-.86a3.51,3.51,0,0,0,2.3.92c1,0,1.52-.55,1.52-1.21s-.91-1.16-1.78-1.48c-1.09-.39-2.32-.93-2.32-2.24s1-2.21,2.69-2.21a3.94,3.94,0,0,1,2.42.87l-.63.85A2.93,2.93,0,0,0,331,252c-1,0-1.43.53-1.43,1.12,0,.74.85,1,1.73,1.35,1.12.42,2.37.88,2.37,2.36,0,1.26-1,2.31-2.84,2.31A4.68,4.68,0,0,1,327.94,258Z" transform="translate(-41.73 -23.95)"/><path class="cls-9" d="M335.24,256.05v-4.93h1.32v4.76c0,1.45.44,2.07,1.47,2.07.79,0,1.34-.4,2.08-1.31v-5.52h1.32v7.78h-1.09l-.11-1.22h-.05a3.29,3.29,0,0,1-2.56,1.41C336,259.09,335.24,258,335.24,256.05Z" transform="translate(-41.73 -23.95)"/><path class="cls-9" d="M343.89,251.12H345l.11.9h0a4.08,4.08,0,0,1,2.48-1.09c2,0,3.09,1.56,3.09,4,0,2.65-1.59,4.2-3.37,4.2a3.57,3.57,0,0,1-2.16-.9l0,1.36v2.63h-1.32Zm5.45,3.78c0-1.71-.59-2.87-2-2.87a3.2,3.2,0,0,0-2.08,1.07v4.08a3,3,0,0,0,1.89.8C348.39,258,349.34,256.82,349.34,254.9Z" transform="translate(-41.73 -23.95)"/><path class="cls-9" d="M352.61,251.12h1.09l.11.9h0a4.08,4.08,0,0,1,2.48-1.09c2,0,3.09,1.56,3.09,4,0,2.65-1.59,4.2-3.37,4.2a3.57,3.57,0,0,1-2.16-.9l0,1.36v2.63h-1.32Zm5.45,3.78c0-1.71-.59-2.87-2.05-2.87a3.2,3.2,0,0,0-2.08,1.07v4.08a3,3,0,0,0,1.89.8C357.11,258,358.06,256.82,358.06,254.9Z" transform="translate(-41.73 -23.95)"/><path class="cls-9" d="M361.27,257.34V247.5h1.31v9.93c0,.41.18.57.37.57a.92.92,0,0,0,.29,0l.18,1a2.11,2.11,0,0,1-.76.12C361.67,259.09,361.27,258.46,361.27,257.34Z" transform="translate(-41.73 -23.95)"/><path class="cls-9" d="M364.41,262.09l.25-1a1.88,1.88,0,0,0,.6.12c.87,0,1.43-.7,1.75-1.67l.18-.57-3.12-7.8h1.35l1.59,4.31c.24.67.51,1.47.76,2.19h.06c.22-.71.44-1.51.66-2.19l1.38-4.31h1.29l-2.93,8.42c-.55,1.54-1.35,2.71-2.91,2.71A2.43,2.43,0,0,1,364.41,262.09Z" transform="translate(-41.73 -23.95)"/><path class="cls-9" d="M375,255a3.77,3.77,0,0,1,3.74-4.09,3.29,3.29,0,0,1,2.28.91l-.67.87a2.28,2.28,0,0,0-1.55-.69c-1.41,0-2.44,1.22-2.44,3s1,3,2.41,3a2.78,2.78,0,0,0,1.82-.78l.57.88a3.73,3.73,0,0,1-2.51,1C376.54,259.09,375,257.6,375,255Z" transform="translate(-41.73 -23.95)"/><path class="cls-9" d="M382.67,247.5H384v3.12l-.05,1.59a3.72,3.72,0,0,1,2.59-1.28c1.64,0,2.37,1.06,2.37,3v4.93h-1.31v-4.76c0-1.45-.44-2.07-1.47-2.07a3,3,0,0,0-2.13,1.2v5.63h-1.32Z" transform="translate(-41.73 -23.95)"/><path class="cls-9" d="M390.74,256.88c0-1.69,1.46-2.54,4.77-2.9,0-1-.33-2-1.6-2a4.28,4.28,0,0,0-2.32.84l-.52-.91a5.73,5.73,0,0,1,3.06-1c1.9,0,2.7,1.26,2.7,3.2v4.77h-1.09l-.11-.93h0a4.11,4.11,0,0,1-2.57,1.12A2.11,2.11,0,0,1,390.74,256.88Zm4.77.12v-2.16c-2.6.31-3.48.95-3.48,2s.6,1.24,1.36,1.24A3.16,3.16,0,0,0,395.51,257Z" transform="translate(-41.73 -23.95)"/><path class="cls-9" d="M398.88,248.67a.91.91,0,0,1,1.82,0,.91.91,0,0,1-1.82,0Zm.24,2.45h1.32v7.78h-1.32Z" transform="translate(-41.73 -23.95)"/><path class="cls-9" d="M402.9,251.12H404l.11,1.12h0a3.7,3.7,0,0,1,2.61-1.31c1.64,0,2.38,1.06,2.38,3v4.93h-1.32v-4.76c0-1.45-.44-2.07-1.47-2.07-.79,0-1.34.41-2.13,1.2v5.63H402.9Z" transform="translate(-41.73 -23.95)"/><path class="cls-9" d="M411.22,258.1a1,1,0,1,1,.95,1A1,1,0,0,1,411.22,258.1Z" transform="translate(-41.73 -23.95)"/><path class="cls-10" d="M100.13,161.82v13.83a10,10,0,0,0,10,10H591.19a10,10,0,0,0,10-10V161.82" transform="translate(-41.73 -23.95)"/><line class="cls-10" x1="308.93" y1="161.7" x2="308.93" y2="176.2"/><path class="cls-6" d="M923.07,112.19l27.62,12.62a1,1,0,0,1,0,1.8l-27.62,12.62a1,1,0,0,1-1.4-.9V113.09A1,1,0,0,1,923.07,112.19Z" transform="translate(-41.73 -23.95)"/></svg>