<svg id="Layer_1" data-name="Layer 1" xmlns="http://www.w3.org/2000/svg" viewBox="0 0 944.88 686.2"><defs><style>.cls-1{fill:#77899c;}.cls-2{fill:#00163c;}.cls-3{fill:#1c1e1f;}.cls-4{fill:#0791fc;}.cls-10,.cls-12,.cls-13,.cls-15,.cls-16,.cls-5,.cls-6,.cls-7,.cls-8,.cls-9{fill:none;}.cls-5,.cls-7,.cls-9{stroke:#161517;}.cls-10,.cls-12,.cls-15,.cls-16,.cls-5,.cls-6,.cls-7,.cls-8,.cls-9{stroke-linecap:round;}.cls-10,.cls-12,.cls-5,.cls-6,.cls-7,.cls-8,.cls-9{stroke-miterlimit:10;}.cls-5,.cls-6{stroke-width:2.3px;}.cls-10,.cls-6,.cls-8{stroke:#0791fc;}.cls-7,.cls-8{stroke-width:1.7px;}.cls-10,.cls-9{stroke-width:1.5px;}.cls-11{fill:#adadad;}.cls-12{stroke:#adadad;stroke-width:2.91px;}.cls-13{stroke:#5b5b5b;}.cls-13,.cls-15,.cls-16{stroke-linejoin:round;stroke-width:3px;}.cls-14{fill:#5b5b5b;}.cls-15,.cls-16{stroke:#000;}.cls-16{stroke-dasharray:0 7.97;}.cls-17{fill:#3a3a3a;}</style></defs><title>TIN-INFO-FLOW_outlines</title><path class="cls-1" d="M495.54,316.51h-7.25v-1.07H504v1.07h-7.25v18.67h-1.18Z" transform="translate(-8.29 -11.7)"/><path class="cls-1" d="M511.42,322.36l-.95.11a4.34,4.34,0,0,0-4.4,4.59v8.12h-1.18V321.63h1.18V324a4.35,4.35,0,0,1,1.78-1.89,7.06,7.06,0,0,1,2.84-.77l.59-.05Z" transform="translate(-8.29 -11.7)"/><path class="cls-1" d="M524,326.31v8.87h-1.21v-2.49a4.57,4.57,0,0,1-1.77,2,5,5,0,0,1-2.65.7,5.35,5.35,0,0,1-2.37-.53,4.36,4.36,0,0,1-1.7-1.47,3.62,3.62,0,0,1-.63-2.06,3.23,3.23,0,0,1,.79-2.34,5,5,0,0,1,2.64-1.19,28.12,28.12,0,0,1,5.13-.36h.56v-1.18a4.43,4.43,0,0,0-.78-2.9,3.13,3.13,0,0,0-2.49-.91,8,8,0,0,0-2.42.35,10.12,10.12,0,0,0-2.32,1.14l-.55-1a8.35,8.35,0,0,1,2.39-1.19,8.85,8.85,0,0,1,2.73-.43Q524,321.3,524,326.31Zm-3.36,7.29a4.21,4.21,0,0,0,1.58-1.66,5,5,0,0,0,.57-2.41v-1h-.53a31.31,31.31,0,0,0-4.48.24,4.12,4.12,0,0,0-2.15.81,2.17,2.17,0,0,0-.62,1.69,2.7,2.7,0,0,0,1,2.12,3.56,3.56,0,0,0,2.41.82A4.35,4.35,0,0,0,520.66,333.6Z" transform="translate(-8.29 -11.7)"/><path class="cls-1" d="M540.06,315.44v19.74h-1.17v-2.74a4.72,4.72,0,0,1-1.84,2.18,5.39,5.39,0,0,1-2.93.76,5.71,5.71,0,0,1-3.16-.88,5.92,5.92,0,0,1-2.13-2.49,8.79,8.79,0,0,1-.75-3.74,8.44,8.44,0,0,1,.75-3.67,5.63,5.63,0,0,1,5.29-3.3,5.48,5.48,0,0,1,2.93.75,4.82,4.82,0,0,1,1.84,2.16v-8.77Zm-2.41,17.25a8.27,8.27,0,0,0,0-8.71,4.24,4.24,0,0,0-3.5-1.54,4.36,4.36,0,0,0-3.54,1.53,6.53,6.53,0,0,0-1.27,4.3,6.78,6.78,0,0,0,1.27,4.38,4.75,4.75,0,0,0,7,0Z" transform="translate(-8.29 -11.7)"/><path class="cls-1" d="M556,328.52H545.47a6.28,6.28,0,0,0,1.38,4.23,4.83,4.83,0,0,0,3.79,1.48,6.6,6.6,0,0,0,2.37-.42,7.74,7.74,0,0,0,2.2-1.34l.56,1a6.17,6.17,0,0,1-2.24,1.38,7.88,7.88,0,0,1-2.83.52,6.16,6.16,0,0,1-4.77-1.88,7.22,7.22,0,0,1-1.75-5.15,8.28,8.28,0,0,1,.78-3.69,5.86,5.86,0,0,1,2.21-2.48,6.1,6.1,0,0,1,3.28-.88,5.11,5.11,0,0,1,4.09,1.7,7.18,7.18,0,0,1,1.45,4.79Zm-9-4.8a5.91,5.91,0,0,0-1.53,3.71h9.38a5.67,5.67,0,0,0-1.2-3.74,4.07,4.07,0,0,0-3.22-1.3A4.57,4.57,0,0,0,547,323.72Z" transform="translate(-8.29 -11.7)"/><path class="cls-1" d="M490.64,345h1.15v19.74h-1.15Z" transform="translate(-8.29 -11.7)"/><path class="cls-1" d="M507.92,356.05v8.73h-1.18v-8.62a4.7,4.7,0,0,0-.87-3.15,3.54,3.54,0,0,0-2.8-1,4.63,4.63,0,0,0-3.46,1.33,4.85,4.85,0,0,0-1.3,3.54v7.89h-1.17V351.23h1.14v2.44a4.51,4.51,0,0,1,1.87-2.06,5.55,5.55,0,0,1,2.84-.71C506.27,350.9,507.92,352.61,507.92,356.05Z" transform="translate(-8.29 -11.7)"/><path class="cls-1" d="M514.64,351.23h4.08v1h-4.08v12.54h-1.18V352.24h-2.72v-1h2.72v-.87a5.52,5.52,0,0,1,1.22-3.86,5.22,5.22,0,0,1,3.68-1.46l.87-.05.14,1-1.29.09a3.4,3.4,0,0,0-2.6,1.17,4.89,4.89,0,0,0-.84,3.08Z" transform="translate(-8.29 -11.7)"/><path class="cls-1" d="M523.46,364.11a5.7,5.7,0,0,1-2.13-2.46,8.57,8.57,0,0,1-.76-3.73,8.42,8.42,0,0,1,.76-3.69,5.67,5.67,0,0,1,2.13-2.47,6.24,6.24,0,0,1,6.32,0,5.67,5.67,0,0,1,2.13,2.47,8.42,8.42,0,0,1,.76,3.69,8.57,8.57,0,0,1-.76,3.73,5.7,5.7,0,0,1-2.13,2.46,6.17,6.17,0,0,1-6.32,0Zm6.7-1.8a6.79,6.79,0,0,0,1.25-4.39,6.62,6.62,0,0,0-1.28-4.32,4.73,4.73,0,0,0-7,0,6.62,6.62,0,0,0-1.28,4.32,6.79,6.79,0,0,0,1.25,4.39,4.29,4.29,0,0,0,3.51,1.52A4.36,4.36,0,0,0,530.16,362.31Z" transform="translate(-8.29 -11.7)"/><path class="cls-1" d="M543.31,352l-.95.11a4.34,4.34,0,0,0-4.4,4.59v8.12h-1.18V351.23H538v2.38a4.35,4.35,0,0,1,1.78-1.89,7.06,7.06,0,0,1,2.84-.77l.59-.05Z" transform="translate(-8.29 -11.7)"/><path class="cls-1" d="M564.84,356.05v8.73h-1.18v-8.62a5.1,5.1,0,0,0-.78-3.15,3,3,0,0,0-2.49-1,4,4,0,0,0-3.12,1.31,5.18,5.18,0,0,0-1.17,3.56v7.89h-1.17v-8.62a5,5,0,0,0-.79-3.15,3,3,0,0,0-2.49-1,4,4,0,0,0-3.12,1.31,5.22,5.22,0,0,0-1.16,3.56v7.89h-1.18V351.23h1.15v2.38a4.22,4.22,0,0,1,1.67-2,4.74,4.74,0,0,1,2.61-.7q3.25,0,4.18,2.71a4.5,4.5,0,0,1,1.8-2,5.31,5.31,0,0,1,2.76-.72C563.35,350.9,564.84,352.61,564.84,356.05Z" transform="translate(-8.29 -11.7)"/><path class="cls-1" d="M579.71,355.91v8.87H578.5v-2.49a4.57,4.57,0,0,1-1.77,2,5,5,0,0,1-2.65.7,5.35,5.35,0,0,1-2.37-.53A4.43,4.43,0,0,1,570,363a3.62,3.62,0,0,1-.63-2.06,3.23,3.23,0,0,1,.79-2.34,5,5,0,0,1,2.64-1.19,28.12,28.12,0,0,1,5.13-.36h.56v-1.18a4.43,4.43,0,0,0-.78-2.9,3.13,3.13,0,0,0-2.49-.91,8,8,0,0,0-2.42.35,9.87,9.87,0,0,0-2.31,1.14l-.56-1a8.49,8.49,0,0,1,2.39-1.19,8.94,8.94,0,0,1,2.73-.43Q579.71,350.9,579.71,355.91Zm-3.36,7.29a4.21,4.21,0,0,0,1.58-1.66,5,5,0,0,0,.57-2.41v-1H578a31.31,31.31,0,0,0-4.48.24,4.15,4.15,0,0,0-2.15.81,2.2,2.2,0,0,0-.62,1.69,2.7,2.7,0,0,0,.95,2.12,3.56,3.56,0,0,0,2.41.82A4.35,4.35,0,0,0,576.35,363.2Z" transform="translate(-8.29 -11.7)"/><path class="cls-1" d="M590.94,363.78l-.06,1.09a9.89,9.89,0,0,1-1.26.08,4.16,4.16,0,0,1-3.23-1.22,4.56,4.56,0,0,1-1.14-3.26v-8.23h-2.71v-1h2.71V347h1.18v4.23h4.09v1h-4.09v8a3.92,3.92,0,0,0,.84,2.72,3.22,3.22,0,0,0,2.49.92A8.53,8.53,0,0,0,590.94,363.78Z" transform="translate(-8.29 -11.7)"/><path class="cls-1" d="M595.25,345.69v1.76h-1.79v-1.76Zm-1.49,5.54h1.18v13.55h-1.18Z" transform="translate(-8.29 -11.7)"/><path class="cls-1" d="M601.94,364.11a5.7,5.7,0,0,1-2.13-2.46,8.71,8.71,0,0,1-.76-3.73,8.56,8.56,0,0,1,.76-3.69,5.67,5.67,0,0,1,2.13-2.47,6.25,6.25,0,0,1,6.33,0,5.72,5.72,0,0,1,2.12,2.47,8.42,8.42,0,0,1,.76,3.69,8.57,8.57,0,0,1-.76,3.73,6,6,0,0,1-8.45,2.46Zm6.7-1.8a6.79,6.79,0,0,0,1.25-4.39,6.62,6.62,0,0,0-1.27-4.32,4.74,4.74,0,0,0-7,0,6.62,6.62,0,0,0-1.28,4.32,6.79,6.79,0,0,0,1.25,4.39,4.29,4.29,0,0,0,3.51,1.52A4.36,4.36,0,0,0,608.64,362.31Z" transform="translate(-8.29 -11.7)"/><path class="cls-1" d="M626.05,356.05v8.73h-1.18v-8.62A4.7,4.7,0,0,0,624,353a3.54,3.54,0,0,0-2.8-1,4.57,4.57,0,0,0-3.45,1.33,4.82,4.82,0,0,0-1.31,3.54v7.89h-1.17V351.23h1.15v2.44a4.44,4.44,0,0,1,1.86-2.06,5.55,5.55,0,0,1,2.84-.71C624.4,350.9,626.05,352.61,626.05,356.05Z" transform="translate(-8.29 -11.7)"/><path class="cls-2" d="M506.74,374.64v19.74H504l-10.59-13.77v13.77h-3.36V374.64h2.69l10.58,13.75V374.64Z" transform="translate(-8.29 -11.7)"/><path class="cls-2" d="M523.54,388.17h-9.32a4.23,4.23,0,0,0,1.15,2.83,3.94,3.94,0,0,0,2.8.92,6.54,6.54,0,0,0,4.14-1.46l1,2.41a7.36,7.36,0,0,1-2.4,1.26,9.07,9.07,0,0,1-2.89.48,7.27,7.27,0,0,1-5.31-1.91,6.91,6.91,0,0,1-2-5.2,8,8,0,0,1,.84-3.73,6.13,6.13,0,0,1,2.37-2.52,6.78,6.78,0,0,1,3.46-.89,5.68,5.68,0,0,1,4.46,1.82,7.17,7.17,0,0,1,1.64,5Zm-8.27-4.45a4.31,4.31,0,0,0-1,2.57h6.33a4,4,0,0,0-.84-2.59,2.79,2.79,0,0,0-2.19-.88A3,3,0,0,0,515.27,383.72Z" transform="translate(-8.29 -11.7)"/><path class="cls-2" d="M535.33,391.89l-.17,2.61c-.56.05-1.07.08-1.54.08a5.89,5.89,0,0,1-4.25-1.33,5.27,5.27,0,0,1-1.38-4v-6h-2.63v-2.63H528v-4.08h3.5v4.08h3.62v2.63h-3.62v5.91c0,1.83.85,2.75,2.55,2.75A9.77,9.77,0,0,0,535.33,391.89Z" transform="translate(-8.29 -11.7)"/><path class="cls-2" d="M560.33,380.69,555,394.38h-3.05l-3.36-8.82-3.28,8.82h-3l-5.4-13.69h3.59l3.5,9.52,3.5-9.52H550l3.5,9.58,3.47-9.58Z" transform="translate(-8.29 -11.7)"/><path class="cls-2" d="M565.58,393.74a6.06,6.06,0,0,1-2.45-2.49,8.63,8.63,0,0,1,0-7.55,6.1,6.1,0,0,1,2.45-2.48,8.32,8.32,0,0,1,7.37,0,6,6,0,0,1,2.43,2.48,8.72,8.72,0,0,1,0,7.55,6,6,0,0,1-2.43,2.49,8.24,8.24,0,0,1-7.37,0Zm6.26-3a6.48,6.48,0,0,0,0-6.59,3.09,3.09,0,0,0-2.58-1.14,3.13,3.13,0,0,0-2.59,1.14,6.45,6.45,0,0,0,0,6.59,3.55,3.55,0,0,0,5.18,0Z" transform="translate(-8.29 -11.7)"/><path class="cls-2" d="M589,383.27l-2.05.19c-2.31.25-3.47,1.42-3.47,3.53v7.39H580V380.69h3.33v2.41q1.07-2.46,4.4-2.69l1.06-.08Z" transform="translate(-8.29 -11.7)"/><path class="cls-2" d="M600.91,394.38,595,388.14v6.24h-3.5V374.64H595v12l5.51-6h4.26l-6.16,6.55,6.61,7.11Z" transform="translate(-8.29 -11.7)"/><circle class="cls-3" cx="410.21" cy="309.37" r="3.48"/><circle class="cls-3" cx="410.21" cy="352.66" r="3.48"/><circle class="cls-4" cx="459.57" cy="347.85" r="3.48"/><circle class="cls-4" cx="460.89" cy="316.03" r="3.48"/><path class="cls-5" d="M437.67,311.14a31.6,31.6,0,0,0,0,62.7" transform="translate(-8.29 -11.7)"/><path class="cls-6" d="M445.67,373.84a31.6,31.6,0,0,0,0-62.7" transform="translate(-8.29 -11.7)"/><circle class="cls-3" cx="445.16" cy="351.11" r="2.57"/><circle class="cls-4" cx="430.48" cy="307.61" r="2.69"/><path class="cls-7" d="M418.51,345.43a23.33,23.33,0,0,0,46.29,0" transform="translate(-8.29 -11.7)"/><path class="cls-8" d="M464.8,339.53a23.33,23.33,0,0,0-46.29,0" transform="translate(-8.29 -11.7)"/><circle class="cls-3" cx="448.03" cy="332.29" r="2"/><circle class="cls-4" cx="422.77" cy="320.61" r="2"/><path class="cls-9" d="M432.6,354.54a14.84,14.84,0,0,0,20.69-21" transform="translate(-8.29 -11.7)"/><path class="cls-10" d="M450.62,331a14.84,14.84,0,0,0-20.69,20.95" transform="translate(-8.29 -11.7)"/><path class="cls-11" d="M299.11,311a15.07,15.07,0,0,1,16.18-7.27l36.9,7.76a12.06,12.06,0,0,0,14.07-8.3,160.38,160.38,0,0,1,36.5-62.65,156,156,0,0,1,65.61-41.46c19.81-6.49,89.4-23.58,153.12,28.93a1.47,1.47,0,0,1,.2,2.09,1.49,1.49,0,0,1-2.09.2c-62.54-51.55-130.86-34.77-150.31-28.4A155.81,155.81,0,0,0,369.1,304.1a15,15,0,0,1-17.52,10.33l-36.9-7.76a12.12,12.12,0,0,0-12.75,5.42Z" transform="translate(-8.29 -11.7)"/><path class="cls-11" d="M667.19,183.12a15.07,15.07,0,0,1-1.42,17.67l-24.59,28.6a12.06,12.06,0,0,0,.49,16.33A160.54,160.54,0,0,1,679,307.89a156.14,156.14,0,0,1,4.7,77.47c-3.86,20.49-22.43,89.7-99.15,120.23a1.48,1.48,0,0,1-1.09-2.76c75.31-30,93.53-97.91,97.32-118a155.81,155.81,0,0,0-41.22-137,15,15,0,0,1-.61-20.34l24.59-28.59a12.11,12.11,0,0,0,1.39-13.78Z" transform="translate(-8.29 -11.7)"/><path class="cls-12" d="M674.52,191.79a65.55,65.55,0,0,0,85.15-99.24" transform="translate(-8.29 -11.7)"/><path class="cls-12" d="M750.37,84.9A65.55,65.55,0,0,0,666,184.26" transform="translate(-8.29 -11.7)"/><polygon class="cls-4" points="683.37 128.76 683.37 103.87 705.32 95.09 727.28 103.87 727.28 128.76 705.32 137.54 683.37 128.76"/><polygon class="cls-13" points="673.12 133.15 698 143.39 705.32 139 705.32 137.54 680.44 127.29 673.12 131.68 673.12 133.15"/><polygon class="cls-13" points="737.52 133.15 712.64 143.39 705.32 139 705.32 137.54 730.21 127.29 737.52 131.68 737.52 133.15"/><polyline class="cls-13" points="683.37 126.09 680.44 127.29 673.12 122.9 673.12 121.44 683.37 117.22"/><polyline class="cls-13" points="727.28 125.83 730.21 127.29 737.52 122.9 737.52 121.44 727.28 117.22"/><line class="cls-13" x1="705.32" y1="139" x2="705.32" y2="159.5"/><polyline class="cls-13" points="730.21 136.08 730.21 149.25 705.32 159.5 680.44 149.25 680.44 136.08"/><line class="cls-13" x1="705.32" y1="112.66" x2="705.32" y2="137.54"/><polyline class="cls-13" points="683.37 128.76 683.37 103.87 705.32 95.09 727.28 103.87 727.28 128.76"/><line class="cls-13" x1="705.32" y1="112.66" x2="683.37" y2="103.87"/><line class="cls-13" x1="727.28" y1="103.87" x2="705.32" y2="112.66"/><rect class="cls-4" x="594.07" y="618.65" width="9.33" height="22.65"/><rect class="cls-4" x="614.05" y="618.65" width="9.33" height="22.65"/><rect class="cls-4" x="572.75" y="618.65" width="9.33" height="22.65"/><polygon class="cls-4" points="628.04 606.64 598.25 588 568.45 606.64 568.45 613.54 628.04 613.54 628.04 606.64"/><path class="cls-14" d="M609.09,610.61H604a1,1,0,0,0,0,2h5.11a1,1,0,0,0,0-2ZM639.74,660H571.63a1,1,0,1,0,0,2h68.11a1,1,0,0,0,0-2Zm-63-4.81h59.59a1,1,0,0,0,0-2h-4.1V630.34a1,1,0,0,0-2,0v22.84h-6.52V630.34a1,1,0,0,0-2,0v22.84h-9.92V630.34a1,1,0,0,0-2,0v22.84h-6.51V630.34a1,1,0,1,0-2,0v22.84h-9.92V630.34a1,1,0,0,0-2,0v22.84h-6.51V630.34a1,1,0,0,0-2,0v22.84h-4.11a1,1,0,0,0,0,2Zm0-28.95h59.59a1,1,0,0,0,1-1v-6.9a1,1,0,0,0-.47-.84l-29.79-18.64a1,1,0,0,0-1.06,0l-29.8,18.64a1,1,0,0,0-.47.84v6.9A1,1,0,0,0,576.74,626.23Zm29.8-25.36L633,617.42H580.08Zm-28.8,18.55h57.59v4.81H577.74Z" transform="translate(-8.29 -11.7)"/><path class="cls-4" d="M257.14,287.09a5.45,5.45,0,0,1-5.46-5.46v-.24a5.45,5.45,0,0,1,5.46-5.46h9.42v-9.31H213.34a4.46,4.46,0,0,1-4.46-4.46v27.91a4.46,4.46,0,0,0,4.46,4.46h53.22v-7.44Z" transform="translate(-8.29 -11.7)"/><path class="cls-14" d="M266.56,291.28a1.39,1.39,0,0,0-1.39,1.39v.56a1.45,1.45,0,0,0-.47-.09H213.34a3.07,3.07,0,0,1-3.06-3.07V267.13a5.82,5.82,0,0,0,3.06.89H264.7a1.24,1.24,0,0,0,.47-.1v2.42a1.4,1.4,0,1,0,2.79,0V249.88a1.4,1.4,0,0,0-1.4-1.4h-7.91v-6a1.39,1.39,0,0,0-1.39-1.4H220.05a1.4,1.4,0,0,0-1.4,1.4v6h-5.12a6.06,6.06,0,0,0-6,6.05c0,.21,0,.41.06.62a1.55,1.55,0,0,0-.06.31v40.23a7.68,7.68,0,0,0,7.67,7.68h51.4A1.4,1.4,0,0,0,268,302v-9.31A1.4,1.4,0,0,0,266.56,291.28Zm-7.91-40h6.52v6.52h-6.52Zm-37.21-7.44h34.42v14H221.44Zm-7.91,7.44h5.12v6.52h-5.12a3.26,3.26,0,0,1,0-6.52Zm-3.25,8.34a6,6,0,0,0,3.25,1h51.64v4.74a1.45,1.45,0,0,0-.47-.09H213.34a3.07,3.07,0,0,1-3.06-3.07Zm54.89,41h-50a4.89,4.89,0,0,1-4.88-4.89V295a5.82,5.82,0,0,0,3.06.89H264.7a1.24,1.24,0,0,0,.47-.1Zm-37.68-54a1.4,1.4,0,0,0-1.4,1.4v5.58a1.4,1.4,0,0,0,2.8,0V248A1.4,1.4,0,0,0,227.49,246.62Zm22.33,0a1.4,1.4,0,0,0-1.4,1.4v5.58a1.4,1.4,0,0,0,2.79,0V248A1.4,1.4,0,0,0,249.82,246.62Zm18.6,27.91H257.14a6.87,6.87,0,0,0-6.86,6.86v.24a6.87,6.87,0,0,0,6.86,6.86h11.28a1.4,1.4,0,0,0,1.4-1.4V275.93A1.4,1.4,0,0,0,268.42,274.53ZM267,285.69h-9.89a4.07,4.07,0,0,1-4.07-4.06v-.24a4.08,4.08,0,0,1,4.07-4.07H267Zm-7.91-2.79H261a1.4,1.4,0,1,0,0-2.79h-1.86a1.4,1.4,0,1,0,0,2.79Z" transform="translate(-8.29 -11.7)"/><path class="cls-12" d="M188.13,244.55a65.54,65.54,0,0,0,112.2,67.14" transform="translate(-8.29 -11.7)"/><path class="cls-12" d="M306.48,299.84a65.54,65.54,0,0,0-113.71-63.65" transform="translate(-8.29 -11.7)"/><path class="cls-11" d="M592.51,568.67A15.08,15.08,0,0,1,578,558.53l-12.28-35.65a12.07,12.07,0,0,0-14.35-7.82,160.42,160.42,0,0,1-72.51.85,156.09,156.09,0,0,1-69.26-35c-15.74-13.67-66.14-64.61-53.8-146.25a1.48,1.48,0,1,1,2.93.44c-12.11,80.15,37.37,130.15,52.82,143.57a155.79,155.79,0,0,0,139.11,33.52,15,15,0,0,1,17.86,9.73l12.29,35.65a12.12,12.12,0,0,0,11.2,8.15Z" transform="translate(-8.29 -11.7)"/><path class="cls-12" d="M581.33,570.63A65.54,65.54,0,0,0,624.07,694.2" transform="translate(-8.29 -11.7)"/><path class="cls-12" d="M635.36,690a65.54,65.54,0,0,0-43.25-122.92" transform="translate(-8.29 -11.7)"/><path d="M9.8,12.75a24.06,24.06,0,0,1,4-.31,6.68,6.68,0,0,1,4.54,1.34,4.39,4.39,0,0,1,1.41,3.39,4.74,4.74,0,0,1-1.25,3.45,6.67,6.67,0,0,1-4.94,1.78,7.22,7.22,0,0,1-1.68-.14v6.48H9.8Zm2.09,7.8a7,7,0,0,0,1.73.17c2.52,0,4.05-1.22,4.05-3.46s-1.51-3.16-3.81-3.16a9.32,9.32,0,0,0-2,.16Z" transform="translate(-8.29 -11.7)"/><path d="M36.39,20.48C36.39,26.05,33,29,28.88,29s-7.27-3.31-7.27-8.21c0-5.13,3.19-8.49,7.51-8.49S36.39,15.68,36.39,20.48Zm-12.55.26c0,3.46,1.87,6.56,5.16,6.56s5.19-3.05,5.19-6.72C34.19,17.36,32.51,14,29,14S23.84,17.19,23.84,20.74Z" transform="translate(-8.29 -11.7)"/><path d="M38.75,26.58a5.47,5.47,0,0,0,2.78.84c1.54,0,2.26-.77,2.26-1.73s-.6-1.56-2.16-2.14c-2.09-.74-3.08-1.89-3.08-3.29,0-1.87,1.52-3.4,4-3.4a5.74,5.74,0,0,1,2.86.72l-.53,1.53a4.53,4.53,0,0,0-2.38-.67c-1.24,0-1.94.72-1.94,1.58s.7,1.4,2.21,2c2,.77,3,1.78,3,3.51,0,2-1.59,3.48-4.35,3.48a6.49,6.49,0,0,1-3.26-.8Z" transform="translate(-8.29 -11.7)"/><path d="M63.83,28.74c-.46-.46-.89-.92-1.52-1.59A6.6,6.6,0,0,1,57.59,29c-3.15,0-5-2.11-5-4.54a5.3,5.3,0,0,1,3.17-4.72v-.08a5.55,5.55,0,0,1-1.35-3.38,3.92,3.92,0,0,1,4.11-4,3.36,3.36,0,0,1,3.57,3.43c0,1.7-1,3.05-3.55,4.32v.07c1.37,1.58,2.9,3.36,3.94,4.51a12.08,12.08,0,0,0,1.56-4.73H66a12.39,12.39,0,0,1-2.33,6c.86.91,1.7,1.82,2.66,2.86ZM61.28,26c-1-1.05-2.76-3-4.56-5.09a4,4,0,0,0-2.09,3.29A3.2,3.2,0,0,0,58,27.42,4.52,4.52,0,0,0,61.28,26Zm-4.92-9.86A4.51,4.51,0,0,0,57.59,19c1.63-.93,2.68-1.8,2.68-3.17a1.9,1.9,0,0,0-1.87-2.08A2.11,2.11,0,0,0,56.36,16.09Z" transform="translate(-8.29 -11.7)"/><path d="M75.39,12.56V28.74H73.31V12.56Z" transform="translate(-8.29 -11.7)"/><path d="M79.21,20.26c0-1.2,0-2.18-.1-3.14H81L81.1,19h.05A4.28,4.28,0,0,1,85,16.86c1.61,0,4.11,1,4.11,4.94v6.94H87V22c0-1.87-.7-3.43-2.69-3.43a3,3,0,0,0-2.84,2.16,3.17,3.17,0,0,0-.14,1v7H79.21Z" transform="translate(-8.29 -11.7)"/><path d="M93,17.12l2.28,6.53a27.92,27.92,0,0,1,.94,3h.07c.27-1,.6-1.92,1-3l2.25-6.53h2.21L97.21,28.74h-2L90.78,17.12Z" transform="translate(-8.29 -11.7)"/><path d="M114,22.83c0,4.3-3,6.17-5.78,6.17-3.15,0-5.57-2.3-5.57-6,0-3.88,2.54-6.16,5.76-6.16S114,19.28,114,22.83Zm-9.21.12c0,2.55,1.46,4.47,3.53,4.47s3.52-1.9,3.52-4.52c0-2-1-4.46-3.48-4.46S104.82,20.74,104.82,23Z" transform="translate(-8.29 -11.7)"/><path d="M119.05,13.86a1.31,1.31,0,0,1-2.62,0,1.28,1.28,0,0,1,1.32-1.32A1.25,1.25,0,0,1,119.05,13.86ZM116.7,28.74V17.12h2.11V28.74Z" transform="translate(-8.29 -11.7)"/><path d="M130.59,28.3a7.68,7.68,0,0,1-3.33.68c-3.51,0-5.79-2.38-5.79-5.93a5.9,5.9,0,0,1,6.24-6.17,7,7,0,0,1,2.93.6l-.48,1.63a4.88,4.88,0,0,0-2.45-.55c-2.66,0-4.1,2-4.1,4.39,0,2.69,1.73,4.35,4,4.35a5.9,5.9,0,0,0,2.59-.58Z" transform="translate(-8.29 -11.7)"/><path d="M134.1,23.31a3.71,3.71,0,0,0,4,4,7.63,7.63,0,0,0,3.22-.6l.36,1.52a9.56,9.56,0,0,1-3.87.72c-3.57,0-5.71-2.36-5.71-5.86s2.06-6.26,5.45-6.26c3.79,0,4.8,3.33,4.8,5.47a8.79,8.79,0,0,1-.07,1Zm6.19-1.51c0-1.34-.55-3.43-2.93-3.43-2.14,0-3.07,2-3.24,3.43Z" transform="translate(-8.29 -11.7)"/><path d="M144.66,26.58a5.47,5.47,0,0,0,2.78.84c1.54,0,2.26-.77,2.26-1.73s-.6-1.56-2.16-2.14c-2.09-.74-3.08-1.89-3.08-3.29,0-1.87,1.52-3.4,4-3.4a5.74,5.74,0,0,1,2.86.72l-.53,1.53a4.53,4.53,0,0,0-2.38-.67c-1.24,0-1.94.72-1.94,1.58s.7,1.4,2.21,2c2,.77,3.05,1.78,3.05,3.51,0,2-1.59,3.48-4.35,3.48a6.49,6.49,0,0,1-3.26-.8Z" transform="translate(-8.29 -11.7)"/><path d="M160.71,23.31a3.72,3.72,0,0,0,4,4,7.54,7.54,0,0,0,3.21-.6l.36,1.52a9.46,9.46,0,0,1-3.86.72c-3.58,0-5.71-2.36-5.71-5.86s2.06-6.26,5.44-6.26c3.8,0,4.8,3.33,4.8,5.47a6.87,6.87,0,0,1-.07,1Zm6.19-1.51c0-1.34-.55-3.43-2.92-3.43-2.14,0-3.08,2-3.24,3.43Z" transform="translate(-8.29 -11.7)"/><path d="M172.47,17.12l1.66,2.5c.43.64.79,1.24,1.17,1.89h.08c.38-.69.76-1.29,1.15-1.92l1.63-2.47h2.28l-4,5.62,4.08,6h-2.4l-1.7-2.62c-.46-.67-.84-1.32-1.25-2h-.05c-.38.7-.79,1.32-1.22,2l-1.68,2.62h-2.33l4.13-5.93-3.94-5.69Z" transform="translate(-8.29 -11.7)"/><path d="M190.52,28.3a7.74,7.74,0,0,1-3.34.68c-3.5,0-5.78-2.38-5.78-5.93a5.9,5.9,0,0,1,6.24-6.17,7,7,0,0,1,2.93.6l-.48,1.63a4.91,4.91,0,0,0-2.45-.55c-2.66,0-4.1,2-4.1,4.39,0,2.69,1.72,4.35,4,4.35a5.9,5.9,0,0,0,2.59-.58Z" transform="translate(-8.29 -11.7)"/><path d="M193,11.7h2.11v7.24h.05a4,4,0,0,1,1.51-1.48,4.37,4.37,0,0,1,2.16-.6c1.56,0,4.06,1,4.06,5v6.92h-2.11V22.06c0-1.87-.7-3.45-2.69-3.45a3,3,0,0,0-2.83,2.11,2.56,2.56,0,0,0-.15,1v7H193Z" transform="translate(-8.29 -11.7)"/><path d="M212.74,28.74l-.16-1.47h-.08A4.31,4.31,0,0,1,209,29a3.31,3.31,0,0,1-3.55-3.34c0-2.8,2.5-4.34,7-4.32V21.1a2.39,2.39,0,0,0-2.64-2.68,5.76,5.76,0,0,0-3,.86l-.48-1.39a7.15,7.15,0,0,1,3.82-1c3.55,0,4.41,2.42,4.41,4.75V26a16.83,16.83,0,0,0,.19,2.79Zm-.31-5.93c-2.3,0-4.92.36-4.92,2.61a1.87,1.87,0,0,0,2,2,2.88,2.88,0,0,0,2.81-1.94,2.32,2.32,0,0,0,.12-.68Z" transform="translate(-8.29 -11.7)"/><path d="M217.88,20.26c0-1.2,0-2.18-.1-3.14h1.88l.12,1.92h0a4.28,4.28,0,0,1,3.84-2.18c1.61,0,4.11,1,4.11,4.94v6.94h-2.11V22c0-1.87-.7-3.43-2.69-3.43a3,3,0,0,0-2.83,2.16,2.88,2.88,0,0,0-.15,1v7h-2.11Z" transform="translate(-8.29 -11.7)"/><path d="M241.21,17.12c-.05.84-.1,1.78-.1,3.19v6.75c0,2.66-.53,4.29-1.65,5.3a6.15,6.15,0,0,1-4.23,1.39,7.41,7.41,0,0,1-3.86-1l.53-1.6a6.5,6.5,0,0,0,3.4.91c2.16,0,3.75-1.13,3.75-4.06v-1.3H239a4.16,4.16,0,0,1-3.7,2c-2.88,0-4.94-2.45-4.94-5.67,0-3.93,2.57-6.16,5.23-6.16a3.87,3.87,0,0,1,3.63,2h0l.1-1.75ZM239,21.7a2.91,2.91,0,0,0-.12-1,3,3,0,0,0-3-2.23c-2,0-3.45,1.71-3.45,4.39,0,2.28,1.15,4.18,3.43,4.18a3.1,3.1,0,0,0,2.93-2.16,3.68,3.68,0,0,0,.16-1.13Z" transform="translate(-8.29 -11.7)"/><path d="M245.79,23.31a3.72,3.72,0,0,0,4,4,7.54,7.54,0,0,0,3.21-.6l.36,1.52a9.46,9.46,0,0,1-3.86.72c-3.58,0-5.72-2.36-5.72-5.86s2.07-6.26,5.45-6.26c3.8,0,4.8,3.33,4.8,5.47a6.87,6.87,0,0,1-.07,1ZM252,21.8c0-1.34-.55-3.43-2.92-3.43-2.14,0-3.08,2-3.25,3.43Z" transform="translate(-8.29 -11.7)"/><path d="M266.67,11.7v14c0,1,0,2.21.1,3h-1.9l-.09-2h0a4.3,4.3,0,0,1-4,2.28c-2.81,0-5-2.38-5-5.9,0-3.87,2.37-6.24,5.21-6.24a3.9,3.9,0,0,1,3.5,1.77h.05V11.7Zm-2.11,10.15a3.33,3.33,0,0,0-.1-.89,3.11,3.11,0,0,0-3-2.45c-2.18,0-3.48,1.92-3.48,4.49,0,2.35,1.16,4.3,3.44,4.3a3.17,3.17,0,0,0,3.09-2.52,3.37,3.37,0,0,0,.1-.92Z" transform="translate(-8.29 -11.7)"/><path d="M10.55,45.92l2.28,6.53a30.25,30.25,0,0,1,.93,3h.07c.27-1,.6-1.92,1-3l2.25-6.53h2.21L14.72,57.54h-2L8.29,45.92Z" transform="translate(-8.29 -11.7)"/><path d="M23.62,42.66A1.24,1.24,0,0,1,22.28,44,1.25,1.25,0,0,1,21,42.66a1.28,1.28,0,0,1,1.32-1.32A1.25,1.25,0,0,1,23.62,42.66ZM21.27,57.54V45.92h2.11V57.54Z" transform="translate(-8.29 -11.7)"/><path d="M33.32,57.54l-.17-1.47h-.07a4.34,4.34,0,0,1-3.55,1.73A3.31,3.31,0,0,1,26,54.46c0-2.8,2.49-4.34,7-4.32V49.9a2.39,2.39,0,0,0-2.64-2.68,5.74,5.74,0,0,0-3,.86l-.48-1.39a7.14,7.14,0,0,1,3.81-1c3.55,0,4.42,2.42,4.42,4.75v4.34a16.91,16.91,0,0,0,.19,2.79ZM33,51.61c-2.31,0-4.92.36-4.92,2.61a1.87,1.87,0,0,0,2,2,2.9,2.9,0,0,0,2.81-1.94,2.32,2.32,0,0,0,.12-.68Z" transform="translate(-8.29 -11.7)"/><path d="M44.72,52.11a3.72,3.72,0,0,0,4,4,7.56,7.56,0,0,0,3.22-.6l.36,1.52a9.5,9.5,0,0,1-3.86.72c-3.58,0-5.72-2.36-5.72-5.86s2.07-6.26,5.45-6.26c3.79,0,4.8,3.33,4.8,5.47a8.79,8.79,0,0,1-.07,1Zm6.19-1.51c0-1.34-.55-3.43-2.93-3.43-2.13,0-3.07,2-3.24,3.43Z" transform="translate(-8.29 -11.7)"/><path d="M56.48,45.92l1.66,2.5c.43.64.79,1.24,1.17,1.89h.07c.39-.69.77-1.29,1.16-1.92l1.63-2.47h2.28l-4,5.62,4.08,6h-2.4l-1.71-2.62c-.45-.67-.84-1.32-1.24-2h0c-.39.7-.79,1.32-1.23,2l-1.68,2.62H53.94l4.12-5.93-3.93-5.69Z" transform="translate(-8.29 -11.7)"/><path d="M69,42.66a1.31,1.31,0,0,1-2.62,0,1.29,1.29,0,0,1,1.32-1.32A1.25,1.25,0,0,1,69,42.66ZM66.61,57.54V45.92h2.11V57.54Z" transform="translate(-8.29 -11.7)"/><path d="M71.94,55.38a5.57,5.57,0,0,0,2.78.84c1.54,0,2.26-.77,2.26-1.73s-.6-1.56-2.16-2.14c-2.09-.74-3.08-1.89-3.08-3.29,0-1.87,1.52-3.4,4-3.4a5.74,5.74,0,0,1,2.86.72l-.53,1.53a4.53,4.53,0,0,0-2.38-.67c-1.24,0-1.94.72-1.94,1.58s.7,1.4,2.21,2c2,.77,3,1.78,3,3.51,0,2-1.59,3.48-4.35,3.48a6.49,6.49,0,0,1-3.26-.8Z" transform="translate(-8.29 -11.7)"/><path d="M84.27,42.58v3.34h3v1.61h-3v6.26c0,1.44.41,2.26,1.59,2.26a4.28,4.28,0,0,0,1.22-.15l.1,1.59a5.16,5.16,0,0,1-1.88.29A2.93,2.93,0,0,1,83,56.89a4.33,4.33,0,0,1-.81-3V47.53h-1.8V45.92h1.8V43.14Z" transform="translate(-8.29 -11.7)"/><path d="M92,42.66A1.24,1.24,0,0,1,90.68,44a1.25,1.25,0,0,1-1.27-1.29,1.28,1.28,0,0,1,1.32-1.32A1.25,1.25,0,0,1,92,42.66ZM89.67,57.54V45.92h2.11V57.54Z" transform="translate(-8.29 -11.7)"/><path d="M95.29,49.06c0-1.2,0-2.18-.1-3.14h1.87l.12,1.92h0a4.28,4.28,0,0,1,3.84-2.18c1.61,0,4.11,1,4.11,4.94v6.94h-2.12v-6.7c0-1.87-.69-3.43-2.68-3.43a3,3,0,0,0-2.84,2.16,3.17,3.17,0,0,0-.14,1v7H95.29Z" transform="translate(-8.29 -11.7)"/><path d="M118.62,45.92c-.05.84-.1,1.78-.1,3.19v6.75c0,2.66-.53,4.29-1.66,5.3a6.12,6.12,0,0,1-4.22,1.39,7.41,7.41,0,0,1-3.86-1l.52-1.6a6.56,6.56,0,0,0,3.41.91c2.16,0,3.75-1.13,3.75-4.06v-1.3h0a4.16,4.16,0,0,1-3.7,2c-2.88,0-4.94-2.45-4.94-5.67,0-3.93,2.57-6.16,5.23-6.16a3.84,3.84,0,0,1,3.62,2h0l.1-1.75Zm-2.19,4.58a2.91,2.91,0,0,0-.12-1,3,3,0,0,0-3-2.23c-2,0-3.46,1.71-3.46,4.39,0,2.28,1.16,4.18,3.44,4.18a3.08,3.08,0,0,0,2.92-2.16,3.69,3.69,0,0,0,.17-1.13Z" transform="translate(-8.29 -11.7)"/><path d="M126.82,55.38a5.65,5.65,0,0,0,2.79.84c1.53,0,2.25-.77,2.25-1.73s-.6-1.56-2.16-2.14c-2.08-.74-3.07-1.89-3.07-3.29,0-1.87,1.51-3.4,4-3.4a5.74,5.74,0,0,1,2.86.72L133,47.91a4.53,4.53,0,0,0-2.38-.67c-1.25,0-1.94.72-1.94,1.58s.69,1.4,2.21,2c2,.77,3,1.78,3,3.51,0,2-1.58,3.48-4.34,3.48a6.56,6.56,0,0,1-3.27-.8Z" transform="translate(-8.29 -11.7)"/><path d="M137.38,45.92l2.55,6.86c.26.77.55,1.68.74,2.38h.05c.22-.7.46-1.58.74-2.42l2.31-6.82H146l-3.17,8.28c-1.51,4-2.54,6-4,7.27a5.63,5.63,0,0,1-2.6,1.37l-.52-1.77a5.77,5.77,0,0,0,1.85-1,6.4,6.4,0,0,0,1.77-2.35,1.39,1.39,0,0,0,.17-.5,1.86,1.86,0,0,0-.15-.56l-4.29-10.7Z" transform="translate(-8.29 -11.7)"/><path d="M147.49,55.38a5.57,5.57,0,0,0,2.78.84c1.54,0,2.26-.77,2.26-1.73s-.6-1.56-2.16-2.14c-2.09-.74-3.08-1.89-3.08-3.29,0-1.87,1.52-3.4,4-3.4a5.74,5.74,0,0,1,2.86.72l-.53,1.53a4.5,4.5,0,0,0-2.38-.67c-1.24,0-1.94.72-1.94,1.58s.7,1.4,2.21,2c2,.77,3,1.78,3,3.51,0,2-1.59,3.48-4.35,3.48A6.49,6.49,0,0,1,147,57Z" transform="translate(-8.29 -11.7)"/><path d="M159.82,42.58v3.34h3v1.61h-3v6.26c0,1.44.41,2.26,1.59,2.26a4.28,4.28,0,0,0,1.22-.15l.1,1.59a5.16,5.16,0,0,1-1.88.29,2.93,2.93,0,0,1-2.28-.89,4.33,4.33,0,0,1-.81-3V47.53H156V45.92h1.8V43.14Z" transform="translate(-8.29 -11.7)"/><path d="M166.25,52.11a3.72,3.72,0,0,0,4,4,7.54,7.54,0,0,0,3.21-.6l.36,1.52a9.46,9.46,0,0,1-3.86.72c-3.58,0-5.71-2.36-5.71-5.86s2.06-6.26,5.45-6.26c3.79,0,4.8,3.33,4.8,5.47a6.57,6.57,0,0,1-.08,1Zm6.2-1.51c0-1.34-.56-3.43-2.93-3.43-2.14,0-3.07,2-3.24,3.43Z" transform="translate(-8.29 -11.7)"/><path d="M177.1,49.06c0-1.2,0-2.18-.09-3.14h1.84l.1,1.87H179a4,4,0,0,1,3.65-2.13A3.43,3.43,0,0,1,186,48h0a4.85,4.85,0,0,1,1.29-1.51,4,4,0,0,1,2.57-.81c1.54,0,3.82,1,3.82,5v6.84h-2.07V51c0-2.23-.81-3.58-2.52-3.58a2.73,2.73,0,0,0-2.49,1.92,3.41,3.41,0,0,0-.17,1.06v7.18h-2.06v-7c0-1.85-.82-3.2-2.43-3.2a3.13,3.13,0,0,0-2.78,3.15v7H177.1Z" transform="translate(-8.29 -11.7)"/><path d="M196.83,55.38a5.61,5.61,0,0,0,2.78.84c1.54,0,2.26-.77,2.26-1.73s-.6-1.56-2.16-2.14c-2.09-.74-3.07-1.89-3.07-3.29,0-1.87,1.51-3.4,4-3.4a5.73,5.73,0,0,1,2.85.72L203,47.91a4.46,4.46,0,0,0-2.37-.67c-1.25,0-1.95.72-1.95,1.58s.7,1.4,2.21,2c2,.77,3,1.78,3,3.51,0,2-1.58,3.48-4.34,3.48a6.53,6.53,0,0,1-3.27-.8Z" transform="translate(-8.29 -11.7)"/><path d="M218.14,57.54,218,56.07h-.07a4.33,4.33,0,0,1-3.55,1.73,3.31,3.31,0,0,1-3.55-3.34c0-2.8,2.49-4.34,7-4.32V49.9a2.39,2.39,0,0,0-2.64-2.68,5.74,5.74,0,0,0-3,.86l-.48-1.39a7.14,7.14,0,0,1,3.81-1c3.56,0,4.42,2.42,4.42,4.75v4.34a16.91,16.91,0,0,0,.19,2.79Zm-.31-5.93c-2.3,0-4.92.36-4.92,2.61a1.87,1.87,0,0,0,2,2,2.9,2.9,0,0,0,2.81-1.94,2.32,2.32,0,0,0,.12-.68Z" transform="translate(-8.29 -11.7)"/><path d="M223.28,49.06c0-1.2,0-2.18-.1-3.14h1.87l.12,1.92h.05a4.28,4.28,0,0,1,3.84-2.18c1.61,0,4.11,1,4.11,4.94v6.94h-2.11v-6.7c0-1.87-.7-3.43-2.69-3.43a3,3,0,0,0-2.84,2.16,3.17,3.17,0,0,0-.14,1v7h-2.11Z" transform="translate(-8.29 -11.7)"/><path d="M246.63,40.5v14c0,1,0,2.2.1,3h-1.9l-.1-2h0a4.3,4.3,0,0,1-4,2.28c-2.81,0-5-2.38-5-5.9,0-3.87,2.37-6.24,5.21-6.24a3.9,3.9,0,0,1,3.5,1.77h.05V40.5Zm-2.11,10.15a3.8,3.8,0,0,0-.1-.89,3.11,3.11,0,0,0-3-2.45c-2.18,0-3.48,1.92-3.48,4.49,0,2.35,1.16,4.3,3.44,4.3a3.17,3.17,0,0,0,3.09-2.52,3.82,3.82,0,0,0,.1-.92Z" transform="translate(-8.29 -11.7)"/><path d="M12.08,71.46a1.24,1.24,0,0,1-1.34,1.29,1.25,1.25,0,0,1-1.27-1.29,1.28,1.28,0,0,1,1.32-1.32A1.25,1.25,0,0,1,12.08,71.46ZM9.73,86.34V74.72h2.11V86.34Z" transform="translate(-8.29 -11.7)"/><path d="M15.34,77.86c0-1.2,0-2.18-.09-3.14h1.87l.12,1.92h.05a4.28,4.28,0,0,1,3.84-2.18c1.61,0,4.1,1,4.1,4.94v6.94H23.12v-6.7c0-1.87-.69-3.43-2.69-3.43a3,3,0,0,0-2.83,2.16,2.9,2.9,0,0,0-.14,1v7H15.34Z" transform="translate(-8.29 -11.7)"/><path d="M28.88,86.34v-10H27.25V74.72h1.63v-.55a5.51,5.51,0,0,1,1.34-4.06A4.05,4.05,0,0,1,33.06,69a4.87,4.87,0,0,1,1.8.34L34.57,71a3.21,3.21,0,0,0-1.35-.26c-1.8,0-2.25,1.58-2.25,3.36v.62h2.81v1.61H31v10Z" transform="translate(-8.29 -11.7)"/><path d="M45.87,80.43c0,4.3-3,6.17-5.78,6.17-3.14,0-5.57-2.3-5.57-6,0-3.88,2.55-6.16,5.76-6.16S45.87,76.88,45.87,80.43Zm-9.21.12c0,2.55,1.46,4.47,3.53,4.47s3.52-1.9,3.52-4.52c0-2-1-4.46-3.48-4.46S36.66,78.34,36.66,80.55Z" transform="translate(-8.29 -11.7)"/><path d="M48.54,78.34c0-1.36,0-2.54-.1-3.62h1.85L50.36,77h.1a3.47,3.47,0,0,1,3.21-2.54,2.2,2.2,0,0,1,.6.07v2a3,3,0,0,0-.72-.07,3,3,0,0,0-2.83,2.71,5.69,5.69,0,0,0-.1,1v6.2H48.54Z" transform="translate(-8.29 -11.7)"/><path d="M56.48,77.86c0-1.2,0-2.18-.1-3.14h1.85l.1,1.87h.07a4,4,0,0,1,3.65-2.13,3.45,3.45,0,0,1,3.29,2.32h0a4.85,4.85,0,0,1,1.29-1.51,4,4,0,0,1,2.57-.81c1.54,0,3.82,1,3.82,5v6.84H71V79.76c0-2.23-.81-3.58-2.52-3.58A2.73,2.73,0,0,0,66,78.1a3.41,3.41,0,0,0-.17,1.06v7.18H63.75v-7c0-1.85-.81-3.2-2.42-3.2a3.17,3.17,0,0,0-2.79,3.15v7H56.48Z" transform="translate(-8.29 -11.7)"/><path d="M82.93,86.34l-.17-1.47h-.07a4.34,4.34,0,0,1-3.55,1.73,3.31,3.31,0,0,1-3.56-3.34c0-2.8,2.5-4.34,7-4.32V78.7A2.39,2.39,0,0,0,79.93,76a5.8,5.8,0,0,0-3,.86l-.48-1.39a7.18,7.18,0,0,1,3.82-1c3.55,0,4.42,2.42,4.42,4.75v4.34a16.91,16.91,0,0,0,.19,2.79Zm-.31-5.93c-2.31,0-4.92.36-4.92,2.61a1.87,1.87,0,0,0,2,2A2.9,2.9,0,0,0,82.5,83.1a2.32,2.32,0,0,0,.12-.68Z" transform="translate(-8.29 -11.7)"/><path d="M90.51,71.38v3.34h3v1.61h-3v6.26c0,1.44.41,2.26,1.59,2.26a4.28,4.28,0,0,0,1.22-.15l.1,1.59a5.14,5.14,0,0,1-1.87.29,2.93,2.93,0,0,1-2.28-.89,4.28,4.28,0,0,1-.82-3V76.33h-1.8V74.72h1.8V71.94Z" transform="translate(-8.29 -11.7)"/><path d="M98.27,71.46a1.31,1.31,0,0,1-2.62,0A1.28,1.28,0,0,1,97,70.14,1.25,1.25,0,0,1,98.27,71.46ZM95.91,86.34V74.72H98V86.34Z" transform="translate(-8.29 -11.7)"/><path d="M112,80.43c0,4.3-3,6.17-5.78,6.17-3.15,0-5.57-2.3-5.57-6,0-3.88,2.54-6.16,5.76-6.16S112,76.88,112,80.43Zm-9.22.12c0,2.55,1.47,4.47,3.53,4.47s3.53-1.9,3.53-4.52c0-2-1-4.46-3.48-4.46S102.82,78.34,102.82,80.55Z" transform="translate(-8.29 -11.7)"/><path d="M114.7,77.86c0-1.2,0-2.18-.09-3.14h1.87l.12,1.92h.05a4.27,4.27,0,0,1,3.84-2.18c1.61,0,4.1,1,4.1,4.94v6.94h-2.11v-6.7c0-1.87-.69-3.43-2.69-3.43A3,3,0,0,0,117,78.37a2.9,2.9,0,0,0-.14,1v7H114.7Z" transform="translate(-8.29 -11.7)"/><path d="M141.39,85.9a7.68,7.68,0,0,1-3.33.68c-3.51,0-5.79-2.38-5.79-5.93a5.9,5.9,0,0,1,6.24-6.17,7,7,0,0,1,2.93.6L141,76.71a4.88,4.88,0,0,0-2.45-.55c-2.66,0-4.1,2-4.1,4.39,0,2.69,1.73,4.35,4,4.35a6,6,0,0,0,2.59-.58Z" transform="translate(-8.29 -11.7)"/><path d="M154.23,80.43c0,4.3-3,6.17-5.78,6.17-3.15,0-5.57-2.3-5.57-6,0-3.88,2.54-6.16,5.76-6.16S154.23,76.88,154.23,80.43Zm-9.21.12c0,2.55,1.46,4.47,3.52,4.47s3.53-1.9,3.53-4.52c0-2-1-4.46-3.48-4.46S145,78.34,145,80.55Z" transform="translate(-8.29 -11.7)"/><path d="M156.9,78.51c0-1.49-.05-2.69-.1-3.79h1.9l.09,2h.05A4.57,4.57,0,0,1,163,74.46c2.81,0,4.92,2.37,4.92,5.9,0,4.18-2.55,6.24-5.28,6.24A4.08,4.08,0,0,1,159,84.78H159v6.31H156.9Zm2.08,3.1a4.51,4.51,0,0,0,.1.86,3.25,3.25,0,0,0,3.17,2.47c2.23,0,3.53-1.82,3.53-4.48,0-2.33-1.23-4.32-3.46-4.32a3.37,3.37,0,0,0-3.19,2.61,3.6,3.6,0,0,0-.15.87Z" transform="translate(-8.29 -11.7)"/><path d="M172.9,71.46a1.24,1.24,0,0,1-1.34,1.29,1.25,1.25,0,0,1-1.27-1.29,1.28,1.28,0,0,1,1.32-1.32A1.25,1.25,0,0,1,172.9,71.46Zm-2.35,14.88V74.72h2.11V86.34Z" transform="translate(-8.29 -11.7)"/><path d="M177.34,80.91a3.72,3.72,0,0,0,4,4,7.54,7.54,0,0,0,3.21-.6l.36,1.52a9.46,9.46,0,0,1-3.86.72c-3.58,0-5.71-2.36-5.71-5.86s2.06-6.26,5.45-6.26c3.79,0,4.8,3.33,4.8,5.47a6.57,6.57,0,0,1-.08,1Zm6.2-1.51c0-1.34-.56-3.43-2.93-3.43-2.14,0-3.07,2-3.24,3.43Z" transform="translate(-8.29 -11.7)"/><path d="M198.22,69.3v14c0,1,0,2.2.1,3h-1.9l-.09-2h-.05a4.29,4.29,0,0,1-4,2.28c-2.81,0-5-2.38-5-5.9,0-3.87,2.38-6.24,5.21-6.24a3.87,3.87,0,0,1,3.5,1.77h.05V69.3Zm-2.11,10.15a3.79,3.79,0,0,0-.09-.89A3.12,3.12,0,0,0,193,76.11c-2.19,0-3.48,1.92-3.48,4.49,0,2.35,1.15,4.3,3.43,4.3a3.18,3.18,0,0,0,3.1-2.52,3.83,3.83,0,0,0,.09-.92Z" transform="translate(-8.29 -11.7)"/><path d="M209.36,71.38v3.34h3v1.61h-3v6.26c0,1.44.41,2.26,1.58,2.26a4.37,4.37,0,0,0,1.23-.15l.09,1.59a5.06,5.06,0,0,1-1.87.29,3,3,0,0,1-2.28-.89,4.33,4.33,0,0,1-.81-3V76.33h-1.81V74.72h1.81V71.94Z" transform="translate(-8.29 -11.7)"/><path d="M225.13,80.43c0,4.3-3,6.17-5.79,6.17-3.14,0-5.57-2.3-5.57-6,0-3.88,2.55-6.16,5.77-6.16S225.13,76.88,225.13,80.43Zm-9.22.12c0,2.55,1.46,4.47,3.53,4.47S223,83.12,223,80.5c0-2-1-4.46-3.48-4.46S215.91,78.34,215.91,80.55Z" transform="translate(-8.29 -11.7)"/><path d="M235.42,71.38v3.34h3v1.61h-3v6.26c0,1.44.41,2.26,1.59,2.26a4.28,4.28,0,0,0,1.22-.15l.1,1.59a5.16,5.16,0,0,1-1.88.29,3,3,0,0,1-2.28-.89,4.33,4.33,0,0,1-.81-3V76.33h-1.8V74.72h1.8V71.94Z" transform="translate(-8.29 -11.7)"/><path d="M240.82,69.3h2.11v7.24h0a4,4,0,0,1,1.51-1.48,4.37,4.37,0,0,1,2.16-.6c1.57,0,4.06,1,4.06,5v6.92H248.6V79.66c0-1.87-.7-3.45-2.69-3.45a3,3,0,0,0-2.83,2.11,2.56,2.56,0,0,0-.15,1v7h-2.11Z" transform="translate(-8.29 -11.7)"/><path d="M255.32,80.91a3.72,3.72,0,0,0,4,4,7.6,7.6,0,0,0,3.22-.6l.36,1.52a9.56,9.56,0,0,1-3.87.72c-3.57,0-5.71-2.36-5.71-5.86s2.07-6.26,5.45-6.26c3.79,0,4.8,3.33,4.8,5.47a8.79,8.79,0,0,1-.07,1Zm6.19-1.51c0-1.34-.55-3.43-2.93-3.43-2.13,0-3.07,2-3.24,3.43Z" transform="translate(-8.29 -11.7)"/><path d="M9.8,115.14V99h2.28l5.19,8.18a46.06,46.06,0,0,1,2.9,5.26l0,0c-.19-2.16-.24-4.13-.24-6.65V99h2v16.18H19.83l-5.13-8.21a52,52,0,0,1-3-5.4l-.07,0c.12,2,.17,4,.17,6.67v6.92Z" transform="translate(-8.29 -11.7)"/><path d="M26.7,109.71a3.71,3.71,0,0,0,4,4,7.6,7.6,0,0,0,3.22-.6l.36,1.52a9.56,9.56,0,0,1-3.87.72c-3.57,0-5.71-2.36-5.71-5.86s2.06-6.26,5.45-6.26c3.79,0,4.8,3.33,4.8,5.47a8.79,8.79,0,0,1-.07,1Zm6.19-1.51c0-1.34-.55-3.43-2.93-3.43-2.14,0-3.07,2-3.24,3.43Z" transform="translate(-8.29 -11.7)"/><path d="M40.09,100.18v3.34h3v1.61h-3v6.26c0,1.44.41,2.26,1.58,2.26a4.42,4.42,0,0,0,1.23-.15l.09,1.59a5.1,5.1,0,0,1-1.87.29,2.91,2.91,0,0,1-2.28-.89,4.33,4.33,0,0,1-.82-3v-6.33h-1.8v-1.61H38v-2.78Z" transform="translate(-8.29 -11.7)"/><path d="M46.54,103.52l1.54,5.9c.34,1.3.65,2.5.86,3.7H49c.26-1.18.64-2.42,1-3.67l1.89-5.93h1.78l1.8,5.81c.43,1.39.77,2.61,1,3.79h.07a38,38,0,0,1,.89-3.77l1.66-5.83h2.09l-3.75,11.62H55.59l-1.77-5.55a36.14,36.14,0,0,1-1-3.81h0a34.61,34.61,0,0,1-1.06,3.84l-1.87,5.52H47.89l-3.51-11.62Z" transform="translate(-8.29 -11.7)"/><path d="M73.64,109.23c0,4.3-3,6.17-5.78,6.17-3.15,0-5.57-2.3-5.57-6,0-3.88,2.54-6.16,5.76-6.16S73.64,105.68,73.64,109.23Zm-9.22.12c0,2.55,1.47,4.47,3.53,4.47s3.53-1.9,3.53-4.52c0-2-1-4.46-3.48-4.46S64.42,107.14,64.42,109.35Z" transform="translate(-8.29 -11.7)"/><path d="M76.3,107.14c0-1.36,0-2.54-.09-3.62h1.85l.07,2.28h.09a3.48,3.48,0,0,1,3.22-2.54,2.2,2.2,0,0,1,.6.07v2a3.08,3.08,0,0,0-.72-.07A3,3,0,0,0,78.49,108a5.69,5.69,0,0,0-.1,1v6.2H76.3Z" transform="translate(-8.29 -11.7)"/><path d="M86.34,108.85h0c.29-.41.7-.91,1-1.32l3.4-4h2.55l-4.49,4.78L94,115.14H91.42l-4-5.57-1.08,1.2v4.37H84.25v-17h2.09Z" transform="translate(-8.29 -11.7)"/><path d="M95.34,113.89a1.42,1.42,0,0,1,1.44-1.51,1.51,1.51,0,0,1,0,3A1.41,1.41,0,0,1,95.34,113.89Z" transform="translate(-8.29 -11.7)"/><path d="M9.8,128a19.53,19.53,0,0,1,3.82-.34,6.66,6.66,0,0,1,4.44,1.18,3.37,3.37,0,0,1,1.34,2.85,3.83,3.83,0,0,1-2.73,3.55v.05A4.18,4.18,0,0,1,20,139.33a4.35,4.35,0,0,1-1.37,3.24c-1.12,1-2.95,1.51-5.59,1.51a25.64,25.64,0,0,1-3.24-.19Zm2.09,6.62h1.9c2.2,0,3.5-1.15,3.5-2.71,0-1.9-1.44-2.64-3.55-2.64a9.26,9.26,0,0,0-1.85.14Zm0,7.75a11.34,11.34,0,0,0,1.75.1c2.16,0,4.15-.79,4.15-3.15,0-2.2-1.89-3.12-4.17-3.12H11.89Z" transform="translate(-8.29 -11.7)"/><path d="M32.46,140.77c0,1.2,0,2.25.09,3.17H30.68l-.12-1.9h0a4.35,4.35,0,0,1-3.84,2.16c-1.82,0-4-1-4-5.09v-6.79h2.12v6.43c0,2.21.67,3.7,2.59,3.7a3,3,0,0,0,2.78-1.92,3.1,3.1,0,0,0,.2-1.08v-7.13h2.11Z" transform="translate(-8.29 -11.7)"/><path d="M36.73,132.32l2.54,6.86c.27.77.56,1.68.75,2.38h0c.21-.7.45-1.58.74-2.42l2.3-6.82h2.24l-3.17,8.28c-1.51,4-2.55,6-4,7.27a5.57,5.57,0,0,1-2.59,1.37l-.53-1.77a5.57,5.57,0,0,0,1.85-1,6.31,6.31,0,0,0,1.78-2.35,1.71,1.71,0,0,0,.17-.5,1.86,1.86,0,0,0-.15-.56l-4.3-10.7Z" transform="translate(-8.29 -11.7)"/><path d="M48.2,138.51a3.72,3.72,0,0,0,4,4,7.54,7.54,0,0,0,3.21-.6l.36,1.52a9.46,9.46,0,0,1-3.86.72c-3.58,0-5.72-2.36-5.72-5.86s2.07-6.26,5.45-6.26c3.8,0,4.8,3.33,4.8,5.47a6.87,6.87,0,0,1-.07,1ZM54.39,137c0-1.34-.55-3.43-2.92-3.43-2.14,0-3.08,2-3.25,3.43Z" transform="translate(-8.29 -11.7)"/><path d="M59.05,135.94c0-1.36,0-2.54-.1-3.62H60.8l.07,2.28H61a3.48,3.48,0,0,1,3.22-2.54,2.25,2.25,0,0,1,.6.07v2a3.14,3.14,0,0,0-.72-.07,3,3,0,0,0-2.84,2.71,5.74,5.74,0,0,0-.09,1v6.2H59.05Z" transform="translate(-8.29 -11.7)"/><path d="M66.61,141.78a5.61,5.61,0,0,0,2.78.84c1.54,0,2.26-.77,2.26-1.73s-.6-1.56-2.16-2.14c-2.09-.74-3.07-1.89-3.07-3.29,0-1.87,1.51-3.4,4-3.4a5.73,5.73,0,0,1,2.85.72l-.53,1.53a4.46,4.46,0,0,0-2.37-.67c-1.25,0-1.95.72-1.95,1.58s.7,1.4,2.21,2c2,.77,3,1.78,3,3.51,0,2-1.58,3.48-4.34,3.48a6.64,6.64,0,0,1-3.27-.8Z" transform="translate(-8.29 -11.7)"/><path d="M91.69,143.94c-.46-.46-.89-.92-1.51-1.59a6.61,6.61,0,0,1-4.73,1.85c-3.14,0-5-2.11-5-4.54a5.3,5.3,0,0,1,3.17-4.72v-.08a5.53,5.53,0,0,1-1.34-3.38,3.92,3.92,0,0,1,4.1-4A3.36,3.36,0,0,1,90,130.93c0,1.7-1,3-3.56,4.32v.07c1.37,1.58,2.91,3.36,3.94,4.51a11.91,11.91,0,0,0,1.56-4.73h1.92a12.29,12.29,0,0,1-2.33,6c.87.91,1.71,1.82,2.67,2.86Zm-2.54-2.79c-1-1.05-2.76-3-4.56-5.09a4,4,0,0,0-2.09,3.29,3.2,3.2,0,0,0,3.31,3.27A4.54,4.54,0,0,0,89.15,141.15Zm-4.93-9.86a4.51,4.51,0,0,0,1.23,2.9c1.63-.93,2.69-1.8,2.69-3.17a1.9,1.9,0,0,0-1.87-2.08A2.11,2.11,0,0,0,84.22,131.29Z" transform="translate(-8.29 -11.7)"/><path d="M100.88,141.39a7.36,7.36,0,0,0,3.74,1.06c2.14,0,3.39-1.13,3.39-2.76s-.86-2.38-3.05-3.22c-2.64-.93-4.27-2.3-4.27-4.58,0-2.52,2.09-4.39,5.23-4.39a7.34,7.34,0,0,1,3.58.79l-.58,1.7a6.43,6.43,0,0,0-3.07-.77c-2.21,0-3,1.32-3,2.43,0,1.51,1,2.25,3.22,3.12,2.73,1,4.13,2.37,4.13,4.75s-1.85,4.66-5.67,4.66a8.34,8.34,0,0,1-4.13-1Z" transform="translate(-8.29 -11.7)"/><path d="M122.65,140.77c0,1.2,0,2.25.1,3.17h-1.88l-.12-1.9h0a4.38,4.38,0,0,1-3.84,2.16c-1.83,0-4-1-4-5.09v-6.79H115v6.43c0,2.21.67,3.7,2.59,3.7a3,3,0,0,0,3-3v-7.13h2.11Z" transform="translate(-8.29 -11.7)"/><path d="M126.15,136.11c0-1.49-.05-2.69-.09-3.79H128l.1,2h0a4.57,4.57,0,0,1,4.13-2.25c2.8,0,4.92,2.37,4.92,5.9,0,4.18-2.55,6.24-5.28,6.24a4.08,4.08,0,0,1-3.58-1.82h0v6.31h-2.09Zm2.09,3.1a4.51,4.51,0,0,0,.1.86,3.24,3.24,0,0,0,3.17,2.47c2.23,0,3.52-1.82,3.52-4.48,0-2.33-1.22-4.32-3.45-4.32a3.36,3.36,0,0,0-3.19,2.61,3.17,3.17,0,0,0-.15.87Z" transform="translate(-8.29 -11.7)"/><path d="M139.81,136.11c0-1.49-.05-2.69-.1-3.79h1.9l.09,2h.05a4.59,4.59,0,0,1,4.13-2.25c2.81,0,4.92,2.37,4.92,5.9,0,4.18-2.54,6.24-5.28,6.24a4.09,4.09,0,0,1-3.58-1.82h0v6.31h-2.09Zm2.09,3.1a4.54,4.54,0,0,0,.09.86,3.26,3.26,0,0,0,3.17,2.47c2.23,0,3.53-1.82,3.53-4.48,0-2.33-1.22-4.32-3.46-4.32a3.37,3.37,0,0,0-3.19,2.61,3.59,3.59,0,0,0-.14.87Z" transform="translate(-8.29 -11.7)"/><path d="M153.46,126.9h2.12v17h-2.12Z" transform="translate(-8.29 -11.7)"/><path d="M161.48,129.06a1.31,1.31,0,0,1-2.62,0,1.29,1.29,0,0,1,1.32-1.32A1.25,1.25,0,0,1,161.48,129.06Zm-2.35,14.88V132.32h2.11v11.62Z" transform="translate(-8.29 -11.7)"/><path d="M165.92,138.51a3.72,3.72,0,0,0,4,4,7.56,7.56,0,0,0,3.22-.6l.36,1.52a9.5,9.5,0,0,1-3.86.72c-3.58,0-5.72-2.36-5.72-5.86s2.07-6.26,5.45-6.26c3.79,0,4.8,3.33,4.8,5.47a8.79,8.79,0,0,1-.07,1Zm6.19-1.51c0-1.34-.55-3.43-2.93-3.43-2.13,0-3.07,2-3.24,3.43Z" transform="translate(-8.29 -11.7)"/><path d="M176.77,135.94c0-1.36,0-2.54-.1-3.62h1.85l.07,2.28h.1a3.48,3.48,0,0,1,3.21-2.54,2.2,2.2,0,0,1,.6.07v2a3,3,0,0,0-.72-.07,3,3,0,0,0-2.83,2.71,5.74,5.74,0,0,0-.09,1v6.2h-2.09Z" transform="translate(-8.29 -11.7)"/><path d="M184.33,141.78a5.61,5.61,0,0,0,2.78.84c1.54,0,2.26-.77,2.26-1.73s-.6-1.56-2.16-2.14c-2.09-.74-3.07-1.89-3.07-3.29,0-1.87,1.51-3.4,4-3.4a5.74,5.74,0,0,1,2.86.72l-.53,1.53a4.46,4.46,0,0,0-2.37-.67c-1.25,0-1.95.72-1.95,1.58s.7,1.4,2.21,2c2,.77,3,1.78,3,3.51,0,2-1.59,3.48-4.35,3.48a6.62,6.62,0,0,1-3.26-.8Z" transform="translate(-8.29 -11.7)"/><path d="M19.76,155.7v14c0,1,0,2.21.1,3H18l-.09-2h-.05a4.3,4.3,0,0,1-4,2.28c-2.81,0-5-2.38-5-5.9,0-3.87,2.38-6.24,5.21-6.24a3.9,3.9,0,0,1,3.5,1.77h0V155.7Zm-2.11,10.15a3.33,3.33,0,0,0-.1-.89,3.1,3.1,0,0,0-3-2.45c-2.19,0-3.48,1.92-3.48,4.49,0,2.35,1.15,4.3,3.43,4.3a3.17,3.17,0,0,0,3.09-2.52,3.37,3.37,0,0,0,.1-.92Z" transform="translate(-8.29 -11.7)"/><path d="M24.44,167.31a3.72,3.72,0,0,0,4,4,7.54,7.54,0,0,0,3.21-.6l.36,1.52a9.46,9.46,0,0,1-3.86.72c-3.58,0-5.72-2.36-5.72-5.86s2.07-6.26,5.45-6.26c3.8,0,4.8,3.33,4.8,5.47a6.87,6.87,0,0,1-.07,1Zm6.19-1.51c0-1.34-.55-3.43-2.93-3.43-2.13,0-3.07,2-3.24,3.43Z" transform="translate(-8.29 -11.7)"/><path d="M35,170.58a5.51,5.51,0,0,0,2.79.84c1.53,0,2.25-.77,2.25-1.73s-.6-1.56-2.16-2.14c-2.09-.74-3.07-1.89-3.07-3.29,0-1.87,1.51-3.4,4-3.4a5.7,5.7,0,0,1,2.85.72l-.52,1.53a4.53,4.53,0,0,0-2.38-.67c-1.25,0-2,.72-2,1.58s.7,1.4,2.21,2c2,.77,3,1.78,3,3.51,0,2-1.58,3.48-4.34,3.48a6.53,6.53,0,0,1-3.27-.8Z" transform="translate(-8.29 -11.7)"/><path d="M47.14,157.86a1.24,1.24,0,0,1-1.34,1.29,1.25,1.25,0,0,1-1.27-1.29,1.28,1.28,0,0,1,1.32-1.32A1.25,1.25,0,0,1,47.14,157.86Zm-2.35,14.88V161.12H46.9v11.62Z" transform="translate(-8.29 -11.7)"/><path d="M60.42,161.12c-.05.84-.1,1.78-.1,3.19v6.75c0,2.66-.53,4.29-1.66,5.3a6.12,6.12,0,0,1-4.22,1.39,7.41,7.41,0,0,1-3.86-1l.52-1.6a6.56,6.56,0,0,0,3.41.91c2.16,0,3.75-1.13,3.75-4.06v-1.3h0a4.16,4.16,0,0,1-3.7,1.95c-2.88,0-4.94-2.45-4.94-5.67,0-3.93,2.57-6.16,5.23-6.16a3.87,3.87,0,0,1,3.63,2h0l.1-1.75Zm-2.19,4.58a2.91,2.91,0,0,0-.12-1,3,3,0,0,0-3-2.23c-2,0-3.46,1.71-3.46,4.39,0,2.28,1.16,4.18,3.44,4.18a3.08,3.08,0,0,0,2.92-2.16,3.69,3.69,0,0,0,.17-1.13Z" transform="translate(-8.29 -11.7)"/><path d="M63.68,164.26c0-1.2,0-2.18-.1-3.14h1.88l.12,1.92h0a4.28,4.28,0,0,1,3.84-2.18c1.61,0,4.11,1,4.11,4.94v6.94H71.46V166c0-1.87-.7-3.43-2.69-3.43a3,3,0,0,0-2.83,2.16,2.88,2.88,0,0,0-.15,1v7H63.68Z" transform="translate(-8.29 -11.7)"/><path d="M83.43,172.74l-.17-1.47h-.07A4.33,4.33,0,0,1,79.64,173a3.31,3.31,0,0,1-3.55-3.34c0-2.8,2.49-4.34,7-4.32v-.24a2.39,2.39,0,0,0-2.64-2.68,5.74,5.74,0,0,0-3,.86l-.48-1.39a7.14,7.14,0,0,1,3.81-1c3.56,0,4.42,2.42,4.42,4.75V170a16.83,16.83,0,0,0,.19,2.79Zm-.31-5.93c-2.3-.05-4.92.36-4.92,2.61a1.87,1.87,0,0,0,2,2A2.9,2.9,0,0,0,83,169.5a2.32,2.32,0,0,0,.12-.68Z" transform="translate(-8.29 -11.7)"/><path d="M91,157.78v3.34h3v1.61H91V169c0,1.44.4,2.26,1.58,2.26a4.28,4.28,0,0,0,1.22-.15l.1,1.59a5.14,5.14,0,0,1-1.87.29,2.9,2.9,0,0,1-2.28-.89,4.31,4.31,0,0,1-.82-3v-6.33h-1.8v-1.61H89v-2.78Z" transform="translate(-8.29 -11.7)"/><path d="M97.45,167.31a3.72,3.72,0,0,0,4,4,7.6,7.6,0,0,0,3.22-.6l.36,1.52a9.56,9.56,0,0,1-3.87.72c-3.57,0-5.71-2.36-5.71-5.86s2.07-6.26,5.45-6.26c3.79,0,4.8,3.33,4.8,5.47a8.79,8.79,0,0,1-.07,1Zm6.19-1.51c0-1.34-.55-3.43-2.93-3.43-2.13,0-3.07,2-3.24,3.43Z" transform="translate(-8.29 -11.7)"/><path d="M114.22,161.12l1.54,5.9c.34,1.3.65,2.5.86,3.7h.08c.26-1.18.64-2.42,1-3.67l1.89-5.93h1.78l1.8,5.81c.43,1.39.77,2.61,1,3.79h.07a38,38,0,0,1,.89-3.77l1.66-5.83h2.09l-3.75,11.62h-1.92l-1.77-5.55a38.77,38.77,0,0,1-1-3.81h0a34.61,34.61,0,0,1-1.06,3.84l-1.87,5.52h-1.92l-3.51-11.62Z" transform="translate(-8.29 -11.7)"/><path d="M131.05,155.7h2.11v7.24h.05a3.84,3.84,0,0,1,1.51-1.48,4.34,4.34,0,0,1,2.16-.6c1.56,0,4.06,1,4.06,5v6.92h-2.12v-6.68c0-1.87-.69-3.45-2.68-3.45a3,3,0,0,0-2.84,2.11,2.57,2.57,0,0,0-.14,1v7h-2.11Z" transform="translate(-8.29 -11.7)"/><path d="M154.88,166.83c0,4.3-3,6.17-5.78,6.17-3.15,0-5.57-2.3-5.57-6,0-3.88,2.54-6.16,5.76-6.16S154.88,163.28,154.88,166.83Zm-9.22.12c0,2.55,1.47,4.47,3.53,4.47s3.53-1.9,3.53-4.52c0-2-1-4.46-3.48-4.46S145.66,164.74,145.66,167Z" transform="translate(-8.29 -11.7)"/><path d="M170.91,172.3a7.68,7.68,0,0,1-3.33.68c-3.51,0-5.79-2.38-5.79-5.93a5.9,5.9,0,0,1,6.24-6.17,7,7,0,0,1,2.93.6l-.48,1.63a4.88,4.88,0,0,0-2.45-.55c-2.66,0-4.1,2-4.1,4.39,0,2.69,1.73,4.35,4,4.35a5.9,5.9,0,0,0,2.59-.58Z" transform="translate(-8.29 -11.7)"/><path d="M179.82,172.74l-.17-1.47h-.07A4.35,4.35,0,0,1,176,173a3.31,3.31,0,0,1-3.55-3.34c0-2.8,2.5-4.34,7-4.32v-.24a2.39,2.39,0,0,0-2.64-2.68,5.8,5.8,0,0,0-3,.86l-.48-1.39a7.15,7.15,0,0,1,3.82-1c3.55,0,4.41,2.42,4.41,4.75V170a15.75,15.75,0,0,0,.2,2.79Zm-.32-5.93c-2.3-.05-4.92.36-4.92,2.61a1.88,1.88,0,0,0,2,2,2.88,2.88,0,0,0,2.8-1.94,2,2,0,0,0,.12-.68Z" transform="translate(-8.29 -11.7)"/><path d="M185,164.26c0-1.2,0-2.18-.09-3.14h1.87l.12,1.92h.05a4.27,4.27,0,0,1,3.84-2.18c1.6,0,4.1,1,4.1,4.94v6.94h-2.11V166c0-1.87-.7-3.43-2.69-3.43a3,3,0,0,0-2.83,2.16,2.88,2.88,0,0,0-.15,1v7H185Z" transform="translate(-8.29 -11.7)"/><path d="M209.79,172.74l-.17-1.47h-.07A4.33,4.33,0,0,1,206,173a3.31,3.31,0,0,1-3.55-3.34c0-2.8,2.49-4.34,7-4.32v-.24a2.39,2.39,0,0,0-2.64-2.68,5.74,5.74,0,0,0-3,.86l-.48-1.39a7.14,7.14,0,0,1,3.81-1c3.56,0,4.42,2.42,4.42,4.75V170a16.83,16.83,0,0,0,.19,2.79Zm-.31-5.93c-2.3-.05-4.92.36-4.92,2.61a1.87,1.87,0,0,0,2,2,2.9,2.9,0,0,0,2.81-1.94,2.32,2.32,0,0,0,.12-.68Z" transform="translate(-8.29 -11.7)"/><path d="M223.21,172.3a7.74,7.74,0,0,1-3.34.68c-3.5,0-5.78-2.38-5.78-5.93a5.9,5.9,0,0,1,6.24-6.17,7,7,0,0,1,2.93.6l-.48,1.63a4.91,4.91,0,0,0-2.45-.55c-2.67,0-4.11,2-4.11,4.39,0,2.69,1.73,4.35,4,4.35a5.9,5.9,0,0,0,2.59-.58Z" transform="translate(-8.29 -11.7)"/><path d="M233.82,172.3a7.78,7.78,0,0,1-3.34.68c-3.51,0-5.79-2.38-5.79-5.93a5.91,5.91,0,0,1,6.25-6.17,7,7,0,0,1,2.92.6l-.48,1.63a4.84,4.84,0,0,0-2.44-.55c-2.67,0-4.11,2-4.11,4.39,0,2.69,1.73,4.35,4,4.35a6,6,0,0,0,2.6-.58Z" transform="translate(-8.29 -11.7)"/><path d="M237.32,167.31a3.72,3.72,0,0,0,4,4,7.56,7.56,0,0,0,3.22-.6l.36,1.52A9.5,9.5,0,0,1,241,173c-3.58,0-5.72-2.36-5.72-5.86s2.07-6.26,5.45-6.26c3.79,0,4.8,3.33,4.8,5.47a8.79,8.79,0,0,1-.07,1Zm6.19-1.51c0-1.34-.55-3.43-2.93-3.43-2.13,0-3.07,2-3.24,3.43Z" transform="translate(-8.29 -11.7)"/><path d="M247.88,170.58a5.51,5.51,0,0,0,2.78.84c1.54,0,2.26-.77,2.26-1.73s-.6-1.56-2.16-2.14c-2.09-.74-3.07-1.89-3.07-3.29,0-1.87,1.51-3.4,4-3.4a5.73,5.73,0,0,1,2.85.72l-.53,1.53a4.46,4.46,0,0,0-2.37-.67c-1.25,0-2,.72-2,1.58s.7,1.4,2.21,2c2,.77,3.05,1.78,3.05,3.51,0,2-1.58,3.48-4.34,3.48a6.53,6.53,0,0,1-3.27-.8Z" transform="translate(-8.29 -11.7)"/><path d="M257.38,170.58a5.55,5.55,0,0,0,2.79.84c1.53,0,2.25-.77,2.25-1.73s-.6-1.56-2.16-2.14c-2.08-.74-3.07-1.89-3.07-3.29,0-1.87,1.51-3.4,4-3.4a5.74,5.74,0,0,1,2.86.72l-.53,1.53a4.53,4.53,0,0,0-2.38-.67c-1.25,0-1.94.72-1.94,1.58s.69,1.4,2.21,2c2,.77,3,1.78,3,3.51,0,2-1.58,3.48-4.34,3.48a6.56,6.56,0,0,1-3.27-.8Z" transform="translate(-8.29 -11.7)"/><path d="M12.27,186.58v3.34h3v1.61h-3v6.26c0,1.44.41,2.26,1.59,2.26a4.28,4.28,0,0,0,1.22-.15l.1,1.59a5.14,5.14,0,0,1-1.87.29,2.9,2.9,0,0,1-2.28-.89,4.33,4.33,0,0,1-.82-3v-6.33H8.41v-1.61h1.8v-2.78Z" transform="translate(-8.29 -11.7)"/><path d="M17.67,184.5h2.12v7.24h0a3.94,3.94,0,0,1,1.52-1.48,4.31,4.31,0,0,1,2.16-.6c1.56,0,4,1,4,5v6.92H25.45v-6.68c0-1.87-.7-3.45-2.69-3.45a3,3,0,0,0-2.83,2.11,2.57,2.57,0,0,0-.14,1v7H17.67Z" transform="translate(-8.29 -11.7)"/><path d="M32.17,196.11a3.72,3.72,0,0,0,4,4,7.56,7.56,0,0,0,3.22-.6l.36,1.52a9.5,9.5,0,0,1-3.86.72c-3.58,0-5.72-2.36-5.72-5.86s2.07-6.26,5.45-6.26c3.79,0,4.8,3.33,4.8,5.47a8.79,8.79,0,0,1-.07,1Zm6.19-1.51c0-1.34-.55-3.43-2.93-3.43-2.13,0-3.07,2-3.24,3.43Z" transform="translate(-8.29 -11.7)"/><path d="M45.37,186.66a1.31,1.31,0,0,1-2.62,0,1.28,1.28,0,0,1,1.32-1.32A1.25,1.25,0,0,1,45.37,186.66ZM43,201.54V189.92h2.11v11.62Z" transform="translate(-8.29 -11.7)"/><path d="M48.63,193.54c0-1.36,0-2.54-.09-3.62h1.84l.08,2.28h.09a3.48,3.48,0,0,1,3.22-2.54,2.2,2.2,0,0,1,.6.07v2a3.08,3.08,0,0,0-.72-.07,3,3,0,0,0-2.83,2.71,5.69,5.69,0,0,0-.1,1v6.2H48.63Z" transform="translate(-8.29 -11.7)"/><path d="M71.6,184.5v14c0,1,0,2.2.1,3H69.8l-.1-2h0a4.3,4.3,0,0,1-4,2.28c-2.81,0-5-2.38-5-5.9,0-3.87,2.37-6.24,5.21-6.24a3.9,3.9,0,0,1,3.5,1.77h0V184.5Zm-2.11,10.15a3.33,3.33,0,0,0-.1-.89,3.11,3.11,0,0,0-3-2.45c-2.18,0-3.48,1.92-3.48,4.49,0,2.35,1.16,4.3,3.44,4.3a3.17,3.17,0,0,0,3.09-2.52,3.37,3.37,0,0,0,.1-.92Z" transform="translate(-8.29 -11.7)"/><path d="M81.54,201.54l-.17-1.47H81.3a4.35,4.35,0,0,1-3.56,1.73,3.31,3.31,0,0,1-3.55-3.34c0-2.8,2.5-4.34,7-4.32v-.24a2.39,2.39,0,0,0-2.64-2.68,5.8,5.8,0,0,0-3,.86L75,190.69a7.15,7.15,0,0,1,3.82-1c3.55,0,4.42,2.42,4.42,4.75v4.34a15.89,15.89,0,0,0,.19,2.79Zm-.32-5.93c-2.3-.05-4.92.36-4.92,2.61a1.88,1.88,0,0,0,2,2,2.88,2.88,0,0,0,2.8-1.94,2,2,0,0,0,.12-.68Z" transform="translate(-8.29 -11.7)"/><path d="M89.12,186.58v3.34h3v1.61h-3v6.26c0,1.44.41,2.26,1.58,2.26a4.37,4.37,0,0,0,1.23-.15l.09,1.59a5.06,5.06,0,0,1-1.87.29,2.93,2.93,0,0,1-2.28-.89,4.33,4.33,0,0,1-.81-3v-6.33h-1.8v-1.61h1.8v-2.78Z" transform="translate(-8.29 -11.7)"/><path d="M101,201.54l-.16-1.47h-.08a4.31,4.31,0,0,1-3.55,1.73,3.31,3.31,0,0,1-3.55-3.34c0-2.8,2.49-4.34,7-4.32v-.24A2.39,2.39,0,0,0,98,191.22a5.74,5.74,0,0,0-3,.86l-.48-1.39a7.15,7.15,0,0,1,3.82-1c3.55,0,4.41,2.42,4.41,4.75v4.34a16.91,16.91,0,0,0,.19,2.79Zm-.31-5.93c-2.3-.05-4.92.36-4.92,2.61a1.87,1.87,0,0,0,2,2,2.9,2.9,0,0,0,2.81-1.94,2.32,2.32,0,0,0,.12-.68Z" transform="translate(-8.29 -11.7)"/><path d="M105.58,200.29a1.42,1.42,0,0,1,1.44-1.51,1.51,1.51,0,0,1,0,3A1.42,1.42,0,0,1,105.58,200.29Z" transform="translate(-8.29 -11.7)"/><path d="M825.07,381.5h8.72v1.75h-6.63v5.38h6.12v1.73h-6.12v7.32h-2.09Z" transform="translate(-8.29 -11.7)"/><path d="M838.42,382.8a1.31,1.31,0,0,1-2.62,0,1.28,1.28,0,0,1,1.32-1.32A1.25,1.25,0,0,1,838.42,382.8Zm-2.36,14.88V386.06h2.12v11.62Z" transform="translate(-8.29 -11.7)"/><path d="M841.68,389.21c0-1.2,0-2.19-.1-3.15h1.88l.12,1.92h0a4.28,4.28,0,0,1,3.84-2.18c1.61,0,4.11,1,4.11,4.94v6.94h-2.11V391c0-1.87-.7-3.43-2.69-3.43a3,3,0,0,0-2.83,2.16,2.88,2.88,0,0,0-.15,1v7h-2.11Z" transform="translate(-8.29 -11.7)"/><path d="M861.43,397.68l-.17-1.47h-.07a4.3,4.3,0,0,1-3.55,1.73,3.3,3.3,0,0,1-3.55-3.33c0-2.81,2.49-4.35,7-4.32v-.24a2.39,2.39,0,0,0-2.64-2.69,5.74,5.74,0,0,0-3,.86l-.48-1.39a7.23,7.23,0,0,1,3.81-1c3.56,0,4.42,2.42,4.42,4.75v4.34a16.83,16.83,0,0,0,.19,2.79Zm-.31-5.93c-2.3-.05-4.92.36-4.92,2.62a1.87,1.87,0,0,0,2,2,2.9,2.9,0,0,0,2.81-1.94,2.31,2.31,0,0,0,.12-.67Z" transform="translate(-8.29 -11.7)"/><path d="M866.57,389.21c0-1.2,0-2.19-.1-3.15h1.87l.12,1.92h0a4.28,4.28,0,0,1,3.84-2.18c1.61,0,4.11,1,4.11,4.94v6.94h-2.12V391c0-1.87-.69-3.43-2.68-3.43a3,3,0,0,0-2.84,2.16,3.17,3.17,0,0,0-.14,1v7h-2.11Z" transform="translate(-8.29 -11.7)"/><path d="M888.17,397.25a7.92,7.92,0,0,1-3.34.67c-3.5,0-5.78-2.38-5.78-5.93a5.9,5.9,0,0,1,6.24-6.17,7,7,0,0,1,2.93.6l-.48,1.63a5,5,0,0,0-2.45-.55c-2.67,0-4.11,2-4.11,4.39,0,2.69,1.73,4.35,4,4.35a5.9,5.9,0,0,0,2.59-.58Z" transform="translate(-8.29 -11.7)"/><path d="M891.67,392.25a3.73,3.73,0,0,0,4,4,7.7,7.7,0,0,0,3.21-.6l.36,1.51a9.46,9.46,0,0,1-3.86.72c-3.58,0-5.71-2.35-5.71-5.86s2.06-6.26,5.44-6.26c3.8,0,4.8,3.33,4.8,5.47a6.87,6.87,0,0,1-.07,1Zm6.19-1.51c0-1.34-.55-3.43-2.92-3.43-2.14,0-3.08,2-3.24,3.43Z" transform="translate(-8.29 -11.7)"/><path d="M825,417.69c0-1.37,0-2.55-.1-3.63h1.85l.07,2.28h.1a3.48,3.48,0,0,1,3.22-2.54,2.25,2.25,0,0,1,.6.07v2a3.14,3.14,0,0,0-.72-.07,3,3,0,0,0-2.84,2.71,7.12,7.12,0,0,0-.09,1v6.19H825Z" transform="translate(-8.29 -11.7)"/><path d="M833.78,420.25a3.73,3.73,0,0,0,4,4,7.7,7.7,0,0,0,3.21-.6l.36,1.51a9.46,9.46,0,0,1-3.86.72c-3.58,0-5.71-2.35-5.71-5.86s2.06-6.26,5.45-6.26c3.79,0,4.8,3.33,4.8,5.47a6.57,6.57,0,0,1-.08,1Zm6.2-1.51c0-1.34-.56-3.43-2.93-3.43-2.14,0-3.07,2-3.24,3.43Z" transform="translate(-8.29 -11.7)"/><path d="M852.55,423.88h0a4.13,4.13,0,0,1-3.79,2.06c-2.71,0-4.92-2.35-4.92-5.88,0-4.34,2.81-6.26,5.26-6.26a3.81,3.81,0,0,1,3.57,2h0l.07-1.75h2c0,1-.08,2-.08,3.19v13.18h-2.11Zm0-5.11a3.68,3.68,0,0,0-.09-.89,3.09,3.09,0,0,0-3-2.4c-2.18,0-3.5,1.85-3.5,4.46,0,2.31,1.1,4.32,3.43,4.32a3.14,3.14,0,0,0,3-2.3,3.45,3.45,0,0,0,.17-1Z" transform="translate(-8.29 -11.7)"/><path d="M867.86,422.51c0,1.2,0,2.26.1,3.17h-1.87l-.12-1.9h-.05a4.37,4.37,0,0,1-3.84,2.16c-1.82,0-4-1-4-5.09v-6.79h2.11v6.43c0,2.21.68,3.7,2.6,3.7a3,3,0,0,0,2.78-1.92,3.1,3.1,0,0,0,.19-1.08v-7.13h2.11Z" transform="translate(-8.29 -11.7)"/><path d="M872.54,420.25a3.73,3.73,0,0,0,4,4,7.7,7.7,0,0,0,3.21-.6l.36,1.51a9.46,9.46,0,0,1-3.86.72c-3.58,0-5.71-2.35-5.71-5.86s2.06-6.26,5.45-6.26c3.79,0,4.8,3.33,4.8,5.47a6.57,6.57,0,0,1-.08,1Zm6.2-1.51c0-1.34-.56-3.43-2.93-3.43-2.14,0-3.07,2-3.24,3.43Z" transform="translate(-8.29 -11.7)"/><path d="M883.1,423.52a5.55,5.55,0,0,0,2.79.84c1.53,0,2.25-.77,2.25-1.73s-.6-1.56-2.16-2.14c-2.08-.74-3.07-1.89-3.07-3.28,0-1.88,1.51-3.41,4-3.41a5.74,5.74,0,0,1,2.86.72l-.53,1.53a4.63,4.63,0,0,0-2.38-.67c-1.25,0-1.94.72-1.94,1.59s.69,1.39,2.21,2c2,.77,3,1.78,3,3.51,0,2-1.58,3.48-4.34,3.48a6.6,6.6,0,0,1-3.26-.79Z" transform="translate(-8.29 -11.7)"/><path d="M895.44,410.73v3.33h3v1.61h-3v6.26c0,1.44.41,2.26,1.58,2.26a4.87,4.87,0,0,0,1.23-.14l.09,1.58a5.06,5.06,0,0,1-1.87.29,2.93,2.93,0,0,1-2.28-.89,4.3,4.3,0,0,1-.81-3v-6.34h-1.8v-1.61h1.8v-2.78Z" transform="translate(-8.29 -11.7)"/><path d="M900.55,423.52a5.55,5.55,0,0,0,2.79.84c1.53,0,2.25-.77,2.25-1.73s-.6-1.56-2.16-2.14c-2.09-.74-3.07-1.89-3.07-3.28,0-1.88,1.51-3.41,4-3.41a5.7,5.7,0,0,1,2.85.72l-.52,1.53a4.63,4.63,0,0,0-2.38-.67c-1.25,0-2,.72-2,1.59s.7,1.39,2.21,2c2,.77,3,1.78,3,3.51,0,2-1.58,3.48-4.34,3.48a6.67,6.67,0,0,1-3.27-.79Z" transform="translate(-8.29 -11.7)"/><path d="M827.54,438.73v3.33h3v1.61h-3v6.26c0,1.44.41,2.26,1.59,2.26a4.78,4.78,0,0,0,1.22-.14l.1,1.58a5.14,5.14,0,0,1-1.87.29,2.9,2.9,0,0,1-2.28-.89,4.3,4.3,0,0,1-.82-3v-6.34h-1.8v-1.61h1.8v-2.78Z" transform="translate(-8.29 -11.7)"/><path d="M832.94,436.64h2.12v7.25h0a4,4,0,0,1,1.52-1.49,4.31,4.31,0,0,1,2.16-.6c1.56,0,4.05,1,4.05,5v6.91h-2.11V447c0-1.88-.7-3.46-2.69-3.46a3,3,0,0,0-2.83,2.11,2.57,2.57,0,0,0-.14,1v7h-2.12Z" transform="translate(-8.29 -11.7)"/><path d="M846.26,445.69c0-1.37,0-2.55-.09-3.63H848l.07,2.28h.09a3.48,3.48,0,0,1,3.22-2.54,2.2,2.2,0,0,1,.6.07v2a3.08,3.08,0,0,0-.72-.07,3,3,0,0,0-2.83,2.71,5.81,5.81,0,0,0-.1,1v6.19h-2.09Z" transform="translate(-8.29 -11.7)"/><path d="M864.38,447.77c0,4.3-3,6.17-5.78,6.17-3.14,0-5.57-2.3-5.57-6,0-3.89,2.55-6.17,5.76-6.17S864.38,444.22,864.38,447.77Zm-9.21.12c0,2.55,1.46,4.47,3.53,4.47s3.52-1.9,3.52-4.51c0-2-1-4.47-3.48-4.47S855.17,445.69,855.17,447.89Z" transform="translate(-8.29 -11.7)"/><path d="M876.77,450.51c0,1.2,0,2.26.09,3.17H875l-.12-1.9h0a4.35,4.35,0,0,1-3.84,2.16c-1.82,0-4-1-4-5.09v-6.79h2.11v6.43c0,2.21.67,3.7,2.59,3.7a3,3,0,0,0,2.78-1.92,3.1,3.1,0,0,0,.2-1.08v-7.13h2.11Z" transform="translate(-8.29 -11.7)"/><path d="M890.28,442.06c0,.84-.1,1.78-.1,3.19V452c0,2.66-.52,4.29-1.65,5.3a6.15,6.15,0,0,1-4.23,1.4,7.51,7.51,0,0,1-3.86-1l.53-1.61a6.55,6.55,0,0,0,3.4.91c2.17,0,3.75-1.13,3.75-4.06v-1.29h0a4.14,4.14,0,0,1-3.7,1.94c-2.88,0-4.94-2.45-4.94-5.66,0-3.94,2.57-6.17,5.23-6.17a3.87,3.87,0,0,1,3.63,2h.05l.09-1.75Zm-2.18,4.59a3.15,3.15,0,0,0-.12-1,3.05,3.05,0,0,0-3-2.24c-2,0-3.45,1.71-3.45,4.4,0,2.28,1.15,4.17,3.43,4.17a3.08,3.08,0,0,0,2.93-2.16,3.69,3.69,0,0,0,.17-1.13Z" transform="translate(-8.29 -11.7)"/><path d="M893.69,436.64h2.11v7.25h.05a3.86,3.86,0,0,1,1.51-1.49,4.34,4.34,0,0,1,2.16-.6c1.56,0,4.06,1,4.06,5v6.91h-2.12V447c0-1.88-.69-3.46-2.68-3.46a3,3,0,0,0-2.84,2.11,2.57,2.57,0,0,0-.14,1v7h-2.11Z" transform="translate(-8.29 -11.7)"/><path d="M826.18,476.25a3.72,3.72,0,0,0,4,4,7.79,7.79,0,0,0,3.22-.6l.36,1.51a9.56,9.56,0,0,1-3.87.72c-3.57,0-5.71-2.35-5.71-5.86s2.06-6.26,5.45-6.26c3.79,0,4.8,3.33,4.8,5.47a8.79,8.79,0,0,1-.07,1Zm6.19-1.51c0-1.34-.55-3.43-2.93-3.43-2.14,0-3.07,2-3.24,3.43Z" transform="translate(-8.29 -11.7)"/><path d="M837.94,470.06l1.65,2.5c.43.65.79,1.25,1.18,1.89h.07c.38-.69.77-1.29,1.15-1.92l1.63-2.47h2.29l-4,5.62,4.08,6h-2.4l-1.7-2.62c-.46-.67-.84-1.32-1.25-2h0c-.38.69-.79,1.32-1.22,2l-1.68,2.62h-2.33l4.13-5.93-3.94-5.69Z" transform="translate(-8.29 -11.7)"/><path d="M850.42,466.8a1.31,1.31,0,0,1-2.62,0,1.28,1.28,0,0,1,1.32-1.32A1.25,1.25,0,0,1,850.42,466.8Zm-2.36,14.88V470.06h2.12v11.62Z" transform="translate(-8.29 -11.7)"/><path d="M853.39,479.52a5.55,5.55,0,0,0,2.79.84c1.53,0,2.25-.77,2.25-1.73s-.6-1.56-2.16-2.14c-2.09-.74-3.07-1.89-3.07-3.28,0-1.88,1.51-3.41,4-3.41a5.7,5.7,0,0,1,2.85.72l-.52,1.53a4.63,4.63,0,0,0-2.38-.67c-1.25,0-1.94.72-1.94,1.59s.69,1.39,2.2,2c2,.77,3.05,1.78,3.05,3.51,0,2-1.58,3.48-4.34,3.48a6.67,6.67,0,0,1-3.27-.79Z" transform="translate(-8.29 -11.7)"/><path d="M865.73,466.73v3.33h3v1.61h-3v6.26c0,1.44.41,2.26,1.58,2.26a4.93,4.93,0,0,0,1.23-.14l.09,1.58a5.1,5.1,0,0,1-1.87.29,2.91,2.91,0,0,1-2.28-.89,4.3,4.3,0,0,1-.82-3v-6.34h-1.8v-1.61h1.8v-2.78Z" transform="translate(-8.29 -11.7)"/><path d="M873.48,466.8a1.31,1.31,0,0,1-2.62,0,1.28,1.28,0,0,1,1.32-1.32A1.25,1.25,0,0,1,873.48,466.8Zm-2.35,14.88V470.06h2.11v11.62Z" transform="translate(-8.29 -11.7)"/><path d="M876.74,473.21c0-1.2,0-2.19-.09-3.15h1.87l.12,1.92h.05a4.27,4.27,0,0,1,3.84-2.18c1.61,0,4.1,1,4.1,4.94v6.94h-2.11V475c0-1.87-.7-3.43-2.69-3.43a3,3,0,0,0-2.83,2.16,2.9,2.9,0,0,0-.14,1v7h-2.12Z" transform="translate(-8.29 -11.7)"/><path d="M900.07,470.06c-.05.84-.09,1.78-.09,3.19V480c0,2.66-.53,4.29-1.66,5.3a6.14,6.14,0,0,1-4.22,1.4,7.55,7.55,0,0,1-3.87-1l.53-1.61a6.56,6.56,0,0,0,3.41.91c2.16,0,3.74-1.13,3.74-4.06v-1.29h0a4.12,4.12,0,0,1-3.69,1.94c-2.88,0-4.95-2.45-4.95-5.66,0-3.94,2.57-6.17,5.23-6.17a3.86,3.86,0,0,1,3.63,2h0l.09-1.75Zm-2.18,4.59a3.15,3.15,0,0,0-.12-1,3.05,3.05,0,0,0-2.95-2.24c-2,0-3.46,1.71-3.46,4.4,0,2.28,1.15,4.17,3.43,4.17a3.08,3.08,0,0,0,2.93-2.16,3.69,3.69,0,0,0,.17-1.13Z" transform="translate(-8.29 -11.7)"/><path d="M833.28,509.25a7.92,7.92,0,0,1-3.34.67c-3.5,0-5.78-2.38-5.78-5.93a5.9,5.9,0,0,1,6.24-6.17,7,7,0,0,1,2.93.6l-.48,1.63a5,5,0,0,0-2.45-.55c-2.66,0-4.1,2-4.1,4.39,0,2.69,1.72,4.35,4,4.35a5.9,5.9,0,0,0,2.59-.58Z" transform="translate(-8.29 -11.7)"/><path d="M835.75,492.64h2.11v7.25h0a4,4,0,0,1,1.51-1.49,4.37,4.37,0,0,1,2.16-.6c1.56,0,4.06,1,4.06,5v6.91h-2.11V503c0-1.88-.7-3.46-2.69-3.46a3,3,0,0,0-2.83,2.11,2.56,2.56,0,0,0-.15,1v7h-2.11Z" transform="translate(-8.29 -11.7)"/><path d="M855.5,509.68l-.16-1.47h-.08a4.29,4.29,0,0,1-3.55,1.73,3.3,3.3,0,0,1-3.55-3.33c0-2.81,2.5-4.35,7-4.32v-.24a2.39,2.39,0,0,0-2.64-2.69,5.76,5.76,0,0,0-3,.86l-.48-1.39a7.24,7.24,0,0,1,3.82-1c3.55,0,4.41,2.42,4.41,4.75v4.35a16.79,16.79,0,0,0,.19,2.78Zm-.31-5.93c-2.3-.05-4.92.36-4.92,2.62a1.86,1.86,0,0,0,2,2,2.88,2.88,0,0,0,2.81-1.94,2.31,2.31,0,0,0,.12-.67Z" transform="translate(-8.29 -11.7)"/><path d="M860.64,501.21c0-1.2,0-2.19-.1-3.15h1.88l.12,1.92h0a4.28,4.28,0,0,1,3.84-2.18c1.61,0,4.11,1,4.11,4.94v6.94h-2.11V503c0-1.87-.7-3.43-2.69-3.43a3,3,0,0,0-2.83,2.16,2.9,2.9,0,0,0-.15,1v7h-2.11Z" transform="translate(-8.29 -11.7)"/><path d="M874,501.21c0-1.2,0-2.19-.1-3.15h1.88l.12,1.92h0a4.28,4.28,0,0,1,3.84-2.18c1.61,0,4.11,1,4.11,4.94v6.94h-2.11V503c0-1.87-.7-3.43-2.69-3.43a3,3,0,0,0-2.83,2.16,2.9,2.9,0,0,0-.15,1v7H874Z" transform="translate(-8.29 -11.7)"/><path d="M888.45,504.25a3.73,3.73,0,0,0,4,4,7.79,7.79,0,0,0,3.22-.6l.36,1.51a9.56,9.56,0,0,1-3.87.72c-3.57,0-5.71-2.35-5.71-5.86s2.06-6.26,5.45-6.26c3.79,0,4.8,3.33,4.8,5.47a8.79,8.79,0,0,1-.07,1Zm6.2-1.51c0-1.34-.55-3.43-2.93-3.43-2.14,0-3.07,2-3.24,3.43Z" transform="translate(-8.29 -11.7)"/><path d="M899.3,492.64h2.11v17H899.3Z" transform="translate(-8.29 -11.7)"/><path d="M904.68,507.52a5.51,5.51,0,0,0,2.78.84c1.54,0,2.26-.77,2.26-1.73s-.6-1.56-2.16-2.14c-2.09-.74-3.07-1.89-3.07-3.28,0-1.88,1.51-3.41,4-3.41a5.74,5.74,0,0,1,2.86.72l-.53,1.53a4.55,4.55,0,0,0-2.37-.67c-1.25,0-2,.72-2,1.59s.7,1.39,2.21,2c2,.77,3,1.78,3,3.51,0,2-1.59,3.48-4.35,3.48a6.63,6.63,0,0,1-3.26-.79Z" transform="translate(-8.29 -11.7)"/><line class="cls-15" x1="591.86" y1="70.19" x2="591.86" y2="70.19"/><path class="cls-16" d="M592.46,79.85C559.75,71.65,481.72,58,398.61,95.69A287.1,287.1,0,0,0,300,170" transform="translate(-8.29 -11.7)"/><line class="cls-15" x1="289.08" y1="161.3" x2="289.08" y2="161.3"/><line class="cls-15" x1="692.3" y1="537.92" x2="692.3" y2="537.92"/><path class="cls-16" d="M706.33,544.1c24-23.68,76.23-83.24,87.22-173.84a287.12,287.12,0,0,0-12.18-122.89" transform="translate(-8.29 -11.7)"/><line class="cls-15" x1="771.83" y1="231.9" x2="771.83" y2="231.9"/><path d="M329.16,554.7a20.3,20.3,0,0,1,3.81-.34,6.64,6.64,0,0,1,4.44,1.18,3.39,3.39,0,0,1,1.35,2.86A3.86,3.86,0,0,1,336,562v0a4.18,4.18,0,0,1,3.34,4.06,4.38,4.38,0,0,1-1.37,3.24c-1.13,1-2.95,1.51-5.59,1.51a23.74,23.74,0,0,1-3.24-.19Zm2.08,6.62h1.9c2.21,0,3.5-1.15,3.5-2.71,0-1.9-1.44-2.64-3.55-2.64a9.26,9.26,0,0,0-1.85.14Zm0,7.76a11.64,11.64,0,0,0,1.76.09c2.16,0,4.15-.79,4.15-3.14s-1.9-3.12-4.18-3.12h-1.73Z" transform="translate(-8.29 -11.7)"/><path d="M348.52,570.66l-.16-1.46h-.08a4.31,4.31,0,0,1-3.55,1.72,3.3,3.3,0,0,1-3.55-3.33c0-2.81,2.5-4.35,7-4.32V563a2.39,2.39,0,0,0-2.64-2.69,5.76,5.76,0,0,0-3,.86l-.48-1.39a7.24,7.24,0,0,1,3.82-1c3.55,0,4.41,2.42,4.41,4.75v4.35a16.79,16.79,0,0,0,.19,2.78Zm-.31-5.93c-2.3-.05-4.92.36-4.92,2.62a1.86,1.86,0,0,0,2,2,2.88,2.88,0,0,0,2.81-1.94,2.31,2.31,0,0,0,.12-.67Z" transform="translate(-8.29 -11.7)"/><path d="M353.66,562.19c0-1.2,0-2.19-.1-3.15h1.88l.12,1.92h0a4.29,4.29,0,0,1,3.85-2.18c1.6,0,4.1,1,4.1,4.94v6.94h-2.11V564c0-1.87-.7-3.43-2.69-3.43a3,3,0,0,0-2.83,2.16,3,3,0,0,0-.15,1v7h-2.11Z" transform="translate(-8.29 -11.7)"/><path d="M369.07,564.37h.05c.29-.41.69-.91,1-1.32l3.41-4h2.54l-4.49,4.78,5.12,6.84h-2.57l-4-5.57-1.08,1.2v4.37H367v-17h2.09Z" transform="translate(-8.29 -11.7)"/><path d="M378,568.5a5.51,5.51,0,0,0,2.78.84c1.54,0,2.26-.77,2.26-1.73s-.6-1.56-2.16-2.13c-2.09-.75-3.07-1.9-3.07-3.29,0-1.87,1.51-3.41,4-3.41a5.74,5.74,0,0,1,2.86.72l-.53,1.53a4.55,4.55,0,0,0-2.37-.67c-1.25,0-2,.72-2,1.59s.7,1.39,2.21,2c2,.76,3,1.77,3,3.5,0,2-1.58,3.48-4.35,3.48a6.63,6.63,0,0,1-3.26-.79Z" transform="translate(-8.29 -11.7)"/><path d="M392.83,562.67c0-1.37,0-2.55-.1-3.63h1.85l.07,2.28h.1a3.48,3.48,0,0,1,3.21-2.54,2.2,2.2,0,0,1,.6.07v2a3,3,0,0,0-.72-.07,3,3,0,0,0-2.83,2.71,5.86,5.86,0,0,0-.09,1v6.19h-2.09Z" transform="translate(-8.29 -11.7)"/><path d="M401.61,565.24a3.72,3.72,0,0,0,4,4,7.7,7.7,0,0,0,3.21-.6l.36,1.51a9.3,9.3,0,0,1-3.86.72c-3.58,0-5.71-2.35-5.71-5.86s2.06-6.26,5.44-6.26c3.8,0,4.8,3.33,4.8,5.47a7.17,7.17,0,0,1-.07,1Zm6.19-1.52c0-1.34-.55-3.43-2.92-3.43-2.14,0-3.08,2-3.24,3.43Z" transform="translate(-8.29 -11.7)"/><path d="M420.74,570.23a7.77,7.77,0,0,1-3.34.67c-3.5,0-5.78-2.38-5.78-5.93a5.91,5.91,0,0,1,6.24-6.17,7,7,0,0,1,2.93.6l-.48,1.63a5,5,0,0,0-2.45-.55c-2.66,0-4.11,2-4.11,4.4a4,4,0,0,0,4,4.34,5.9,5.9,0,0,0,2.59-.58Z" transform="translate(-8.29 -11.7)"/><path d="M424.24,565.24a3.73,3.73,0,0,0,4,4,7.7,7.7,0,0,0,3.21-.6l.36,1.51a9.3,9.3,0,0,1-3.86.72c-3.58,0-5.71-2.35-5.71-5.86s2.06-6.26,5.45-6.26c3.79,0,4.8,3.33,4.8,5.47a6.86,6.86,0,0,1-.08,1Zm6.2-1.52c0-1.34-.56-3.43-2.93-3.43-2.14,0-3.07,2-3.24,3.43Z" transform="translate(-8.29 -11.7)"/><path d="M437.44,555.78a1.24,1.24,0,0,1-1.34,1.29,1.25,1.25,0,0,1-1.27-1.29,1.28,1.28,0,0,1,1.32-1.32A1.25,1.25,0,0,1,437.44,555.78Zm-2.35,14.88V559h2.11v11.62Z" transform="translate(-8.29 -11.7)"/><path d="M441.52,559l2.28,6.53a28.8,28.8,0,0,1,.94,3h.07c.27-1,.6-1.92,1-3l2.25-6.53h2.21l-4.56,11.62h-2L439.27,559Z" transform="translate(-8.29 -11.7)"/><path d="M453.19,565.24a3.72,3.72,0,0,0,4,4,7.75,7.75,0,0,0,3.22-.6l.36,1.51a9.39,9.39,0,0,1-3.87.72c-3.57,0-5.71-2.35-5.71-5.86s2.07-6.26,5.45-6.26c3.79,0,4.8,3.33,4.8,5.47a9.22,9.22,0,0,1-.07,1Zm6.19-1.52c0-1.34-.55-3.43-2.93-3.43-2.13,0-3.07,2-3.24,3.43Z" transform="translate(-8.29 -11.7)"/><path d="M329.3,599.46v-10h-1.63v-1.61h1.63v-.62c0-3.07,1.8-5.07,5.06-5.07a5.86,5.86,0,0,1,3,.77l-.6,1.61a4.47,4.47,0,0,0-2.45-.67c-2.23,0-2.88,1.56-2.88,3.41v.57h6.74v11.62H336v-10h-4.65v10Z" transform="translate(-8.29 -11.7)"/><path d="M341.64,591c0-1.2,0-2.19-.1-3.15h1.87l.12,1.92h.05a4.28,4.28,0,0,1,3.84-2.18c1.61,0,4.1,1,4.1,4.94v6.94h-2.11v-6.7c0-1.87-.69-3.43-2.69-3.43a3,3,0,0,0-2.83,2.16,3.19,3.19,0,0,0-.14,1v7h-2.11Z" transform="translate(-8.29 -11.7)"/><path d="M361.39,599.46l-.17-1.46h-.07a4.33,4.33,0,0,1-3.55,1.72,3.31,3.31,0,0,1-3.56-3.33c0-2.81,2.5-4.35,7-4.32v-.24a2.4,2.4,0,0,0-2.64-2.69,5.89,5.89,0,0,0-3,.86l-.48-1.39a7.27,7.27,0,0,1,3.82-1c3.55,0,4.42,2.42,4.42,4.75v4.35a15.77,15.77,0,0,0,.19,2.78Zm-.31-5.93c-2.31,0-4.92.36-4.92,2.62a1.86,1.86,0,0,0,2,2,2.9,2.9,0,0,0,2.81-1.94,2.31,2.31,0,0,0,.12-.67Z" transform="translate(-8.29 -11.7)"/><path d="M366.52,591c0-1.2,0-2.19-.09-3.15h1.87l.12,1.92h.05a4.27,4.27,0,0,1,3.84-2.18c1.61,0,4.1,1,4.1,4.94v6.94H374.3v-6.7c0-1.87-.7-3.43-2.69-3.43a3,3,0,0,0-2.83,2.16,2.92,2.92,0,0,0-.14,1v7h-2.12Z" transform="translate(-8.29 -11.7)"/><path d="M388.12,599a7.72,7.72,0,0,1-3.33.67c-3.51,0-5.79-2.38-5.79-5.93a5.91,5.91,0,0,1,6.24-6.17,7,7,0,0,1,2.93.6l-.48,1.63a5,5,0,0,0-2.45-.55c-2.66,0-4.1,2-4.1,4.4,0,2.68,1.73,4.34,4,4.34a5.9,5.9,0,0,0,2.59-.58Z" transform="translate(-8.29 -11.7)"/><path d="M393,584.58a1.31,1.31,0,0,1-2.62,0,1.28,1.28,0,0,1,1.32-1.32A1.25,1.25,0,0,1,393,584.58Zm-2.35,14.88V587.84h2.11v11.62Z" transform="translate(-8.29 -11.7)"/><path d="M396.21,591c0-1.2,0-2.19-.09-3.15H398l.12,1.92h.05a4.27,4.27,0,0,1,3.84-2.18c1.6,0,4.1,1,4.1,4.94v6.94H404v-6.7c0-1.87-.7-3.43-2.69-3.43a3,3,0,0,0-2.83,2.16,2.9,2.9,0,0,0-.15,1v7h-2.11Z" transform="translate(-8.29 -11.7)"/><path d="M419.54,587.84c-.05.84-.1,1.78-.1,3.19v6.75c0,2.66-.52,4.3-1.65,5.3a6.15,6.15,0,0,1-4.23,1.4,7.54,7.54,0,0,1-3.86-1l.53-1.61a6.54,6.54,0,0,0,3.41.91c2.16,0,3.74-1.13,3.74-4.06v-1.29h-.05a4.14,4.14,0,0,1-3.69,1.94c-2.88,0-4.95-2.45-4.95-5.66,0-3.94,2.57-6.17,5.23-6.17a3.87,3.87,0,0,1,3.63,2h.05l.09-1.75Zm-2.18,4.59a3.15,3.15,0,0,0-.12-1,3,3,0,0,0-3-2.23c-2,0-3.45,1.7-3.45,4.39,0,2.28,1.15,4.17,3.43,4.17a3.08,3.08,0,0,0,2.93-2.16,3.63,3.63,0,0,0,.17-1.12Z" transform="translate(-8.29 -11.7)"/><path d="M428,591.47c0-1.37,0-2.55-.1-3.63h1.85l.07,2.28H430a3.49,3.49,0,0,1,3.22-2.54,2.2,2.2,0,0,1,.6.07v2a3,3,0,0,0-.72-.07,3,3,0,0,0-2.83,2.71,5.81,5.81,0,0,0-.1,1v6.19H428Z" transform="translate(-8.29 -11.7)"/><path d="M436.82,594a3.72,3.72,0,0,0,4,4,7.72,7.72,0,0,0,3.22-.6l.36,1.51a9.33,9.33,0,0,1-3.86.72c-3.58,0-5.72-2.35-5.72-5.86s2.07-6.26,5.45-6.26c3.79,0,4.8,3.33,4.8,5.47a8.79,8.79,0,0,1-.07,1Zm6.19-1.51c0-1.34-.55-3.43-2.93-3.43-2.13,0-3.07,2-3.24,3.43Z" transform="translate(-8.29 -11.7)"/><path d="M455.59,597.66h0a4.14,4.14,0,0,1-3.79,2.06c-2.72,0-4.92-2.35-4.92-5.88,0-4.34,2.8-6.26,5.25-6.26a3.84,3.84,0,0,1,3.58,2h0l.07-1.75h2c0,1-.07,2-.07,3.19v13.18h-2.11Zm0-5.11a3.68,3.68,0,0,0-.1-.89,3.08,3.08,0,0,0-3-2.4c-2.19,0-3.51,1.85-3.51,4.46,0,2.31,1.11,4.32,3.43,4.32a3.15,3.15,0,0,0,3-2.3,3.82,3.82,0,0,0,.17-1Z" transform="translate(-8.29 -11.7)"/><path d="M470.9,596.29c0,1.2,0,2.26.09,3.17h-1.87l-.12-1.9H469a4.35,4.35,0,0,1-3.84,2.16c-1.82,0-4-1-4-5.08v-6.8h2.11v6.44c0,2.2.67,3.69,2.59,3.69a3,3,0,0,0,3-3v-7.13h2.11Z" transform="translate(-8.29 -11.7)"/><path d="M475.58,594a3.72,3.72,0,0,0,4,4,7.75,7.75,0,0,0,3.22-.6l.36,1.51a9.39,9.39,0,0,1-3.87.72c-3.57,0-5.71-2.35-5.71-5.86s2.07-6.26,5.45-6.26c3.79,0,4.8,3.33,4.8,5.47a8.79,8.79,0,0,1-.07,1Zm6.19-1.51c0-1.34-.55-3.43-2.93-3.43-2.13,0-3.07,2-3.24,3.43Z" transform="translate(-8.29 -11.7)"/><path d="M486.14,597.3a5.51,5.51,0,0,0,2.78.84c1.54,0,2.26-.77,2.26-1.73s-.6-1.56-2.16-2.13c-2.09-.75-3.07-1.9-3.07-3.29,0-1.88,1.51-3.41,4-3.41a5.74,5.74,0,0,1,2.86.72l-.53,1.53a4.55,4.55,0,0,0-2.37-.67c-1.25,0-2,.72-2,1.59s.7,1.39,2.21,2c2,.76,3.05,1.77,3.05,3.5,0,2-1.59,3.48-4.35,3.48a6.6,6.6,0,0,1-3.26-.79Z" transform="translate(-8.29 -11.7)"/><path d="M498.47,584.51v3.33h3v1.61h-3v6.27c0,1.43.41,2.25,1.59,2.25a4.78,4.78,0,0,0,1.22-.14l.1,1.58a5.16,5.16,0,0,1-1.88.29,2.93,2.93,0,0,1-2.28-.89,4.3,4.3,0,0,1-.81-3v-6.34h-1.8v-1.61h1.8v-2.78Z" transform="translate(-8.29 -11.7)"/><path d="M519.16,599.46c-.45-.46-.89-.91-1.51-1.58a6.64,6.64,0,0,1-4.73,1.84c-3.14,0-5-2.11-5-4.53a5.31,5.31,0,0,1,3.17-4.73v-.07a5.58,5.58,0,0,1-1.34-3.39,3.92,3.92,0,0,1,4.1-4,3.36,3.36,0,0,1,3.58,3.43c0,1.7-1,3-3.55,4.32v.07c1.36,1.59,2.9,3.36,3.93,4.52a11.76,11.76,0,0,0,1.56-4.73h1.92a12.25,12.25,0,0,1-2.33,6c.87.92,1.71,1.83,2.67,2.86Zm-2.54-2.78c-1-1.06-2.76-3-4.56-5.09a4,4,0,0,0-2.09,3.29,3.19,3.19,0,0,0,3.31,3.26A4.53,4.53,0,0,0,516.62,596.68Zm-4.92-9.87a4.55,4.55,0,0,0,1.22,2.9c1.63-.93,2.69-1.8,2.69-3.16a1.9,1.9,0,0,0-1.87-2.09A2.1,2.1,0,0,0,511.7,586.81Z" transform="translate(-8.29 -11.7)"/><path d="M338.8,625.09c0,1.2,0,2.26.1,3.17H337l-.12-1.9h-.05a4.37,4.37,0,0,1-3.84,2.16c-1.82,0-4-1-4-5.08v-6.8h2.11v6.44c0,2.2.68,3.69,2.6,3.69a3,3,0,0,0,3-3v-7.13h2.11Z" transform="translate(-8.29 -11.7)"/><path d="M342.31,620.44c0-1.49-.05-2.69-.1-3.8h1.9l.09,2h.05a4.57,4.57,0,0,1,4.13-2.26c2.81,0,4.92,2.38,4.92,5.9,0,4.18-2.54,6.24-5.28,6.24a4.08,4.08,0,0,1-3.58-1.82h0V633h-2.09Zm2.09,3.09a4.74,4.74,0,0,0,.09.87,3.27,3.27,0,0,0,3.17,2.47c2.23,0,3.53-1.83,3.53-4.49,0-2.33-1.23-4.32-3.46-4.32a3.37,3.37,0,0,0-3.19,2.62,3.44,3.44,0,0,0-.14.86Z" transform="translate(-8.29 -11.7)"/><path d="M366,611.22v14c0,1,0,2.21.09,3H364.2l-.1-2h-.05a4.29,4.29,0,0,1-4,2.28c-2.81,0-5-2.37-5-5.9,0-3.86,2.38-6.24,5.21-6.24a3.89,3.89,0,0,1,3.51,1.78h0v-6.94Zm-2.12,10.15a3.9,3.9,0,0,0-.09-.89,3.11,3.11,0,0,0-3.05-2.44c-2.18,0-3.48,1.92-3.48,4.48,0,2.36,1.15,4.3,3.43,4.3a3.18,3.18,0,0,0,3.1-2.52,3.8,3.8,0,0,0,.09-.91Z" transform="translate(-8.29 -11.7)"/><path d="M375.93,628.26l-.17-1.46h-.07a4.32,4.32,0,0,1-3.55,1.72,3.3,3.3,0,0,1-3.55-3.33c0-2.81,2.49-4.35,7-4.32v-.24a2.39,2.39,0,0,0-2.64-2.69,5.83,5.83,0,0,0-3,.86l-.48-1.39a7.23,7.23,0,0,1,3.81-1c3.56,0,4.42,2.42,4.42,4.75v4.35a16.79,16.79,0,0,0,.19,2.78Zm-.31-5.93c-2.3-.05-4.92.36-4.92,2.62a1.86,1.86,0,0,0,2,2A2.9,2.9,0,0,0,375.5,625a2.31,2.31,0,0,0,.12-.67Z" transform="translate(-8.29 -11.7)"/><path d="M383.51,613.31v3.33h3v1.61h-3v6.27c0,1.44.41,2.25,1.59,2.25a4.78,4.78,0,0,0,1.22-.14l.1,1.58a5.14,5.14,0,0,1-1.87.29,2.9,2.9,0,0,1-2.28-.89,4.28,4.28,0,0,1-.82-3v-6.34h-1.8v-1.61h1.8v-2.78Z" transform="translate(-8.29 -11.7)"/><path d="M390,622.84a3.72,3.72,0,0,0,4,4,7.79,7.79,0,0,0,3.22-.6l.36,1.51a9.39,9.39,0,0,1-3.87.72c-3.57,0-5.71-2.35-5.71-5.86s2.06-6.26,5.45-6.26c3.79,0,4.8,3.34,4.8,5.47a9.22,9.22,0,0,1-.07,1Zm6.19-1.52c0-1.34-.55-3.43-2.93-3.43-2.14,0-3.07,2-3.24,3.43Z" transform="translate(-8.29 -11.7)"/><path d="M406.1,628.26v-10h-1.64v-1.61h1.64V616c0-3.07,1.8-5.07,5.06-5.07a5.82,5.82,0,0,1,2.95.77l-.6,1.61a4.41,4.41,0,0,0-2.44-.67c-2.24,0-2.88,1.56-2.88,3.41v.57h6.74v11.62h-2.09v-10h-4.65v10Z" transform="translate(-8.29 -11.7)"/><path d="M418.43,619.79c0-1.2,0-2.19-.09-3.15h1.87l.12,1.92h.05a4.27,4.27,0,0,1,3.84-2.18c1.61,0,4.1,1,4.1,4.94v6.94h-2.11v-6.7c0-1.87-.7-3.43-2.69-3.43a3.12,3.12,0,0,0-3,3.15v7h-2.11Z" transform="translate(-8.29 -11.7)"/><path d="M438.18,628.26,438,626.8h-.08a4.31,4.31,0,0,1-3.55,1.72,3.3,3.3,0,0,1-3.55-3.33c0-2.81,2.5-4.35,7-4.32v-.24a2.39,2.39,0,0,0-2.64-2.69,5.86,5.86,0,0,0-3,.86l-.48-1.39a7.24,7.24,0,0,1,3.82-1c3.55,0,4.41,2.42,4.41,4.75v4.35a16.79,16.79,0,0,0,.19,2.78Zm-.31-5.93c-2.3-.05-4.92.36-4.92,2.62a1.86,1.86,0,0,0,2,2,2.88,2.88,0,0,0,2.81-1.94,2.31,2.31,0,0,0,.12-.67Z" transform="translate(-8.29 -11.7)"/><path d="M443.32,619.79c0-1.2,0-2.19-.1-3.15h1.88l.12,1.92h0a4.29,4.29,0,0,1,3.85-2.18c1.6,0,4.1,1,4.1,4.94v6.94H451.1v-6.7c0-1.87-.7-3.43-2.69-3.43a3.12,3.12,0,0,0-3,3.15v7h-2.11Z" transform="translate(-8.29 -11.7)"/><path d="M464.92,627.83a7.73,7.73,0,0,1-3.34.67c-3.5,0-5.78-2.38-5.78-5.93A5.91,5.91,0,0,1,462,616.4a7.21,7.21,0,0,1,2.93.6l-.48,1.64a4.87,4.87,0,0,0-2.45-.56c-2.66,0-4.1,2-4.1,4.4,0,2.68,1.72,4.34,4,4.34a5.9,5.9,0,0,0,2.59-.58Z" transform="translate(-8.29 -11.7)"/><path d="M469.74,613.38a1.24,1.24,0,0,1-1.34,1.3,1.26,1.26,0,0,1-1.27-1.3,1.29,1.29,0,0,1,1.32-1.32A1.25,1.25,0,0,1,469.74,613.38Zm-2.35,14.88V616.64h2.11v11.62Z" transform="translate(-8.29 -11.7)"/><path d="M473,619.79c0-1.2,0-2.19-.1-3.15h1.88l.12,1.92h0a4.28,4.28,0,0,1,3.84-2.18c1.61,0,4.11,1,4.11,4.94v6.94h-2.11v-6.7c0-1.87-.7-3.43-2.69-3.43a3.12,3.12,0,0,0-3,3.15v7H473Z" transform="translate(-8.29 -11.7)"/><path d="M496.34,616.64c0,.84-.1,1.78-.1,3.2v6.74c0,2.66-.53,4.3-1.66,5.3a6.11,6.11,0,0,1-4.22,1.4,7.51,7.51,0,0,1-3.86-1l.52-1.61a6.56,6.56,0,0,0,3.41.91c2.16,0,3.75-1.13,3.75-4.06v-1.29h-.05a4.15,4.15,0,0,1-3.7,1.94c-2.88,0-4.94-2.45-4.94-5.66,0-3.94,2.57-6.17,5.23-6.17a3.85,3.85,0,0,1,3.62,2h.05l.1-1.76Zm-2.19,4.59a2.91,2.91,0,0,0-.12-1,3,3,0,0,0-2.95-2.23c-2,0-3.46,1.7-3.46,4.39,0,2.28,1.16,4.17,3.44,4.17a3.09,3.09,0,0,0,2.93-2.16,3.61,3.61,0,0,0,.16-1.12Z" transform="translate(-8.29 -11.7)"/><path d="M328.8,654.9a5.47,5.47,0,0,0,2.78.84c1.54,0,2.26-.77,2.26-1.73s-.6-1.56-2.16-2.13c-2.09-.75-3.08-1.9-3.08-3.29,0-1.87,1.52-3.41,4-3.41a5.85,5.85,0,0,1,2.86.72l-.53,1.54a4.52,4.52,0,0,0-2.38-.68c-1.24,0-1.94.72-1.94,1.59s.7,1.39,2.21,2c2,.76,3.05,1.77,3.05,3.5,0,2-1.59,3.48-4.35,3.48a6.6,6.6,0,0,1-3.26-.79Z" transform="translate(-8.29 -11.7)"/><path d="M341.13,642.11v3.33h3v1.61h-3v6.27c0,1.44.41,2.25,1.59,2.25a4.78,4.78,0,0,0,1.22-.14L344,657a5.16,5.16,0,0,1-1.88.29,2.93,2.93,0,0,1-2.28-.89,4.28,4.28,0,0,1-.81-3v-6.34h-1.8v-1.61h1.8v-2.78Z" transform="translate(-8.29 -11.7)"/><path d="M353,657.06l-.16-1.46h-.08a4.31,4.31,0,0,1-3.55,1.72,3.3,3.3,0,0,1-3.55-3.33c0-2.81,2.5-4.35,7-4.32v-.24a2.39,2.39,0,0,0-2.64-2.69,5.76,5.76,0,0,0-3,.86l-.48-1.39a7.24,7.24,0,0,1,3.82-1c3.55,0,4.41,2.42,4.41,4.75v4.35a16.79,16.79,0,0,0,.19,2.78Zm-.31-5.93c-2.3,0-4.92.36-4.92,2.62a1.86,1.86,0,0,0,2,2,2.88,2.88,0,0,0,2.81-1.94,2.31,2.31,0,0,0,.12-.67Z" transform="translate(-8.29 -11.7)"/><path d="M360.55,642.11v3.33h3v1.61h-3v6.27c0,1.44.41,2.25,1.58,2.25a4.93,4.93,0,0,0,1.23-.14l.09,1.58a5.1,5.1,0,0,1-1.87.29,2.91,2.91,0,0,1-2.28-.89,4.28,4.28,0,0,1-.82-3v-6.34h-1.8v-1.61h1.8v-2.78Z" transform="translate(-8.29 -11.7)"/><path d="M375.67,653.89c0,1.2,0,2.26.09,3.17h-1.87l-.12-1.9h0a4.35,4.35,0,0,1-3.84,2.16c-1.82,0-4-1-4-5.08v-6.8H368v6.44c0,2.2.67,3.69,2.59,3.69a3,3,0,0,0,3-3v-7.13h2.11Z" transform="translate(-8.29 -11.7)"/><path d="M378.88,654.9a5.55,5.55,0,0,0,2.79.84c1.53,0,2.25-.77,2.25-1.73s-.6-1.56-2.16-2.13c-2.09-.75-3.07-1.9-3.07-3.29,0-1.87,1.51-3.41,4-3.41a5.85,5.85,0,0,1,2.86.72l-.53,1.54a4.52,4.52,0,0,0-2.38-.68c-1.25,0-1.94.72-1.94,1.59s.69,1.39,2.2,2c2,.76,3,1.77,3,3.5,0,2-1.58,3.48-4.34,3.48a6.6,6.6,0,0,1-3.26-.79Z" transform="translate(-8.29 -11.7)"/><path d="M797.85,147.46l2.7-3.22a8.27,8.27,0,0,0,5.11,2.17c2,0,2.93-.77,2.93-2s-1.19-1.73-3-2.47l-2.71-1.16c-2.15-.87-4.2-2.64-4.2-5.67,0-3.45,3.08-6.2,7.41-6.2a9.64,9.64,0,0,1,6.7,2.73l-2.38,3a6.77,6.77,0,0,0-4.32-1.63c-1.62,0-2.65.68-2.65,1.87s1.36,1.74,3.18,2.46l2.65,1.07c2.54,1,4.13,2.72,4.13,5.66,0,3.46-2.88,6.45-7.84,6.45A11.43,11.43,0,0,1,797.85,147.46Z" transform="translate(-8.29 -11.7)"/><path d="M816.83,140.45V129.28h4.7v11.65c0,4.07,1.28,5.48,3.61,5.48s3.69-1.41,3.69-5.48V129.28h4.53v11.17c0,7-2.84,10-8.22,10S816.83,147.43,816.83,140.45Z" transform="translate(-8.29 -11.7)"/><path d="M838.17,129.28h7.15c4.58,0,8.27,1.64,8.27,6.7,0,4.89-3.74,7.05-8.14,7.05h-2.58v7.06h-4.7Zm7,10c2.58,0,3.81-1.16,3.81-3.32s-1.4-3-3.94-3h-2.17v6.28Z" transform="translate(-8.29 -11.7)"/><path d="M857.19,129.28h7.15c4.58,0,8.27,1.64,8.27,6.7,0,4.89-3.73,7.05-8.14,7.05H861.9v7.06h-4.71Zm7,10c2.59,0,3.81-1.16,3.81-3.32s-1.39-3-3.94-3H861.9v6.28Z" transform="translate(-8.29 -11.7)"/><path d="M876.22,129.28h4.7v16.86h8.21v4H876.22Z" transform="translate(-8.29 -11.7)"/><path d="M892.75,129.28h4.71v20.81h-4.71Z" transform="translate(-8.29 -11.7)"/><path d="M902.36,129.28h13v3.95h-8.34v4.18h7.1v3.94h-7.1v4.79h8.66v4H902.36Z" transform="translate(-8.29 -11.7)"/><path d="M919.85,129.28h7.5c4.41,0,8,1.54,8,6.48,0,4.78-3.62,6.84-8,6.84h-2.79v7.49h-4.71Zm7.11,9.59c2.48,0,3.81-1.06,3.81-3.11S929.44,133,927,133h-2.4v5.85Zm-.47,2.49,3.25-3,6.64,11.74h-5.26Z" transform="translate(-8.29 -11.7)"/><path d="M937.63,147.46l2.7-3.22a8.27,8.27,0,0,0,5.11,2.17c2,0,2.93-.77,2.93-2s-1.19-1.73-3-2.47l-2.71-1.16c-2.15-.87-4.2-2.64-4.2-5.67,0-3.45,3.08-6.2,7.41-6.2a9.66,9.66,0,0,1,6.7,2.73l-2.38,3a6.77,6.77,0,0,0-4.32-1.63c-1.62,0-2.65.68-2.65,1.87s1.36,1.74,3.18,2.46l2.65,1.07c2.54,1,4.12,2.72,4.12,5.66,0,3.46-2.88,6.45-7.83,6.45A11.43,11.43,0,0,1,937.63,147.46Z" transform="translate(-8.29 -11.7)"/><path d="M54.27,262.1H61.4c4.31,0,7.67,1.19,7.67,5.16a4.82,4.82,0,0,1-2.74,4.49v.13a4.74,4.74,0,0,1,3.76,4.9c0,4.23-3.58,6.12-8.1,6.12H54.27Zm6.91,8.33c2.28,0,3.29-1,3.29-2.48s-1.07-2.22-3.26-2.22H59v4.7Zm.43,8.85c2.56,0,3.88-.92,3.88-2.81s-1.3-2.57-3.88-2.57H59v5.38Z" transform="translate(-8.29 -11.7)"/><path d="M73.47,273.26V262.1h4.7v11.64c0,4.08,1.29,5.49,3.62,5.49s3.68-1.41,3.68-5.49V262.1H90v11.16c0,7-2.84,10-8.22,10S73.47,280.25,73.47,273.26Z" transform="translate(-8.29 -11.7)"/><path d="M97.81,275.48,91.54,262.1h5l1.86,4.78c.56,1.56,1.1,3,1.69,4.61h.13c.6-1.61,1.19-3.05,1.76-4.61l1.86-4.78h4.91l-6.27,13.38v7.42h-4.7Z" transform="translate(-8.29 -11.7)"/><path d="M110.2,262.1h13V266H114.9v4.18H122v3.95h-7.1V279h8.65v3.94H110.2Z" transform="translate(-8.29 -11.7)"/><path d="M127.69,262.1h7.49c4.42,0,8,1.53,8,6.48,0,4.78-3.61,6.84-8,6.84h-2.79v7.48h-4.7Zm7.11,9.58c2.47,0,3.8-1.06,3.8-3.1s-1.33-2.75-3.8-2.75h-2.41v5.85Zm-.48,2.5,3.26-3,6.64,11.73H139Z" transform="translate(-8.29 -11.7)"/><path d="M145.47,280.28l2.7-3.23a8.29,8.29,0,0,0,5.11,2.18c2,0,2.92-.78,2.92-2s-1.18-1.73-3-2.48l-2.7-1.15c-2.16-.88-4.2-2.65-4.2-5.67,0-3.45,3.08-6.2,7.41-6.2a9.61,9.61,0,0,1,6.69,2.72l-2.37,3a6.77,6.77,0,0,0-4.32-1.63c-1.62,0-2.65.67-2.65,1.86s1.36,1.74,3.17,2.47l2.66,1.07c2.54,1,4.12,2.72,4.12,5.66,0,3.45-2.88,6.45-7.84,6.45A11.47,11.47,0,0,1,145.47,280.28Z" transform="translate(-8.29 -11.7)"/><path d="M692.67,623.45h7.12c4.32,0,7.67,1.19,7.67,5.16a4.81,4.81,0,0,1-2.74,4.5v.12a4.76,4.76,0,0,1,3.77,4.9c0,4.23-3.58,6.13-8.11,6.13h-7.71Zm6.9,8.34c2.28,0,3.29-1,3.29-2.48s-1.06-2.23-3.26-2.23h-2.23v4.71Zm.43,8.84c2.56,0,3.89-.91,3.89-2.8s-1.31-2.57-3.89-2.57h-2.63v5.37Z" transform="translate(-8.29 -11.7)"/><path d="M715.85,623.45h5.63L728,644.26h-5l-2.72-10.54c-.58-2.08-1.13-4.54-1.69-6.71h-.13c-.5,2.2-1,4.63-1.63,6.71l-2.74,10.54h-4.81Zm-2.23,12.2h10v3.65h-10Z" transform="translate(-8.29 -11.7)"/><path d="M730,623.45h4.82l5.43,10.35,2.06,4.57h.13c-.23-2.2-.6-5.11-.6-7.57v-7.35h4.48v20.81h-4.82l-5.43-10.37L734,629.34h-.13c.23,2.3.6,5.08.6,7.54v7.38H730Z" transform="translate(-8.29 -11.7)"/><path d="M751.24,623.45h4.7V632h.12l6.2-8.5h5.17l-6.29,8.31,7.45,12.5h-5.16l-5.06-8.79-2.43,3.21v5.58h-4.7Z" transform="translate(-8.29 -11.7)"/><path d="M768.86,641.63l2.7-3.22a8.33,8.33,0,0,0,5.11,2.17c2,0,2.92-.77,2.92-2s-1.18-1.73-3-2.47l-2.7-1.16a6.06,6.06,0,0,1-4.2-5.67c0-3.45,3.08-6.2,7.41-6.2a9.62,9.62,0,0,1,6.69,2.73l-2.37,3a6.79,6.79,0,0,0-4.32-1.63c-1.62,0-2.65.68-2.65,1.87s1.36,1.74,3.17,2.46l2.65,1.07c2.54,1,4.13,2.72,4.13,5.66,0,3.46-2.88,6.45-7.84,6.45A11.42,11.42,0,0,1,768.86,641.63Z" transform="translate(-8.29 -11.7)"/><path class="cls-17" d="M594.39,66l22,20.92a1,1,0,0,1-.58,1.71l-30.23,2.93a1,1,0,0,1-1-1.31l8.21-23.86A1,1,0,0,1,594.39,66Z" transform="translate(-8.29 -11.7)"/><path class="cls-17" d="M311.51,176.2,284.8,190.65a1,1,0,0,1-1.44-1.09l6.57-29.65a1,1,0,0,1,1.56-.58l20.14,15.21A1,1,0,0,1,311.51,176.2Z" transform="translate(-8.29 -11.7)"/><path class="cls-17" d="M714,555.61l-29.36,7.75a1,1,0,0,1-1.14-1.4l13.37-27.26a1,1,0,0,1,1.66-.19l16,19.51A1,1,0,0,1,714,555.61Z" transform="translate(-8.29 -11.7)"/></svg>