<svg id="Layer_1" data-name="Layer 1" xmlns="http://www.w3.org/2000/svg" viewBox="0 0 922.63 658.25"><defs><style>.cls-1{fill:#77899c;}.cls-2{fill:#00163c;}.cls-3{fill:#1c1e1f;}.cls-4{fill:#0791fc;}.cls-10,.cls-12,.cls-13,.cls-29,.cls-30,.cls-5,.cls-6,.cls-7,.cls-8,.cls-9{fill:none;}.cls-5,.cls-7,.cls-9{stroke:#161517;}.cls-10,.cls-12,.cls-29,.cls-30,.cls-5,.cls-6,.cls-7,.cls-8,.cls-9{stroke-linecap:round;}.cls-10,.cls-12,.cls-5,.cls-6,.cls-7,.cls-8,.cls-9{stroke-miterlimit:10;}.cls-5,.cls-6{stroke-width:2.3px;}.cls-10,.cls-6,.cls-8{stroke:#0791fc;}.cls-7,.cls-8{stroke-width:1.7px;}.cls-10,.cls-9{stroke-width:1.5px;}.cls-11{fill:#adadad;}.cls-12{stroke:#adadad;stroke-width:2.91px;}.cls-13{stroke:#5b5b5b;}.cls-13,.cls-29,.cls-30{stroke-linejoin:round;stroke-width:3px;}.cls-14{fill:#5b5b5b;}.cls-15{font-size:24px;font-family:MyriadPro-Regular, Myriad Pro;}.cls-16{letter-spacing:0.01em;}.cls-17{letter-spacing:-0.01em;}.cls-18{letter-spacing:-0.01em;}.cls-19{letter-spacing:-0.01em;}.cls-20{letter-spacing:0em;}.cls-21{letter-spacing:-0.01em;}.cls-22{letter-spacing:0em;}.cls-23{letter-spacing:0em;}.cls-24{letter-spacing:0em;}.cls-25{letter-spacing:0.01em;}.cls-26{letter-spacing:-0.01em;}.cls-27{letter-spacing:0em;}.cls-28{letter-spacing:-0.03em;}.cls-29,.cls-30{stroke:#000;}.cls-30{stroke-dasharray:0 7.97;}.cls-31{letter-spacing:-0.01em;}.cls-32{letter-spacing:-0.01em;}.cls-33{fill:#3a3a3a;}</style></defs><title>TIN-INFO-FLOW_mobile</title><path class="cls-1" d="M448.85,276.38H441.6v-1.07h15.68v1.07H450v18.67h-1.18Z" transform="translate(-1.29 0.48)"/><path class="cls-1" d="M464.73,282.23l-1,.11a4.34,4.34,0,0,0-4.4,4.59v8.12h-1.17V281.5h1.17v2.38a4.35,4.35,0,0,1,1.78-1.89,7.11,7.11,0,0,1,2.84-.77l.59-.05Z" transform="translate(-1.29 0.48)"/><path class="cls-1" d="M477.33,286.18v8.87h-1.2v-2.49a4.6,4.6,0,0,1-1.78,2,5,5,0,0,1-2.65.7,5.28,5.28,0,0,1-2.36-.53,4.39,4.39,0,0,1-1.71-1.47,3.62,3.62,0,0,1-.63-2.06,3.2,3.2,0,0,1,.8-2.34,4.93,4.93,0,0,1,2.63-1.19,28.17,28.17,0,0,1,5.14-.36h.56v-1.18a4.43,4.43,0,0,0-.79-2.9,3.13,3.13,0,0,0-2.49-.91,8.08,8.08,0,0,0-2.42.35,9.87,9.87,0,0,0-2.31,1.14l-.56-1A8.49,8.49,0,0,1,470,281.6a8.94,8.94,0,0,1,2.73-.43Q477.33,281.17,477.33,286.18ZM474,293.47a4.28,4.28,0,0,0,1.58-1.66,5.05,5.05,0,0,0,.58-2.41v-1h-.54a31.31,31.31,0,0,0-4.48.24,4.15,4.15,0,0,0-2.15.81,2.2,2.2,0,0,0-.62,1.69,2.7,2.7,0,0,0,1,2.12,3.56,3.56,0,0,0,2.41.82A4.35,4.35,0,0,0,474,293.47Z" transform="translate(-1.29 0.48)"/><path class="cls-1" d="M493.37,275.31v19.74H492.2v-2.74a4.61,4.61,0,0,1-1.84,2.18,5.36,5.36,0,0,1-2.92.76,5.72,5.72,0,0,1-3.17-.88,5.83,5.83,0,0,1-2.12-2.49,8.64,8.64,0,0,1-.76-3.74,8.27,8.27,0,0,1,.76-3.67,5.75,5.75,0,0,1,2.12-2.44,5.88,5.88,0,0,1,3.17-.86,5.44,5.44,0,0,1,2.92.75,4.65,4.65,0,0,1,1.84,2.16v-8.77ZM491,292.56a8.32,8.32,0,0,0,0-8.71,4.26,4.26,0,0,0-3.5-1.54,4.36,4.36,0,0,0-3.55,1.53,6.53,6.53,0,0,0-1.27,4.3,6.82,6.82,0,0,0,1.27,4.38,4.76,4.76,0,0,0,7.05,0Z" transform="translate(-1.29 0.48)"/><path class="cls-1" d="M509.31,288.39H498.78a6.33,6.33,0,0,0,1.38,4.23,4.83,4.83,0,0,0,3.8,1.48,6.55,6.55,0,0,0,2.36-.42,7.74,7.74,0,0,0,2.2-1.34l.56,1a6.22,6.22,0,0,1-2.24,1.38,7.84,7.84,0,0,1-2.83.52,6.22,6.22,0,0,1-4.77-1.88,7.22,7.22,0,0,1-1.75-5.15,8.28,8.28,0,0,1,.78-3.69,5.88,5.88,0,0,1,2.22-2.48,6.07,6.07,0,0,1,3.27-.88,5.07,5.07,0,0,1,4.09,1.7,7.18,7.18,0,0,1,1.46,4.79Zm-9-4.8a5.88,5.88,0,0,0-1.52,3.71h9.38a5.67,5.67,0,0,0-1.21-3.74,4.05,4.05,0,0,0-3.22-1.3A4.57,4.57,0,0,0,500.33,283.59Z" transform="translate(-1.29 0.48)"/><path class="cls-1" d="M444,304.91h1.15v19.74H444Z" transform="translate(-1.29 0.48)"/><path class="cls-1" d="M461.23,315.92v8.73h-1.18V316a4.76,4.76,0,0,0-.86-3.15,3.56,3.56,0,0,0-2.8-1,4.65,4.65,0,0,0-3.46,1.33,4.85,4.85,0,0,0-1.3,3.55v7.89h-1.18V311.1h1.15v2.44a4.44,4.44,0,0,1,1.86-2.06,5.57,5.57,0,0,1,2.84-.71C459.59,310.77,461.23,312.48,461.23,315.92Z" transform="translate(-1.29 0.48)"/><path class="cls-1" d="M468,311.1H472v1H468v12.54h-1.18V312.11h-2.71v-1h2.71v-.87a5.52,5.52,0,0,1,1.22-3.86,5.22,5.22,0,0,1,3.68-1.46l.87-.05.14,1-1.29.09a3.39,3.39,0,0,0-2.6,1.17,4.89,4.89,0,0,0-.84,3.08Z" transform="translate(-1.29 0.48)"/><path class="cls-1" d="M476.77,324a5.77,5.77,0,0,1-2.13-2.46,8.71,8.71,0,0,1-.75-3.73,8.56,8.56,0,0,1,.75-3.69,6,6,0,0,1,8.46-2.47,5.81,5.81,0,0,1,2.13,2.47,8.56,8.56,0,0,1,.75,3.69,8.71,8.71,0,0,1-.75,3.73,5.63,5.63,0,0,1-5.3,3.33A5.77,5.77,0,0,1,476.77,324Zm6.71-1.81a6.74,6.74,0,0,0,1.24-4.38,6.62,6.62,0,0,0-1.27-4.32,4.74,4.74,0,0,0-7,0,6.62,6.62,0,0,0-1.27,4.32,6.74,6.74,0,0,0,1.24,4.38,4.28,4.28,0,0,0,3.52,1.53A4.36,4.36,0,0,0,483.48,322.17Z" transform="translate(-1.29 0.48)"/><path class="cls-1" d="M496.62,311.83l-.95.11a4.34,4.34,0,0,0-4.4,4.59v8.12H490.1V311.1h1.17v2.38a4.41,4.41,0,0,1,1.78-1.89,7.11,7.11,0,0,1,2.84-.77l.59-.05Z" transform="translate(-1.29 0.48)"/><path class="cls-1" d="M518.15,315.92v8.73H517V316a5,5,0,0,0-.79-3.15,3,3,0,0,0-2.49-1,3.93,3.93,0,0,0-3.12,1.32,5.16,5.16,0,0,0-1.16,3.56v7.89h-1.18V316a5.1,5.1,0,0,0-.78-3.15,3,3,0,0,0-2.5-1,4,4,0,0,0-3.12,1.32,5.21,5.21,0,0,0-1.16,3.56v7.89H499.5V311.1h1.15v2.38a4.35,4.35,0,0,1,1.67-2,4.85,4.85,0,0,1,2.62-.69q3.24,0,4.17,2.71a4.5,4.5,0,0,1,1.8-2,5.36,5.36,0,0,1,2.76-.72C516.66,310.77,518.15,312.48,518.15,315.92Z" transform="translate(-1.29 0.48)"/><path class="cls-1" d="M533,315.78v8.87h-1.2v-2.49a4.6,4.6,0,0,1-1.78,2,5,5,0,0,1-2.65.7,5.31,5.31,0,0,1-2.36-.53,4.39,4.39,0,0,1-1.71-1.47,3.62,3.62,0,0,1-.63-2.06,3.24,3.24,0,0,1,.8-2.34,4.93,4.93,0,0,1,2.63-1.19,28.17,28.17,0,0,1,5.14-.36h.56v-1.18a4.37,4.37,0,0,0-.79-2.9,3.13,3.13,0,0,0-2.49-.91,8.08,8.08,0,0,0-2.42.35,9.87,9.87,0,0,0-2.31,1.14l-.56-1a8.23,8.23,0,0,1,2.39-1.19,8.94,8.94,0,0,1,2.73-.43Q533,310.77,533,315.78Zm-3.36,7.29a4.28,4.28,0,0,0,1.58-1.66,4.94,4.94,0,0,0,.58-2.41v-1h-.54a31.05,31.05,0,0,0-4.47.24,4.16,4.16,0,0,0-2.16.81,2.2,2.2,0,0,0-.62,1.69,2.7,2.7,0,0,0,1,2.12,3.56,3.56,0,0,0,2.41.82A4.35,4.35,0,0,0,529.66,323.07Z" transform="translate(-1.29 0.48)"/><path class="cls-1" d="M544.25,323.65l-.06,1.09a9.89,9.89,0,0,1-1.26.08,4.16,4.16,0,0,1-3.23-1.22,4.58,4.58,0,0,1-1.14-3.26v-8.23h-2.71v-1h2.71v-4.23h1.18v4.23h4.09v1h-4.09v8a3.89,3.89,0,0,0,.84,2.71,3.19,3.19,0,0,0,2.49.93A8.53,8.53,0,0,0,544.25,323.65Z" transform="translate(-1.29 0.48)"/><path class="cls-1" d="M548.56,305.56v1.76h-1.79v-1.76Zm-1.48,5.54h1.17v13.55h-1.17Z" transform="translate(-1.29 0.48)"/><path class="cls-1" d="M555.25,324a5.84,5.84,0,0,1-2.13-2.46,8.71,8.71,0,0,1-.75-3.73,8.56,8.56,0,0,1,.75-3.69,5.82,5.82,0,0,1,10.59,0,8.56,8.56,0,0,1,.75,3.69,8.71,8.71,0,0,1-.75,3.73,6,6,0,0,1-8.46,2.46Zm6.71-1.81a6.74,6.74,0,0,0,1.24-4.38,6.62,6.62,0,0,0-1.27-4.32,4.74,4.74,0,0,0-7,0,6.62,6.62,0,0,0-1.27,4.32,6.74,6.74,0,0,0,1.24,4.38,4.29,4.29,0,0,0,3.52,1.53A4.34,4.34,0,0,0,562,322.17Z" transform="translate(-1.29 0.48)"/><path class="cls-1" d="M579.36,315.92v8.73h-1.18V316a4.76,4.76,0,0,0-.86-3.15,3.56,3.56,0,0,0-2.8-1,4.65,4.65,0,0,0-3.46,1.33,4.85,4.85,0,0,0-1.3,3.55v7.89h-1.18V311.1h1.15v2.44a4.44,4.44,0,0,1,1.86-2.06,5.57,5.57,0,0,1,2.84-.71C577.72,310.77,579.36,312.48,579.36,315.92Z" transform="translate(-1.29 0.48)"/><path class="cls-2" d="M460.05,334.51v19.74h-2.71l-10.59-13.77v13.77h-3.36V334.51h2.69l10.59,13.75V334.51Z" transform="translate(-1.29 0.48)"/><path class="cls-2" d="M476.85,348h-9.32a4.23,4.23,0,0,0,1.15,2.83,3.94,3.94,0,0,0,2.8.92,6.6,6.6,0,0,0,4.14-1.46l1,2.41a7.4,7.4,0,0,1-2.39,1.26,9.18,9.18,0,0,1-2.9.48,7.27,7.27,0,0,1-5.31-1.91,6.92,6.92,0,0,1-1.94-5.2,8,8,0,0,1,.84-3.73,6.11,6.11,0,0,1,2.36-2.52,6.68,6.68,0,0,1,3.46-.89,5.7,5.7,0,0,1,4.47,1.82,7.21,7.21,0,0,1,1.63,5Zm-8.27-4.45a4.31,4.31,0,0,0-1.05,2.57h6.33a4,4,0,0,0-.84-2.59,2.76,2.76,0,0,0-2.19-.88A3,3,0,0,0,468.58,343.59Z" transform="translate(-1.29 0.48)"/><path class="cls-2" d="M488.64,351.76l-.17,2.61c-.56.05-1.07.08-1.54.08a5.89,5.89,0,0,1-4.25-1.33,5.26,5.26,0,0,1-1.37-4v-6h-2.64v-2.63h2.64v-4.09h3.5v4.09h3.61v2.63h-3.61v5.91c0,1.83.85,2.74,2.54,2.74A9.7,9.7,0,0,0,488.64,351.76Z" transform="translate(-1.29 0.48)"/><path class="cls-2" d="M513.65,340.56l-5.38,13.69h-3l-3.36-8.82-3.28,8.82h-3l-5.41-13.69h3.59l3.5,9.52,3.5-9.52h2.52l3.5,9.58,3.47-9.58Z" transform="translate(-1.29 0.48)"/><path class="cls-2" d="M518.9,353.61a6,6,0,0,1-2.46-2.49,8,8,0,0,1-.86-3.78,7.92,7.92,0,0,1,.86-3.77,6.06,6.06,0,0,1,2.46-2.48,8.3,8.3,0,0,1,7.36,0,5.93,5.93,0,0,1,2.43,2.48,7.92,7.92,0,0,1,.86,3.77,8,8,0,0,1-.86,3.78,5.9,5.9,0,0,1-2.43,2.49,8.22,8.22,0,0,1-7.36,0Zm6.25-3a6.48,6.48,0,0,0,0-6.59,3.06,3.06,0,0,0-2.57-1.14,3.11,3.11,0,0,0-2.59,1.14,5.12,5.12,0,0,0-.91,3.29,5.26,5.26,0,0,0,.89,3.3,3.55,3.55,0,0,0,5.18,0Z" transform="translate(-1.29 0.48)"/><path class="cls-2" d="M542.29,343.14l-2,.19c-2.32.25-3.48,1.42-3.48,3.53v7.39h-3.5V340.56h3.34V343c.7-1.64,2.17-2.54,4.39-2.69l1.07-.08Z" transform="translate(-1.29 0.48)"/><path class="cls-2" d="M554.22,354.25,548.34,348v6.24h-3.5V334.51h3.5v12l5.51-6h4.26L552,347.14l6.61,7.11Z" transform="translate(-1.29 0.48)"/><circle class="cls-3" cx="370.52" cy="281.42" r="3.48"/><circle class="cls-3" cx="370.52" cy="324.71" r="3.48"/><circle class="cls-4" cx="419.88" cy="319.9" r="3.48"/><circle class="cls-4" cx="421.2" cy="288.08" r="3.48"/><path class="cls-5" d="M391,271a31.6,31.6,0,0,0,0,62.7" transform="translate(-1.29 0.48)"/><path class="cls-6" d="M399,333.71a31.6,31.6,0,0,0,0-62.7" transform="translate(-1.29 0.48)"/><circle class="cls-3" cx="405.47" cy="323.16" r="2.57"/><circle class="cls-4" cx="390.79" cy="279.65" r="2.69"/><path class="cls-7" d="M371.82,305.3a23.34,23.34,0,0,0,46.3,0" transform="translate(-1.29 0.48)"/><path class="cls-8" d="M418.12,299.4a23.34,23.34,0,0,0-46.3,0" transform="translate(-1.29 0.48)"/><circle class="cls-3" cx="408.34" cy="304.34" r="2"/><circle class="cls-4" cx="383.08" cy="292.66" r="2"/><path class="cls-9" d="M385.91,314.41a14.85,14.85,0,0,0,20.7-21" transform="translate(-1.29 0.48)"/><path class="cls-10" d="M403.93,290.81a14.85,14.85,0,0,0-20.69,21" transform="translate(-1.29 0.48)"/><path class="cls-11" d="M252.43,270.9a15.07,15.07,0,0,1,16.17-7.27l36.9,7.77a12.08,12.08,0,0,0,14.08-8.3,160.27,160.27,0,0,1,36.49-62.66A156.18,156.18,0,0,1,421.68,159c19.81-6.49,89.41-23.58,153.13,28.92a1.49,1.49,0,0,1-1.89,2.3c-62.55-51.55-130.87-34.77-150.32-28.4A155.81,155.81,0,0,0,322.41,264a15,15,0,0,1-17.52,10.33L268,266.54A12.1,12.1,0,0,0,255.25,272Z" transform="translate(-1.29 0.48)"/><path class="cls-11" d="M620.5,143a15.05,15.05,0,0,1-1.42,17.67l-24.59,28.6a12.07,12.07,0,0,0,.49,16.33,160.47,160.47,0,0,1,37.31,62.17,156.14,156.14,0,0,1,4.7,77.47c-3.86,20.48-22.43,89.7-99.14,120.22a1.48,1.48,0,1,1-1.1-2.75c75.31-30,93.53-97.91,97.32-118a155.74,155.74,0,0,0-41.22-137,15,15,0,0,1-.61-20.34l24.59-28.59A12.11,12.11,0,0,0,618.22,145Z" transform="translate(-1.29 0.48)"/><path class="cls-12" d="M627.83,151.66A65.55,65.55,0,0,0,713,52.42" transform="translate(-1.29 0.48)"/><path class="cls-12" d="M703.68,44.77a65.54,65.54,0,0,0-84.32,99.36" transform="translate(-1.29 0.48)"/><polygon class="cls-4" points="643.68 100.8 643.68 75.92 665.63 67.14 687.59 75.92 687.59 100.8 665.63 109.59 643.68 100.8"/><polygon class="cls-13" points="633.43 105.19 658.32 115.44 665.63 111.05 665.63 109.59 640.75 99.34 633.43 103.73 633.43 105.19"/><polygon class="cls-13" points="697.84 105.19 672.95 115.44 665.63 111.05 665.63 109.59 690.52 99.34 697.84 103.73 697.84 105.19"/><polyline class="cls-13" points="643.68 98.13 640.75 99.34 633.43 94.95 633.43 93.48 643.68 89.27"/><polyline class="cls-13" points="687.59 97.88 690.52 99.34 697.84 94.95 697.84 93.48 687.59 89.27"/><line class="cls-13" x1="665.63" y1="111.05" x2="665.63" y2="131.54"/><polyline class="cls-13" points="690.52 108.12 690.52 121.3 665.63 131.54 640.75 121.3 640.75 108.12"/><line class="cls-13" x1="665.63" y1="84.7" x2="665.63" y2="109.59"/><polyline class="cls-13" points="643.68 100.8 643.68 75.92 665.63 67.14 687.59 75.92 687.59 100.8"/><line class="cls-13" x1="665.63" y1="84.7" x2="643.68" y2="75.92"/><line class="cls-13" x1="687.59" y1="75.92" x2="665.63" y2="84.7"/><rect class="cls-4" x="554.38" y="590.69" width="9.33" height="22.65"/><rect class="cls-4" x="574.37" y="590.69" width="9.33" height="22.65"/><rect class="cls-4" x="533.06" y="590.69" width="9.33" height="22.65"/><polygon class="cls-4" points="588.36 578.69 558.56 560.04 528.76 578.69 528.76 585.58 588.36 585.58 588.36 578.69"/><path class="cls-14" d="M562.41,570.48H557.3a1,1,0,0,0,0,2h5.11a1,1,0,0,0,0-2Zm30.64,49.38H525a1,1,0,0,0,0,2h68.1a1,1,0,0,0,0-2Zm-63-4.81h59.6a1,1,0,0,0,0-2h-4.11V590.21a1,1,0,0,0-2,0v22.84H577V590.21a1,1,0,1,0-2,0v22.84h-9.92V590.21a1,1,0,0,0-2,0v22.84h-6.52V590.21a1,1,0,0,0-2,0v22.84h-9.91V590.21a1,1,0,0,0-2,0v22.84h-6.52V590.21a1,1,0,0,0-2,0v22.84h-4.11a1,1,0,0,0,0,2Zm0-28.95h59.6a1,1,0,0,0,1-1v-6.9a1,1,0,0,0-.47-.84l-29.8-18.65a1,1,0,0,0-1.06,0l-29.8,18.65a1,1,0,0,0-.47.84v6.9A1,1,0,0,0,530.05,586.1Zm29.8-25.36,26.46,16.55H533.39Zm-28.8,18.55h57.6v4.81h-57.6Z" transform="translate(-1.29 0.48)"/><path class="cls-4" d="M210.45,247A5.47,5.47,0,0,1,205,241.5v-.24a5.46,5.46,0,0,1,5.46-5.46h9.43v-9.31H166.66A4.45,4.45,0,0,1,162.2,222v27.91a4.46,4.46,0,0,0,4.46,4.46h53.22V247Z" transform="translate(-1.29 0.48)"/><path class="cls-14" d="M219.88,251.15a1.39,1.39,0,0,0-1.4,1.39v.56A1.45,1.45,0,0,0,218,253H166.66a3.08,3.08,0,0,1-3.07-3.07V227a5.86,5.86,0,0,0,3.07.89H218a1.24,1.24,0,0,0,.47-.1v2.42a1.4,1.4,0,1,0,2.79,0V209.75a1.4,1.4,0,0,0-1.39-1.4H212v-6a1.4,1.4,0,0,0-1.4-1.39H173.36a1.4,1.4,0,0,0-1.4,1.39v6h-5.11a6.05,6.05,0,0,0-6,6.05c0,.21,0,.41.06.62a1.55,1.55,0,0,0-.06.31v40.23a7.68,7.68,0,0,0,7.68,7.68h51.4a1.4,1.4,0,0,0,1.39-1.4v-9.3A1.39,1.39,0,0,0,219.88,251.15Zm-7.91-40h6.51v6.51H212Zm-37.21-7.44h34.42v14H174.76Zm-7.91,7.44H172v6.51h-5.11a3.26,3.26,0,1,1,0-6.51Zm-3.26,8.34a6.06,6.06,0,0,0,3.26,1h51.63v4.74a1.45,1.45,0,0,0-.47-.09H166.66a3.08,3.08,0,0,1-3.07-3.07Zm54.89,41h-50a4.89,4.89,0,0,1-4.89-4.89v-.65a5.86,5.86,0,0,0,3.07.89H218a1.24,1.24,0,0,0,.47-.1Zm-37.68-54a1.4,1.4,0,0,0-1.39,1.4v5.58a1.4,1.4,0,0,0,2.79,0v-5.58A1.4,1.4,0,0,0,180.8,206.49Zm22.33,0a1.4,1.4,0,0,0-1.4,1.4v5.58a1.4,1.4,0,0,0,2.8,0v-5.58A1.4,1.4,0,0,0,203.13,206.49Zm18.61,27.91H210.45a6.87,6.87,0,0,0-6.86,6.86v.24a6.86,6.86,0,0,0,6.86,6.85h11.29a1.39,1.39,0,0,0,1.39-1.39V235.8A1.39,1.39,0,0,0,221.74,234.4Zm-1.4,11.16h-9.89a4.06,4.06,0,0,1-4.06-4.06v-.24a4.07,4.07,0,0,1,4.06-4.07h9.89Zm-7.91-2.79h1.86a1.4,1.4,0,1,0,0-2.79h-1.86a1.4,1.4,0,0,0,0,2.79Z" transform="translate(-1.29 0.48)"/><path class="cls-12" d="M141.45,204.41a65.54,65.54,0,0,0,112.19,67.15" transform="translate(-1.29 0.48)"/><path class="cls-12" d="M259.8,259.71a65.54,65.54,0,0,0-113.71-63.65" transform="translate(-1.29 0.48)"/><path class="cls-11" d="M545.82,528.54a15.06,15.06,0,0,1-14.54-10.14L519,482.74a12.07,12.07,0,0,0-14.35-7.81,160.37,160.37,0,0,1-72.5.85,156.09,156.09,0,0,1-69.26-35c-15.75-13.67-66.15-64.61-53.81-146.25A1.49,1.49,0,1,1,312,295c-12.12,80.14,37.36,130.15,52.81,143.57a155.85,155.85,0,0,0,139.11,33.52,15,15,0,0,1,17.86,9.73l12.29,35.65a12.12,12.12,0,0,0,11.2,8.15Z" transform="translate(-1.29 0.48)"/><path class="cls-12" d="M534.64,530.5a65.54,65.54,0,0,0,42.74,123.57" transform="translate(-1.29 0.48)"/><path class="cls-12" d="M588.68,649.9A65.55,65.55,0,0,0,545.42,527" transform="translate(-1.29 0.48)"/><text class="cls-15" transform="translate(2.12 20.09)">POS &amp; <tspan class="cls-16" x="65.83" y="0">I</tspan><tspan class="cls-17" x="71.81" y="0">n</tspan><tspan class="cls-18" x="84.82" y="0">v</tspan><tspan x="96.12" y="0">oi</tspan><tspan class="cls-19" x="114.91" y="0">c</tspan><tspan x="125.52" y="0">es </tspan><tspan class="cls-20" x="152.13" y="0">e</tspan><tspan class="cls-21" x="164.09" y="0">x</tspan><tspan x="174.84" y="0">changed </tspan><tspan x="22.37" y="28.8">via </tspan><tspan class="cls-20" x="56.18" y="28.8">e</tspan><tspan x="68.14" y="28.8">xisting s</tspan><tspan class="cls-19" x="149.25" y="28.8">y</tspan><tspan x="160.41" y="28.8">s</tspan><tspan class="cls-19" x="169.92" y="28.8">t</tspan><tspan class="cls-22" x="177.72" y="28.8">ems and </tspan><tspan x="6.34" y="57.6">in</tspan><tspan class="cls-17" x="25.27" y="57.6">f</tspan><tspan x="31.97" y="57.6">o</tspan><tspan class="cls-23" x="45.14" y="57.6">r</tspan><tspan x="53.09" y="57.6">m</tspan><tspan class="cls-24" x="73.1" y="57.6">a</tspan><tspan x="84.58" y="57.6">tion </tspan><tspan class="cls-19" x="129.72" y="57.6">c</tspan><tspan x="140.33" y="57.6">opied </tspan><tspan class="cls-19" x="203.42" y="57.6">t</tspan><tspan x="211.22" y="57.6">o the </tspan><tspan x="177" y="86.4">Ne</tspan><tspan class="cls-25" x="204.81" y="86.4">t</tspan><tspan class="cls-26" x="212.97" y="86.4">w</tspan><tspan x="230.4" y="86.4">o</tspan><tspan class="cls-27" x="243.57" y="86.4">r</tspan><tspan x="251.52" y="86.4">k</tspan></text><text class="cls-15" transform="translate(775.27 358.03)"><tspan class="cls-28">F</tspan><tspan x="11.06" y="0">inan</tspan><tspan class="cls-19" x="54.89" y="0">c</tspan><tspan x="65.5" y="0">e </tspan><tspan class="cls-18" x="0" y="28">r</tspan><tspan x="7.61" y="28" xml:space="preserve">equests  </tspan><tspan x="0" y="56">th</tspan><tspan class="cls-18" x="21.26" y="56">r</tspan><tspan x="28.87" y="56">ough </tspan><tspan class="cls-20" x="0" y="84">e</tspan><tspan x="11.95" y="84">xisting </tspan><tspan x="0" y="112">channels</tspan></text><line class="cls-29" x1="552.18" y1="42.24" x2="552.18" y2="42.24"/><path class="cls-30" d="M545.77,39.72C513.06,31.52,435,17.86,351.92,55.56a287.18,287.18,0,0,0-98.66,74.28" transform="translate(-1.29 0.48)"/><line class="cls-29" x1="249.4" y1="133.35" x2="249.4" y2="133.35"/><line class="cls-29" x1="652.61" y1="509.97" x2="652.61" y2="509.97"/><path class="cls-30" d="M659.64,504c24-23.68,76.23-83.24,87.22-173.84a287.12,287.12,0,0,0-12.18-122.89" transform="translate(-1.29 0.48)"/><line class="cls-29" x1="732.14" y1="203.94" x2="732.14" y2="203.94"/><text class="cls-15" transform="translate(90 348.72)">Bu<tspan class="cls-18" x="26.23" y="0">y</tspan><tspan x="37.3" y="0">ers &amp; Suppliers </tspan><tspan x="0" y="28.8">desi</tspan><tspan class="cls-19" x="40.68" y="28.8">g</tspan><tspan x="53.95" y="28.8">n</tspan><tspan class="cls-24" x="67.27" y="28.8">a</tspan><tspan class="cls-19" x="78.74" y="28.8">t</tspan><tspan x="86.54" y="28.8">e who can </tspan><tspan x="0" y="57.6">a</tspan><tspan class="cls-19" x="11.57" y="57.6">cc</tspan><tspan class="cls-22" x="32.78" y="57.6">ess their d</tspan><tspan class="cls-24" x="134.28" y="57.6">a</tspan><tspan x="145.75" y="57.6">ta</tspan></text><text class="cls-15" transform="translate(279.35 531.01)">Banks <tspan class="cls-26" x="63.74" y="0">r</tspan><tspan x="71.35" y="0">e</tspan><tspan class="cls-31" x="83.38" y="0">c</tspan><tspan x="93.98" y="0">ei</tspan><tspan class="cls-26" x="111.62" y="0">v</tspan><tspan x="122.93" y="0">e </tspan><tspan x="0" y="28.8">financing </tspan><tspan class="cls-26" x="98.95" y="28.8">r</tspan><tspan x="106.56" y="28.8">equest &amp; </tspan><tspan x="0" y="57.6">upd</tspan><tspan class="cls-24" x="40.42" y="57.6">a</tspan><tspan class="cls-32" x="51.89" y="57.6">t</tspan><tspan x="59.69" y="57.6">e financing </tspan><tspan x="0" y="86.4">st</tspan><tspan class="cls-24" x="17.45" y="86.4">a</tspan><tspan x="28.92" y="86.4">tus</tspan></text><path d="M751.16,107.33l2.71-3.22a8.28,8.28,0,0,0,5.11,2.17c2,0,2.92-.77,2.92-2s-1.18-1.73-3-2.48l-2.7-1.15C754,99.76,752,98,752,95c0-3.45,3.08-6.2,7.41-6.2a9.59,9.59,0,0,1,6.69,2.73l-2.37,3a6.79,6.79,0,0,0-4.32-1.63c-1.62,0-2.66.68-2.66,1.87s1.36,1.74,3.18,2.46l2.65,1.07c2.54,1,4.13,2.72,4.13,5.66,0,3.46-2.88,6.45-7.84,6.45A11.44,11.44,0,0,1,751.16,107.33Z" transform="translate(-1.29 0.48)"/><path d="M770.14,100.32V89.15h4.7V100.8c0,4.07,1.29,5.48,3.62,5.48s3.68-1.41,3.68-5.48V89.15h4.54v11.17c0,7-2.84,10-8.22,10S770.14,107.3,770.14,100.32Z" transform="translate(-1.29 0.48)"/><path d="M791.48,89.15h7.15c4.58,0,8.27,1.64,8.27,6.7,0,4.89-3.73,7.05-8.14,7.05h-2.57V110h-4.71Zm7,10c2.59,0,3.81-1.15,3.81-3.31s-1.39-3-3.94-3h-2.16v6.27Z" transform="translate(-1.29 0.48)"/><path d="M810.51,89.15h7.14c4.58,0,8.27,1.64,8.27,6.7,0,4.89-3.73,7.05-8.14,7.05h-2.57V110h-4.7Zm7,10c2.59,0,3.81-1.15,3.81-3.31s-1.39-3-3.93-3h-2.17v6.27Z" transform="translate(-1.29 0.48)"/><path d="M829.53,89.15h4.7V106h8.22V110H829.53Z" transform="translate(-1.29 0.48)"/><path d="M846.07,89.15h4.7V110h-4.7Z" transform="translate(-1.29 0.48)"/><path d="M855.67,89.15h13V93.1h-8.33v4.18h7.09v3.94h-7.09V106H869V110H855.67Z" transform="translate(-1.29 0.48)"/><path d="M873.17,89.15h7.49c4.41,0,8,1.54,8,6.48,0,4.78-3.62,6.84-8,6.84h-2.79V110h-4.7Zm7.11,9.59c2.47,0,3.8-1.06,3.8-3.11s-1.33-2.74-3.8-2.74h-2.41v5.85Zm-.48,2.49,3.25-3L889.69,110h-5.26Z" transform="translate(-1.29 0.48)"/><path d="M890.94,107.33l2.7-3.22a8.33,8.33,0,0,0,5.11,2.17c2,0,2.93-.77,2.93-2s-1.18-1.73-3-2.48L896,100.64c-2.15-.88-4.19-2.65-4.19-5.67,0-3.45,3.08-6.2,7.41-6.2a9.59,9.59,0,0,1,6.69,2.73l-2.38,3a6.77,6.77,0,0,0-4.31-1.63c-1.63,0-2.66.68-2.66,1.87s1.36,1.74,3.18,2.46l2.65,1.07c2.54,1,4.13,2.72,4.13,5.66,0,3.46-2.88,6.45-7.84,6.45A11.43,11.43,0,0,1,890.94,107.33Z" transform="translate(-1.29 0.48)"/><path d="M7.59,222h7.12c4.32,0,7.67,1.18,7.67,5.16a4.81,4.81,0,0,1-2.74,4.49v.13a4.73,4.73,0,0,1,3.77,4.89c0,4.24-3.58,6.13-8.11,6.13H7.59Zm6.9,8.33c2.28,0,3.29-1,3.29-2.48s-1.06-2.22-3.26-2.22H12.29v4.7Zm.43,8.84c2.56,0,3.89-.91,3.89-2.8s-1.3-2.57-3.89-2.57H12.29v5.37Z" transform="translate(-1.29 0.48)"/><path d="M26.78,233.13V222h4.71v11.64c0,4.08,1.28,5.48,3.61,5.48s3.68-1.4,3.68-5.48V222h4.54v11.16c0,7-2.84,10-8.22,10S26.78,240.12,26.78,233.13Z" transform="translate(-1.29 0.48)"/><path d="M51.12,235.35,44.86,222h5l1.85,4.78c.56,1.56,1.1,3,1.7,4.61h.13c.59-1.61,1.18-3.05,1.75-4.61L57.18,222h4.91l-6.26,13.38v7.42H51.12Z" transform="translate(-1.29 0.48)"/><path d="M63.51,222h13v3.94H68.22v4.18h7.09V234H68.22v4.8h8.65v3.94H63.51Z" transform="translate(-1.29 0.48)"/><path d="M81,222h7.5c4.41,0,8,1.53,8,6.48,0,4.78-3.62,6.84-8,6.84H85.71v7.48H81Zm7.11,9.58c2.48,0,3.81-1.06,3.81-3.1s-1.33-2.75-3.81-2.75h-2.4v5.85Zm-.47,2.5,3.25-3,6.64,11.73H92.27Z" transform="translate(-1.29 0.48)"/><path d="M98.78,240.15l2.7-3.23a8.27,8.27,0,0,0,5.11,2.17c2,0,2.93-.77,2.93-2s-1.19-1.73-3-2.48l-2.71-1.15c-2.15-.88-4.2-2.65-4.2-5.67,0-3.45,3.08-6.21,7.41-6.21a9.66,9.66,0,0,1,6.7,2.73l-2.38,3a6.72,6.72,0,0,0-4.32-1.63c-1.62,0-2.65.67-2.65,1.86s1.36,1.74,3.18,2.46l2.65,1.08c2.54,1,4.12,2.72,4.12,5.66,0,3.45-2.88,6.45-7.83,6.45A11.47,11.47,0,0,1,98.78,240.15Z" transform="translate(-1.29 0.48)"/><path d="M646,583.32h7.12c4.32,0,7.67,1.19,7.67,5.16A4.79,4.79,0,0,1,658,593v.13a4.74,4.74,0,0,1,3.77,4.9c0,4.23-3.58,6.13-8.11,6.13H646Zm6.9,8.34c2.28,0,3.29-1,3.29-2.48s-1.06-2.23-3.25-2.23h-2.24v4.71Zm.43,8.84c2.56,0,3.89-.91,3.89-2.81s-1.3-2.56-3.89-2.56h-2.63v5.37Z" transform="translate(-1.29 0.48)"/><path d="M669.16,583.32h5.63l6.53,20.81h-5l-2.73-10.54c-.57-2.08-1.13-4.54-1.69-6.71h-.12c-.51,2.2-1.06,4.63-1.64,6.71l-2.73,10.54h-4.81Zm-2.22,12.2h10v3.65h-10Z" transform="translate(-1.29 0.48)"/><path d="M683.33,583.32h4.82l5.42,10.35,2.06,4.57h.13c-.22-2.2-.6-5.11-.6-7.57v-7.35h4.48v20.81h-4.82l-5.43-10.38-2.06-4.54h-.12c.22,2.29.6,5.08.6,7.53v7.39h-4.48Z" transform="translate(-1.29 0.48)"/><path d="M704.55,583.32h4.71v8.5h.11l6.2-8.5h5.17l-6.29,8.31,7.45,12.5h-5.16l-5.06-8.79-2.42,3.21v5.58h-4.71Z" transform="translate(-1.29 0.48)"/><path d="M722.17,601.5l2.7-3.22a8.33,8.33,0,0,0,5.11,2.17c2,0,2.92-.77,2.92-2s-1.18-1.73-3-2.48l-2.7-1.15c-2.15-.88-4.2-2.65-4.2-5.67,0-3.45,3.08-6.2,7.41-6.2a9.61,9.61,0,0,1,6.7,2.73l-2.38,3a6.77,6.77,0,0,0-4.32-1.63c-1.62,0-2.65.68-2.65,1.87s1.36,1.74,3.18,2.46l2.65,1.07c2.54,1,4.12,2.72,4.12,5.66,0,3.46-2.88,6.45-7.83,6.45A11.43,11.43,0,0,1,722.17,601.5Z" transform="translate(-1.29 0.48)"/><path class="cls-33" d="M547.71,25.83l22,20.92a1,1,0,0,1-.59,1.7L538.9,51.39a1,1,0,0,1-1-1.31l8.22-23.86A1,1,0,0,1,547.71,25.83Z" transform="translate(-1.29 0.48)"/><path class="cls-33" d="M667.28,515.48l-29.37,7.75a1,1,0,0,1-1.14-1.4l13.37-27.26a1,1,0,0,1,1.66-.2l16,19.52A1,1,0,0,1,667.28,515.48Z" transform="translate(-1.29 0.48)"/></svg>