<svg id="Full_Color_-Export" data-name="Full Color -Export" xmlns="http://www.w3.org/2000/svg" viewBox="0 0 217.15 84.62"><defs><style>.cls-1{fill:#77899c;}.cls-2{fill:#00163c;}.cls-3{fill:#1c1e1f;}.cls-4{fill:#0791fc;}.cls-10,.cls-5,.cls-6,.cls-7,.cls-8,.cls-9{fill:none;stroke-linecap:round;stroke-miterlimit:10;}.cls-5,.cls-7,.cls-9{stroke:#161517;}.cls-5,.cls-6{stroke-width:2.3px;}.cls-10,.cls-6,.cls-8{stroke:#0791fc;}.cls-7,.cls-8{stroke-width:1.7px;}.cls-10,.cls-9{stroke-width:1.5px;}</style></defs><title>TIN-FullColor</title><path class="cls-1" d="M88,7.45H80.74V6.38H96.42V7.45H89.17V26.12H88Z" transform="translate(-1.34 -0.93)"/><path class="cls-1" d="M103.87,13.3l-1,.11a4.71,4.71,0,0,0-3.34,1.5,4.7,4.7,0,0,0-1,3.09v8.12H97.34V12.57h1.18V15a4.35,4.35,0,0,1,1.78-1.89,7.06,7.06,0,0,1,2.84-.77l.59,0Z" transform="translate(-1.34 -0.93)"/><path class="cls-1" d="M116.47,17.25v8.87h-1.21V23.63a4.53,4.53,0,0,1-1.78,2,5,5,0,0,1-2.64.7,5.35,5.35,0,0,1-2.37-.53,4.39,4.39,0,0,1-1.71-1.47,3.62,3.62,0,0,1-.63-2.06,3.24,3.24,0,0,1,.8-2.34,4.93,4.93,0,0,1,2.63-1.19,28.32,28.32,0,0,1,5.14-.36h.56V17.19a4.43,4.43,0,0,0-.78-2.9,3.16,3.16,0,0,0-2.49-.91,8.15,8.15,0,0,0-2.43.35,10.26,10.26,0,0,0-2.31,1.14l-.56-1a8.41,8.41,0,0,1,2.4-1.19,8.85,8.85,0,0,1,2.73-.43Q116.47,12.24,116.47,17.25Zm-3.37,7.29a4.3,4.3,0,0,0,1.59-1.66,5,5,0,0,0,.57-2.41v-1h-.53a31.31,31.31,0,0,0-4.48.24,4.16,4.16,0,0,0-2.16.81,2.2,2.2,0,0,0-.61,1.69,2.66,2.66,0,0,0,1,2.12,3.54,3.54,0,0,0,2.41.82A4.32,4.32,0,0,0,113.1,24.54Z" transform="translate(-1.34 -0.93)"/><path class="cls-1" d="M132.51,6.38V26.12h-1.18V23.38a4.64,4.64,0,0,1-1.83,2.18,5.39,5.39,0,0,1-2.93.76,5.69,5.69,0,0,1-3.16-.88A5.79,5.79,0,0,1,121.28,23a8.79,8.79,0,0,1-.76-3.74,8.41,8.41,0,0,1,.76-3.67,5.71,5.71,0,0,1,2.13-2.44,5.85,5.85,0,0,1,3.16-.86,5.48,5.48,0,0,1,2.93.75,4.69,4.69,0,0,1,1.83,2.16V6.38ZM130.1,23.63a6.85,6.85,0,0,0,1.23-4.37,6.81,6.81,0,0,0-1.23-4.34,4.24,4.24,0,0,0-3.5-1.54,4.36,4.36,0,0,0-3.54,1.53,6.53,6.53,0,0,0-1.28,4.3,6.82,6.82,0,0,0,1.28,4.38,4.75,4.75,0,0,0,7,0Z" transform="translate(-1.34 -0.93)"/><path class="cls-1" d="M148.44,19.46H137.91a6.33,6.33,0,0,0,1.39,4.23,4.83,4.83,0,0,0,3.79,1.48,6.64,6.64,0,0,0,2.37-.42,7.74,7.74,0,0,0,2.2-1.34l.56,1A6.31,6.31,0,0,1,146,25.8a7.88,7.88,0,0,1-2.83.52,6.23,6.23,0,0,1-4.78-1.88,7.27,7.27,0,0,1-1.75-5.15,8.28,8.28,0,0,1,.79-3.69,5.86,5.86,0,0,1,2.21-2.48,6.08,6.08,0,0,1,3.28-.88,5.09,5.09,0,0,1,4.08,1.7,7.13,7.13,0,0,1,1.46,4.79Zm-9-4.8a5.88,5.88,0,0,0-1.53,3.71h9.38a5.73,5.73,0,0,0-1.2-3.74,4.07,4.07,0,0,0-3.22-1.3A4.56,4.56,0,0,0,139.47,14.66Z" transform="translate(-1.34 -0.93)"/><path class="cls-1" d="M83.09,36h1.15V55.72H83.09Z" transform="translate(-1.34 -0.93)"/><path class="cls-1" d="M100.36,47v8.73H99.19V47.1A4.7,4.7,0,0,0,98.32,44a3.54,3.54,0,0,0-2.8-1,4.61,4.61,0,0,0-3.46,1.33,4.81,4.81,0,0,0-1.3,3.54v7.89H89.58V42.17h1.15v2.44a4.44,4.44,0,0,1,1.86-2.06,5.58,5.58,0,0,1,2.85-.71C98.72,41.84,100.36,43.55,100.36,47Z" transform="translate(-1.34 -0.93)"/><path class="cls-1" d="M107.08,42.17h4.09v1h-4.09V55.72h-1.17V43.18h-2.72v-1h2.72V41.3a5.47,5.47,0,0,1,1.22-3.86A5.22,5.22,0,0,1,110.81,36l.87,0,.14,1-1.29.09a3.39,3.39,0,0,0-2.61,1.17,4.89,4.89,0,0,0-.84,3.08Z" transform="translate(-1.34 -0.93)"/><path class="cls-1" d="M115.9,55.05a5.75,5.75,0,0,1-2.12-2.46,8.57,8.57,0,0,1-.76-3.73,8.42,8.42,0,0,1,.76-3.69,5.72,5.72,0,0,1,2.12-2.47,6.25,6.25,0,0,1,6.33,0,5.67,5.67,0,0,1,2.13,2.47,8.56,8.56,0,0,1,.76,3.69,8.71,8.71,0,0,1-.76,3.73,5.7,5.7,0,0,1-2.13,2.46,6.19,6.19,0,0,1-6.33,0Zm6.71-1.8a6.79,6.79,0,0,0,1.25-4.39,6.62,6.62,0,0,0-1.28-4.32,4.74,4.74,0,0,0-7,0,6.62,6.62,0,0,0-1.27,4.32,6.79,6.79,0,0,0,1.25,4.39A4.29,4.29,0,0,0,119,54.77,4.36,4.36,0,0,0,122.61,53.25Z" transform="translate(-1.34 -0.93)"/><path class="cls-1" d="M135.76,42.9l-1,.11a4.34,4.34,0,0,0-4.39,4.59v8.12h-1.18V42.17h1.18v2.38a4.35,4.35,0,0,1,1.78-1.89,7.06,7.06,0,0,1,2.84-.77l.59,0Z" transform="translate(-1.34 -0.93)"/><path class="cls-1" d="M157.29,47v8.73h-1.18V47.1a5.1,5.1,0,0,0-.78-3.15,3,3,0,0,0-2.49-1,4,4,0,0,0-3.13,1.31,5.21,5.21,0,0,0-1.16,3.56v7.89h-1.17V47.1a5.09,5.09,0,0,0-.79-3.15,3,3,0,0,0-2.49-1A3.93,3.93,0,0,0,141,44.27a5.16,5.16,0,0,0-1.16,3.56v7.89h-1.18V42.17h1.15v2.38a4.26,4.26,0,0,1,1.66-2,4.77,4.77,0,0,1,2.62-.7q3.26,0,4.17,2.71a4.58,4.58,0,0,1,1.81-2,5.31,5.31,0,0,1,2.76-.72C155.79,41.84,157.29,43.55,157.29,47Z" transform="translate(-1.34 -0.93)"/><path class="cls-1" d="M172.16,46.85v8.87H171V53.23a4.53,4.53,0,0,1-1.78,2,5,5,0,0,1-2.64.7,5.35,5.35,0,0,1-2.37-.53,4.39,4.39,0,0,1-1.71-1.47,3.62,3.62,0,0,1-.63-2.06,3.24,3.24,0,0,1,.8-2.34,4.93,4.93,0,0,1,2.63-1.19,28.32,28.32,0,0,1,5.14-.36H171V46.79a4.43,4.43,0,0,0-.78-2.9,3.15,3.15,0,0,0-2.49-.91,8.15,8.15,0,0,0-2.43.35,10.26,10.26,0,0,0-2.31,1.14l-.56-1a8.55,8.55,0,0,1,2.4-1.19,8.85,8.85,0,0,1,2.73-.43Q172.16,41.84,172.16,46.85Zm-3.36,7.29a4.28,4.28,0,0,0,1.58-1.66,5,5,0,0,0,.57-2.41v-1h-.53a31.31,31.31,0,0,0-4.48.24,4.16,4.16,0,0,0-2.16.81,2.2,2.2,0,0,0-.61,1.69,2.7,2.7,0,0,0,1,2.12,3.54,3.54,0,0,0,2.41.82A4.38,4.38,0,0,0,168.8,54.14Z" transform="translate(-1.34 -0.93)"/><path class="cls-1" d="M183.38,54.72l0,1.09a9.89,9.89,0,0,1-1.26.08,4.19,4.19,0,0,1-3.24-1.22,4.62,4.62,0,0,1-1.13-3.26V43.18H175v-1h2.72V37.94h1.18v4.23H183v1h-4.08v8a3.94,3.94,0,0,0,.84,2.72,3.22,3.22,0,0,0,2.49.92A8.27,8.27,0,0,0,183.38,54.72Z" transform="translate(-1.34 -0.93)"/><path class="cls-1" d="M187.7,36.63v1.76h-1.8V36.63Zm-1.49,5.54h1.18V55.72h-1.18Z" transform="translate(-1.34 -0.93)"/><path class="cls-1" d="M194.39,55.05a5.7,5.7,0,0,1-2.13-2.46,8.57,8.57,0,0,1-.76-3.73,8.42,8.42,0,0,1,.76-3.69,5.67,5.67,0,0,1,2.13-2.47,6.24,6.24,0,0,1,6.32,0,5.67,5.67,0,0,1,2.13,2.47,8.42,8.42,0,0,1,.76,3.69,8.57,8.57,0,0,1-.76,3.73,5.63,5.63,0,0,1-5.29,3.33A5.77,5.77,0,0,1,194.39,55.05Zm6.7-1.8a6.79,6.79,0,0,0,1.25-4.39,6.62,6.62,0,0,0-1.28-4.32,4.73,4.73,0,0,0-7,0,6.62,6.62,0,0,0-1.28,4.32A6.79,6.79,0,0,0,194,53.25a4.29,4.29,0,0,0,3.51,1.52A4.36,4.36,0,0,0,201.09,53.25Z" transform="translate(-1.34 -0.93)"/><path class="cls-1" d="M218.5,47v8.73h-1.18V47.1a4.7,4.7,0,0,0-.87-3.15,3.54,3.54,0,0,0-2.8-1,4.61,4.61,0,0,0-3.46,1.33,4.85,4.85,0,0,0-1.3,3.54v7.89h-1.18V42.17h1.15v2.44a4.44,4.44,0,0,1,1.86-2.06,5.61,5.61,0,0,1,2.85-.71C216.85,41.84,218.5,43.55,218.5,47Z" transform="translate(-1.34 -0.93)"/><path class="cls-2" d="M99.19,65.58V85.32H96.47L85.89,71.55V85.32H82.53V65.58h2.69L95.8,79.33V65.58Z" transform="translate(-1.34 -0.93)"/><path class="cls-2" d="M116,79.11h-9.33a4.33,4.33,0,0,0,1.15,2.83,4,4,0,0,0,2.8.92,6.63,6.63,0,0,0,4.15-1.46l1,2.41a7.56,7.56,0,0,1-2.4,1.26,9.13,9.13,0,0,1-2.9.48,7.23,7.23,0,0,1-5.3-1.91,6.93,6.93,0,0,1-2-5.2,8,8,0,0,1,.84-3.73,6.13,6.13,0,0,1,2.37-2.52,6.65,6.65,0,0,1,3.46-.89,5.68,5.68,0,0,1,4.46,1.82,7.22,7.22,0,0,1,1.64,5Zm-8.27-4.45a4.38,4.38,0,0,0-1.06,2.57H113a3.91,3.91,0,0,0-.84-2.59,2.75,2.75,0,0,0-2.18-.88A3,3,0,0,0,107.72,74.66Z" transform="translate(-1.34 -0.93)"/><path class="cls-2" d="M127.78,82.83l-.17,2.61c-.56,0-1.07.08-1.54.08a5.93,5.93,0,0,1-4.26-1.33,5.3,5.3,0,0,1-1.37-4v-6h-2.63V71.63h2.63V67.54h3.5v4.09h3.61v2.63h-3.61v5.91c0,1.83.85,2.75,2.55,2.75A9.77,9.77,0,0,0,127.78,82.83Z" transform="translate(-1.34 -0.93)"/><path class="cls-2" d="M152.78,71.63,147.4,85.32h-3.05L141,76.5l-3.27,8.82h-3l-5.4-13.69h3.58l3.5,9.52,3.5-9.52h2.52l3.5,9.58,3.47-9.58Z" transform="translate(-1.34 -0.93)"/><path class="cls-2" d="M158,84.68a6.06,6.06,0,0,1-2.45-2.49,8.63,8.63,0,0,1,0-7.55A6.1,6.1,0,0,1,158,72.16a8.3,8.3,0,0,1,7.36,0,6,6,0,0,1,2.44,2.48,8.81,8.81,0,0,1,0,7.55,5.92,5.92,0,0,1-2.44,2.49,8.22,8.22,0,0,1-7.36,0Zm6.26-3a6.54,6.54,0,0,0,0-6.59A3.09,3.09,0,0,0,161.71,74a3.13,3.13,0,0,0-2.59,1.14,6.45,6.45,0,0,0,0,6.59,3.09,3.09,0,0,0,2.57,1.12A3.14,3.14,0,0,0,164.29,81.71Z" transform="translate(-1.34 -0.93)"/><path class="cls-2" d="M181.42,74.21l-2,.19c-2.31.25-3.47,1.42-3.47,3.53v7.39h-3.5V71.63h3.33V74c.71-1.64,2.17-2.54,4.4-2.69l1.06-.08Z" transform="translate(-1.34 -0.93)"/><path class="cls-2" d="M193.35,85.32l-5.88-6.24v6.24H184V65.58h3.5v12l5.52-6h4.26l-6.17,6.55,6.61,7.11Z" transform="translate(-1.34 -0.93)"/><circle class="cls-3" cx="9.6" cy="11.08" r="3.48"/><circle class="cls-3" cx="9.6" cy="54.37" r="3.48"/><circle class="cls-4" cx="58.96" cy="49.56" r="3.48"/><circle class="cls-4" cx="60.28" cy="17.74" r="3.48"/><path class="cls-5" d="M30.11,2.08a31.6,31.6,0,0,0,0,62.7" transform="translate(-1.34 -0.93)"/><path class="cls-6" d="M38.11,64.78a31.6,31.6,0,0,0,0-62.7" transform="translate(-1.34 -0.93)"/><circle class="cls-3" cx="44.55" cy="52.82" r="2.57"/><circle class="cls-4" cx="29.87" cy="9.31" r="2.69"/><path class="cls-7" d="M11,36.37a23.34,23.34,0,0,0,46.3,0" transform="translate(-1.34 -0.93)"/><path class="cls-8" d="M57.25,30.47a23.33,23.33,0,0,0-46.29,0" transform="translate(-1.34 -0.93)"/><circle class="cls-3" cx="47.42" cy="34" r="2"/><circle class="cls-4" cx="22.16" cy="22.32" r="2"/><path class="cls-9" d="M25.05,45.48a14.84,14.84,0,0,0,20.69-21" transform="translate(-1.34 -0.93)"/><path class="cls-10" d="M43.07,21.89a14.84,14.84,0,0,0-20.69,21" transform="translate(-1.34 -0.93)"/></svg>